G04 #@! TF.GenerationSoftware,KiCad,Pcbnew,(2017-03-02 revision 906ee77db)-makepkg*
G04 #@! TF.CreationDate,2017-03-05T17:57:52+01:00*
G04 #@! TF.ProjectId,FTController,4654436F6E74726F6C6C65722E6B6963,1.0*
G04 #@! TF.FileFunction,Copper,L1,Top,Signal*
G04 #@! TF.FilePolarity,Positive*
%FSLAX46Y46*%
G04 Gerber Fmt 4.6, Leading zero omitted, Abs format (unit mm)*
G04 Created by KiCad (PCBNEW (2017-03-02 revision 906ee77db)-makepkg) date 03/05/17 17:57:52*
%MOMM*%
%LPD*%
G01*
G04 APERTURE LIST*
%ADD10C,0.100000*%
%ADD11C,1.998980*%
%ADD12C,1.501140*%
%ADD13R,1.250000X1.500000*%
%ADD14R,1.500000X1.250000*%
%ADD15R,1.998980X1.998980*%
%ADD16C,2.000000*%
%ADD17R,2.000000X2.000000*%
%ADD18R,1.727200X1.727200*%
%ADD19O,1.727200X1.727200*%
%ADD20R,1.800860X0.800100*%
%ADD21R,0.800100X1.800860*%
%ADD22O,2.300000X1.600000*%
%ADD23C,1.300000*%
%ADD24R,1.300000X1.300000*%
%ADD25O,2.032000X2.032000*%
%ADD26R,2.032000X2.032000*%
%ADD27O,1.501140X0.899160*%
%ADD28C,2.499360*%
%ADD29R,1.300000X1.500000*%
%ADD30R,1.500000X1.300000*%
%ADD31R,1.600000X0.550000*%
%ADD32R,0.550000X1.600000*%
%ADD33C,2.500000*%
%ADD34C,0.889000*%
%ADD35C,0.600000*%
%ADD36C,0.254000*%
%ADD37C,0.500000*%
%ADD38C,0.300000*%
G04 APERTURE END LIST*
D10*
D11*
X227406200Y-129489200D03*
X220903800Y-129489200D03*
X227406200Y-125089920D03*
X220903800Y-125089920D03*
D12*
X216405460Y-123489720D03*
X231904540Y-123489720D03*
X216405460Y-110190280D03*
X231904540Y-110190280D03*
D11*
X226654360Y-107088940D03*
X221655640Y-107088940D03*
X224155000Y-107088940D03*
X233906060Y-119339360D03*
X233906060Y-116840000D03*
X233906060Y-114340640D03*
D13*
X149860000Y-105370000D03*
X149860000Y-102870000D03*
X186055000Y-116245000D03*
X186055000Y-118745000D03*
D14*
X186095000Y-121285000D03*
X188595000Y-121285000D03*
D11*
X161290000Y-102870000D03*
D15*
X157480000Y-102870000D03*
D16*
X240665000Y-123825000D03*
D17*
X240665000Y-121285000D03*
D18*
X210820000Y-138430000D03*
D19*
X213360000Y-138430000D03*
X210820000Y-140970000D03*
X213360000Y-140970000D03*
X210820000Y-143510000D03*
X213360000Y-143510000D03*
D20*
X204066140Y-92710000D03*
X201063860Y-93660000D03*
X201063860Y-91760000D03*
D21*
X206055000Y-95422760D03*
X204155000Y-95422760D03*
X205105000Y-98425040D03*
X208915000Y-98425040D03*
X207965000Y-95422760D03*
X209865000Y-95422760D03*
X204155000Y-103967140D03*
X206055000Y-103967140D03*
X205105000Y-100964860D03*
X208915000Y-100964860D03*
X209865000Y-103967140D03*
X207965000Y-103967140D03*
D20*
X201063860Y-105730000D03*
X201063860Y-107630000D03*
X204066140Y-106680000D03*
X182313140Y-92813500D03*
X179310860Y-93763500D03*
X179310860Y-91863500D03*
D21*
X183583000Y-98528440D03*
X182633000Y-95526160D03*
X184533000Y-95526160D03*
X188343000Y-95526160D03*
X186443000Y-95526160D03*
X187393000Y-98528440D03*
X182633000Y-104071140D03*
X184533000Y-104071140D03*
X183583000Y-101068860D03*
X186443000Y-104071140D03*
X188343000Y-104071140D03*
X187393000Y-101068860D03*
D20*
X182313140Y-105917000D03*
X179310860Y-106867000D03*
X179310860Y-104967000D03*
D22*
X227965000Y-93980000D03*
X227965000Y-96520000D03*
X227965000Y-99060000D03*
X235585000Y-99060000D03*
X235585000Y-96520000D03*
X235585000Y-93980000D03*
D11*
X175486060Y-114340640D03*
X175486060Y-116840000D03*
X175486060Y-119339360D03*
X165735000Y-107088940D03*
X163235640Y-107088940D03*
X168234360Y-107088940D03*
D12*
X173484540Y-110190280D03*
X157985460Y-110190280D03*
X173484540Y-123489720D03*
X157985460Y-123489720D03*
D11*
X162483800Y-125089920D03*
X168986200Y-125089920D03*
X162483800Y-129489200D03*
X168986200Y-129489200D03*
D12*
X208280000Y-114300060D03*
X208280000Y-119181940D03*
D23*
X166370000Y-97790000D03*
D24*
X166370000Y-95290000D03*
D23*
X148590000Y-110490000D03*
D24*
X151090000Y-110490000D03*
D25*
X198120000Y-111760000D03*
D26*
X195580000Y-111760000D03*
X219710000Y-93980000D03*
D25*
X219710000Y-96520000D03*
D26*
X241300000Y-104267000D03*
D25*
X238760000Y-104267000D03*
D26*
X201295000Y-98425000D03*
D25*
X201295000Y-100965000D03*
X212533000Y-98425000D03*
D26*
X212533000Y-100965000D03*
D25*
X179773000Y-101068500D03*
D26*
X179773000Y-98528500D03*
X191770000Y-98552000D03*
D25*
X191770000Y-101092000D03*
D11*
X149860000Y-120015000D03*
X149860000Y-130175000D03*
X153035000Y-120015000D03*
X153035000Y-130175000D03*
X190500000Y-111760000D03*
X180340000Y-111760000D03*
D27*
X153670000Y-104140000D03*
X153670000Y-102870000D03*
X153670000Y-105410000D03*
D18*
X186055000Y-143510000D03*
D19*
X186055000Y-146050000D03*
X183515000Y-143510000D03*
X183515000Y-146050000D03*
X180975000Y-143510000D03*
X180975000Y-146050000D03*
X178435000Y-143510000D03*
X178435000Y-146050000D03*
X175895000Y-143510000D03*
X175895000Y-146050000D03*
D26*
X194310000Y-146050000D03*
D25*
X194310000Y-143510000D03*
D28*
X164139880Y-144739640D03*
X167640000Y-142240280D03*
X167640000Y-147239000D03*
D29*
X198120000Y-92075000D03*
X198120000Y-94775000D03*
D30*
X206295000Y-92690000D03*
X208995000Y-92690000D03*
X208995000Y-106045000D03*
X206295000Y-106045000D03*
D29*
X198120000Y-108030000D03*
X198120000Y-105330000D03*
X175815000Y-94695000D03*
X175815000Y-91995000D03*
D30*
X187493000Y-92178500D03*
X184793000Y-92178500D03*
X184753000Y-106168000D03*
X187453000Y-106168000D03*
D29*
X176530000Y-107475000D03*
X176530000Y-104775000D03*
X196850000Y-132080000D03*
X196850000Y-134780000D03*
D31*
X201100000Y-124720000D03*
X201100000Y-123920000D03*
X201100000Y-123120000D03*
X201100000Y-122320000D03*
X201100000Y-121520000D03*
X201100000Y-120720000D03*
X201100000Y-119920000D03*
X201100000Y-119120000D03*
D32*
X199650000Y-117670000D03*
X198850000Y-117670000D03*
X198050000Y-117670000D03*
X197250000Y-117670000D03*
X196450000Y-117670000D03*
X195650000Y-117670000D03*
X194850000Y-117670000D03*
X194050000Y-117670000D03*
D31*
X192600000Y-119120000D03*
X192600000Y-119920000D03*
X192600000Y-120720000D03*
X192600000Y-121520000D03*
X192600000Y-122320000D03*
X192600000Y-123120000D03*
X192600000Y-123920000D03*
X192600000Y-124720000D03*
D32*
X194050000Y-126170000D03*
X194850000Y-126170000D03*
X195650000Y-126170000D03*
X196450000Y-126170000D03*
X197250000Y-126170000D03*
X198050000Y-126170000D03*
X198850000Y-126170000D03*
X199650000Y-126170000D03*
D24*
X233640000Y-147360000D03*
D23*
X233640000Y-144860000D03*
D18*
X224790000Y-146685000D03*
D19*
X227330000Y-146685000D03*
X224790000Y-144145000D03*
X227330000Y-144145000D03*
X224790000Y-141605000D03*
X227330000Y-141605000D03*
X224790000Y-139065000D03*
X227330000Y-139065000D03*
D26*
X220980000Y-140970000D03*
D25*
X220980000Y-143510000D03*
D26*
X177726000Y-124426000D03*
D25*
X177726000Y-126966000D03*
X182018000Y-126966000D03*
D26*
X182018000Y-124426000D03*
D24*
X166370000Y-103465000D03*
D23*
X166370000Y-100965000D03*
D33*
X159980000Y-94488000D03*
X154980000Y-94488000D03*
D11*
X171450000Y-95250000D03*
D15*
X171450000Y-99060000D03*
D24*
X171370000Y-91440000D03*
D23*
X166370000Y-91440000D03*
D34*
X201796600Y-94761100D03*
X207506600Y-107649700D03*
X207239900Y-91243200D03*
X214237300Y-121884000D03*
X210972700Y-121899400D03*
X200092200Y-103801000D03*
X196418700Y-109107400D03*
X198050000Y-119179300D03*
X196059500Y-119596700D03*
X193054800Y-117675800D03*
X190989900Y-119149900D03*
X196571800Y-121321400D03*
X199054500Y-122331500D03*
X193479600Y-106812800D03*
X193047600Y-110765490D03*
X196282900Y-124622700D03*
X198205100Y-131852000D03*
X206286100Y-97201800D03*
X197250000Y-116102500D03*
X198083400Y-130065600D03*
X198735000Y-129046200D03*
D35*
X154980000Y-94488000D02*
X158282000Y-97790000D01*
X158282000Y-97790000D02*
X166370000Y-97790000D01*
D36*
X201100000Y-123120000D02*
X199918700Y-123120000D01*
X152096300Y-104140000D02*
X150866300Y-105370000D01*
X153670000Y-104140000D02*
X152096300Y-104140000D01*
X149860000Y-105370000D02*
X150866300Y-105370000D01*
X149860000Y-105370000D02*
X148853700Y-105370000D01*
X201100000Y-121520000D02*
X199918700Y-121520000D01*
X212115100Y-144025800D02*
X212115100Y-143510000D01*
X211375800Y-144765100D02*
X212115100Y-144025800D01*
X196962400Y-144765100D02*
X211375800Y-144765100D01*
X195707300Y-143510000D02*
X196962400Y-144765100D01*
X194310000Y-143510000D02*
X195707300Y-143510000D01*
X213360000Y-143510000D02*
X212115100Y-143510000D01*
X148590000Y-105633700D02*
X148590000Y-110490000D01*
X148853700Y-105370000D02*
X148590000Y-105633700D01*
X148590000Y-115570000D02*
X153035000Y-120015000D01*
X148590000Y-110490000D02*
X148590000Y-115570000D01*
X184454300Y-119339400D02*
X185048700Y-118745000D01*
X175486100Y-119339400D02*
X184454300Y-119339400D01*
X186055000Y-118745000D02*
X185048700Y-118745000D01*
X186055000Y-118745000D02*
X186055000Y-119876300D01*
X186095000Y-119916300D02*
X186095000Y-121285000D01*
X186055000Y-119876300D02*
X186095000Y-119916300D01*
X191390000Y-122291300D02*
X191418700Y-122320000D01*
X186095000Y-122291300D02*
X191390000Y-122291300D01*
X186095000Y-121285000D02*
X186095000Y-122291300D01*
X192600000Y-122320000D02*
X191418700Y-122320000D01*
X177829300Y-93563600D02*
X178029200Y-93763500D01*
X170596400Y-93563600D02*
X177829300Y-93563600D01*
X166370000Y-97790000D02*
X170596400Y-93563600D01*
X179310900Y-93763500D02*
X178029200Y-93763500D01*
X192600000Y-122320000D02*
X193781300Y-122320000D01*
X179310900Y-106867000D02*
X179310900Y-107648400D01*
X199918700Y-121520000D02*
X199918700Y-123120000D01*
X197898300Y-122320000D02*
X193781300Y-122320000D01*
X198712600Y-121505700D02*
X197898300Y-122320000D01*
X199904400Y-121505700D02*
X198712600Y-121505700D01*
X199918700Y-121520000D02*
X199904400Y-121505700D01*
X180340000Y-108677500D02*
X179310900Y-107648400D01*
X180340000Y-111760000D02*
X180340000Y-108677500D01*
X240665000Y-121285000D02*
X239283700Y-121285000D01*
X235287000Y-113710800D02*
X235287000Y-119339400D01*
X233513000Y-111936800D02*
X235287000Y-113710800D01*
X231502300Y-111936800D02*
X233513000Y-111936800D01*
X226654400Y-107088900D02*
X231502300Y-111936800D01*
X233906100Y-119339400D02*
X235287000Y-119339400D01*
X237338100Y-119339400D02*
X239283700Y-121285000D01*
X235287000Y-119339400D02*
X237338100Y-119339400D01*
X201063900Y-93660000D02*
X201063900Y-94441400D01*
X201476900Y-94441400D02*
X201063900Y-94441400D01*
X201796600Y-94761100D02*
X201476900Y-94441400D01*
X197088600Y-99469100D02*
X201796600Y-94761100D01*
X197088600Y-106287200D02*
X197088600Y-99469100D01*
X197700000Y-106898600D02*
X197088600Y-106287200D01*
X199050800Y-106898600D02*
X197700000Y-106898600D01*
X199782200Y-107630000D02*
X199050800Y-106898600D01*
X201063900Y-107630000D02*
X199782200Y-107630000D01*
X186055000Y-143510000D02*
X184810100Y-143510000D01*
X180975000Y-143510000D02*
X180975000Y-142265100D01*
X184032000Y-142265100D02*
X180975000Y-142265100D01*
X184810100Y-143043200D02*
X184032000Y-142265100D01*
X184810100Y-143510000D02*
X184810100Y-143043200D01*
X180950200Y-142240300D02*
X180975000Y-142265100D01*
X167640000Y-142240300D02*
X180950200Y-142240300D01*
X185551900Y-116245000D02*
X185048700Y-116245000D01*
X185551900Y-116245000D02*
X186055000Y-116245000D01*
X153670000Y-105410000D02*
X153670000Y-106240900D01*
X154518000Y-107088900D02*
X153670000Y-106240900D01*
X152121300Y-109485600D02*
X152121300Y-110490000D01*
X154518000Y-107088900D02*
X152121300Y-109485600D01*
X151090000Y-110490000D02*
X152121300Y-110490000D01*
X200636500Y-120720000D02*
X199918700Y-120720000D01*
X177390500Y-116245000D02*
X185048700Y-116245000D01*
X175486100Y-114340600D02*
X177390500Y-116245000D01*
X163235600Y-107088900D02*
X154518000Y-107088900D01*
X170487300Y-114340600D02*
X175486100Y-114340600D01*
X163235600Y-107088900D02*
X170487300Y-114340600D01*
X193190700Y-119920000D02*
X193781300Y-119920000D01*
X199694300Y-120495600D02*
X199918700Y-120720000D01*
X194356900Y-120495600D02*
X199694300Y-120495600D01*
X193781300Y-119920000D02*
X194356900Y-120495600D01*
X227665000Y-113098300D02*
X227665000Y-114340600D01*
X221655600Y-107088900D02*
X227665000Y-113098300D01*
X227665000Y-114340600D02*
X233906100Y-114340600D01*
X200636500Y-120720000D02*
X201100000Y-120720000D01*
X201100000Y-120720000D02*
X202281300Y-120720000D01*
X201100000Y-122320000D02*
X202281300Y-122320000D01*
X227665000Y-114340600D02*
X220903800Y-121101800D01*
X220903800Y-121101800D02*
X220903800Y-125089900D01*
X220837400Y-121035400D02*
X220903800Y-121101800D01*
X202281300Y-121035400D02*
X220837400Y-121035400D01*
X202281300Y-120720000D02*
X202281300Y-121035400D01*
X202281300Y-121035400D02*
X202281300Y-122320000D01*
X213360000Y-138430000D02*
X213360000Y-137185100D01*
X193190700Y-119920000D02*
X192600000Y-119920000D01*
X187061300Y-116496600D02*
X187061300Y-116245000D01*
X190574300Y-120009600D02*
X187061300Y-116496600D01*
X191329100Y-120009600D02*
X190574300Y-120009600D01*
X191418700Y-119920000D02*
X191329100Y-120009600D01*
X192600000Y-119920000D02*
X191418700Y-119920000D01*
X186055000Y-116245000D02*
X187061300Y-116245000D01*
X196850000Y-134780000D02*
X197881300Y-134780000D01*
X212271500Y-134780000D02*
X197881300Y-134780000D01*
X212271500Y-133722200D02*
X212271500Y-134780000D01*
X220903800Y-125089900D02*
X212271500Y-133722200D01*
X212271500Y-136096600D02*
X213360000Y-137185100D01*
X212271500Y-134780000D02*
X212271500Y-136096600D01*
X187956200Y-144805100D02*
X196850000Y-135911300D01*
X186055000Y-144805100D02*
X187956200Y-144805100D01*
X186055000Y-146050000D02*
X186055000Y-144805100D01*
X196850000Y-134780000D02*
X196850000Y-135911300D01*
X189961300Y-121520000D02*
X189726300Y-121285000D01*
X192600000Y-121520000D02*
X189961300Y-121520000D01*
X188595000Y-121285000D02*
X189726300Y-121285000D01*
X206480000Y-119920000D02*
X201100000Y-119920000D01*
X207219000Y-119182000D02*
X206480000Y-119920000D01*
X208280000Y-119182000D02*
X207219000Y-119182000D01*
X208280000Y-119181900D02*
X208280000Y-119182000D01*
X203460000Y-119120000D02*
X208280000Y-114300000D01*
X201100000Y-119120000D02*
X203460000Y-119120000D01*
X208280000Y-114300100D02*
X208280000Y-114300000D01*
D35*
X214099001Y-103331001D02*
X215035000Y-104267000D01*
X215035000Y-104267000D02*
X238760000Y-104267000D01*
X207506600Y-107649700D02*
X207506600Y-107256600D01*
X207506600Y-107256600D02*
X206295000Y-106045000D01*
X207239900Y-91243200D02*
X209938202Y-91243200D01*
X209938202Y-91243200D02*
X214099001Y-95403999D01*
X214099001Y-95403999D02*
X214099001Y-103331001D01*
X214099001Y-103331001D02*
X209780302Y-107649700D01*
X209780302Y-107649700D02*
X208135217Y-107649700D01*
X208135217Y-107649700D02*
X207506600Y-107649700D01*
X176691000Y-99060000D02*
X176691000Y-100984700D01*
X176691000Y-100984700D02*
X179723249Y-104016949D01*
X179723249Y-104016949D02*
X180651291Y-104016949D01*
X180651291Y-104016949D02*
X180862709Y-104228367D01*
X180862709Y-104228367D02*
X180862709Y-106757051D01*
X180862709Y-106757051D02*
X181523658Y-107418000D01*
X181523658Y-107418000D02*
X183403000Y-107418000D01*
X184653000Y-106168000D02*
X184753000Y-106168000D01*
X183403000Y-107418000D02*
X184653000Y-106168000D01*
X171450000Y-99060000D02*
X176691000Y-99060000D01*
X184533000Y-104071140D02*
X184533000Y-105948000D01*
X184533000Y-105948000D02*
X184753000Y-106168000D01*
X206055000Y-103967140D02*
X206055000Y-105805000D01*
X206055000Y-105805000D02*
X206295000Y-106045000D01*
X206295000Y-92690000D02*
X206295000Y-91440000D01*
X206295000Y-91440000D02*
X206332200Y-91402800D01*
X206332200Y-91402800D02*
X206357000Y-91402800D01*
X206295000Y-92690000D02*
X204155000Y-94830000D01*
X204155000Y-94830000D02*
X204155000Y-95422760D01*
X206295000Y-92690000D02*
X206295000Y-91514800D01*
X206295000Y-91514800D02*
X206270000Y-91489800D01*
X184793000Y-92178500D02*
X184893000Y-92178500D01*
X184893000Y-92178500D02*
X186296501Y-90774999D01*
X186296501Y-90774999D02*
X205555199Y-90774999D01*
X205555199Y-90774999D02*
X206270000Y-91489800D01*
X182633000Y-95526160D02*
X182633000Y-95025780D01*
X182633000Y-95025780D02*
X184793000Y-92865780D01*
X184793000Y-92865780D02*
X184793000Y-92178500D01*
X176691000Y-99060000D02*
X176691000Y-98673842D01*
X183443000Y-90928500D02*
X184693000Y-92178500D01*
X176691000Y-98673842D02*
X180862709Y-94502133D01*
X180862709Y-91973449D02*
X181907658Y-90928500D01*
X180862709Y-94502133D02*
X180862709Y-91973449D01*
X184693000Y-92178500D02*
X184793000Y-92178500D01*
X181907658Y-90928500D02*
X183443000Y-90928500D01*
X166370000Y-103465000D02*
X167620000Y-103465000D01*
X167620000Y-103465000D02*
X171450000Y-99635000D01*
X171450000Y-99635000D02*
X171450000Y-99060000D01*
D37*
X204155000Y-94930000D02*
X204155000Y-94830000D01*
D38*
X206055000Y-103967000D02*
X206055000Y-103967100D01*
X206055000Y-105705000D02*
X206395000Y-106045000D01*
D37*
X182633000Y-95526200D02*
X182633000Y-95025800D01*
X206055000Y-103967000D02*
X206055000Y-103967100D01*
D38*
X206395000Y-92690000D02*
X206295000Y-92690000D01*
X206295000Y-92690000D02*
X206270000Y-92690000D01*
X204155000Y-94805000D02*
X204155000Y-94930000D01*
X206270000Y-92690000D02*
X204155000Y-94805000D01*
X184693000Y-104231000D02*
X184613000Y-104151000D01*
X184613000Y-104151000D02*
X184573000Y-104111000D01*
D37*
X184613000Y-104151000D02*
X184573000Y-104111000D01*
X184573000Y-104111000D02*
X184553000Y-104091000D01*
D38*
X184573000Y-104111000D02*
X184553000Y-104091000D01*
X184553000Y-104091000D02*
X184543000Y-104081000D01*
D37*
X184553000Y-104091000D02*
X184543000Y-104081000D01*
X184543000Y-104081000D02*
X184538000Y-104076000D01*
D38*
X184543000Y-104081000D02*
X184538000Y-104076000D01*
X184538000Y-104076000D02*
X184535500Y-104073500D01*
D37*
X184538000Y-104076000D02*
X184535500Y-104073500D01*
X184535500Y-104073500D02*
X184534300Y-104072200D01*
D38*
X184535500Y-104073500D02*
X184534300Y-104072200D01*
X184534300Y-104072200D02*
X184533600Y-104071600D01*
D37*
X184534300Y-104072200D02*
X184533600Y-104071600D01*
X184533600Y-104071600D02*
X184533300Y-104071300D01*
D38*
X184533600Y-104071600D02*
X184533300Y-104071300D01*
D37*
X184533300Y-104071300D02*
X184533200Y-104071200D01*
X184533200Y-104071200D02*
X184533200Y-104071100D01*
D38*
X184533300Y-104071300D02*
X184533200Y-104071200D01*
X184533200Y-104071200D02*
X184533200Y-104071100D01*
D37*
X184533200Y-104071100D02*
X184533100Y-104071100D01*
D38*
X184533200Y-104071100D02*
X184533100Y-104071100D01*
X184533100Y-104071100D02*
X184533100Y-104071000D01*
X184533100Y-104071000D02*
X184533000Y-104071000D01*
D37*
X184533100Y-104071100D02*
X184533100Y-104071000D01*
X184533100Y-104071000D02*
X184533000Y-104071000D01*
X184533000Y-104071100D02*
X184533100Y-104071000D01*
X206270000Y-92690000D02*
X206270000Y-91489800D01*
X207239900Y-91402800D02*
X207239900Y-91243200D01*
X206357000Y-91402800D02*
X207239900Y-91402800D01*
X206270000Y-91489800D02*
X206357000Y-91402800D01*
D36*
X211401300Y-124720000D02*
X214237300Y-121884000D01*
X201100000Y-124720000D02*
X211401300Y-124720000D01*
X208952100Y-123920000D02*
X210972700Y-121899400D01*
X201100000Y-123920000D02*
X208952100Y-123920000D01*
X201097100Y-103801000D02*
X200092200Y-103801000D01*
X202404800Y-105108700D02*
X201097100Y-103801000D01*
X202404800Y-113733900D02*
X202404800Y-105108700D01*
X199650000Y-116488700D02*
X202404800Y-113733900D01*
X199650000Y-117670000D02*
X199650000Y-116488700D01*
X198850000Y-117670000D02*
X198850000Y-116488700D01*
X196953700Y-109642400D02*
X196418700Y-109107400D01*
X197990300Y-109642400D02*
X196953700Y-109642400D01*
X199524200Y-111176300D02*
X197990300Y-109642400D01*
X199524200Y-115814500D02*
X199524200Y-111176300D01*
X198850000Y-116488700D02*
X199524200Y-115814500D01*
X198050000Y-117670000D02*
X198050000Y-119179300D01*
X172676700Y-96802000D02*
X174783700Y-94695000D01*
X169060400Y-96802000D02*
X172676700Y-96802000D01*
X165281800Y-100580600D02*
X169060400Y-96802000D01*
X165281800Y-104365300D02*
X165281800Y-100580600D01*
X165489900Y-104573400D02*
X165281800Y-104365300D01*
X171131200Y-104573400D02*
X165489900Y-104573400D01*
X172901400Y-106343600D02*
X171131200Y-104573400D01*
X177344300Y-106343600D02*
X172901400Y-106343600D01*
X177561400Y-106560700D02*
X177344300Y-106343600D01*
X177561400Y-110976200D02*
X177561400Y-106560700D01*
X180390500Y-113805300D02*
X177561400Y-110976200D01*
X193766600Y-113805300D02*
X180390500Y-113805300D01*
X196450000Y-116488700D02*
X193766600Y-113805300D01*
X196450000Y-117670000D02*
X196450000Y-116488700D01*
X175815000Y-94695000D02*
X174783700Y-94695000D01*
X195650000Y-117670000D02*
X195650000Y-116488700D01*
X193779800Y-114618500D02*
X195650000Y-116488700D01*
X180484900Y-114618500D02*
X193779800Y-114618500D01*
X176530000Y-110663600D02*
X180484900Y-114618500D01*
X176530000Y-107475000D02*
X176530000Y-110663600D01*
X224790000Y-141605000D02*
X223545100Y-141605000D01*
X178435000Y-146050000D02*
X179679900Y-146050000D01*
X218363400Y-140970000D02*
X213360000Y-140970000D01*
X219760800Y-139572600D02*
X218363400Y-140970000D01*
X222213000Y-139572600D02*
X219760800Y-139572600D01*
X223545100Y-140904700D02*
X222213000Y-139572600D01*
X223545100Y-141605000D02*
X223545100Y-140904700D01*
X213360000Y-140970000D02*
X212115100Y-140970000D01*
X194850000Y-117670000D02*
X194850000Y-118851300D01*
X195595400Y-119596700D02*
X196059500Y-119596700D01*
X194850000Y-118851300D02*
X195595400Y-119596700D01*
X212115100Y-141436800D02*
X212115100Y-140970000D01*
X211311900Y-142240000D02*
X212115100Y-141436800D01*
X196990300Y-142240000D02*
X211311900Y-142240000D01*
X196829400Y-142079100D02*
X196990300Y-142240000D01*
X193312700Y-142079100D02*
X196829400Y-142079100D01*
X188096200Y-147295600D02*
X193312700Y-142079100D01*
X180409700Y-147295600D02*
X188096200Y-147295600D01*
X179679900Y-146565800D02*
X180409700Y-147295600D01*
X179679900Y-146050000D02*
X179679900Y-146565800D01*
X212064900Y-138896900D02*
X212064900Y-138430000D01*
X212842900Y-139674900D02*
X212064900Y-138896900D01*
X215782800Y-139674900D02*
X212842900Y-139674900D01*
X216414000Y-139043700D02*
X215782800Y-139674900D01*
X222963200Y-139043700D02*
X216414000Y-139043700D01*
X224254500Y-140335000D02*
X222963200Y-139043700D01*
X225281900Y-140335000D02*
X224254500Y-140335000D01*
X226085100Y-139531800D02*
X225281900Y-140335000D01*
X226085100Y-139065000D02*
X226085100Y-139531800D01*
X227330000Y-139065000D02*
X226085100Y-139065000D01*
X210820000Y-138430000D02*
X212064900Y-138430000D01*
X194044200Y-117675800D02*
X194050000Y-117670000D01*
X193054800Y-117675800D02*
X194044200Y-117675800D01*
X192600000Y-119120000D02*
X191418700Y-119120000D01*
X191388800Y-119149900D02*
X190989900Y-119149900D01*
X191418700Y-119120000D02*
X191388800Y-119149900D01*
X194382700Y-121321400D02*
X196571800Y-121321400D01*
X193781300Y-120720000D02*
X194382700Y-121321400D01*
X192600000Y-120720000D02*
X193781300Y-120720000D01*
X192600000Y-123120000D02*
X193781300Y-123120000D01*
X198266000Y-123120000D02*
X199054500Y-122331500D01*
X193781300Y-123120000D02*
X198266000Y-123120000D01*
X174069500Y-118256600D02*
X175486100Y-116840000D01*
X174069500Y-119927900D02*
X174069500Y-118256600D01*
X177170300Y-123028700D02*
X174069500Y-119927900D01*
X179223400Y-123028700D02*
X177170300Y-123028700D01*
X180620700Y-124426000D02*
X179223400Y-123028700D01*
X182018000Y-124426000D02*
X180620700Y-124426000D01*
X183921300Y-123920000D02*
X183415300Y-124426000D01*
X192600000Y-123920000D02*
X183921300Y-123920000D01*
X182018000Y-124426000D02*
X183415300Y-124426000D01*
X189172700Y-126966000D02*
X182018000Y-126966000D01*
X191418700Y-124720000D02*
X189172700Y-126966000D01*
X192600000Y-124720000D02*
X191418700Y-124720000D01*
X194050000Y-126170000D02*
X194050000Y-127351300D01*
X177726000Y-124671000D02*
X177726000Y-124426000D01*
X181420900Y-128365900D02*
X177726000Y-124671000D01*
X193035400Y-128365900D02*
X181420900Y-128365900D01*
X194050000Y-127351300D02*
X193035400Y-128365900D01*
X198120000Y-94775000D02*
X197088700Y-94775000D01*
X193479600Y-98384100D02*
X193479600Y-106812800D01*
X197088700Y-94775000D02*
X193479600Y-98384100D01*
X193492099Y-110320991D02*
X193047600Y-110765490D01*
X195783090Y-108030000D02*
X193492099Y-110320991D01*
X198120000Y-108030000D02*
X195783090Y-108030000D01*
X194850000Y-126170000D02*
X194850000Y-127351300D01*
X177726000Y-126966000D02*
X179123300Y-126966000D01*
X181031500Y-128874200D02*
X179123300Y-126966000D01*
X193327100Y-128874200D02*
X181031500Y-128874200D01*
X194850000Y-127351300D02*
X193327100Y-128874200D01*
X195916900Y-124988700D02*
X196282900Y-124622700D01*
X195650000Y-124988700D02*
X195916900Y-124988700D01*
X195650000Y-126170000D02*
X195650000Y-124988700D01*
X153035000Y-130175000D02*
X149860000Y-130175000D01*
X196450000Y-126170000D02*
X196450000Y-127351300D01*
X155108600Y-128101400D02*
X153035000Y-130175000D01*
X176321700Y-128101400D02*
X155108600Y-128101400D01*
X177602900Y-129382600D02*
X176321700Y-128101400D01*
X194418700Y-129382600D02*
X177602900Y-129382600D01*
X196450000Y-127351300D02*
X194418700Y-129382600D01*
X197422000Y-131852000D02*
X198205100Y-131852000D01*
X197250000Y-131680000D02*
X197422000Y-131852000D01*
X197250000Y-126170000D02*
X197250000Y-131680000D01*
X197250000Y-131680000D02*
X196850000Y-132080000D01*
X166220900Y-133226300D02*
X162483800Y-129489200D01*
X198007700Y-133226300D02*
X166220900Y-133226300D01*
X199650000Y-131584000D02*
X198007700Y-133226300D01*
X199650000Y-126170000D02*
X199650000Y-131584000D01*
X206055000Y-95923140D02*
X205277949Y-96700191D01*
X205277949Y-96700191D02*
X203453349Y-96700191D01*
X203453349Y-96700191D02*
X203377949Y-96624791D01*
X203377949Y-96624791D02*
X203377949Y-94052241D01*
X203377949Y-94052241D02*
X204066140Y-93364050D01*
X204066140Y-93364050D02*
X204066140Y-92710000D01*
D38*
X209065000Y-93784900D02*
X209065000Y-94122300D01*
X208895000Y-93615000D02*
X209065000Y-93784900D01*
X208895000Y-92690000D02*
X208895000Y-93615000D01*
X204066100Y-92710000D02*
X204567000Y-92710000D01*
X206855000Y-94122300D02*
X206055000Y-94922300D01*
X209065000Y-94122300D02*
X206855000Y-94122300D01*
X204066000Y-92710000D02*
X204066100Y-92710000D01*
D36*
X209865000Y-95422700D02*
X209865000Y-95422800D01*
D38*
X209865000Y-94810000D02*
X209865000Y-94798800D01*
X209865000Y-94798800D02*
X209865000Y-94787700D01*
D36*
X209865000Y-94798800D02*
X209803300Y-94860500D01*
D38*
X209865000Y-94922300D02*
X209803300Y-94860500D01*
X209865000Y-95422700D02*
X209865000Y-94922300D01*
X209803300Y-94860500D02*
X209065000Y-94122300D01*
D36*
X208995000Y-92690000D02*
X208895000Y-92690000D01*
X199467200Y-92075000D02*
X199782200Y-91760000D01*
X198120000Y-92075000D02*
X199467200Y-92075000D01*
X201063900Y-91760000D02*
X199782200Y-91760000D01*
D35*
X201295000Y-98425000D02*
X208914960Y-98425000D01*
X208914960Y-98425000D02*
X208915000Y-98425040D01*
D37*
X205105000Y-98425040D02*
X201295040Y-98425040D01*
X201295040Y-98425040D02*
X201295000Y-98425000D01*
D38*
X201295000Y-98425000D02*
X205105000Y-98425000D01*
X208915000Y-98425000D02*
X205105000Y-98425000D01*
D35*
X207965000Y-95422760D02*
X207965000Y-95923140D01*
X207965000Y-95923140D02*
X209016469Y-96974609D01*
X209016469Y-96974609D02*
X209755051Y-96974609D01*
X209755051Y-96974609D02*
X210865050Y-98084608D01*
X209865000Y-103466760D02*
X209865000Y-103967140D01*
X210865050Y-98084608D02*
X210865050Y-102466710D01*
X210865050Y-102466710D02*
X209865000Y-103466760D01*
X209755051Y-96974609D02*
X210058000Y-97277558D01*
X207965000Y-95422760D02*
X207965000Y-96151517D01*
X207965000Y-96151517D02*
X206914717Y-97201800D01*
X206914717Y-97201800D02*
X206286100Y-97201800D01*
X189243000Y-102670000D02*
X189243000Y-98087958D01*
X189243000Y-98087958D02*
X188131633Y-96976591D01*
X188131633Y-96976591D02*
X187393051Y-96976591D01*
X187393051Y-96976591D02*
X186443000Y-96026540D01*
X186443000Y-96026540D02*
X186443000Y-95526160D01*
X188343000Y-104071140D02*
X188343000Y-103570000D01*
X188343000Y-103570000D02*
X189243000Y-102670000D01*
X190500000Y-111760000D02*
X190500000Y-105228090D01*
X190500000Y-105228090D02*
X189343050Y-104071140D01*
X189343050Y-104071140D02*
X188343000Y-104071140D01*
X195580000Y-111760000D02*
X190500000Y-111760000D01*
X186443000Y-96026540D02*
X187494469Y-97078009D01*
X189343050Y-98188008D02*
X189343050Y-102570710D01*
X187494469Y-97078009D02*
X188233051Y-97078009D01*
X188233051Y-97078009D02*
X189343050Y-98188008D01*
X189343050Y-102570710D02*
X188343000Y-103570760D01*
X188343000Y-103570760D02*
X188343000Y-104071140D01*
D37*
X207965000Y-95422700D02*
X207965000Y-95422800D01*
X209865000Y-103967000D02*
X209865000Y-103967100D01*
X188343000Y-104071000D02*
X188343000Y-104071100D01*
X206686300Y-97201800D02*
X207965000Y-95923100D01*
X206286100Y-97201800D02*
X206686300Y-97201800D01*
X207965000Y-95422800D02*
X207965000Y-95923100D01*
X209865000Y-103467000D02*
X209865000Y-103967000D01*
X188343000Y-103570000D02*
X188343000Y-104071000D01*
X189243000Y-98088000D02*
X189243000Y-102670000D01*
X188233000Y-97078000D02*
X189243000Y-98088000D01*
X187494000Y-97078000D02*
X188233000Y-97078000D01*
X186443000Y-96026600D02*
X187494000Y-97078000D01*
X186443000Y-95526200D02*
X186443000Y-96026600D01*
D36*
X204155000Y-103967140D02*
X204155000Y-102812710D01*
X204155000Y-102812710D02*
X204278001Y-102689709D01*
X204278001Y-102689709D02*
X207187949Y-102689709D01*
X207187949Y-102689709D02*
X207965000Y-103466760D01*
X207965000Y-103466760D02*
X207965000Y-103967140D01*
D38*
X207965000Y-105115000D02*
X208895000Y-106045000D01*
X207965000Y-103967100D02*
X207965000Y-105115000D01*
D36*
X208995000Y-106045000D02*
X208895000Y-106045000D01*
X204066000Y-106679900D02*
X204066000Y-106045000D01*
X204066100Y-106680000D02*
X204066000Y-106679900D01*
D38*
X204066000Y-104056000D02*
X204110500Y-104011500D01*
X204066000Y-106045000D02*
X204066000Y-104056000D01*
X204155000Y-103967000D02*
X204155000Y-103467000D01*
X204110500Y-104011500D02*
X204155000Y-103967000D01*
D36*
X204110600Y-104011500D02*
X204155000Y-103967100D01*
X204110500Y-104011500D02*
X204110600Y-104011500D01*
D35*
X205105000Y-100964860D02*
X208915000Y-100964860D01*
X201295000Y-100965000D02*
X205104860Y-100965000D01*
X205104860Y-100965000D02*
X205105000Y-100964860D01*
D38*
X205105100Y-100965000D02*
X201295000Y-100965000D01*
D36*
X205105100Y-100965000D02*
X205105000Y-100964900D01*
D38*
X208915000Y-100965000D02*
X208914900Y-100965000D01*
X208914900Y-100965000D02*
X205105100Y-100965000D01*
D36*
X208914900Y-100965000D02*
X208915000Y-100964900D01*
X201063900Y-105730000D02*
X199782200Y-105730000D01*
X199551300Y-105730000D02*
X199782200Y-105730000D01*
X199151300Y-105330000D02*
X199551300Y-105730000D01*
X198120000Y-105330000D02*
X199151300Y-105330000D01*
X183531540Y-97028000D02*
X182155758Y-97028000D01*
X182155758Y-97028000D02*
X181855949Y-96728191D01*
X181855949Y-96728191D02*
X181855949Y-93924741D01*
X181855949Y-93924741D02*
X182313140Y-93467550D01*
X182313140Y-93467550D02*
X182313140Y-92813500D01*
X184533000Y-95526160D02*
X184533000Y-96026540D01*
X184533000Y-96026540D02*
X183531540Y-97028000D01*
D38*
X182313000Y-92813500D02*
X182313100Y-92813500D01*
X182313100Y-92813500D02*
X182813000Y-92813500D01*
X184533000Y-96026600D02*
X184533000Y-95526200D01*
D36*
X187386500Y-92178500D02*
X187493000Y-92178500D01*
D38*
X187380000Y-92178500D02*
X187386500Y-92178500D01*
X184533000Y-95025800D02*
X187380000Y-92178500D01*
X184533000Y-95526200D02*
X184533000Y-95025800D01*
X187393000Y-94576200D02*
X188343000Y-95526200D01*
X187393000Y-92178500D02*
X187393000Y-94576200D01*
X187386500Y-92178500D02*
X187393000Y-92178500D01*
D36*
X177897700Y-91995000D02*
X178029200Y-91863500D01*
X175815000Y-91995000D02*
X177897700Y-91995000D01*
X179310900Y-91863500D02*
X178029200Y-91863500D01*
D35*
X179773000Y-98528500D02*
X187392940Y-98528500D01*
X187392940Y-98528500D02*
X187393000Y-98528440D01*
D37*
X183583000Y-98528440D02*
X187393000Y-98528440D01*
X179773000Y-98528500D02*
X183582940Y-98528500D01*
X183582940Y-98528500D02*
X183583000Y-98528440D01*
D38*
X187393000Y-98528500D02*
X187392900Y-98528500D01*
D36*
X187392900Y-98528500D02*
X187393000Y-98528400D01*
D38*
X187392900Y-98528500D02*
X183582900Y-98528500D01*
X183582900Y-98528500D02*
X179773000Y-98528500D01*
D36*
X183582900Y-98528500D02*
X183583000Y-98528400D01*
D38*
X182313000Y-105630900D02*
X182313000Y-105917000D01*
D36*
X182313100Y-105631000D02*
X182313100Y-105917000D01*
X182313000Y-105630900D02*
X182313100Y-105631000D01*
X187453000Y-106168000D02*
X187353000Y-106168000D01*
X182633000Y-104071100D02*
X182633000Y-104071000D01*
D38*
X182313000Y-104391000D02*
X182313000Y-105630900D01*
X182633000Y-104071000D02*
X182313000Y-104391000D01*
X187353000Y-104981000D02*
X186898000Y-104526000D01*
X187353000Y-106168000D02*
X187353000Y-104981000D01*
X182633000Y-102870000D02*
X182633000Y-104071000D01*
X182849000Y-102653000D02*
X182633000Y-102870000D01*
X186226000Y-102653000D02*
X182849000Y-102653000D01*
X186443000Y-102870000D02*
X186226000Y-102653000D01*
X186443000Y-104071000D02*
X186443000Y-102870000D01*
X186898000Y-104526000D02*
X186443000Y-104071000D01*
D36*
X186897900Y-104526000D02*
X186443000Y-104071100D01*
X186898000Y-104526000D02*
X186897900Y-104526000D01*
D35*
X179773000Y-101068500D02*
X187392640Y-101068500D01*
X187392640Y-101068500D02*
X187393000Y-101068860D01*
D37*
X183583000Y-101068860D02*
X187393000Y-101068860D01*
X179773000Y-101068500D02*
X183582640Y-101068500D01*
X183582640Y-101068500D02*
X183583000Y-101068860D01*
D38*
X179773000Y-101068000D02*
X179773500Y-101068000D01*
D36*
X179773500Y-101068000D02*
X179773000Y-101068500D01*
D38*
X187392100Y-101068000D02*
X187393000Y-101068000D01*
D36*
X187392100Y-101068000D02*
X187393000Y-101068900D01*
D38*
X179773500Y-101068000D02*
X183583900Y-101068000D01*
X183583900Y-101068000D02*
X187392100Y-101068000D01*
D36*
X183583900Y-101068000D02*
X183583000Y-101068900D01*
X177837200Y-104775000D02*
X178029200Y-104967000D01*
X176530000Y-104775000D02*
X177837200Y-104775000D01*
X179310900Y-104967000D02*
X178029200Y-104967000D01*
X197250000Y-117670000D02*
X197250000Y-116488700D01*
X197250000Y-116488700D02*
X197250000Y-116102500D01*
X197909100Y-129891300D02*
X198083400Y-130065600D01*
X197909100Y-127492200D02*
X197909100Y-129891300D01*
X198050000Y-127351300D02*
X197909100Y-127492200D01*
X198050000Y-126170000D02*
X198050000Y-127351300D01*
X198850000Y-128931200D02*
X198850000Y-126170000D01*
X198735000Y-129046200D02*
X198850000Y-128931200D01*
X219710000Y-96520000D02*
X227965000Y-96520000D01*
X182270100Y-144025800D02*
X182270100Y-143510000D01*
X181515900Y-144780000D02*
X182270100Y-144025800D01*
X164180300Y-144780000D02*
X181515900Y-144780000D01*
X164139900Y-144739600D02*
X164180300Y-144780000D01*
X183515000Y-143510000D02*
X182270100Y-143510000D01*
X157480000Y-102870000D02*
X153670000Y-102870000D01*
X153670000Y-102870000D02*
X149860000Y-102870000D01*
G36*
X165643057Y-90349995D02*
X165281265Y-90711155D01*
X165085223Y-91183276D01*
X165084777Y-91694481D01*
X165279995Y-92166943D01*
X165641155Y-92528735D01*
X166113276Y-92724777D01*
X166624481Y-92725223D01*
X167096943Y-92530005D01*
X167458735Y-92168845D01*
X167654777Y-91696724D01*
X167655223Y-91185519D01*
X167460005Y-90713057D01*
X167098845Y-90351265D01*
X166842931Y-90245000D01*
X170392681Y-90245000D01*
X170262191Y-90332191D01*
X170121843Y-90542235D01*
X170072560Y-90790000D01*
X170072560Y-92090000D01*
X170121843Y-92337765D01*
X170262191Y-92547809D01*
X170472235Y-92688157D01*
X170720000Y-92737440D01*
X172020000Y-92737440D01*
X172267765Y-92688157D01*
X172477809Y-92547809D01*
X172618157Y-92337765D01*
X172667440Y-92090000D01*
X172667440Y-90790000D01*
X172618157Y-90542235D01*
X172477809Y-90332191D01*
X172347319Y-90245000D01*
X181279970Y-90245000D01*
X181246513Y-90267355D01*
X180572664Y-90941204D01*
X180459055Y-90865293D01*
X180211290Y-90816010D01*
X178410430Y-90816010D01*
X178162665Y-90865293D01*
X177952621Y-91005641D01*
X177867013Y-91133761D01*
X177750229Y-91156991D01*
X177737595Y-91159504D01*
X177627601Y-91233000D01*
X177110053Y-91233000D01*
X177063157Y-90997235D01*
X176922809Y-90787191D01*
X176712765Y-90646843D01*
X176465000Y-90597560D01*
X175165000Y-90597560D01*
X174917235Y-90646843D01*
X174707191Y-90787191D01*
X174566843Y-90997235D01*
X174517560Y-91245000D01*
X174517560Y-92745000D01*
X174566843Y-92992765D01*
X174707191Y-93202809D01*
X174917235Y-93343157D01*
X174926500Y-93345000D01*
X174917235Y-93346843D01*
X174707191Y-93487191D01*
X174566843Y-93697235D01*
X174517560Y-93945000D01*
X174517560Y-93985939D01*
X174492095Y-93991004D01*
X174295518Y-94122353D01*
X174244885Y-94156185D01*
X173084433Y-95316637D01*
X173084774Y-94926306D01*
X172836462Y-94325345D01*
X172377073Y-93865154D01*
X171776547Y-93615794D01*
X171126306Y-93615226D01*
X170525345Y-93863538D01*
X170065154Y-94322927D01*
X169815794Y-94923453D01*
X169815226Y-95573694D01*
X170007900Y-96040000D01*
X169060400Y-96040000D01*
X168768795Y-96098004D01*
X168521584Y-96263185D01*
X167546148Y-97238621D01*
X167499611Y-97126271D01*
X167269016Y-97070590D01*
X166549605Y-97790000D01*
X166563748Y-97804143D01*
X166384143Y-97983748D01*
X166370000Y-97969605D01*
X165650590Y-98689016D01*
X165706271Y-98919611D01*
X165824141Y-98960628D01*
X164742985Y-100041785D01*
X164577804Y-100288995D01*
X164519800Y-100580600D01*
X164519800Y-104365300D01*
X164577804Y-104656905D01*
X164717517Y-104866000D01*
X164742985Y-104904115D01*
X164951085Y-105112215D01*
X165198295Y-105277396D01*
X165489900Y-105335400D01*
X170815570Y-105335400D01*
X172362585Y-106882415D01*
X172609795Y-107047596D01*
X172901400Y-107105600D01*
X175232560Y-107105600D01*
X175232560Y-108225000D01*
X175281843Y-108472765D01*
X175422191Y-108682809D01*
X175632235Y-108823157D01*
X175768000Y-108850162D01*
X175768000Y-110663600D01*
X175826004Y-110955205D01*
X175985560Y-111193996D01*
X175991185Y-111202415D01*
X179946084Y-115157315D01*
X180123236Y-115275684D01*
X180193295Y-115322496D01*
X180484900Y-115380500D01*
X184805335Y-115380500D01*
X184784947Y-115483000D01*
X177706131Y-115483000D01*
X177052798Y-114829668D01*
X177120266Y-114667187D01*
X177120834Y-114016946D01*
X176872522Y-113415985D01*
X176413133Y-112955794D01*
X175812607Y-112706434D01*
X175162366Y-112705866D01*
X174561405Y-112954178D01*
X174101214Y-113413567D01*
X174032686Y-113578600D01*
X170802931Y-113578600D01*
X167689009Y-110464678D01*
X172098730Y-110464678D01*
X172309226Y-110974117D01*
X172698653Y-111364224D01*
X173207724Y-111575609D01*
X173758938Y-111576090D01*
X174268377Y-111365594D01*
X174658484Y-110976167D01*
X174869869Y-110467096D01*
X174870350Y-109915882D01*
X174659854Y-109406443D01*
X174270427Y-109016336D01*
X173761356Y-108804951D01*
X173210142Y-108804470D01*
X172700703Y-109014966D01*
X172310596Y-109404393D01*
X172099211Y-109913464D01*
X172098730Y-110464678D01*
X167689009Y-110464678D01*
X165947948Y-108723617D01*
X166058694Y-108723714D01*
X166659655Y-108475402D01*
X166894362Y-108241103D01*
X167261803Y-108241103D01*
X167360402Y-108507905D01*
X167969942Y-108734341D01*
X168619737Y-108710281D01*
X169108318Y-108507905D01*
X169206917Y-108241103D01*
X168234360Y-107268545D01*
X167261803Y-108241103D01*
X166894362Y-108241103D01*
X167076421Y-108059362D01*
X167082197Y-108061497D01*
X168054755Y-107088940D01*
X168413965Y-107088940D01*
X169386523Y-108061497D01*
X169653325Y-107962898D01*
X169879761Y-107353358D01*
X169855701Y-106703563D01*
X169653325Y-106214982D01*
X169386523Y-106116383D01*
X168413965Y-107088940D01*
X168054755Y-107088940D01*
X167082197Y-106116383D01*
X167075949Y-106118692D01*
X166894351Y-105936777D01*
X167261803Y-105936777D01*
X168234360Y-106909335D01*
X169206917Y-105936777D01*
X169108318Y-105669975D01*
X168498778Y-105443539D01*
X167848983Y-105467599D01*
X167360402Y-105669975D01*
X167261803Y-105936777D01*
X166894351Y-105936777D01*
X166662073Y-105704094D01*
X166061547Y-105454734D01*
X165411306Y-105454166D01*
X164810345Y-105702478D01*
X164485156Y-106027100D01*
X164162713Y-105704094D01*
X163562187Y-105454734D01*
X162911946Y-105454166D01*
X162310985Y-105702478D01*
X161850794Y-106161867D01*
X161782266Y-106326900D01*
X154833630Y-106326900D01*
X154716250Y-106209520D01*
X154765049Y-106176914D01*
X155000156Y-105825051D01*
X155082715Y-105410000D01*
X155000156Y-104994949D01*
X154850359Y-104770762D01*
X155014981Y-104433935D01*
X154888068Y-104267000D01*
X153797000Y-104267000D01*
X153797000Y-104287000D01*
X153543000Y-104287000D01*
X153543000Y-104267000D01*
X152451932Y-104267000D01*
X152325019Y-104433935D01*
X152489641Y-104770762D01*
X152339844Y-104994949D01*
X152257285Y-105410000D01*
X152339844Y-105825051D01*
X152574951Y-106176914D01*
X152926814Y-106412021D01*
X152942665Y-106415174D01*
X152966004Y-106532505D01*
X153104648Y-106740000D01*
X153131185Y-106779715D01*
X153440370Y-107088900D01*
X151582485Y-108946785D01*
X151418263Y-109192560D01*
X150440000Y-109192560D01*
X150192235Y-109241843D01*
X149982191Y-109382191D01*
X149841843Y-109592235D01*
X149792560Y-109840000D01*
X149792560Y-110002385D01*
X149719611Y-109826271D01*
X149489016Y-109770590D01*
X148769605Y-110490000D01*
X149489016Y-111209410D01*
X149719611Y-111153729D01*
X149792560Y-110944098D01*
X149792560Y-111140000D01*
X149841843Y-111387765D01*
X149982191Y-111597809D01*
X150192235Y-111738157D01*
X150440000Y-111787440D01*
X151740000Y-111787440D01*
X151987765Y-111738157D01*
X152197809Y-111597809D01*
X152338157Y-111387765D01*
X152375208Y-111201494D01*
X152412905Y-111193996D01*
X152660115Y-111028815D01*
X152825296Y-110781605D01*
X152883300Y-110490000D01*
X152883300Y-110464678D01*
X156599650Y-110464678D01*
X156810146Y-110974117D01*
X157199573Y-111364224D01*
X157708644Y-111575609D01*
X158259858Y-111576090D01*
X158769297Y-111365594D01*
X159159404Y-110976167D01*
X159370789Y-110467096D01*
X159371270Y-109915882D01*
X159160774Y-109406443D01*
X158771347Y-109016336D01*
X158262276Y-108804951D01*
X157711062Y-108804470D01*
X157201623Y-109014966D01*
X156811516Y-109404393D01*
X156600131Y-109913464D01*
X156599650Y-110464678D01*
X152883300Y-110464678D01*
X152883300Y-109801230D01*
X154833631Y-107850900D01*
X161781954Y-107850900D01*
X161849178Y-108013595D01*
X162308567Y-108473786D01*
X162909093Y-108723146D01*
X163559334Y-108723714D01*
X163724527Y-108655458D01*
X169948484Y-114879415D01*
X170163654Y-115023187D01*
X170195695Y-115044596D01*
X170487300Y-115102600D01*
X174032374Y-115102600D01*
X174099598Y-115265295D01*
X174424220Y-115590484D01*
X174101214Y-115912927D01*
X173851854Y-116513453D01*
X173851286Y-117163694D01*
X173919554Y-117328916D01*
X173530685Y-117717785D01*
X173365504Y-117964995D01*
X173307500Y-118256600D01*
X173307500Y-119927900D01*
X173365504Y-120219505D01*
X173525406Y-120458815D01*
X173530685Y-120466715D01*
X176157650Y-123093681D01*
X176111843Y-123162235D01*
X176062560Y-123410000D01*
X176062560Y-125442000D01*
X176111843Y-125689765D01*
X176252191Y-125899809D01*
X176394872Y-125995146D01*
X176168330Y-126334190D01*
X176042655Y-126966000D01*
X176116929Y-127339400D01*
X155108600Y-127339400D01*
X154816995Y-127397404D01*
X154569784Y-127562585D01*
X153524084Y-128608285D01*
X153361547Y-128540794D01*
X152711306Y-128540226D01*
X152110345Y-128788538D01*
X151650154Y-129247927D01*
X151581610Y-129413000D01*
X151313670Y-129413000D01*
X151246462Y-129250345D01*
X150787073Y-128790154D01*
X150186547Y-128540794D01*
X149536306Y-128540226D01*
X148935345Y-128788538D01*
X148475154Y-129247927D01*
X148225794Y-129848453D01*
X148225226Y-130498694D01*
X148473538Y-131099655D01*
X148932927Y-131559846D01*
X149533453Y-131809206D01*
X150183694Y-131809774D01*
X150784655Y-131561462D01*
X151244846Y-131102073D01*
X151313390Y-130937000D01*
X151581330Y-130937000D01*
X151648538Y-131099655D01*
X152107927Y-131559846D01*
X152708453Y-131809206D01*
X153358694Y-131809774D01*
X153959655Y-131561462D01*
X154419846Y-131102073D01*
X154669206Y-130501547D01*
X154669774Y-129851306D01*
X154601518Y-129686113D01*
X155424231Y-128863400D01*
X160973855Y-128863400D01*
X160849594Y-129162653D01*
X160849026Y-129812894D01*
X161097338Y-130413855D01*
X161556727Y-130874046D01*
X162157253Y-131123406D01*
X162807494Y-131123974D01*
X162972687Y-131055718D01*
X165682085Y-133765116D01*
X165929296Y-133930297D01*
X166220900Y-133988300D01*
X195560855Y-133988300D01*
X195552560Y-134030000D01*
X195552560Y-135530000D01*
X195601843Y-135777765D01*
X195723633Y-135960036D01*
X187640570Y-144043100D01*
X187553600Y-144043100D01*
X187553600Y-143795750D01*
X187394850Y-143637000D01*
X186182000Y-143637000D01*
X186182000Y-143657000D01*
X185928000Y-143657000D01*
X185928000Y-143637000D01*
X185908000Y-143637000D01*
X185908000Y-143383000D01*
X185928000Y-143383000D01*
X185928000Y-142170150D01*
X186182000Y-142170150D01*
X186182000Y-143383000D01*
X187394850Y-143383000D01*
X187553600Y-143224250D01*
X187553600Y-142520091D01*
X187456927Y-142286702D01*
X187278299Y-142108073D01*
X187044910Y-142011400D01*
X186340750Y-142011400D01*
X186182000Y-142170150D01*
X185928000Y-142170150D01*
X185769250Y-142011400D01*
X185065090Y-142011400D01*
X184831701Y-142108073D01*
X184653073Y-142286702D01*
X184588737Y-142442023D01*
X184574670Y-142420971D01*
X184088489Y-142096115D01*
X183515000Y-141982041D01*
X182941511Y-142096115D01*
X182455330Y-142420971D01*
X182239336Y-142744228D01*
X182181821Y-142621510D01*
X181749947Y-142227312D01*
X181334026Y-142055042D01*
X181102000Y-142176183D01*
X181102000Y-143383000D01*
X181122000Y-143383000D01*
X181122000Y-143637000D01*
X181102000Y-143637000D01*
X181102000Y-143657000D01*
X180848000Y-143657000D01*
X180848000Y-143637000D01*
X180828000Y-143637000D01*
X180828000Y-143383000D01*
X180848000Y-143383000D01*
X180848000Y-142176183D01*
X180615974Y-142055042D01*
X180200053Y-142227312D01*
X179768179Y-142621510D01*
X179710664Y-142744228D01*
X179494670Y-142420971D01*
X179008489Y-142096115D01*
X178435000Y-141982041D01*
X177861511Y-142096115D01*
X177375330Y-142420971D01*
X177165000Y-142735752D01*
X176954670Y-142420971D01*
X176468489Y-142096115D01*
X175895000Y-141982041D01*
X175321511Y-142096115D01*
X174835330Y-142420971D01*
X174510474Y-142907152D01*
X174396400Y-143480641D01*
X174396400Y-143539359D01*
X174491608Y-144018000D01*
X168297650Y-144018000D01*
X168664275Y-143866139D01*
X168793483Y-143573369D01*
X167640000Y-142419885D01*
X166486517Y-143573369D01*
X166615725Y-143866139D01*
X167012153Y-144018000D01*
X165880931Y-144018000D01*
X165738566Y-143673449D01*
X165208859Y-143142818D01*
X164516411Y-142855288D01*
X163766639Y-142854634D01*
X163073689Y-143140954D01*
X162543058Y-143670661D01*
X162255528Y-144363109D01*
X162254874Y-145112881D01*
X162541194Y-145805831D01*
X163070901Y-146336462D01*
X163763349Y-146623992D01*
X164513121Y-146624646D01*
X165206071Y-146338326D01*
X165736702Y-145808619D01*
X165847412Y-145542000D01*
X166811748Y-145542000D01*
X166573809Y-145640314D01*
X166043178Y-146170021D01*
X165755648Y-146862469D01*
X165754994Y-147612241D01*
X166041314Y-148305191D01*
X166571021Y-148835822D01*
X167263469Y-149123352D01*
X168013241Y-149124006D01*
X168706191Y-148837686D01*
X169236822Y-148307979D01*
X169524352Y-147615531D01*
X169525006Y-146865759D01*
X169238686Y-146172809D01*
X168708979Y-145642178D01*
X168467724Y-145542000D01*
X174491608Y-145542000D01*
X174396400Y-146020641D01*
X174396400Y-146079359D01*
X174510474Y-146652848D01*
X174835330Y-147139029D01*
X175321511Y-147463885D01*
X175895000Y-147577959D01*
X176468489Y-147463885D01*
X176954670Y-147139029D01*
X177165000Y-146824248D01*
X177375330Y-147139029D01*
X177861511Y-147463885D01*
X178435000Y-147577959D01*
X179008489Y-147463885D01*
X179303341Y-147266871D01*
X179870885Y-147834415D01*
X180118095Y-147999596D01*
X180409700Y-148057600D01*
X188096200Y-148057600D01*
X188387805Y-147999596D01*
X188635015Y-147834415D01*
X192815095Y-143654335D01*
X192704025Y-143892944D01*
X192903615Y-144374818D01*
X192993113Y-144471338D01*
X192836191Y-144576191D01*
X192695843Y-144786235D01*
X192646560Y-145034000D01*
X192646560Y-147066000D01*
X192695843Y-147313765D01*
X192836191Y-147523809D01*
X193046235Y-147664157D01*
X193294000Y-147713440D01*
X195326000Y-147713440D01*
X195573765Y-147664157D01*
X195783809Y-147523809D01*
X195924157Y-147313765D01*
X195973440Y-147066000D01*
X195973440Y-145034000D01*
X195924157Y-144786235D01*
X195783809Y-144576191D01*
X195626887Y-144471338D01*
X195716385Y-144374818D01*
X195915975Y-143892944D01*
X195796836Y-143637000D01*
X194437000Y-143637000D01*
X194437000Y-143657000D01*
X194183000Y-143657000D01*
X194183000Y-143637000D01*
X194163000Y-143637000D01*
X194163000Y-143383000D01*
X194183000Y-143383000D01*
X194183000Y-143363000D01*
X194437000Y-143363000D01*
X194437000Y-143383000D01*
X195796836Y-143383000D01*
X195915975Y-143127056D01*
X195797533Y-142841100D01*
X196544701Y-142841100D01*
X196698695Y-142943996D01*
X196990300Y-143002000D01*
X209393088Y-143002000D01*
X209292041Y-143510000D01*
X209406115Y-144083489D01*
X209730971Y-144569670D01*
X210217152Y-144894526D01*
X210790641Y-145008600D01*
X210849359Y-145008600D01*
X211422848Y-144894526D01*
X211909029Y-144569670D01*
X212089992Y-144298839D01*
X212471510Y-144716821D01*
X213000973Y-144964968D01*
X213233000Y-144844469D01*
X213233000Y-143637000D01*
X213487000Y-143637000D01*
X213487000Y-144844469D01*
X213719027Y-144964968D01*
X214248490Y-144716821D01*
X214642688Y-144284947D01*
X214814958Y-143869026D01*
X214693817Y-143637000D01*
X213487000Y-143637000D01*
X213233000Y-143637000D01*
X213213000Y-143637000D01*
X213213000Y-143383000D01*
X213233000Y-143383000D01*
X213233000Y-143363000D01*
X213487000Y-143363000D01*
X213487000Y-143383000D01*
X214693817Y-143383000D01*
X214814958Y-143150974D01*
X214642688Y-142735053D01*
X214248490Y-142303179D01*
X214125772Y-142245664D01*
X214449029Y-142029670D01*
X214647926Y-141732000D01*
X218363400Y-141732000D01*
X218655005Y-141673996D01*
X218902215Y-141508815D01*
X219316560Y-141094470D01*
X219316560Y-141986000D01*
X219365843Y-142233765D01*
X219506191Y-142443809D01*
X219648872Y-142539146D01*
X219422330Y-142878190D01*
X219296655Y-143510000D01*
X219422330Y-144141810D01*
X219780222Y-144677433D01*
X220315845Y-145035325D01*
X220947655Y-145161000D01*
X221012345Y-145161000D01*
X221644155Y-145035325D01*
X222179778Y-144677433D01*
X222537670Y-144141810D01*
X222663345Y-143510000D01*
X222537670Y-142878190D01*
X222311128Y-142539146D01*
X222453809Y-142443809D01*
X222594157Y-142233765D01*
X222643440Y-141986000D01*
X222643440Y-141080670D01*
X222783100Y-141220330D01*
X222783100Y-141605000D01*
X222841104Y-141896605D01*
X223006285Y-142143815D01*
X223253495Y-142308996D01*
X223506714Y-142359365D01*
X223730330Y-142694029D01*
X224001172Y-142875000D01*
X223730330Y-143055971D01*
X223405474Y-143542152D01*
X223291400Y-144115641D01*
X223291400Y-144174359D01*
X223405474Y-144747848D01*
X223717904Y-145215432D01*
X223678635Y-145223243D01*
X223468591Y-145363591D01*
X223328243Y-145573635D01*
X223278960Y-145821400D01*
X223278960Y-147548600D01*
X223328243Y-147796365D01*
X223468591Y-148006409D01*
X223678635Y-148146757D01*
X223926400Y-148196040D01*
X225653600Y-148196040D01*
X225901365Y-148146757D01*
X226111409Y-148006409D01*
X226251757Y-147796365D01*
X226269520Y-147707064D01*
X226555053Y-147967688D01*
X226970974Y-148139958D01*
X227203000Y-148018817D01*
X227203000Y-146812000D01*
X227457000Y-146812000D01*
X227457000Y-148018817D01*
X227689026Y-148139958D01*
X228104947Y-147967688D01*
X228536821Y-147573490D01*
X228784968Y-147044027D01*
X228664469Y-146812000D01*
X227457000Y-146812000D01*
X227203000Y-146812000D01*
X227183000Y-146812000D01*
X227183000Y-146710000D01*
X232342560Y-146710000D01*
X232342560Y-148010000D01*
X232391843Y-148257765D01*
X232532191Y-148467809D01*
X232742235Y-148608157D01*
X232990000Y-148657440D01*
X234290000Y-148657440D01*
X234537765Y-148608157D01*
X234747809Y-148467809D01*
X234888157Y-148257765D01*
X234937440Y-148010000D01*
X234937440Y-146710000D01*
X234888157Y-146462235D01*
X234861818Y-146422815D01*
X238864630Y-146422815D01*
X239188980Y-147207800D01*
X239789041Y-147808909D01*
X240573459Y-148134628D01*
X241422815Y-148135370D01*
X242207800Y-147811020D01*
X242808909Y-147210959D01*
X243134628Y-146426541D01*
X243135370Y-145577185D01*
X242811020Y-144792200D01*
X242210959Y-144191091D01*
X241426541Y-143865372D01*
X240577185Y-143864630D01*
X239792200Y-144188980D01*
X239191091Y-144789041D01*
X238865372Y-145573459D01*
X238864630Y-146422815D01*
X234861818Y-146422815D01*
X234747809Y-146252191D01*
X234537765Y-146111843D01*
X234290000Y-146062560D01*
X234127615Y-146062560D01*
X234303729Y-145989611D01*
X234359410Y-145759016D01*
X233640000Y-145039605D01*
X232920590Y-145759016D01*
X232976271Y-145989611D01*
X233185902Y-146062560D01*
X232990000Y-146062560D01*
X232742235Y-146111843D01*
X232532191Y-146252191D01*
X232391843Y-146462235D01*
X232342560Y-146710000D01*
X227183000Y-146710000D01*
X227183000Y-146558000D01*
X227203000Y-146558000D01*
X227203000Y-146538000D01*
X227457000Y-146538000D01*
X227457000Y-146558000D01*
X228664469Y-146558000D01*
X228784968Y-146325973D01*
X228536821Y-145796510D01*
X228118839Y-145414992D01*
X228389670Y-145234029D01*
X228714526Y-144747848D01*
X228728205Y-144679078D01*
X232342378Y-144679078D01*
X232371917Y-145189428D01*
X232510389Y-145523729D01*
X232740984Y-145579410D01*
X233460395Y-144860000D01*
X233819605Y-144860000D01*
X234539016Y-145579410D01*
X234769611Y-145523729D01*
X234937622Y-145040922D01*
X234908083Y-144530572D01*
X234769611Y-144196271D01*
X234539016Y-144140590D01*
X233819605Y-144860000D01*
X233460395Y-144860000D01*
X232740984Y-144140590D01*
X232510389Y-144196271D01*
X232342378Y-144679078D01*
X228728205Y-144679078D01*
X228828600Y-144174359D01*
X228828600Y-144115641D01*
X228797837Y-143960984D01*
X232920590Y-143960984D01*
X233640000Y-144680395D01*
X234359410Y-143960984D01*
X234303729Y-143730389D01*
X233820922Y-143562378D01*
X233310572Y-143591917D01*
X232976271Y-143730389D01*
X232920590Y-143960984D01*
X228797837Y-143960984D01*
X228714526Y-143542152D01*
X228389670Y-143055971D01*
X228118828Y-142875000D01*
X228389670Y-142694029D01*
X228714526Y-142207848D01*
X228828600Y-141634359D01*
X228828600Y-141575641D01*
X228714526Y-141002152D01*
X228389670Y-140515971D01*
X228118828Y-140335000D01*
X228389670Y-140154029D01*
X228714526Y-139667848D01*
X228828600Y-139094359D01*
X228828600Y-139035641D01*
X228714526Y-138462152D01*
X228389670Y-137975971D01*
X227903489Y-137651115D01*
X227330000Y-137537041D01*
X226756511Y-137651115D01*
X226270330Y-137975971D01*
X226060000Y-138290752D01*
X225849670Y-137975971D01*
X225363489Y-137651115D01*
X224790000Y-137537041D01*
X224216511Y-137651115D01*
X223730330Y-137975971D01*
X223415532Y-138447099D01*
X223389942Y-138430000D01*
X223254805Y-138339704D01*
X222963200Y-138281700D01*
X216414000Y-138281700D01*
X216122396Y-138339703D01*
X215875185Y-138504884D01*
X215467170Y-138912900D01*
X214791904Y-138912900D01*
X214887959Y-138430000D01*
X214773885Y-137856511D01*
X214449029Y-137370330D01*
X214114365Y-137146714D01*
X214063996Y-136893495D01*
X214001923Y-136800596D01*
X213898815Y-136646284D01*
X213033500Y-135780970D01*
X213033500Y-134037830D01*
X217258436Y-129812894D01*
X219269026Y-129812894D01*
X219517338Y-130413855D01*
X219976727Y-130874046D01*
X220577253Y-131123406D01*
X221227494Y-131123974D01*
X221828455Y-130875662D01*
X222288646Y-130416273D01*
X222538006Y-129815747D01*
X222538008Y-129812894D01*
X225771426Y-129812894D01*
X226019738Y-130413855D01*
X226479127Y-130874046D01*
X227079653Y-131123406D01*
X227729894Y-131123974D01*
X228330855Y-130875662D01*
X228791046Y-130416273D01*
X229040406Y-129815747D01*
X229040974Y-129165506D01*
X228792662Y-128564545D01*
X228333273Y-128104354D01*
X227732747Y-127854994D01*
X227082506Y-127854426D01*
X226481545Y-128102738D01*
X226021354Y-128562127D01*
X225771994Y-129162653D01*
X225771426Y-129812894D01*
X222538008Y-129812894D01*
X222538574Y-129165506D01*
X222290262Y-128564545D01*
X221830873Y-128104354D01*
X221230347Y-127854994D01*
X220580106Y-127854426D01*
X219979145Y-128102738D01*
X219518954Y-128562127D01*
X219269594Y-129162653D01*
X219269026Y-129812894D01*
X217258436Y-129812894D01*
X220414702Y-126656629D01*
X220577253Y-126724126D01*
X221227494Y-126724694D01*
X221828455Y-126476382D01*
X222288646Y-126016993D01*
X222538006Y-125416467D01*
X222538008Y-125413614D01*
X225771426Y-125413614D01*
X226019738Y-126014575D01*
X226479127Y-126474766D01*
X227079653Y-126724126D01*
X227729894Y-126724694D01*
X228330855Y-126476382D01*
X228791046Y-126016993D01*
X229040406Y-125416467D01*
X229040974Y-124766226D01*
X228792662Y-124165265D01*
X228392215Y-123764118D01*
X230518730Y-123764118D01*
X230729226Y-124273557D01*
X231118653Y-124663664D01*
X231627724Y-124875049D01*
X232178938Y-124875530D01*
X232688377Y-124665034D01*
X233078484Y-124275607D01*
X233131141Y-124148795D01*
X239029716Y-124148795D01*
X239278106Y-124749943D01*
X239737637Y-125210278D01*
X240338352Y-125459716D01*
X240988795Y-125460284D01*
X241589943Y-125211894D01*
X242050278Y-124752363D01*
X242299716Y-124151648D01*
X242300284Y-123501205D01*
X242051894Y-122900057D01*
X241989749Y-122837803D01*
X242024698Y-122823327D01*
X242203327Y-122644699D01*
X242300000Y-122411310D01*
X242300000Y-121570750D01*
X242141250Y-121412000D01*
X240792000Y-121412000D01*
X240792000Y-121432000D01*
X240538000Y-121432000D01*
X240538000Y-121412000D01*
X239188750Y-121412000D01*
X239030000Y-121570750D01*
X239030000Y-122411310D01*
X239126673Y-122644699D01*
X239305302Y-122823327D01*
X239339834Y-122837630D01*
X239279722Y-122897637D01*
X239030284Y-123498352D01*
X239029716Y-124148795D01*
X233131141Y-124148795D01*
X233289869Y-123766536D01*
X233290350Y-123215322D01*
X233079854Y-122705883D01*
X232690427Y-122315776D01*
X232181356Y-122104391D01*
X231630142Y-122103910D01*
X231120703Y-122314406D01*
X230730596Y-122703833D01*
X230519211Y-123212904D01*
X230518730Y-123764118D01*
X228392215Y-123764118D01*
X228333273Y-123705074D01*
X227732747Y-123455714D01*
X227082506Y-123455146D01*
X226481545Y-123703458D01*
X226021354Y-124162847D01*
X225771994Y-124763373D01*
X225771426Y-125413614D01*
X222538008Y-125413614D01*
X222538574Y-124766226D01*
X222290262Y-124165265D01*
X221830873Y-123705074D01*
X221665800Y-123636530D01*
X221665800Y-121417430D01*
X222591707Y-120491523D01*
X232933503Y-120491523D01*
X233032102Y-120758325D01*
X233641642Y-120984761D01*
X234291437Y-120960701D01*
X234780018Y-120758325D01*
X234878617Y-120491523D01*
X233906060Y-119518965D01*
X232933503Y-120491523D01*
X222591707Y-120491523D01*
X224008288Y-119074942D01*
X232260659Y-119074942D01*
X232284719Y-119724737D01*
X232487095Y-120213318D01*
X232753897Y-120311917D01*
X233726455Y-119339360D01*
X234085665Y-119339360D01*
X235058223Y-120311917D01*
X235325025Y-120213318D01*
X235345318Y-120158690D01*
X239030000Y-120158690D01*
X239030000Y-120999250D01*
X239188750Y-121158000D01*
X240538000Y-121158000D01*
X240538000Y-119808750D01*
X240792000Y-119808750D01*
X240792000Y-121158000D01*
X242141250Y-121158000D01*
X242300000Y-120999250D01*
X242300000Y-120158690D01*
X242203327Y-119925301D01*
X242024698Y-119746673D01*
X241791309Y-119650000D01*
X240950750Y-119650000D01*
X240792000Y-119808750D01*
X240538000Y-119808750D01*
X240379250Y-119650000D01*
X239538691Y-119650000D01*
X239305302Y-119746673D01*
X239126673Y-119925301D01*
X239030000Y-120158690D01*
X235345318Y-120158690D01*
X235551461Y-119603778D01*
X235527401Y-118953983D01*
X235325025Y-118465402D01*
X235058223Y-118366803D01*
X234085665Y-119339360D01*
X233726455Y-119339360D01*
X232753897Y-118366803D01*
X232487095Y-118465402D01*
X232260659Y-119074942D01*
X224008288Y-119074942D01*
X227980631Y-115102600D01*
X232452374Y-115102600D01*
X232519598Y-115265295D01*
X232844220Y-115590484D01*
X232521214Y-115912927D01*
X232271854Y-116513453D01*
X232271286Y-117163694D01*
X232519598Y-117764655D01*
X232935638Y-118181421D01*
X232933503Y-118187197D01*
X233906060Y-119159755D01*
X234878617Y-118187197D01*
X234876308Y-118180949D01*
X235290906Y-117767073D01*
X235540266Y-117166547D01*
X235540834Y-116516306D01*
X235292522Y-115915345D01*
X234967900Y-115590156D01*
X235290906Y-115267713D01*
X235540266Y-114667187D01*
X235540834Y-114016946D01*
X235292522Y-113415985D01*
X234833133Y-112955794D01*
X234232607Y-112706434D01*
X233582366Y-112705866D01*
X232981405Y-112954178D01*
X232521214Y-113413567D01*
X232452686Y-113578600D01*
X228427000Y-113578600D01*
X228427000Y-113098300D01*
X228368996Y-112806695D01*
X228203815Y-112559485D01*
X226109008Y-110464678D01*
X230518730Y-110464678D01*
X230729226Y-110974117D01*
X231118653Y-111364224D01*
X231627724Y-111575609D01*
X232178938Y-111576090D01*
X232688377Y-111365594D01*
X233078484Y-110976167D01*
X233289869Y-110467096D01*
X233290350Y-109915882D01*
X233079854Y-109406443D01*
X232690427Y-109016336D01*
X232181356Y-108804951D01*
X231630142Y-108804470D01*
X231120703Y-109014966D01*
X230730596Y-109404393D01*
X230519211Y-109913464D01*
X230518730Y-110464678D01*
X226109008Y-110464678D01*
X224367947Y-108723617D01*
X224478694Y-108723714D01*
X225079655Y-108475402D01*
X225314362Y-108241103D01*
X225681803Y-108241103D01*
X225780402Y-108507905D01*
X226389942Y-108734341D01*
X227039737Y-108710281D01*
X227528318Y-108507905D01*
X227626917Y-108241103D01*
X226654360Y-107268545D01*
X225681803Y-108241103D01*
X225314362Y-108241103D01*
X225496421Y-108059362D01*
X225502197Y-108061497D01*
X226474755Y-107088940D01*
X226833965Y-107088940D01*
X227806523Y-108061497D01*
X228073325Y-107962898D01*
X228299761Y-107353358D01*
X228275701Y-106703563D01*
X228073325Y-106214982D01*
X227806523Y-106116383D01*
X226833965Y-107088940D01*
X226474755Y-107088940D01*
X225502197Y-106116383D01*
X225495949Y-106118692D01*
X225314351Y-105936777D01*
X225681803Y-105936777D01*
X226654360Y-106909335D01*
X227626917Y-105936777D01*
X227528318Y-105669975D01*
X226918778Y-105443539D01*
X226268983Y-105467599D01*
X225780402Y-105669975D01*
X225681803Y-105936777D01*
X225314351Y-105936777D01*
X225082073Y-105704094D01*
X224481547Y-105454734D01*
X223831306Y-105454166D01*
X223230345Y-105702478D01*
X222905156Y-106027100D01*
X222582713Y-105704094D01*
X221982187Y-105454734D01*
X221331946Y-105454166D01*
X220730985Y-105702478D01*
X220270794Y-106161867D01*
X220021434Y-106762393D01*
X220020866Y-107412634D01*
X220269178Y-108013595D01*
X220728567Y-108473786D01*
X221329093Y-108723146D01*
X221979334Y-108723714D01*
X222144527Y-108655457D01*
X226903000Y-113413930D01*
X226903000Y-114024969D01*
X220654570Y-120273400D01*
X209147837Y-120273400D01*
X209453944Y-119967827D01*
X209665329Y-119458756D01*
X209665810Y-118907542D01*
X209455314Y-118398103D01*
X209065887Y-118007996D01*
X208556816Y-117796611D01*
X208005602Y-117796130D01*
X207496163Y-118006626D01*
X207106056Y-118396053D01*
X207085048Y-118446645D01*
X207073327Y-118448976D01*
X206927872Y-118477806D01*
X206927652Y-118477953D01*
X206927395Y-118478004D01*
X206804411Y-118560179D01*
X206680550Y-118642820D01*
X206164672Y-119158000D01*
X204499630Y-119158000D01*
X207981320Y-115676310D01*
X208003184Y-115685389D01*
X208554398Y-115685870D01*
X209063837Y-115475374D01*
X209453944Y-115085947D01*
X209665329Y-114576876D01*
X209665810Y-114025662D01*
X209455314Y-113516223D01*
X209065887Y-113126116D01*
X208556816Y-112914731D01*
X208005602Y-112914250D01*
X207496163Y-113124746D01*
X207106056Y-113514173D01*
X206894671Y-114023244D01*
X206894190Y-114574458D01*
X206904049Y-114598320D01*
X203144370Y-118358000D01*
X202314122Y-118358000D01*
X202147765Y-118246843D01*
X201900000Y-118197560D01*
X200572440Y-118197560D01*
X200572440Y-116870000D01*
X200534926Y-116681404D01*
X202943616Y-114272715D01*
X203108797Y-114025504D01*
X203166800Y-113733900D01*
X203166800Y-110464678D01*
X215019650Y-110464678D01*
X215230146Y-110974117D01*
X215619573Y-111364224D01*
X216128644Y-111575609D01*
X216679858Y-111576090D01*
X217189297Y-111365594D01*
X217579404Y-110976167D01*
X217790789Y-110467096D01*
X217791270Y-109915882D01*
X217580774Y-109406443D01*
X217191347Y-109016336D01*
X216682276Y-108804951D01*
X216131062Y-108804470D01*
X215621623Y-109014966D01*
X215231516Y-109404393D01*
X215020131Y-109913464D01*
X215019650Y-110464678D01*
X203166800Y-110464678D01*
X203166800Y-107727490D01*
X204966570Y-107727490D01*
X205214335Y-107678207D01*
X205424379Y-107537859D01*
X205554955Y-107342440D01*
X206270150Y-107342440D01*
X206427230Y-107499520D01*
X206426913Y-107863484D01*
X206590911Y-108260389D01*
X206894314Y-108564322D01*
X207290932Y-108729013D01*
X207720384Y-108729387D01*
X208070553Y-108584700D01*
X209780302Y-108584700D01*
X210138111Y-108513527D01*
X210441447Y-108310845D01*
X214099001Y-104653291D01*
X214373855Y-104928145D01*
X214677191Y-105130827D01*
X215035000Y-105202000D01*
X237415648Y-105202000D01*
X237592567Y-105466778D01*
X238128190Y-105824670D01*
X238760000Y-105950345D01*
X239391810Y-105824670D01*
X239730854Y-105598128D01*
X239826191Y-105740809D01*
X240036235Y-105881157D01*
X240284000Y-105930440D01*
X242316000Y-105930440D01*
X242563765Y-105881157D01*
X242773809Y-105740809D01*
X242914157Y-105530765D01*
X242963440Y-105283000D01*
X242963440Y-103251000D01*
X242914157Y-103003235D01*
X242773809Y-102793191D01*
X242563765Y-102652843D01*
X242316000Y-102603560D01*
X240284000Y-102603560D01*
X240036235Y-102652843D01*
X239826191Y-102793191D01*
X239730854Y-102935872D01*
X239391810Y-102709330D01*
X238760000Y-102583655D01*
X238128190Y-102709330D01*
X237592567Y-103067222D01*
X237415648Y-103332000D01*
X215422290Y-103332000D01*
X215034001Y-102943711D01*
X215034001Y-96520000D01*
X218026655Y-96520000D01*
X218152330Y-97151810D01*
X218510222Y-97687433D01*
X219045845Y-98045325D01*
X219677655Y-98171000D01*
X219742345Y-98171000D01*
X220374155Y-98045325D01*
X220909778Y-97687433D01*
X221180680Y-97282000D01*
X226396484Y-97282000D01*
X226565332Y-97534698D01*
X226947418Y-97790000D01*
X226565332Y-98045302D01*
X226254263Y-98510849D01*
X226145030Y-99060000D01*
X226254263Y-99609151D01*
X226565332Y-100074698D01*
X227030879Y-100385767D01*
X227580030Y-100495000D01*
X228349970Y-100495000D01*
X228899121Y-100385767D01*
X229364668Y-100074698D01*
X229675737Y-99609151D01*
X229715541Y-99409039D01*
X233843096Y-99409039D01*
X233860633Y-99491819D01*
X234130500Y-99984896D01*
X234568517Y-100337166D01*
X235108000Y-100495000D01*
X235458000Y-100495000D01*
X235458000Y-99187000D01*
X235712000Y-99187000D01*
X235712000Y-100495000D01*
X236062000Y-100495000D01*
X236601483Y-100337166D01*
X237039500Y-99984896D01*
X237309367Y-99491819D01*
X237326904Y-99409039D01*
X237204915Y-99187000D01*
X235712000Y-99187000D01*
X235458000Y-99187000D01*
X233965085Y-99187000D01*
X233843096Y-99409039D01*
X229715541Y-99409039D01*
X229784970Y-99060000D01*
X229675737Y-98510849D01*
X229364668Y-98045302D01*
X228982582Y-97790000D01*
X229364668Y-97534698D01*
X229675737Y-97069151D01*
X229784970Y-96520000D01*
X229675737Y-95970849D01*
X229364668Y-95505302D01*
X228982582Y-95250000D01*
X229364668Y-94994698D01*
X229675737Y-94529151D01*
X229784970Y-93980000D01*
X233765030Y-93980000D01*
X233874263Y-94529151D01*
X234185332Y-94994698D01*
X234567418Y-95250000D01*
X234185332Y-95505302D01*
X233874263Y-95970849D01*
X233765030Y-96520000D01*
X233874263Y-97069151D01*
X234185332Y-97534698D01*
X234563151Y-97787149D01*
X234130500Y-98135104D01*
X233860633Y-98628181D01*
X233843096Y-98710961D01*
X233965085Y-98933000D01*
X235458000Y-98933000D01*
X235458000Y-98913000D01*
X235712000Y-98913000D01*
X235712000Y-98933000D01*
X237204915Y-98933000D01*
X237326904Y-98710961D01*
X237309367Y-98628181D01*
X237039500Y-98135104D01*
X236606849Y-97787149D01*
X236984668Y-97534698D01*
X237295737Y-97069151D01*
X237404970Y-96520000D01*
X237295737Y-95970849D01*
X236984668Y-95505302D01*
X236602582Y-95250000D01*
X236984668Y-94994698D01*
X237295737Y-94529151D01*
X237404970Y-93980000D01*
X237295737Y-93430849D01*
X237290369Y-93422815D01*
X238864630Y-93422815D01*
X239188980Y-94207800D01*
X239789041Y-94808909D01*
X240573459Y-95134628D01*
X241422815Y-95135370D01*
X242207800Y-94811020D01*
X242808909Y-94210959D01*
X243134628Y-93426541D01*
X243135370Y-92577185D01*
X242811020Y-91792200D01*
X242210959Y-91191091D01*
X241426541Y-90865372D01*
X240577185Y-90864630D01*
X239792200Y-91188980D01*
X239191091Y-91789041D01*
X238865372Y-92573459D01*
X238864630Y-93422815D01*
X237290369Y-93422815D01*
X236984668Y-92965302D01*
X236519121Y-92654233D01*
X235969970Y-92545000D01*
X235200030Y-92545000D01*
X234650879Y-92654233D01*
X234185332Y-92965302D01*
X233874263Y-93430849D01*
X233765030Y-93980000D01*
X229784970Y-93980000D01*
X229675737Y-93430849D01*
X229364668Y-92965302D01*
X228899121Y-92654233D01*
X228349970Y-92545000D01*
X227580030Y-92545000D01*
X227030879Y-92654233D01*
X226565332Y-92965302D01*
X226254263Y-93430849D01*
X226145030Y-93980000D01*
X226254263Y-94529151D01*
X226565332Y-94994698D01*
X226947418Y-95250000D01*
X226565332Y-95505302D01*
X226396484Y-95758000D01*
X221180680Y-95758000D01*
X221041128Y-95549146D01*
X221183809Y-95453809D01*
X221324157Y-95243765D01*
X221373440Y-94996000D01*
X221373440Y-92964000D01*
X221324157Y-92716235D01*
X221183809Y-92506191D01*
X220973765Y-92365843D01*
X220726000Y-92316560D01*
X218694000Y-92316560D01*
X218446235Y-92365843D01*
X218236191Y-92506191D01*
X218095843Y-92716235D01*
X218046560Y-92964000D01*
X218046560Y-94996000D01*
X218095843Y-95243765D01*
X218236191Y-95453809D01*
X218378872Y-95549146D01*
X218152330Y-95888190D01*
X218026655Y-96520000D01*
X215034001Y-96520000D01*
X215034001Y-95403999D01*
X214962828Y-95046190D01*
X214760146Y-94742854D01*
X210599347Y-90582055D01*
X210296011Y-90379373D01*
X209938202Y-90308200D01*
X207803111Y-90308200D01*
X207650909Y-90245000D01*
X243135070Y-90245000D01*
X243413979Y-90300478D01*
X243591145Y-90418856D01*
X243709521Y-90596019D01*
X243765000Y-90874931D01*
X243765000Y-148520069D01*
X243709521Y-148798981D01*
X243591145Y-148976144D01*
X243413979Y-149094522D01*
X243135070Y-149150000D01*
X146762032Y-149150000D01*
X146491125Y-149090514D01*
X146316257Y-148968595D01*
X146199450Y-148786057D01*
X146149902Y-148522962D01*
X146149902Y-146472815D01*
X146864630Y-146472815D01*
X147188980Y-147257800D01*
X147789041Y-147858909D01*
X148573459Y-148184628D01*
X149422815Y-148185370D01*
X150207800Y-147861020D01*
X150808909Y-147260959D01*
X151134628Y-146476541D01*
X151135370Y-145627185D01*
X150811020Y-144842200D01*
X150210959Y-144241091D01*
X149426541Y-143915372D01*
X148577185Y-143914630D01*
X147792200Y-144238980D01*
X147191091Y-144839041D01*
X146865372Y-145623459D01*
X146864630Y-146472815D01*
X146149902Y-146472815D01*
X146149902Y-141916163D01*
X165745929Y-141916163D01*
X165766072Y-142665664D01*
X166014141Y-143264555D01*
X166306911Y-143393763D01*
X167460395Y-142240280D01*
X167819605Y-142240280D01*
X168973089Y-143393763D01*
X169265859Y-143264555D01*
X169534071Y-142564397D01*
X169513928Y-141814896D01*
X169265859Y-141216005D01*
X168973089Y-141086797D01*
X167819605Y-142240280D01*
X167460395Y-142240280D01*
X166306911Y-141086797D01*
X166014141Y-141216005D01*
X165745929Y-141916163D01*
X146149902Y-141916163D01*
X146149902Y-140907191D01*
X166486517Y-140907191D01*
X167640000Y-142060675D01*
X168793483Y-140907191D01*
X168664275Y-140614421D01*
X167964117Y-140346209D01*
X167214616Y-140366352D01*
X166615725Y-140614421D01*
X166486517Y-140907191D01*
X146149902Y-140907191D01*
X146149902Y-137795000D01*
X146149865Y-137794812D01*
X146149902Y-137794624D01*
X146143781Y-126242083D01*
X161511243Y-126242083D01*
X161609842Y-126508885D01*
X162219382Y-126735321D01*
X162869177Y-126711261D01*
X163357758Y-126508885D01*
X163456357Y-126242083D01*
X162483800Y-125269525D01*
X161511243Y-126242083D01*
X146143781Y-126242083D01*
X146142468Y-123764118D01*
X156599650Y-123764118D01*
X156810146Y-124273557D01*
X157199573Y-124663664D01*
X157708644Y-124875049D01*
X158259858Y-124875530D01*
X158380934Y-124825502D01*
X160838399Y-124825502D01*
X160862459Y-125475297D01*
X161064835Y-125963878D01*
X161331637Y-126062477D01*
X162304195Y-125089920D01*
X162663405Y-125089920D01*
X163635963Y-126062477D01*
X163902765Y-125963878D01*
X164107180Y-125413614D01*
X167351426Y-125413614D01*
X167599738Y-126014575D01*
X168059127Y-126474766D01*
X168659653Y-126724126D01*
X169309894Y-126724694D01*
X169910855Y-126476382D01*
X170371046Y-126016993D01*
X170620406Y-125416467D01*
X170620974Y-124766226D01*
X170372662Y-124165265D01*
X169972215Y-123764118D01*
X172098730Y-123764118D01*
X172309226Y-124273557D01*
X172698653Y-124663664D01*
X173207724Y-124875049D01*
X173758938Y-124875530D01*
X174268377Y-124665034D01*
X174658484Y-124275607D01*
X174869869Y-123766536D01*
X174870350Y-123215322D01*
X174659854Y-122705883D01*
X174270427Y-122315776D01*
X173761356Y-122104391D01*
X173210142Y-122103910D01*
X172700703Y-122314406D01*
X172310596Y-122703833D01*
X172099211Y-123212904D01*
X172098730Y-123764118D01*
X169972215Y-123764118D01*
X169913273Y-123705074D01*
X169312747Y-123455714D01*
X168662506Y-123455146D01*
X168061545Y-123703458D01*
X167601354Y-124162847D01*
X167351994Y-124763373D01*
X167351426Y-125413614D01*
X164107180Y-125413614D01*
X164129201Y-125354338D01*
X164105141Y-124704543D01*
X163902765Y-124215962D01*
X163635963Y-124117363D01*
X162663405Y-125089920D01*
X162304195Y-125089920D01*
X161331637Y-124117363D01*
X161064835Y-124215962D01*
X160838399Y-124825502D01*
X158380934Y-124825502D01*
X158769297Y-124665034D01*
X159159404Y-124275607D01*
X159299691Y-123937757D01*
X161511243Y-123937757D01*
X162483800Y-124910315D01*
X163456357Y-123937757D01*
X163357758Y-123670955D01*
X162748218Y-123444519D01*
X162098423Y-123468579D01*
X161609842Y-123670955D01*
X161511243Y-123937757D01*
X159299691Y-123937757D01*
X159370789Y-123766536D01*
X159371270Y-123215322D01*
X159160774Y-122705883D01*
X158771347Y-122315776D01*
X158262276Y-122104391D01*
X157711062Y-122103910D01*
X157201623Y-122314406D01*
X156811516Y-122703833D01*
X156600131Y-123212904D01*
X156599650Y-123764118D01*
X146142468Y-123764118D01*
X146140653Y-120338694D01*
X148225226Y-120338694D01*
X148473538Y-120939655D01*
X148932927Y-121399846D01*
X149533453Y-121649206D01*
X150183694Y-121649774D01*
X150784655Y-121401462D01*
X151019363Y-121167163D01*
X152062443Y-121167163D01*
X152161042Y-121433965D01*
X152770582Y-121660401D01*
X153420377Y-121636341D01*
X153908958Y-121433965D01*
X154007557Y-121167163D01*
X153035000Y-120194605D01*
X152062443Y-121167163D01*
X151019363Y-121167163D01*
X151244846Y-120942073D01*
X151441684Y-120468035D01*
X151616035Y-120888958D01*
X151882837Y-120987557D01*
X152855395Y-120015000D01*
X153214605Y-120015000D01*
X154187163Y-120987557D01*
X154453965Y-120888958D01*
X154680401Y-120279418D01*
X154656341Y-119629623D01*
X154453965Y-119141042D01*
X154187163Y-119042443D01*
X153214605Y-120015000D01*
X152855395Y-120015000D01*
X151882837Y-119042443D01*
X151616035Y-119141042D01*
X151450987Y-119585333D01*
X151246462Y-119090345D01*
X151019351Y-118862837D01*
X152062443Y-118862837D01*
X153035000Y-119835395D01*
X154007557Y-118862837D01*
X153908958Y-118596035D01*
X153299418Y-118369599D01*
X152649623Y-118393659D01*
X152161042Y-118596035D01*
X152062443Y-118862837D01*
X151019351Y-118862837D01*
X150787073Y-118630154D01*
X150186547Y-118380794D01*
X149536306Y-118380226D01*
X148935345Y-118628538D01*
X148475154Y-119087927D01*
X148225794Y-119688453D01*
X148225226Y-120338694D01*
X146140653Y-120338694D01*
X146135910Y-111389016D01*
X147870590Y-111389016D01*
X147926271Y-111619611D01*
X148409078Y-111787622D01*
X148919428Y-111758083D01*
X149253729Y-111619611D01*
X149309410Y-111389016D01*
X148590000Y-110669605D01*
X147870590Y-111389016D01*
X146135910Y-111389016D01*
X146135337Y-110309078D01*
X147292378Y-110309078D01*
X147321917Y-110819428D01*
X147460389Y-111153729D01*
X147690984Y-111209410D01*
X148410395Y-110490000D01*
X147690984Y-109770590D01*
X147460389Y-109826271D01*
X147292378Y-110309078D01*
X146135337Y-110309078D01*
X146134957Y-109590984D01*
X147870590Y-109590984D01*
X148590000Y-110310395D01*
X149309410Y-109590984D01*
X149253729Y-109360389D01*
X148770922Y-109192378D01*
X148260572Y-109221917D01*
X147926271Y-109360389D01*
X147870590Y-109590984D01*
X146134957Y-109590984D01*
X146132872Y-105655750D01*
X148600000Y-105655750D01*
X148600000Y-106246309D01*
X148696673Y-106479698D01*
X148875301Y-106658327D01*
X149108690Y-106755000D01*
X149574250Y-106755000D01*
X149733000Y-106596250D01*
X149733000Y-105497000D01*
X149987000Y-105497000D01*
X149987000Y-106596250D01*
X150145750Y-106755000D01*
X150611310Y-106755000D01*
X150844699Y-106658327D01*
X151023327Y-106479698D01*
X151120000Y-106246309D01*
X151120000Y-105655750D01*
X150961250Y-105497000D01*
X149987000Y-105497000D01*
X149733000Y-105497000D01*
X148758750Y-105497000D01*
X148600000Y-105655750D01*
X146132872Y-105655750D01*
X146130998Y-102120000D01*
X148587560Y-102120000D01*
X148587560Y-103620000D01*
X148636843Y-103867765D01*
X148777191Y-104077809D01*
X148838320Y-104118654D01*
X148696673Y-104260302D01*
X148600000Y-104493691D01*
X148600000Y-105084250D01*
X148758750Y-105243000D01*
X149733000Y-105243000D01*
X149733000Y-105223000D01*
X149987000Y-105223000D01*
X149987000Y-105243000D01*
X150961250Y-105243000D01*
X151120000Y-105084250D01*
X151120000Y-104493691D01*
X151023327Y-104260302D01*
X150881680Y-104118654D01*
X150942809Y-104077809D01*
X151083157Y-103867765D01*
X151130053Y-103632000D01*
X152429642Y-103632000D01*
X152325019Y-103846065D01*
X152451932Y-104013000D01*
X153543000Y-104013000D01*
X153543000Y-103993000D01*
X153797000Y-103993000D01*
X153797000Y-104013000D01*
X154888068Y-104013000D01*
X155014981Y-103846065D01*
X154910358Y-103632000D01*
X155833070Y-103632000D01*
X155833070Y-103869490D01*
X155882353Y-104117255D01*
X156022701Y-104327299D01*
X156232745Y-104467647D01*
X156480510Y-104516930D01*
X158479490Y-104516930D01*
X158727255Y-104467647D01*
X158937299Y-104327299D01*
X159077647Y-104117255D01*
X159126930Y-103869490D01*
X159126930Y-103193694D01*
X159655226Y-103193694D01*
X159903538Y-103794655D01*
X160362927Y-104254846D01*
X160963453Y-104504206D01*
X161613694Y-104504774D01*
X162214655Y-104256462D01*
X162674846Y-103797073D01*
X162924206Y-103196547D01*
X162924774Y-102546306D01*
X162676462Y-101945345D01*
X162217073Y-101485154D01*
X161616547Y-101235794D01*
X160966306Y-101235226D01*
X160365345Y-101483538D01*
X159905154Y-101942927D01*
X159655794Y-102543453D01*
X159655226Y-103193694D01*
X159126930Y-103193694D01*
X159126930Y-101870510D01*
X159077647Y-101622745D01*
X158937299Y-101412701D01*
X158727255Y-101272353D01*
X158479490Y-101223070D01*
X156480510Y-101223070D01*
X156232745Y-101272353D01*
X156022701Y-101412701D01*
X155882353Y-101622745D01*
X155833070Y-101870510D01*
X155833070Y-102108000D01*
X154768332Y-102108000D01*
X154765049Y-102103086D01*
X154413186Y-101867979D01*
X153998135Y-101785420D01*
X153341865Y-101785420D01*
X152926814Y-101867979D01*
X152574951Y-102103086D01*
X152571668Y-102108000D01*
X151130053Y-102108000D01*
X151083157Y-101872235D01*
X150942809Y-101662191D01*
X150732765Y-101521843D01*
X150485000Y-101472560D01*
X149235000Y-101472560D01*
X148987235Y-101521843D01*
X148777191Y-101662191D01*
X148636843Y-101872235D01*
X148587560Y-102120000D01*
X146130998Y-102120000D01*
X146128608Y-97609078D01*
X165072378Y-97609078D01*
X165101917Y-98119428D01*
X165240389Y-98453729D01*
X165470984Y-98509410D01*
X166190395Y-97790000D01*
X165470984Y-97070590D01*
X165240389Y-97126271D01*
X165072378Y-97609078D01*
X146128608Y-97609078D01*
X146127660Y-95821320D01*
X153826285Y-95821320D01*
X153955533Y-96114123D01*
X154655806Y-96382388D01*
X155405435Y-96362250D01*
X156004467Y-96114123D01*
X156133715Y-95821320D01*
X154980000Y-94667605D01*
X153826285Y-95821320D01*
X146127660Y-95821320D01*
X146126388Y-93422815D01*
X146864630Y-93422815D01*
X147188980Y-94207800D01*
X147789041Y-94808909D01*
X148573459Y-95134628D01*
X149422815Y-95135370D01*
X150207800Y-94811020D01*
X150808909Y-94210959D01*
X150828488Y-94163806D01*
X153085612Y-94163806D01*
X153105750Y-94913435D01*
X153353877Y-95512467D01*
X153646680Y-95641715D01*
X154800395Y-94488000D01*
X155159605Y-94488000D01*
X156313320Y-95641715D01*
X156606123Y-95512467D01*
X156855574Y-94861305D01*
X158094674Y-94861305D01*
X158381043Y-95554372D01*
X158910839Y-96085093D01*
X159603405Y-96372672D01*
X160353305Y-96373326D01*
X161046372Y-96086957D01*
X161577093Y-95557161D01*
X161864672Y-94864595D01*
X161864867Y-94640000D01*
X165072560Y-94640000D01*
X165072560Y-95940000D01*
X165121843Y-96187765D01*
X165262191Y-96397809D01*
X165472235Y-96538157D01*
X165720000Y-96587440D01*
X165882385Y-96587440D01*
X165706271Y-96660389D01*
X165650590Y-96890984D01*
X166370000Y-97610395D01*
X167089410Y-96890984D01*
X167033729Y-96660389D01*
X166824098Y-96587440D01*
X167020000Y-96587440D01*
X167267765Y-96538157D01*
X167477809Y-96397809D01*
X167618157Y-96187765D01*
X167667440Y-95940000D01*
X167667440Y-94640000D01*
X167618157Y-94392235D01*
X167477809Y-94182191D01*
X167267765Y-94041843D01*
X167020000Y-93992560D01*
X165720000Y-93992560D01*
X165472235Y-94041843D01*
X165262191Y-94182191D01*
X165121843Y-94392235D01*
X165072560Y-94640000D01*
X161864867Y-94640000D01*
X161865326Y-94114695D01*
X161578957Y-93421628D01*
X161049161Y-92890907D01*
X160356595Y-92603328D01*
X159606695Y-92602674D01*
X158913628Y-92889043D01*
X158382907Y-93418839D01*
X158095328Y-94111405D01*
X158094674Y-94861305D01*
X156855574Y-94861305D01*
X156874388Y-94812194D01*
X156854250Y-94062565D01*
X156606123Y-93463533D01*
X156313320Y-93334285D01*
X155159605Y-94488000D01*
X154800395Y-94488000D01*
X153646680Y-93334285D01*
X153353877Y-93463533D01*
X153085612Y-94163806D01*
X150828488Y-94163806D01*
X151134628Y-93426541D01*
X151134865Y-93154680D01*
X153826285Y-93154680D01*
X154980000Y-94308395D01*
X156133715Y-93154680D01*
X156004467Y-92861877D01*
X155304194Y-92593612D01*
X154554565Y-92613750D01*
X153955533Y-92861877D01*
X153826285Y-93154680D01*
X151134865Y-93154680D01*
X151135370Y-92577185D01*
X150811020Y-91792200D01*
X150210959Y-91191091D01*
X149426541Y-90865372D01*
X148577185Y-90864630D01*
X147792200Y-91188980D01*
X147191091Y-91789041D01*
X146865372Y-92573459D01*
X146864630Y-93422815D01*
X146126388Y-93422815D01*
X146125037Y-90874744D01*
X146180478Y-90596021D01*
X146298856Y-90418855D01*
X146476019Y-90300479D01*
X146754931Y-90245000D01*
X165897163Y-90245000D01*
X165643057Y-90349995D01*
X165643057Y-90349995D01*
G37*
X165643057Y-90349995D02*
X165281265Y-90711155D01*
X165085223Y-91183276D01*
X165084777Y-91694481D01*
X165279995Y-92166943D01*
X165641155Y-92528735D01*
X166113276Y-92724777D01*
X166624481Y-92725223D01*
X167096943Y-92530005D01*
X167458735Y-92168845D01*
X167654777Y-91696724D01*
X167655223Y-91185519D01*
X167460005Y-90713057D01*
X167098845Y-90351265D01*
X166842931Y-90245000D01*
X170392681Y-90245000D01*
X170262191Y-90332191D01*
X170121843Y-90542235D01*
X170072560Y-90790000D01*
X170072560Y-92090000D01*
X170121843Y-92337765D01*
X170262191Y-92547809D01*
X170472235Y-92688157D01*
X170720000Y-92737440D01*
X172020000Y-92737440D01*
X172267765Y-92688157D01*
X172477809Y-92547809D01*
X172618157Y-92337765D01*
X172667440Y-92090000D01*
X172667440Y-90790000D01*
X172618157Y-90542235D01*
X172477809Y-90332191D01*
X172347319Y-90245000D01*
X181279970Y-90245000D01*
X181246513Y-90267355D01*
X180572664Y-90941204D01*
X180459055Y-90865293D01*
X180211290Y-90816010D01*
X178410430Y-90816010D01*
X178162665Y-90865293D01*
X177952621Y-91005641D01*
X177867013Y-91133761D01*
X177750229Y-91156991D01*
X177737595Y-91159504D01*
X177627601Y-91233000D01*
X177110053Y-91233000D01*
X177063157Y-90997235D01*
X176922809Y-90787191D01*
X176712765Y-90646843D01*
X176465000Y-90597560D01*
X175165000Y-90597560D01*
X174917235Y-90646843D01*
X174707191Y-90787191D01*
X174566843Y-90997235D01*
X174517560Y-91245000D01*
X174517560Y-92745000D01*
X174566843Y-92992765D01*
X174707191Y-93202809D01*
X174917235Y-93343157D01*
X174926500Y-93345000D01*
X174917235Y-93346843D01*
X174707191Y-93487191D01*
X174566843Y-93697235D01*
X174517560Y-93945000D01*
X174517560Y-93985939D01*
X174492095Y-93991004D01*
X174295518Y-94122353D01*
X174244885Y-94156185D01*
X173084433Y-95316637D01*
X173084774Y-94926306D01*
X172836462Y-94325345D01*
X172377073Y-93865154D01*
X171776547Y-93615794D01*
X171126306Y-93615226D01*
X170525345Y-93863538D01*
X170065154Y-94322927D01*
X169815794Y-94923453D01*
X169815226Y-95573694D01*
X170007900Y-96040000D01*
X169060400Y-96040000D01*
X168768795Y-96098004D01*
X168521584Y-96263185D01*
X167546148Y-97238621D01*
X167499611Y-97126271D01*
X167269016Y-97070590D01*
X166549605Y-97790000D01*
X166563748Y-97804143D01*
X166384143Y-97983748D01*
X166370000Y-97969605D01*
X165650590Y-98689016D01*
X165706271Y-98919611D01*
X165824141Y-98960628D01*
X164742985Y-100041785D01*
X164577804Y-100288995D01*
X164519800Y-100580600D01*
X164519800Y-104365300D01*
X164577804Y-104656905D01*
X164717517Y-104866000D01*
X164742985Y-104904115D01*
X164951085Y-105112215D01*
X165198295Y-105277396D01*
X165489900Y-105335400D01*
X170815570Y-105335400D01*
X172362585Y-106882415D01*
X172609795Y-107047596D01*
X172901400Y-107105600D01*
X175232560Y-107105600D01*
X175232560Y-108225000D01*
X175281843Y-108472765D01*
X175422191Y-108682809D01*
X175632235Y-108823157D01*
X175768000Y-108850162D01*
X175768000Y-110663600D01*
X175826004Y-110955205D01*
X175985560Y-111193996D01*
X175991185Y-111202415D01*
X179946084Y-115157315D01*
X180123236Y-115275684D01*
X180193295Y-115322496D01*
X180484900Y-115380500D01*
X184805335Y-115380500D01*
X184784947Y-115483000D01*
X177706131Y-115483000D01*
X177052798Y-114829668D01*
X177120266Y-114667187D01*
X177120834Y-114016946D01*
X176872522Y-113415985D01*
X176413133Y-112955794D01*
X175812607Y-112706434D01*
X175162366Y-112705866D01*
X174561405Y-112954178D01*
X174101214Y-113413567D01*
X174032686Y-113578600D01*
X170802931Y-113578600D01*
X167689009Y-110464678D01*
X172098730Y-110464678D01*
X172309226Y-110974117D01*
X172698653Y-111364224D01*
X173207724Y-111575609D01*
X173758938Y-111576090D01*
X174268377Y-111365594D01*
X174658484Y-110976167D01*
X174869869Y-110467096D01*
X174870350Y-109915882D01*
X174659854Y-109406443D01*
X174270427Y-109016336D01*
X173761356Y-108804951D01*
X173210142Y-108804470D01*
X172700703Y-109014966D01*
X172310596Y-109404393D01*
X172099211Y-109913464D01*
X172098730Y-110464678D01*
X167689009Y-110464678D01*
X165947948Y-108723617D01*
X166058694Y-108723714D01*
X166659655Y-108475402D01*
X166894362Y-108241103D01*
X167261803Y-108241103D01*
X167360402Y-108507905D01*
X167969942Y-108734341D01*
X168619737Y-108710281D01*
X169108318Y-108507905D01*
X169206917Y-108241103D01*
X168234360Y-107268545D01*
X167261803Y-108241103D01*
X166894362Y-108241103D01*
X167076421Y-108059362D01*
X167082197Y-108061497D01*
X168054755Y-107088940D01*
X168413965Y-107088940D01*
X169386523Y-108061497D01*
X169653325Y-107962898D01*
X169879761Y-107353358D01*
X169855701Y-106703563D01*
X169653325Y-106214982D01*
X169386523Y-106116383D01*
X168413965Y-107088940D01*
X168054755Y-107088940D01*
X167082197Y-106116383D01*
X167075949Y-106118692D01*
X166894351Y-105936777D01*
X167261803Y-105936777D01*
X168234360Y-106909335D01*
X169206917Y-105936777D01*
X169108318Y-105669975D01*
X168498778Y-105443539D01*
X167848983Y-105467599D01*
X167360402Y-105669975D01*
X167261803Y-105936777D01*
X166894351Y-105936777D01*
X166662073Y-105704094D01*
X166061547Y-105454734D01*
X165411306Y-105454166D01*
X164810345Y-105702478D01*
X164485156Y-106027100D01*
X164162713Y-105704094D01*
X163562187Y-105454734D01*
X162911946Y-105454166D01*
X162310985Y-105702478D01*
X161850794Y-106161867D01*
X161782266Y-106326900D01*
X154833630Y-106326900D01*
X154716250Y-106209520D01*
X154765049Y-106176914D01*
X155000156Y-105825051D01*
X155082715Y-105410000D01*
X155000156Y-104994949D01*
X154850359Y-104770762D01*
X155014981Y-104433935D01*
X154888068Y-104267000D01*
X153797000Y-104267000D01*
X153797000Y-104287000D01*
X153543000Y-104287000D01*
X153543000Y-104267000D01*
X152451932Y-104267000D01*
X152325019Y-104433935D01*
X152489641Y-104770762D01*
X152339844Y-104994949D01*
X152257285Y-105410000D01*
X152339844Y-105825051D01*
X152574951Y-106176914D01*
X152926814Y-106412021D01*
X152942665Y-106415174D01*
X152966004Y-106532505D01*
X153104648Y-106740000D01*
X153131185Y-106779715D01*
X153440370Y-107088900D01*
X151582485Y-108946785D01*
X151418263Y-109192560D01*
X150440000Y-109192560D01*
X150192235Y-109241843D01*
X149982191Y-109382191D01*
X149841843Y-109592235D01*
X149792560Y-109840000D01*
X149792560Y-110002385D01*
X149719611Y-109826271D01*
X149489016Y-109770590D01*
X148769605Y-110490000D01*
X149489016Y-111209410D01*
X149719611Y-111153729D01*
X149792560Y-110944098D01*
X149792560Y-111140000D01*
X149841843Y-111387765D01*
X149982191Y-111597809D01*
X150192235Y-111738157D01*
X150440000Y-111787440D01*
X151740000Y-111787440D01*
X151987765Y-111738157D01*
X152197809Y-111597809D01*
X152338157Y-111387765D01*
X152375208Y-111201494D01*
X152412905Y-111193996D01*
X152660115Y-111028815D01*
X152825296Y-110781605D01*
X152883300Y-110490000D01*
X152883300Y-110464678D01*
X156599650Y-110464678D01*
X156810146Y-110974117D01*
X157199573Y-111364224D01*
X157708644Y-111575609D01*
X158259858Y-111576090D01*
X158769297Y-111365594D01*
X159159404Y-110976167D01*
X159370789Y-110467096D01*
X159371270Y-109915882D01*
X159160774Y-109406443D01*
X158771347Y-109016336D01*
X158262276Y-108804951D01*
X157711062Y-108804470D01*
X157201623Y-109014966D01*
X156811516Y-109404393D01*
X156600131Y-109913464D01*
X156599650Y-110464678D01*
X152883300Y-110464678D01*
X152883300Y-109801230D01*
X154833631Y-107850900D01*
X161781954Y-107850900D01*
X161849178Y-108013595D01*
X162308567Y-108473786D01*
X162909093Y-108723146D01*
X163559334Y-108723714D01*
X163724527Y-108655458D01*
X169948484Y-114879415D01*
X170163654Y-115023187D01*
X170195695Y-115044596D01*
X170487300Y-115102600D01*
X174032374Y-115102600D01*
X174099598Y-115265295D01*
X174424220Y-115590484D01*
X174101214Y-115912927D01*
X173851854Y-116513453D01*
X173851286Y-117163694D01*
X173919554Y-117328916D01*
X173530685Y-117717785D01*
X173365504Y-117964995D01*
X173307500Y-118256600D01*
X173307500Y-119927900D01*
X173365504Y-120219505D01*
X173525406Y-120458815D01*
X173530685Y-120466715D01*
X176157650Y-123093681D01*
X176111843Y-123162235D01*
X176062560Y-123410000D01*
X176062560Y-125442000D01*
X176111843Y-125689765D01*
X176252191Y-125899809D01*
X176394872Y-125995146D01*
X176168330Y-126334190D01*
X176042655Y-126966000D01*
X176116929Y-127339400D01*
X155108600Y-127339400D01*
X154816995Y-127397404D01*
X154569784Y-127562585D01*
X153524084Y-128608285D01*
X153361547Y-128540794D01*
X152711306Y-128540226D01*
X152110345Y-128788538D01*
X151650154Y-129247927D01*
X151581610Y-129413000D01*
X151313670Y-129413000D01*
X151246462Y-129250345D01*
X150787073Y-128790154D01*
X150186547Y-128540794D01*
X149536306Y-128540226D01*
X148935345Y-128788538D01*
X148475154Y-129247927D01*
X148225794Y-129848453D01*
X148225226Y-130498694D01*
X148473538Y-131099655D01*
X148932927Y-131559846D01*
X149533453Y-131809206D01*
X150183694Y-131809774D01*
X150784655Y-131561462D01*
X151244846Y-131102073D01*
X151313390Y-130937000D01*
X151581330Y-130937000D01*
X151648538Y-131099655D01*
X152107927Y-131559846D01*
X152708453Y-131809206D01*
X153358694Y-131809774D01*
X153959655Y-131561462D01*
X154419846Y-131102073D01*
X154669206Y-130501547D01*
X154669774Y-129851306D01*
X154601518Y-129686113D01*
X155424231Y-128863400D01*
X160973855Y-128863400D01*
X160849594Y-129162653D01*
X160849026Y-129812894D01*
X161097338Y-130413855D01*
X161556727Y-130874046D01*
X162157253Y-131123406D01*
X162807494Y-131123974D01*
X162972687Y-131055718D01*
X165682085Y-133765116D01*
X165929296Y-133930297D01*
X166220900Y-133988300D01*
X195560855Y-133988300D01*
X195552560Y-134030000D01*
X195552560Y-135530000D01*
X195601843Y-135777765D01*
X195723633Y-135960036D01*
X187640570Y-144043100D01*
X187553600Y-144043100D01*
X187553600Y-143795750D01*
X187394850Y-143637000D01*
X186182000Y-143637000D01*
X186182000Y-143657000D01*
X185928000Y-143657000D01*
X185928000Y-143637000D01*
X185908000Y-143637000D01*
X185908000Y-143383000D01*
X185928000Y-143383000D01*
X185928000Y-142170150D01*
X186182000Y-142170150D01*
X186182000Y-143383000D01*
X187394850Y-143383000D01*
X187553600Y-143224250D01*
X187553600Y-142520091D01*
X187456927Y-142286702D01*
X187278299Y-142108073D01*
X187044910Y-142011400D01*
X186340750Y-142011400D01*
X186182000Y-142170150D01*
X185928000Y-142170150D01*
X185769250Y-142011400D01*
X185065090Y-142011400D01*
X184831701Y-142108073D01*
X184653073Y-142286702D01*
X184588737Y-142442023D01*
X184574670Y-142420971D01*
X184088489Y-142096115D01*
X183515000Y-141982041D01*
X182941511Y-142096115D01*
X182455330Y-142420971D01*
X182239336Y-142744228D01*
X182181821Y-142621510D01*
X181749947Y-142227312D01*
X181334026Y-142055042D01*
X181102000Y-142176183D01*
X181102000Y-143383000D01*
X181122000Y-143383000D01*
X181122000Y-143637000D01*
X181102000Y-143637000D01*
X181102000Y-143657000D01*
X180848000Y-143657000D01*
X180848000Y-143637000D01*
X180828000Y-143637000D01*
X180828000Y-143383000D01*
X180848000Y-143383000D01*
X180848000Y-142176183D01*
X180615974Y-142055042D01*
X180200053Y-142227312D01*
X179768179Y-142621510D01*
X179710664Y-142744228D01*
X179494670Y-142420971D01*
X179008489Y-142096115D01*
X178435000Y-141982041D01*
X177861511Y-142096115D01*
X177375330Y-142420971D01*
X177165000Y-142735752D01*
X176954670Y-142420971D01*
X176468489Y-142096115D01*
X175895000Y-141982041D01*
X175321511Y-142096115D01*
X174835330Y-142420971D01*
X174510474Y-142907152D01*
X174396400Y-143480641D01*
X174396400Y-143539359D01*
X174491608Y-144018000D01*
X168297650Y-144018000D01*
X168664275Y-143866139D01*
X168793483Y-143573369D01*
X167640000Y-142419885D01*
X166486517Y-143573369D01*
X166615725Y-143866139D01*
X167012153Y-144018000D01*
X165880931Y-144018000D01*
X165738566Y-143673449D01*
X165208859Y-143142818D01*
X164516411Y-142855288D01*
X163766639Y-142854634D01*
X163073689Y-143140954D01*
X162543058Y-143670661D01*
X162255528Y-144363109D01*
X162254874Y-145112881D01*
X162541194Y-145805831D01*
X163070901Y-146336462D01*
X163763349Y-146623992D01*
X164513121Y-146624646D01*
X165206071Y-146338326D01*
X165736702Y-145808619D01*
X165847412Y-145542000D01*
X166811748Y-145542000D01*
X166573809Y-145640314D01*
X166043178Y-146170021D01*
X165755648Y-146862469D01*
X165754994Y-147612241D01*
X166041314Y-148305191D01*
X166571021Y-148835822D01*
X167263469Y-149123352D01*
X168013241Y-149124006D01*
X168706191Y-148837686D01*
X169236822Y-148307979D01*
X169524352Y-147615531D01*
X169525006Y-146865759D01*
X169238686Y-146172809D01*
X168708979Y-145642178D01*
X168467724Y-145542000D01*
X174491608Y-145542000D01*
X174396400Y-146020641D01*
X174396400Y-146079359D01*
X174510474Y-146652848D01*
X174835330Y-147139029D01*
X175321511Y-147463885D01*
X175895000Y-147577959D01*
X176468489Y-147463885D01*
X176954670Y-147139029D01*
X177165000Y-146824248D01*
X177375330Y-147139029D01*
X177861511Y-147463885D01*
X178435000Y-147577959D01*
X179008489Y-147463885D01*
X179303341Y-147266871D01*
X179870885Y-147834415D01*
X180118095Y-147999596D01*
X180409700Y-148057600D01*
X188096200Y-148057600D01*
X188387805Y-147999596D01*
X188635015Y-147834415D01*
X192815095Y-143654335D01*
X192704025Y-143892944D01*
X192903615Y-144374818D01*
X192993113Y-144471338D01*
X192836191Y-144576191D01*
X192695843Y-144786235D01*
X192646560Y-145034000D01*
X192646560Y-147066000D01*
X192695843Y-147313765D01*
X192836191Y-147523809D01*
X193046235Y-147664157D01*
X193294000Y-147713440D01*
X195326000Y-147713440D01*
X195573765Y-147664157D01*
X195783809Y-147523809D01*
X195924157Y-147313765D01*
X195973440Y-147066000D01*
X195973440Y-145034000D01*
X195924157Y-144786235D01*
X195783809Y-144576191D01*
X195626887Y-144471338D01*
X195716385Y-144374818D01*
X195915975Y-143892944D01*
X195796836Y-143637000D01*
X194437000Y-143637000D01*
X194437000Y-143657000D01*
X194183000Y-143657000D01*
X194183000Y-143637000D01*
X194163000Y-143637000D01*
X194163000Y-143383000D01*
X194183000Y-143383000D01*
X194183000Y-143363000D01*
X194437000Y-143363000D01*
X194437000Y-143383000D01*
X195796836Y-143383000D01*
X195915975Y-143127056D01*
X195797533Y-142841100D01*
X196544701Y-142841100D01*
X196698695Y-142943996D01*
X196990300Y-143002000D01*
X209393088Y-143002000D01*
X209292041Y-143510000D01*
X209406115Y-144083489D01*
X209730971Y-144569670D01*
X210217152Y-144894526D01*
X210790641Y-145008600D01*
X210849359Y-145008600D01*
X211422848Y-144894526D01*
X211909029Y-144569670D01*
X212089992Y-144298839D01*
X212471510Y-144716821D01*
X213000973Y-144964968D01*
X213233000Y-144844469D01*
X213233000Y-143637000D01*
X213487000Y-143637000D01*
X213487000Y-144844469D01*
X213719027Y-144964968D01*
X214248490Y-144716821D01*
X214642688Y-144284947D01*
X214814958Y-143869026D01*
X214693817Y-143637000D01*
X213487000Y-143637000D01*
X213233000Y-143637000D01*
X213213000Y-143637000D01*
X213213000Y-143383000D01*
X213233000Y-143383000D01*
X213233000Y-143363000D01*
X213487000Y-143363000D01*
X213487000Y-143383000D01*
X214693817Y-143383000D01*
X214814958Y-143150974D01*
X214642688Y-142735053D01*
X214248490Y-142303179D01*
X214125772Y-142245664D01*
X214449029Y-142029670D01*
X214647926Y-141732000D01*
X218363400Y-141732000D01*
X218655005Y-141673996D01*
X218902215Y-141508815D01*
X219316560Y-141094470D01*
X219316560Y-141986000D01*
X219365843Y-142233765D01*
X219506191Y-142443809D01*
X219648872Y-142539146D01*
X219422330Y-142878190D01*
X219296655Y-143510000D01*
X219422330Y-144141810D01*
X219780222Y-144677433D01*
X220315845Y-145035325D01*
X220947655Y-145161000D01*
X221012345Y-145161000D01*
X221644155Y-145035325D01*
X222179778Y-144677433D01*
X222537670Y-144141810D01*
X222663345Y-143510000D01*
X222537670Y-142878190D01*
X222311128Y-142539146D01*
X222453809Y-142443809D01*
X222594157Y-142233765D01*
X222643440Y-141986000D01*
X222643440Y-141080670D01*
X222783100Y-141220330D01*
X222783100Y-141605000D01*
X222841104Y-141896605D01*
X223006285Y-142143815D01*
X223253495Y-142308996D01*
X223506714Y-142359365D01*
X223730330Y-142694029D01*
X224001172Y-142875000D01*
X223730330Y-143055971D01*
X223405474Y-143542152D01*
X223291400Y-144115641D01*
X223291400Y-144174359D01*
X223405474Y-144747848D01*
X223717904Y-145215432D01*
X223678635Y-145223243D01*
X223468591Y-145363591D01*
X223328243Y-145573635D01*
X223278960Y-145821400D01*
X223278960Y-147548600D01*
X223328243Y-147796365D01*
X223468591Y-148006409D01*
X223678635Y-148146757D01*
X223926400Y-148196040D01*
X225653600Y-148196040D01*
X225901365Y-148146757D01*
X226111409Y-148006409D01*
X226251757Y-147796365D01*
X226269520Y-147707064D01*
X226555053Y-147967688D01*
X226970974Y-148139958D01*
X227203000Y-148018817D01*
X227203000Y-146812000D01*
X227457000Y-146812000D01*
X227457000Y-148018817D01*
X227689026Y-148139958D01*
X228104947Y-147967688D01*
X228536821Y-147573490D01*
X228784968Y-147044027D01*
X228664469Y-146812000D01*
X227457000Y-146812000D01*
X227203000Y-146812000D01*
X227183000Y-146812000D01*
X227183000Y-146710000D01*
X232342560Y-146710000D01*
X232342560Y-148010000D01*
X232391843Y-148257765D01*
X232532191Y-148467809D01*
X232742235Y-148608157D01*
X232990000Y-148657440D01*
X234290000Y-148657440D01*
X234537765Y-148608157D01*
X234747809Y-148467809D01*
X234888157Y-148257765D01*
X234937440Y-148010000D01*
X234937440Y-146710000D01*
X234888157Y-146462235D01*
X234861818Y-146422815D01*
X238864630Y-146422815D01*
X239188980Y-147207800D01*
X239789041Y-147808909D01*
X240573459Y-148134628D01*
X241422815Y-148135370D01*
X242207800Y-147811020D01*
X242808909Y-147210959D01*
X243134628Y-146426541D01*
X243135370Y-145577185D01*
X242811020Y-144792200D01*
X242210959Y-144191091D01*
X241426541Y-143865372D01*
X240577185Y-143864630D01*
X239792200Y-144188980D01*
X239191091Y-144789041D01*
X238865372Y-145573459D01*
X238864630Y-146422815D01*
X234861818Y-146422815D01*
X234747809Y-146252191D01*
X234537765Y-146111843D01*
X234290000Y-146062560D01*
X234127615Y-146062560D01*
X234303729Y-145989611D01*
X234359410Y-145759016D01*
X233640000Y-145039605D01*
X232920590Y-145759016D01*
X232976271Y-145989611D01*
X233185902Y-146062560D01*
X232990000Y-146062560D01*
X232742235Y-146111843D01*
X232532191Y-146252191D01*
X232391843Y-146462235D01*
X232342560Y-146710000D01*
X227183000Y-146710000D01*
X227183000Y-146558000D01*
X227203000Y-146558000D01*
X227203000Y-146538000D01*
X227457000Y-146538000D01*
X227457000Y-146558000D01*
X228664469Y-146558000D01*
X228784968Y-146325973D01*
X228536821Y-145796510D01*
X228118839Y-145414992D01*
X228389670Y-145234029D01*
X228714526Y-144747848D01*
X228728205Y-144679078D01*
X232342378Y-144679078D01*
X232371917Y-145189428D01*
X232510389Y-145523729D01*
X232740984Y-145579410D01*
X233460395Y-144860000D01*
X233819605Y-144860000D01*
X234539016Y-145579410D01*
X234769611Y-145523729D01*
X234937622Y-145040922D01*
X234908083Y-144530572D01*
X234769611Y-144196271D01*
X234539016Y-144140590D01*
X233819605Y-144860000D01*
X233460395Y-144860000D01*
X232740984Y-144140590D01*
X232510389Y-144196271D01*
X232342378Y-144679078D01*
X228728205Y-144679078D01*
X228828600Y-144174359D01*
X228828600Y-144115641D01*
X228797837Y-143960984D01*
X232920590Y-143960984D01*
X233640000Y-144680395D01*
X234359410Y-143960984D01*
X234303729Y-143730389D01*
X233820922Y-143562378D01*
X233310572Y-143591917D01*
X232976271Y-143730389D01*
X232920590Y-143960984D01*
X228797837Y-143960984D01*
X228714526Y-143542152D01*
X228389670Y-143055971D01*
X228118828Y-142875000D01*
X228389670Y-142694029D01*
X228714526Y-142207848D01*
X228828600Y-141634359D01*
X228828600Y-141575641D01*
X228714526Y-141002152D01*
X228389670Y-140515971D01*
X228118828Y-140335000D01*
X228389670Y-140154029D01*
X228714526Y-139667848D01*
X228828600Y-139094359D01*
X228828600Y-139035641D01*
X228714526Y-138462152D01*
X228389670Y-137975971D01*
X227903489Y-137651115D01*
X227330000Y-137537041D01*
X226756511Y-137651115D01*
X226270330Y-137975971D01*
X226060000Y-138290752D01*
X225849670Y-137975971D01*
X225363489Y-137651115D01*
X224790000Y-137537041D01*
X224216511Y-137651115D01*
X223730330Y-137975971D01*
X223415532Y-138447099D01*
X223389942Y-138430000D01*
X223254805Y-138339704D01*
X222963200Y-138281700D01*
X216414000Y-138281700D01*
X216122396Y-138339703D01*
X215875185Y-138504884D01*
X215467170Y-138912900D01*
X214791904Y-138912900D01*
X214887959Y-138430000D01*
X214773885Y-137856511D01*
X214449029Y-137370330D01*
X214114365Y-137146714D01*
X214063996Y-136893495D01*
X214001923Y-136800596D01*
X213898815Y-136646284D01*
X213033500Y-135780970D01*
X213033500Y-134037830D01*
X217258436Y-129812894D01*
X219269026Y-129812894D01*
X219517338Y-130413855D01*
X219976727Y-130874046D01*
X220577253Y-131123406D01*
X221227494Y-131123974D01*
X221828455Y-130875662D01*
X222288646Y-130416273D01*
X222538006Y-129815747D01*
X222538008Y-129812894D01*
X225771426Y-129812894D01*
X226019738Y-130413855D01*
X226479127Y-130874046D01*
X227079653Y-131123406D01*
X227729894Y-131123974D01*
X228330855Y-130875662D01*
X228791046Y-130416273D01*
X229040406Y-129815747D01*
X229040974Y-129165506D01*
X228792662Y-128564545D01*
X228333273Y-128104354D01*
X227732747Y-127854994D01*
X227082506Y-127854426D01*
X226481545Y-128102738D01*
X226021354Y-128562127D01*
X225771994Y-129162653D01*
X225771426Y-129812894D01*
X222538008Y-129812894D01*
X222538574Y-129165506D01*
X222290262Y-128564545D01*
X221830873Y-128104354D01*
X221230347Y-127854994D01*
X220580106Y-127854426D01*
X219979145Y-128102738D01*
X219518954Y-128562127D01*
X219269594Y-129162653D01*
X219269026Y-129812894D01*
X217258436Y-129812894D01*
X220414702Y-126656629D01*
X220577253Y-126724126D01*
X221227494Y-126724694D01*
X221828455Y-126476382D01*
X222288646Y-126016993D01*
X222538006Y-125416467D01*
X222538008Y-125413614D01*
X225771426Y-125413614D01*
X226019738Y-126014575D01*
X226479127Y-126474766D01*
X227079653Y-126724126D01*
X227729894Y-126724694D01*
X228330855Y-126476382D01*
X228791046Y-126016993D01*
X229040406Y-125416467D01*
X229040974Y-124766226D01*
X228792662Y-124165265D01*
X228392215Y-123764118D01*
X230518730Y-123764118D01*
X230729226Y-124273557D01*
X231118653Y-124663664D01*
X231627724Y-124875049D01*
X232178938Y-124875530D01*
X232688377Y-124665034D01*
X233078484Y-124275607D01*
X233131141Y-124148795D01*
X239029716Y-124148795D01*
X239278106Y-124749943D01*
X239737637Y-125210278D01*
X240338352Y-125459716D01*
X240988795Y-125460284D01*
X241589943Y-125211894D01*
X242050278Y-124752363D01*
X242299716Y-124151648D01*
X242300284Y-123501205D01*
X242051894Y-122900057D01*
X241989749Y-122837803D01*
X242024698Y-122823327D01*
X242203327Y-122644699D01*
X242300000Y-122411310D01*
X242300000Y-121570750D01*
X242141250Y-121412000D01*
X240792000Y-121412000D01*
X240792000Y-121432000D01*
X240538000Y-121432000D01*
X240538000Y-121412000D01*
X239188750Y-121412000D01*
X239030000Y-121570750D01*
X239030000Y-122411310D01*
X239126673Y-122644699D01*
X239305302Y-122823327D01*
X239339834Y-122837630D01*
X239279722Y-122897637D01*
X239030284Y-123498352D01*
X239029716Y-124148795D01*
X233131141Y-124148795D01*
X233289869Y-123766536D01*
X233290350Y-123215322D01*
X233079854Y-122705883D01*
X232690427Y-122315776D01*
X232181356Y-122104391D01*
X231630142Y-122103910D01*
X231120703Y-122314406D01*
X230730596Y-122703833D01*
X230519211Y-123212904D01*
X230518730Y-123764118D01*
X228392215Y-123764118D01*
X228333273Y-123705074D01*
X227732747Y-123455714D01*
X227082506Y-123455146D01*
X226481545Y-123703458D01*
X226021354Y-124162847D01*
X225771994Y-124763373D01*
X225771426Y-125413614D01*
X222538008Y-125413614D01*
X222538574Y-124766226D01*
X222290262Y-124165265D01*
X221830873Y-123705074D01*
X221665800Y-123636530D01*
X221665800Y-121417430D01*
X222591707Y-120491523D01*
X232933503Y-120491523D01*
X233032102Y-120758325D01*
X233641642Y-120984761D01*
X234291437Y-120960701D01*
X234780018Y-120758325D01*
X234878617Y-120491523D01*
X233906060Y-119518965D01*
X232933503Y-120491523D01*
X222591707Y-120491523D01*
X224008288Y-119074942D01*
X232260659Y-119074942D01*
X232284719Y-119724737D01*
X232487095Y-120213318D01*
X232753897Y-120311917D01*
X233726455Y-119339360D01*
X234085665Y-119339360D01*
X235058223Y-120311917D01*
X235325025Y-120213318D01*
X235345318Y-120158690D01*
X239030000Y-120158690D01*
X239030000Y-120999250D01*
X239188750Y-121158000D01*
X240538000Y-121158000D01*
X240538000Y-119808750D01*
X240792000Y-119808750D01*
X240792000Y-121158000D01*
X242141250Y-121158000D01*
X242300000Y-120999250D01*
X242300000Y-120158690D01*
X242203327Y-119925301D01*
X242024698Y-119746673D01*
X241791309Y-119650000D01*
X240950750Y-119650000D01*
X240792000Y-119808750D01*
X240538000Y-119808750D01*
X240379250Y-119650000D01*
X239538691Y-119650000D01*
X239305302Y-119746673D01*
X239126673Y-119925301D01*
X239030000Y-120158690D01*
X235345318Y-120158690D01*
X235551461Y-119603778D01*
X235527401Y-118953983D01*
X235325025Y-118465402D01*
X235058223Y-118366803D01*
X234085665Y-119339360D01*
X233726455Y-119339360D01*
X232753897Y-118366803D01*
X232487095Y-118465402D01*
X232260659Y-119074942D01*
X224008288Y-119074942D01*
X227980631Y-115102600D01*
X232452374Y-115102600D01*
X232519598Y-115265295D01*
X232844220Y-115590484D01*
X232521214Y-115912927D01*
X232271854Y-116513453D01*
X232271286Y-117163694D01*
X232519598Y-117764655D01*
X232935638Y-118181421D01*
X232933503Y-118187197D01*
X233906060Y-119159755D01*
X234878617Y-118187197D01*
X234876308Y-118180949D01*
X235290906Y-117767073D01*
X235540266Y-117166547D01*
X235540834Y-116516306D01*
X235292522Y-115915345D01*
X234967900Y-115590156D01*
X235290906Y-115267713D01*
X235540266Y-114667187D01*
X235540834Y-114016946D01*
X235292522Y-113415985D01*
X234833133Y-112955794D01*
X234232607Y-112706434D01*
X233582366Y-112705866D01*
X232981405Y-112954178D01*
X232521214Y-113413567D01*
X232452686Y-113578600D01*
X228427000Y-113578600D01*
X228427000Y-113098300D01*
X228368996Y-112806695D01*
X228203815Y-112559485D01*
X226109008Y-110464678D01*
X230518730Y-110464678D01*
X230729226Y-110974117D01*
X231118653Y-111364224D01*
X231627724Y-111575609D01*
X232178938Y-111576090D01*
X232688377Y-111365594D01*
X233078484Y-110976167D01*
X233289869Y-110467096D01*
X233290350Y-109915882D01*
X233079854Y-109406443D01*
X232690427Y-109016336D01*
X232181356Y-108804951D01*
X231630142Y-108804470D01*
X231120703Y-109014966D01*
X230730596Y-109404393D01*
X230519211Y-109913464D01*
X230518730Y-110464678D01*
X226109008Y-110464678D01*
X224367947Y-108723617D01*
X224478694Y-108723714D01*
X225079655Y-108475402D01*
X225314362Y-108241103D01*
X225681803Y-108241103D01*
X225780402Y-108507905D01*
X226389942Y-108734341D01*
X227039737Y-108710281D01*
X227528318Y-108507905D01*
X227626917Y-108241103D01*
X226654360Y-107268545D01*
X225681803Y-108241103D01*
X225314362Y-108241103D01*
X225496421Y-108059362D01*
X225502197Y-108061497D01*
X226474755Y-107088940D01*
X226833965Y-107088940D01*
X227806523Y-108061497D01*
X228073325Y-107962898D01*
X228299761Y-107353358D01*
X228275701Y-106703563D01*
X228073325Y-106214982D01*
X227806523Y-106116383D01*
X226833965Y-107088940D01*
X226474755Y-107088940D01*
X225502197Y-106116383D01*
X225495949Y-106118692D01*
X225314351Y-105936777D01*
X225681803Y-105936777D01*
X226654360Y-106909335D01*
X227626917Y-105936777D01*
X227528318Y-105669975D01*
X226918778Y-105443539D01*
X226268983Y-105467599D01*
X225780402Y-105669975D01*
X225681803Y-105936777D01*
X225314351Y-105936777D01*
X225082073Y-105704094D01*
X224481547Y-105454734D01*
X223831306Y-105454166D01*
X223230345Y-105702478D01*
X222905156Y-106027100D01*
X222582713Y-105704094D01*
X221982187Y-105454734D01*
X221331946Y-105454166D01*
X220730985Y-105702478D01*
X220270794Y-106161867D01*
X220021434Y-106762393D01*
X220020866Y-107412634D01*
X220269178Y-108013595D01*
X220728567Y-108473786D01*
X221329093Y-108723146D01*
X221979334Y-108723714D01*
X222144527Y-108655457D01*
X226903000Y-113413930D01*
X226903000Y-114024969D01*
X220654570Y-120273400D01*
X209147837Y-120273400D01*
X209453944Y-119967827D01*
X209665329Y-119458756D01*
X209665810Y-118907542D01*
X209455314Y-118398103D01*
X209065887Y-118007996D01*
X208556816Y-117796611D01*
X208005602Y-117796130D01*
X207496163Y-118006626D01*
X207106056Y-118396053D01*
X207085048Y-118446645D01*
X207073327Y-118448976D01*
X206927872Y-118477806D01*
X206927652Y-118477953D01*
X206927395Y-118478004D01*
X206804411Y-118560179D01*
X206680550Y-118642820D01*
X206164672Y-119158000D01*
X204499630Y-119158000D01*
X207981320Y-115676310D01*
X208003184Y-115685389D01*
X208554398Y-115685870D01*
X209063837Y-115475374D01*
X209453944Y-115085947D01*
X209665329Y-114576876D01*
X209665810Y-114025662D01*
X209455314Y-113516223D01*
X209065887Y-113126116D01*
X208556816Y-112914731D01*
X208005602Y-112914250D01*
X207496163Y-113124746D01*
X207106056Y-113514173D01*
X206894671Y-114023244D01*
X206894190Y-114574458D01*
X206904049Y-114598320D01*
X203144370Y-118358000D01*
X202314122Y-118358000D01*
X202147765Y-118246843D01*
X201900000Y-118197560D01*
X200572440Y-118197560D01*
X200572440Y-116870000D01*
X200534926Y-116681404D01*
X202943616Y-114272715D01*
X203108797Y-114025504D01*
X203166800Y-113733900D01*
X203166800Y-110464678D01*
X215019650Y-110464678D01*
X215230146Y-110974117D01*
X215619573Y-111364224D01*
X216128644Y-111575609D01*
X216679858Y-111576090D01*
X217189297Y-111365594D01*
X217579404Y-110976167D01*
X217790789Y-110467096D01*
X217791270Y-109915882D01*
X217580774Y-109406443D01*
X217191347Y-109016336D01*
X216682276Y-108804951D01*
X216131062Y-108804470D01*
X215621623Y-109014966D01*
X215231516Y-109404393D01*
X215020131Y-109913464D01*
X215019650Y-110464678D01*
X203166800Y-110464678D01*
X203166800Y-107727490D01*
X204966570Y-107727490D01*
X205214335Y-107678207D01*
X205424379Y-107537859D01*
X205554955Y-107342440D01*
X206270150Y-107342440D01*
X206427230Y-107499520D01*
X206426913Y-107863484D01*
X206590911Y-108260389D01*
X206894314Y-108564322D01*
X207290932Y-108729013D01*
X207720384Y-108729387D01*
X208070553Y-108584700D01*
X209780302Y-108584700D01*
X210138111Y-108513527D01*
X210441447Y-108310845D01*
X214099001Y-104653291D01*
X214373855Y-104928145D01*
X214677191Y-105130827D01*
X215035000Y-105202000D01*
X237415648Y-105202000D01*
X237592567Y-105466778D01*
X238128190Y-105824670D01*
X238760000Y-105950345D01*
X239391810Y-105824670D01*
X239730854Y-105598128D01*
X239826191Y-105740809D01*
X240036235Y-105881157D01*
X240284000Y-105930440D01*
X242316000Y-105930440D01*
X242563765Y-105881157D01*
X242773809Y-105740809D01*
X242914157Y-105530765D01*
X242963440Y-105283000D01*
X242963440Y-103251000D01*
X242914157Y-103003235D01*
X242773809Y-102793191D01*
X242563765Y-102652843D01*
X242316000Y-102603560D01*
X240284000Y-102603560D01*
X240036235Y-102652843D01*
X239826191Y-102793191D01*
X239730854Y-102935872D01*
X239391810Y-102709330D01*
X238760000Y-102583655D01*
X238128190Y-102709330D01*
X237592567Y-103067222D01*
X237415648Y-103332000D01*
X215422290Y-103332000D01*
X215034001Y-102943711D01*
X215034001Y-96520000D01*
X218026655Y-96520000D01*
X218152330Y-97151810D01*
X218510222Y-97687433D01*
X219045845Y-98045325D01*
X219677655Y-98171000D01*
X219742345Y-98171000D01*
X220374155Y-98045325D01*
X220909778Y-97687433D01*
X221180680Y-97282000D01*
X226396484Y-97282000D01*
X226565332Y-97534698D01*
X226947418Y-97790000D01*
X226565332Y-98045302D01*
X226254263Y-98510849D01*
X226145030Y-99060000D01*
X226254263Y-99609151D01*
X226565332Y-100074698D01*
X227030879Y-100385767D01*
X227580030Y-100495000D01*
X228349970Y-100495000D01*
X228899121Y-100385767D01*
X229364668Y-100074698D01*
X229675737Y-99609151D01*
X229715541Y-99409039D01*
X233843096Y-99409039D01*
X233860633Y-99491819D01*
X234130500Y-99984896D01*
X234568517Y-100337166D01*
X235108000Y-100495000D01*
X235458000Y-100495000D01*
X235458000Y-99187000D01*
X235712000Y-99187000D01*
X235712000Y-100495000D01*
X236062000Y-100495000D01*
X236601483Y-100337166D01*
X237039500Y-99984896D01*
X237309367Y-99491819D01*
X237326904Y-99409039D01*
X237204915Y-99187000D01*
X235712000Y-99187000D01*
X235458000Y-99187000D01*
X233965085Y-99187000D01*
X233843096Y-99409039D01*
X229715541Y-99409039D01*
X229784970Y-99060000D01*
X229675737Y-98510849D01*
X229364668Y-98045302D01*
X228982582Y-97790000D01*
X229364668Y-97534698D01*
X229675737Y-97069151D01*
X229784970Y-96520000D01*
X229675737Y-95970849D01*
X229364668Y-95505302D01*
X228982582Y-95250000D01*
X229364668Y-94994698D01*
X229675737Y-94529151D01*
X229784970Y-93980000D01*
X233765030Y-93980000D01*
X233874263Y-94529151D01*
X234185332Y-94994698D01*
X234567418Y-95250000D01*
X234185332Y-95505302D01*
X233874263Y-95970849D01*
X233765030Y-96520000D01*
X233874263Y-97069151D01*
X234185332Y-97534698D01*
X234563151Y-97787149D01*
X234130500Y-98135104D01*
X233860633Y-98628181D01*
X233843096Y-98710961D01*
X233965085Y-98933000D01*
X235458000Y-98933000D01*
X235458000Y-98913000D01*
X235712000Y-98913000D01*
X235712000Y-98933000D01*
X237204915Y-98933000D01*
X237326904Y-98710961D01*
X237309367Y-98628181D01*
X237039500Y-98135104D01*
X236606849Y-97787149D01*
X236984668Y-97534698D01*
X237295737Y-97069151D01*
X237404970Y-96520000D01*
X237295737Y-95970849D01*
X236984668Y-95505302D01*
X236602582Y-95250000D01*
X236984668Y-94994698D01*
X237295737Y-94529151D01*
X237404970Y-93980000D01*
X237295737Y-93430849D01*
X237290369Y-93422815D01*
X238864630Y-93422815D01*
X239188980Y-94207800D01*
X239789041Y-94808909D01*
X240573459Y-95134628D01*
X241422815Y-95135370D01*
X242207800Y-94811020D01*
X242808909Y-94210959D01*
X243134628Y-93426541D01*
X243135370Y-92577185D01*
X242811020Y-91792200D01*
X242210959Y-91191091D01*
X241426541Y-90865372D01*
X240577185Y-90864630D01*
X239792200Y-91188980D01*
X239191091Y-91789041D01*
X238865372Y-92573459D01*
X238864630Y-93422815D01*
X237290369Y-93422815D01*
X236984668Y-92965302D01*
X236519121Y-92654233D01*
X235969970Y-92545000D01*
X235200030Y-92545000D01*
X234650879Y-92654233D01*
X234185332Y-92965302D01*
X233874263Y-93430849D01*
X233765030Y-93980000D01*
X229784970Y-93980000D01*
X229675737Y-93430849D01*
X229364668Y-92965302D01*
X228899121Y-92654233D01*
X228349970Y-92545000D01*
X227580030Y-92545000D01*
X227030879Y-92654233D01*
X226565332Y-92965302D01*
X226254263Y-93430849D01*
X226145030Y-93980000D01*
X226254263Y-94529151D01*
X226565332Y-94994698D01*
X226947418Y-95250000D01*
X226565332Y-95505302D01*
X226396484Y-95758000D01*
X221180680Y-95758000D01*
X221041128Y-95549146D01*
X221183809Y-95453809D01*
X221324157Y-95243765D01*
X221373440Y-94996000D01*
X221373440Y-92964000D01*
X221324157Y-92716235D01*
X221183809Y-92506191D01*
X220973765Y-92365843D01*
X220726000Y-92316560D01*
X218694000Y-92316560D01*
X218446235Y-92365843D01*
X218236191Y-92506191D01*
X218095843Y-92716235D01*
X218046560Y-92964000D01*
X218046560Y-94996000D01*
X218095843Y-95243765D01*
X218236191Y-95453809D01*
X218378872Y-95549146D01*
X218152330Y-95888190D01*
X218026655Y-96520000D01*
X215034001Y-96520000D01*
X215034001Y-95403999D01*
X214962828Y-95046190D01*
X214760146Y-94742854D01*
X210599347Y-90582055D01*
X210296011Y-90379373D01*
X209938202Y-90308200D01*
X207803111Y-90308200D01*
X207650909Y-90245000D01*
X243135070Y-90245000D01*
X243413979Y-90300478D01*
X243591145Y-90418856D01*
X243709521Y-90596019D01*
X243765000Y-90874931D01*
X243765000Y-148520069D01*
X243709521Y-148798981D01*
X243591145Y-148976144D01*
X243413979Y-149094522D01*
X243135070Y-149150000D01*
X146762032Y-149150000D01*
X146491125Y-149090514D01*
X146316257Y-148968595D01*
X146199450Y-148786057D01*
X146149902Y-148522962D01*
X146149902Y-146472815D01*
X146864630Y-146472815D01*
X147188980Y-147257800D01*
X147789041Y-147858909D01*
X148573459Y-148184628D01*
X149422815Y-148185370D01*
X150207800Y-147861020D01*
X150808909Y-147260959D01*
X151134628Y-146476541D01*
X151135370Y-145627185D01*
X150811020Y-144842200D01*
X150210959Y-144241091D01*
X149426541Y-143915372D01*
X148577185Y-143914630D01*
X147792200Y-144238980D01*
X147191091Y-144839041D01*
X146865372Y-145623459D01*
X146864630Y-146472815D01*
X146149902Y-146472815D01*
X146149902Y-141916163D01*
X165745929Y-141916163D01*
X165766072Y-142665664D01*
X166014141Y-143264555D01*
X166306911Y-143393763D01*
X167460395Y-142240280D01*
X167819605Y-142240280D01*
X168973089Y-143393763D01*
X169265859Y-143264555D01*
X169534071Y-142564397D01*
X169513928Y-141814896D01*
X169265859Y-141216005D01*
X168973089Y-141086797D01*
X167819605Y-142240280D01*
X167460395Y-142240280D01*
X166306911Y-141086797D01*
X166014141Y-141216005D01*
X165745929Y-141916163D01*
X146149902Y-141916163D01*
X146149902Y-140907191D01*
X166486517Y-140907191D01*
X167640000Y-142060675D01*
X168793483Y-140907191D01*
X168664275Y-140614421D01*
X167964117Y-140346209D01*
X167214616Y-140366352D01*
X166615725Y-140614421D01*
X166486517Y-140907191D01*
X146149902Y-140907191D01*
X146149902Y-137795000D01*
X146149865Y-137794812D01*
X146149902Y-137794624D01*
X146143781Y-126242083D01*
X161511243Y-126242083D01*
X161609842Y-126508885D01*
X162219382Y-126735321D01*
X162869177Y-126711261D01*
X163357758Y-126508885D01*
X163456357Y-126242083D01*
X162483800Y-125269525D01*
X161511243Y-126242083D01*
X146143781Y-126242083D01*
X146142468Y-123764118D01*
X156599650Y-123764118D01*
X156810146Y-124273557D01*
X157199573Y-124663664D01*
X157708644Y-124875049D01*
X158259858Y-124875530D01*
X158380934Y-124825502D01*
X160838399Y-124825502D01*
X160862459Y-125475297D01*
X161064835Y-125963878D01*
X161331637Y-126062477D01*
X162304195Y-125089920D01*
X162663405Y-125089920D01*
X163635963Y-126062477D01*
X163902765Y-125963878D01*
X164107180Y-125413614D01*
X167351426Y-125413614D01*
X167599738Y-126014575D01*
X168059127Y-126474766D01*
X168659653Y-126724126D01*
X169309894Y-126724694D01*
X169910855Y-126476382D01*
X170371046Y-126016993D01*
X170620406Y-125416467D01*
X170620974Y-124766226D01*
X170372662Y-124165265D01*
X169972215Y-123764118D01*
X172098730Y-123764118D01*
X172309226Y-124273557D01*
X172698653Y-124663664D01*
X173207724Y-124875049D01*
X173758938Y-124875530D01*
X174268377Y-124665034D01*
X174658484Y-124275607D01*
X174869869Y-123766536D01*
X174870350Y-123215322D01*
X174659854Y-122705883D01*
X174270427Y-122315776D01*
X173761356Y-122104391D01*
X173210142Y-122103910D01*
X172700703Y-122314406D01*
X172310596Y-122703833D01*
X172099211Y-123212904D01*
X172098730Y-123764118D01*
X169972215Y-123764118D01*
X169913273Y-123705074D01*
X169312747Y-123455714D01*
X168662506Y-123455146D01*
X168061545Y-123703458D01*
X167601354Y-124162847D01*
X167351994Y-124763373D01*
X167351426Y-125413614D01*
X164107180Y-125413614D01*
X164129201Y-125354338D01*
X164105141Y-124704543D01*
X163902765Y-124215962D01*
X163635963Y-124117363D01*
X162663405Y-125089920D01*
X162304195Y-125089920D01*
X161331637Y-124117363D01*
X161064835Y-124215962D01*
X160838399Y-124825502D01*
X158380934Y-124825502D01*
X158769297Y-124665034D01*
X159159404Y-124275607D01*
X159299691Y-123937757D01*
X161511243Y-123937757D01*
X162483800Y-124910315D01*
X163456357Y-123937757D01*
X163357758Y-123670955D01*
X162748218Y-123444519D01*
X162098423Y-123468579D01*
X161609842Y-123670955D01*
X161511243Y-123937757D01*
X159299691Y-123937757D01*
X159370789Y-123766536D01*
X159371270Y-123215322D01*
X159160774Y-122705883D01*
X158771347Y-122315776D01*
X158262276Y-122104391D01*
X157711062Y-122103910D01*
X157201623Y-122314406D01*
X156811516Y-122703833D01*
X156600131Y-123212904D01*
X156599650Y-123764118D01*
X146142468Y-123764118D01*
X146140653Y-120338694D01*
X148225226Y-120338694D01*
X148473538Y-120939655D01*
X148932927Y-121399846D01*
X149533453Y-121649206D01*
X150183694Y-121649774D01*
X150784655Y-121401462D01*
X151019363Y-121167163D01*
X152062443Y-121167163D01*
X152161042Y-121433965D01*
X152770582Y-121660401D01*
X153420377Y-121636341D01*
X153908958Y-121433965D01*
X154007557Y-121167163D01*
X153035000Y-120194605D01*
X152062443Y-121167163D01*
X151019363Y-121167163D01*
X151244846Y-120942073D01*
X151441684Y-120468035D01*
X151616035Y-120888958D01*
X151882837Y-120987557D01*
X152855395Y-120015000D01*
X153214605Y-120015000D01*
X154187163Y-120987557D01*
X154453965Y-120888958D01*
X154680401Y-120279418D01*
X154656341Y-119629623D01*
X154453965Y-119141042D01*
X154187163Y-119042443D01*
X153214605Y-120015000D01*
X152855395Y-120015000D01*
X151882837Y-119042443D01*
X151616035Y-119141042D01*
X151450987Y-119585333D01*
X151246462Y-119090345D01*
X151019351Y-118862837D01*
X152062443Y-118862837D01*
X153035000Y-119835395D01*
X154007557Y-118862837D01*
X153908958Y-118596035D01*
X153299418Y-118369599D01*
X152649623Y-118393659D01*
X152161042Y-118596035D01*
X152062443Y-118862837D01*
X151019351Y-118862837D01*
X150787073Y-118630154D01*
X150186547Y-118380794D01*
X149536306Y-118380226D01*
X148935345Y-118628538D01*
X148475154Y-119087927D01*
X148225794Y-119688453D01*
X148225226Y-120338694D01*
X146140653Y-120338694D01*
X146135910Y-111389016D01*
X147870590Y-111389016D01*
X147926271Y-111619611D01*
X148409078Y-111787622D01*
X148919428Y-111758083D01*
X149253729Y-111619611D01*
X149309410Y-111389016D01*
X148590000Y-110669605D01*
X147870590Y-111389016D01*
X146135910Y-111389016D01*
X146135337Y-110309078D01*
X147292378Y-110309078D01*
X147321917Y-110819428D01*
X147460389Y-111153729D01*
X147690984Y-111209410D01*
X148410395Y-110490000D01*
X147690984Y-109770590D01*
X147460389Y-109826271D01*
X147292378Y-110309078D01*
X146135337Y-110309078D01*
X146134957Y-109590984D01*
X147870590Y-109590984D01*
X148590000Y-110310395D01*
X149309410Y-109590984D01*
X149253729Y-109360389D01*
X148770922Y-109192378D01*
X148260572Y-109221917D01*
X147926271Y-109360389D01*
X147870590Y-109590984D01*
X146134957Y-109590984D01*
X146132872Y-105655750D01*
X148600000Y-105655750D01*
X148600000Y-106246309D01*
X148696673Y-106479698D01*
X148875301Y-106658327D01*
X149108690Y-106755000D01*
X149574250Y-106755000D01*
X149733000Y-106596250D01*
X149733000Y-105497000D01*
X149987000Y-105497000D01*
X149987000Y-106596250D01*
X150145750Y-106755000D01*
X150611310Y-106755000D01*
X150844699Y-106658327D01*
X151023327Y-106479698D01*
X151120000Y-106246309D01*
X151120000Y-105655750D01*
X150961250Y-105497000D01*
X149987000Y-105497000D01*
X149733000Y-105497000D01*
X148758750Y-105497000D01*
X148600000Y-105655750D01*
X146132872Y-105655750D01*
X146130998Y-102120000D01*
X148587560Y-102120000D01*
X148587560Y-103620000D01*
X148636843Y-103867765D01*
X148777191Y-104077809D01*
X148838320Y-104118654D01*
X148696673Y-104260302D01*
X148600000Y-104493691D01*
X148600000Y-105084250D01*
X148758750Y-105243000D01*
X149733000Y-105243000D01*
X149733000Y-105223000D01*
X149987000Y-105223000D01*
X149987000Y-105243000D01*
X150961250Y-105243000D01*
X151120000Y-105084250D01*
X151120000Y-104493691D01*
X151023327Y-104260302D01*
X150881680Y-104118654D01*
X150942809Y-104077809D01*
X151083157Y-103867765D01*
X151130053Y-103632000D01*
X152429642Y-103632000D01*
X152325019Y-103846065D01*
X152451932Y-104013000D01*
X153543000Y-104013000D01*
X153543000Y-103993000D01*
X153797000Y-103993000D01*
X153797000Y-104013000D01*
X154888068Y-104013000D01*
X155014981Y-103846065D01*
X154910358Y-103632000D01*
X155833070Y-103632000D01*
X155833070Y-103869490D01*
X155882353Y-104117255D01*
X156022701Y-104327299D01*
X156232745Y-104467647D01*
X156480510Y-104516930D01*
X158479490Y-104516930D01*
X158727255Y-104467647D01*
X158937299Y-104327299D01*
X159077647Y-104117255D01*
X159126930Y-103869490D01*
X159126930Y-103193694D01*
X159655226Y-103193694D01*
X159903538Y-103794655D01*
X160362927Y-104254846D01*
X160963453Y-104504206D01*
X161613694Y-104504774D01*
X162214655Y-104256462D01*
X162674846Y-103797073D01*
X162924206Y-103196547D01*
X162924774Y-102546306D01*
X162676462Y-101945345D01*
X162217073Y-101485154D01*
X161616547Y-101235794D01*
X160966306Y-101235226D01*
X160365345Y-101483538D01*
X159905154Y-101942927D01*
X159655794Y-102543453D01*
X159655226Y-103193694D01*
X159126930Y-103193694D01*
X159126930Y-101870510D01*
X159077647Y-101622745D01*
X158937299Y-101412701D01*
X158727255Y-101272353D01*
X158479490Y-101223070D01*
X156480510Y-101223070D01*
X156232745Y-101272353D01*
X156022701Y-101412701D01*
X155882353Y-101622745D01*
X155833070Y-101870510D01*
X155833070Y-102108000D01*
X154768332Y-102108000D01*
X154765049Y-102103086D01*
X154413186Y-101867979D01*
X153998135Y-101785420D01*
X153341865Y-101785420D01*
X152926814Y-101867979D01*
X152574951Y-102103086D01*
X152571668Y-102108000D01*
X151130053Y-102108000D01*
X151083157Y-101872235D01*
X150942809Y-101662191D01*
X150732765Y-101521843D01*
X150485000Y-101472560D01*
X149235000Y-101472560D01*
X148987235Y-101521843D01*
X148777191Y-101662191D01*
X148636843Y-101872235D01*
X148587560Y-102120000D01*
X146130998Y-102120000D01*
X146128608Y-97609078D01*
X165072378Y-97609078D01*
X165101917Y-98119428D01*
X165240389Y-98453729D01*
X165470984Y-98509410D01*
X166190395Y-97790000D01*
X165470984Y-97070590D01*
X165240389Y-97126271D01*
X165072378Y-97609078D01*
X146128608Y-97609078D01*
X146127660Y-95821320D01*
X153826285Y-95821320D01*
X153955533Y-96114123D01*
X154655806Y-96382388D01*
X155405435Y-96362250D01*
X156004467Y-96114123D01*
X156133715Y-95821320D01*
X154980000Y-94667605D01*
X153826285Y-95821320D01*
X146127660Y-95821320D01*
X146126388Y-93422815D01*
X146864630Y-93422815D01*
X147188980Y-94207800D01*
X147789041Y-94808909D01*
X148573459Y-95134628D01*
X149422815Y-95135370D01*
X150207800Y-94811020D01*
X150808909Y-94210959D01*
X150828488Y-94163806D01*
X153085612Y-94163806D01*
X153105750Y-94913435D01*
X153353877Y-95512467D01*
X153646680Y-95641715D01*
X154800395Y-94488000D01*
X155159605Y-94488000D01*
X156313320Y-95641715D01*
X156606123Y-95512467D01*
X156855574Y-94861305D01*
X158094674Y-94861305D01*
X158381043Y-95554372D01*
X158910839Y-96085093D01*
X159603405Y-96372672D01*
X160353305Y-96373326D01*
X161046372Y-96086957D01*
X161577093Y-95557161D01*
X161864672Y-94864595D01*
X161864867Y-94640000D01*
X165072560Y-94640000D01*
X165072560Y-95940000D01*
X165121843Y-96187765D01*
X165262191Y-96397809D01*
X165472235Y-96538157D01*
X165720000Y-96587440D01*
X165882385Y-96587440D01*
X165706271Y-96660389D01*
X165650590Y-96890984D01*
X166370000Y-97610395D01*
X167089410Y-96890984D01*
X167033729Y-96660389D01*
X166824098Y-96587440D01*
X167020000Y-96587440D01*
X167267765Y-96538157D01*
X167477809Y-96397809D01*
X167618157Y-96187765D01*
X167667440Y-95940000D01*
X167667440Y-94640000D01*
X167618157Y-94392235D01*
X167477809Y-94182191D01*
X167267765Y-94041843D01*
X167020000Y-93992560D01*
X165720000Y-93992560D01*
X165472235Y-94041843D01*
X165262191Y-94182191D01*
X165121843Y-94392235D01*
X165072560Y-94640000D01*
X161864867Y-94640000D01*
X161865326Y-94114695D01*
X161578957Y-93421628D01*
X161049161Y-92890907D01*
X160356595Y-92603328D01*
X159606695Y-92602674D01*
X158913628Y-92889043D01*
X158382907Y-93418839D01*
X158095328Y-94111405D01*
X158094674Y-94861305D01*
X156855574Y-94861305D01*
X156874388Y-94812194D01*
X156854250Y-94062565D01*
X156606123Y-93463533D01*
X156313320Y-93334285D01*
X155159605Y-94488000D01*
X154800395Y-94488000D01*
X153646680Y-93334285D01*
X153353877Y-93463533D01*
X153085612Y-94163806D01*
X150828488Y-94163806D01*
X151134628Y-93426541D01*
X151134865Y-93154680D01*
X153826285Y-93154680D01*
X154980000Y-94308395D01*
X156133715Y-93154680D01*
X156004467Y-92861877D01*
X155304194Y-92593612D01*
X154554565Y-92613750D01*
X153955533Y-92861877D01*
X153826285Y-93154680D01*
X151134865Y-93154680D01*
X151135370Y-92577185D01*
X150811020Y-91792200D01*
X150210959Y-91191091D01*
X149426541Y-90865372D01*
X148577185Y-90864630D01*
X147792200Y-91188980D01*
X147191091Y-91789041D01*
X146865372Y-92573459D01*
X146864630Y-93422815D01*
X146126388Y-93422815D01*
X146125037Y-90874744D01*
X146180478Y-90596021D01*
X146298856Y-90418855D01*
X146476019Y-90300479D01*
X146754931Y-90245000D01*
X165897163Y-90245000D01*
X165643057Y-90349995D01*
G36*
X177390500Y-117007000D02*
X184784947Y-117007000D01*
X184831843Y-117242765D01*
X184972191Y-117452809D01*
X185033320Y-117493654D01*
X184891673Y-117635302D01*
X184795000Y-117868691D01*
X184795000Y-118459250D01*
X184953750Y-118618000D01*
X185928000Y-118618000D01*
X185928000Y-118598000D01*
X186182000Y-118598000D01*
X186182000Y-118618000D01*
X187156250Y-118618000D01*
X187315000Y-118459250D01*
X187315000Y-117868691D01*
X187286178Y-117799108D01*
X189538023Y-120050954D01*
X189345000Y-120012560D01*
X187845000Y-120012560D01*
X187597235Y-120061843D01*
X187387191Y-120202191D01*
X187346346Y-120263320D01*
X187204698Y-120121673D01*
X187015556Y-120043328D01*
X187039699Y-120033327D01*
X187218327Y-119854698D01*
X187315000Y-119621309D01*
X187315000Y-119030750D01*
X187156250Y-118872000D01*
X186182000Y-118872000D01*
X186182000Y-119971250D01*
X186308250Y-120097500D01*
X186222000Y-120183750D01*
X186222000Y-121158000D01*
X186242000Y-121158000D01*
X186242000Y-121412000D01*
X186222000Y-121412000D01*
X186222000Y-122386250D01*
X186380750Y-122545000D01*
X186971309Y-122545000D01*
X187204698Y-122448327D01*
X187346346Y-122306680D01*
X187387191Y-122367809D01*
X187597235Y-122508157D01*
X187845000Y-122557440D01*
X189345000Y-122557440D01*
X189592765Y-122508157D01*
X189802809Y-122367809D01*
X189872012Y-122264240D01*
X189961300Y-122282000D01*
X191385878Y-122282000D01*
X191442749Y-122320000D01*
X191342191Y-122387191D01*
X191258888Y-122511862D01*
X191165000Y-122605750D01*
X191165000Y-122721310D01*
X191173217Y-122741148D01*
X191152560Y-122845000D01*
X191152560Y-123158000D01*
X183921300Y-123158000D01*
X183645280Y-123212904D01*
X183642351Y-123213487D01*
X183632157Y-123162235D01*
X183491809Y-122952191D01*
X183281765Y-122811843D01*
X183034000Y-122762560D01*
X181002000Y-122762560D01*
X180754235Y-122811843D01*
X180544191Y-122952191D01*
X180416149Y-123143818D01*
X179762215Y-122489885D01*
X179698033Y-122447000D01*
X179515005Y-122324704D01*
X179223400Y-122266700D01*
X177485931Y-122266700D01*
X176789981Y-121570750D01*
X184710000Y-121570750D01*
X184710000Y-122036310D01*
X184806673Y-122269699D01*
X184985302Y-122448327D01*
X185218691Y-122545000D01*
X185809250Y-122545000D01*
X185968000Y-122386250D01*
X185968000Y-121412000D01*
X184868750Y-121412000D01*
X184710000Y-121570750D01*
X176789981Y-121570750D01*
X176089576Y-120870345D01*
X176360018Y-120758325D01*
X176443033Y-120533690D01*
X184710000Y-120533690D01*
X184710000Y-120999250D01*
X184868750Y-121158000D01*
X185968000Y-121158000D01*
X185968000Y-120183750D01*
X185841750Y-120057500D01*
X185928000Y-119971250D01*
X185928000Y-118872000D01*
X184953750Y-118872000D01*
X184795000Y-119030750D01*
X184795000Y-119621309D01*
X184891673Y-119854698D01*
X185070301Y-120033327D01*
X185134444Y-120059896D01*
X184985302Y-120121673D01*
X184806673Y-120300301D01*
X184710000Y-120533690D01*
X176443033Y-120533690D01*
X176458617Y-120491523D01*
X175486060Y-119518965D01*
X175471918Y-119533108D01*
X175292312Y-119353502D01*
X175306455Y-119339360D01*
X175665665Y-119339360D01*
X176638223Y-120311917D01*
X176905025Y-120213318D01*
X177131461Y-119603778D01*
X177107401Y-118953983D01*
X176905025Y-118465402D01*
X176638223Y-118366803D01*
X175665665Y-119339360D01*
X175306455Y-119339360D01*
X175292313Y-119325218D01*
X175471918Y-119145612D01*
X175486060Y-119159755D01*
X176458617Y-118187197D01*
X176456308Y-118180949D01*
X176870906Y-117767073D01*
X177120266Y-117166547D01*
X177120452Y-116953284D01*
X177390500Y-117007000D01*
X177390500Y-117007000D01*
G37*
X177390500Y-117007000D02*
X184784947Y-117007000D01*
X184831843Y-117242765D01*
X184972191Y-117452809D01*
X185033320Y-117493654D01*
X184891673Y-117635302D01*
X184795000Y-117868691D01*
X184795000Y-118459250D01*
X184953750Y-118618000D01*
X185928000Y-118618000D01*
X185928000Y-118598000D01*
X186182000Y-118598000D01*
X186182000Y-118618000D01*
X187156250Y-118618000D01*
X187315000Y-118459250D01*
X187315000Y-117868691D01*
X187286178Y-117799108D01*
X189538023Y-120050954D01*
X189345000Y-120012560D01*
X187845000Y-120012560D01*
X187597235Y-120061843D01*
X187387191Y-120202191D01*
X187346346Y-120263320D01*
X187204698Y-120121673D01*
X187015556Y-120043328D01*
X187039699Y-120033327D01*
X187218327Y-119854698D01*
X187315000Y-119621309D01*
X187315000Y-119030750D01*
X187156250Y-118872000D01*
X186182000Y-118872000D01*
X186182000Y-119971250D01*
X186308250Y-120097500D01*
X186222000Y-120183750D01*
X186222000Y-121158000D01*
X186242000Y-121158000D01*
X186242000Y-121412000D01*
X186222000Y-121412000D01*
X186222000Y-122386250D01*
X186380750Y-122545000D01*
X186971309Y-122545000D01*
X187204698Y-122448327D01*
X187346346Y-122306680D01*
X187387191Y-122367809D01*
X187597235Y-122508157D01*
X187845000Y-122557440D01*
X189345000Y-122557440D01*
X189592765Y-122508157D01*
X189802809Y-122367809D01*
X189872012Y-122264240D01*
X189961300Y-122282000D01*
X191385878Y-122282000D01*
X191442749Y-122320000D01*
X191342191Y-122387191D01*
X191258888Y-122511862D01*
X191165000Y-122605750D01*
X191165000Y-122721310D01*
X191173217Y-122741148D01*
X191152560Y-122845000D01*
X191152560Y-123158000D01*
X183921300Y-123158000D01*
X183645280Y-123212904D01*
X183642351Y-123213487D01*
X183632157Y-123162235D01*
X183491809Y-122952191D01*
X183281765Y-122811843D01*
X183034000Y-122762560D01*
X181002000Y-122762560D01*
X180754235Y-122811843D01*
X180544191Y-122952191D01*
X180416149Y-123143818D01*
X179762215Y-122489885D01*
X179698033Y-122447000D01*
X179515005Y-122324704D01*
X179223400Y-122266700D01*
X177485931Y-122266700D01*
X176789981Y-121570750D01*
X184710000Y-121570750D01*
X184710000Y-122036310D01*
X184806673Y-122269699D01*
X184985302Y-122448327D01*
X185218691Y-122545000D01*
X185809250Y-122545000D01*
X185968000Y-122386250D01*
X185968000Y-121412000D01*
X184868750Y-121412000D01*
X184710000Y-121570750D01*
X176789981Y-121570750D01*
X176089576Y-120870345D01*
X176360018Y-120758325D01*
X176443033Y-120533690D01*
X184710000Y-120533690D01*
X184710000Y-120999250D01*
X184868750Y-121158000D01*
X185968000Y-121158000D01*
X185968000Y-120183750D01*
X185841750Y-120057500D01*
X185928000Y-119971250D01*
X185928000Y-118872000D01*
X184953750Y-118872000D01*
X184795000Y-119030750D01*
X184795000Y-119621309D01*
X184891673Y-119854698D01*
X185070301Y-120033327D01*
X185134444Y-120059896D01*
X184985302Y-120121673D01*
X184806673Y-120300301D01*
X184710000Y-120533690D01*
X176443033Y-120533690D01*
X176458617Y-120491523D01*
X175486060Y-119518965D01*
X175471918Y-119533108D01*
X175292312Y-119353502D01*
X175306455Y-119339360D01*
X175665665Y-119339360D01*
X176638223Y-120311917D01*
X176905025Y-120213318D01*
X177131461Y-119603778D01*
X177107401Y-118953983D01*
X176905025Y-118465402D01*
X176638223Y-118366803D01*
X175665665Y-119339360D01*
X175306455Y-119339360D01*
X175292313Y-119325218D01*
X175471918Y-119145612D01*
X175486060Y-119159755D01*
X176458617Y-118187197D01*
X176456308Y-118180949D01*
X176870906Y-117767073D01*
X177120266Y-117166547D01*
X177120452Y-116953284D01*
X177390500Y-117007000D01*
G36*
X194091095Y-122025396D02*
X194382700Y-122083400D01*
X195807158Y-122083400D01*
X195959514Y-122236022D01*
X196253268Y-122358000D01*
X193814122Y-122358000D01*
X193757251Y-122320000D01*
X193857809Y-122252809D01*
X193941112Y-122128138D01*
X194035000Y-122034250D01*
X194035000Y-121987914D01*
X194091095Y-122025396D01*
X194091095Y-122025396D01*
G37*
X194091095Y-122025396D02*
X194382700Y-122083400D01*
X195807158Y-122083400D01*
X195959514Y-122236022D01*
X196253268Y-122358000D01*
X193814122Y-122358000D01*
X193757251Y-122320000D01*
X193857809Y-122252809D01*
X193941112Y-122128138D01*
X194035000Y-122034250D01*
X194035000Y-121987914D01*
X194091095Y-122025396D01*
G36*
X198443811Y-121415811D02*
X198139878Y-121719214D01*
X197975187Y-122115832D01*
X197974998Y-122333372D01*
X197950370Y-122358000D01*
X196889862Y-122358000D01*
X197182489Y-122237089D01*
X197486422Y-121933686D01*
X197651113Y-121537068D01*
X197651356Y-121257600D01*
X198826710Y-121257600D01*
X198443811Y-121415811D01*
X198443811Y-121415811D01*
G37*
X198443811Y-121415811D02*
X198139878Y-121719214D01*
X197975187Y-122115832D01*
X197974998Y-122333372D01*
X197950370Y-122358000D01*
X196889862Y-122358000D01*
X197182489Y-122237089D01*
X197486422Y-121933686D01*
X197651113Y-121537068D01*
X197651356Y-121257600D01*
X198826710Y-121257600D01*
X198443811Y-121415811D01*
G36*
X199551300Y-106492000D02*
X199641570Y-106492000D01*
X199705621Y-106587859D01*
X199839031Y-106677001D01*
X199803731Y-106691623D01*
X199625103Y-106870252D01*
X199528430Y-107103641D01*
X199528430Y-107344250D01*
X199687180Y-107503000D01*
X200936860Y-107503000D01*
X200936860Y-107483000D01*
X201190860Y-107483000D01*
X201190860Y-107503000D01*
X201210860Y-107503000D01*
X201210860Y-107757000D01*
X201190860Y-107757000D01*
X201190860Y-108506300D01*
X201349610Y-108665050D01*
X201642800Y-108665050D01*
X201642800Y-113418269D01*
X200286200Y-114774870D01*
X200286200Y-111176300D01*
X200228196Y-110884695D01*
X200063015Y-110637485D01*
X198839205Y-109413675D01*
X199017765Y-109378157D01*
X199227809Y-109237809D01*
X199368157Y-109027765D01*
X199417440Y-108780000D01*
X199417440Y-107915750D01*
X199528430Y-107915750D01*
X199528430Y-108156359D01*
X199625103Y-108389748D01*
X199803731Y-108568377D01*
X200037120Y-108665050D01*
X200778110Y-108665050D01*
X200936860Y-108506300D01*
X200936860Y-107757000D01*
X199687180Y-107757000D01*
X199528430Y-107915750D01*
X199417440Y-107915750D01*
X199417440Y-107280000D01*
X199368157Y-107032235D01*
X199227809Y-106822191D01*
X199017765Y-106681843D01*
X199008500Y-106680000D01*
X199017765Y-106678157D01*
X199227809Y-106537809D01*
X199292778Y-106440577D01*
X199551300Y-106492000D01*
X199551300Y-106492000D01*
G37*
X199551300Y-106492000D02*
X199641570Y-106492000D01*
X199705621Y-106587859D01*
X199839031Y-106677001D01*
X199803731Y-106691623D01*
X199625103Y-106870252D01*
X199528430Y-107103641D01*
X199528430Y-107344250D01*
X199687180Y-107503000D01*
X200936860Y-107503000D01*
X200936860Y-107483000D01*
X201190860Y-107483000D01*
X201190860Y-107503000D01*
X201210860Y-107503000D01*
X201210860Y-107757000D01*
X201190860Y-107757000D01*
X201190860Y-108506300D01*
X201349610Y-108665050D01*
X201642800Y-108665050D01*
X201642800Y-113418269D01*
X200286200Y-114774870D01*
X200286200Y-111176300D01*
X200228196Y-110884695D01*
X200063015Y-110637485D01*
X198839205Y-109413675D01*
X199017765Y-109378157D01*
X199227809Y-109237809D01*
X199368157Y-109027765D01*
X199417440Y-108780000D01*
X199417440Y-107915750D01*
X199528430Y-107915750D01*
X199528430Y-108156359D01*
X199625103Y-108389748D01*
X199803731Y-108568377D01*
X200037120Y-108665050D01*
X200778110Y-108665050D01*
X200936860Y-108506300D01*
X200936860Y-107757000D01*
X199687180Y-107757000D01*
X199528430Y-107915750D01*
X199417440Y-107915750D01*
X199417440Y-107280000D01*
X199368157Y-107032235D01*
X199227809Y-106822191D01*
X199017765Y-106681843D01*
X199008500Y-106680000D01*
X199017765Y-106678157D01*
X199227809Y-106537809D01*
X199292778Y-106440577D01*
X199551300Y-106492000D01*
G36*
X189565000Y-105615380D02*
X189565000Y-110383865D01*
X189115154Y-110832927D01*
X188865794Y-111433453D01*
X188865226Y-112083694D01*
X189113538Y-112684655D01*
X189471558Y-113043300D01*
X181264094Y-113043300D01*
X181312557Y-112912163D01*
X180340000Y-111939605D01*
X180325858Y-111953748D01*
X180146253Y-111774143D01*
X180160395Y-111760000D01*
X180519605Y-111760000D01*
X181492163Y-112732557D01*
X181758965Y-112633958D01*
X181985401Y-112024418D01*
X181961341Y-111374623D01*
X181758965Y-110886042D01*
X181492163Y-110787443D01*
X180519605Y-111760000D01*
X180160395Y-111760000D01*
X179187837Y-110787443D01*
X178921035Y-110886042D01*
X178820229Y-111157399D01*
X178323400Y-110660570D01*
X178323400Y-110607837D01*
X179367443Y-110607837D01*
X180340000Y-111580395D01*
X181312557Y-110607837D01*
X181213958Y-110341035D01*
X180604418Y-110114599D01*
X179954623Y-110138659D01*
X179466042Y-110341035D01*
X179367443Y-110607837D01*
X178323400Y-110607837D01*
X178323400Y-107902050D01*
X179025110Y-107902050D01*
X179183860Y-107743300D01*
X179183860Y-106994000D01*
X179163860Y-106994000D01*
X179163860Y-106740000D01*
X179183860Y-106740000D01*
X179183860Y-106720000D01*
X179437860Y-106720000D01*
X179437860Y-106740000D01*
X179457860Y-106740000D01*
X179457860Y-106994000D01*
X179437860Y-106994000D01*
X179437860Y-107743300D01*
X179596610Y-107902050D01*
X180337600Y-107902050D01*
X180570989Y-107805377D01*
X180579867Y-107796499D01*
X180862513Y-108079145D01*
X181165849Y-108281827D01*
X181523658Y-108353000D01*
X183403000Y-108353000D01*
X183760809Y-108281827D01*
X184064145Y-108079145D01*
X184677850Y-107465440D01*
X185503000Y-107465440D01*
X185750765Y-107416157D01*
X185960809Y-107275809D01*
X186101157Y-107065765D01*
X186103000Y-107056500D01*
X186104843Y-107065765D01*
X186245191Y-107275809D01*
X186455235Y-107416157D01*
X186703000Y-107465440D01*
X188203000Y-107465440D01*
X188450765Y-107416157D01*
X188660809Y-107275809D01*
X188801157Y-107065765D01*
X188850440Y-106818000D01*
X188850440Y-105597649D01*
X188990815Y-105569727D01*
X189200859Y-105429379D01*
X189272212Y-105322592D01*
X189565000Y-105615380D01*
X189565000Y-105615380D01*
G37*
X189565000Y-105615380D02*
X189565000Y-110383865D01*
X189115154Y-110832927D01*
X188865794Y-111433453D01*
X188865226Y-112083694D01*
X189113538Y-112684655D01*
X189471558Y-113043300D01*
X181264094Y-113043300D01*
X181312557Y-112912163D01*
X180340000Y-111939605D01*
X180325858Y-111953748D01*
X180146253Y-111774143D01*
X180160395Y-111760000D01*
X180519605Y-111760000D01*
X181492163Y-112732557D01*
X181758965Y-112633958D01*
X181985401Y-112024418D01*
X181961341Y-111374623D01*
X181758965Y-110886042D01*
X181492163Y-110787443D01*
X180519605Y-111760000D01*
X180160395Y-111760000D01*
X179187837Y-110787443D01*
X178921035Y-110886042D01*
X178820229Y-111157399D01*
X178323400Y-110660570D01*
X178323400Y-110607837D01*
X179367443Y-110607837D01*
X180340000Y-111580395D01*
X181312557Y-110607837D01*
X181213958Y-110341035D01*
X180604418Y-110114599D01*
X179954623Y-110138659D01*
X179466042Y-110341035D01*
X179367443Y-110607837D01*
X178323400Y-110607837D01*
X178323400Y-107902050D01*
X179025110Y-107902050D01*
X179183860Y-107743300D01*
X179183860Y-106994000D01*
X179163860Y-106994000D01*
X179163860Y-106740000D01*
X179183860Y-106740000D01*
X179183860Y-106720000D01*
X179437860Y-106720000D01*
X179437860Y-106740000D01*
X179457860Y-106740000D01*
X179457860Y-106994000D01*
X179437860Y-106994000D01*
X179437860Y-107743300D01*
X179596610Y-107902050D01*
X180337600Y-107902050D01*
X180570989Y-107805377D01*
X180579867Y-107796499D01*
X180862513Y-108079145D01*
X181165849Y-108281827D01*
X181523658Y-108353000D01*
X183403000Y-108353000D01*
X183760809Y-108281827D01*
X184064145Y-108079145D01*
X184677850Y-107465440D01*
X185503000Y-107465440D01*
X185750765Y-107416157D01*
X185960809Y-107275809D01*
X186101157Y-107065765D01*
X186103000Y-107056500D01*
X186104843Y-107065765D01*
X186245191Y-107275809D01*
X186455235Y-107416157D01*
X186703000Y-107465440D01*
X188203000Y-107465440D01*
X188450765Y-107416157D01*
X188660809Y-107275809D01*
X188801157Y-107065765D01*
X188850440Y-106818000D01*
X188850440Y-105597649D01*
X188990815Y-105569727D01*
X189200859Y-105429379D01*
X189272212Y-105322592D01*
X189565000Y-105615380D01*
G36*
X199625103Y-92900252D02*
X199528430Y-93133641D01*
X199528430Y-93374250D01*
X199687180Y-93533000D01*
X200936860Y-93533000D01*
X200936860Y-93513000D01*
X201190860Y-93513000D01*
X201190860Y-93533000D01*
X202440540Y-93533000D01*
X202586848Y-93386692D01*
X202707901Y-93567859D01*
X202773483Y-93611680D01*
X202673953Y-93760636D01*
X202615949Y-94052241D01*
X202615949Y-96624791D01*
X202667395Y-96883428D01*
X202558765Y-96810843D01*
X202311000Y-96761560D01*
X200279000Y-96761560D01*
X200031235Y-96810843D01*
X199821191Y-96951191D01*
X199680843Y-97161235D01*
X199631560Y-97409000D01*
X199631560Y-99441000D01*
X199680843Y-99688765D01*
X199821191Y-99898809D01*
X199963872Y-99994146D01*
X199737330Y-100333190D01*
X199611655Y-100965000D01*
X199737330Y-101596810D01*
X200095222Y-102132433D01*
X200630845Y-102490325D01*
X201262655Y-102616000D01*
X201327345Y-102616000D01*
X201959155Y-102490325D01*
X202494778Y-102132433D01*
X202650085Y-101900000D01*
X204064414Y-101900000D01*
X204077845Y-101967523D01*
X203986396Y-101985713D01*
X203951762Y-102008855D01*
X203739186Y-102150893D01*
X203616185Y-102273895D01*
X203469126Y-102493983D01*
X203297141Y-102608901D01*
X203156793Y-102818945D01*
X203107510Y-103066710D01*
X203107510Y-104815170D01*
X202943615Y-104569885D01*
X201635915Y-103262185D01*
X201622718Y-103253367D01*
X201388705Y-103097004D01*
X201097100Y-103039000D01*
X200856842Y-103039000D01*
X200704486Y-102886378D01*
X200307868Y-102721687D01*
X199878416Y-102721313D01*
X199481511Y-102885311D01*
X199177578Y-103188714D01*
X199012887Y-103585332D01*
X199012543Y-103980804D01*
X198770000Y-103932560D01*
X197470000Y-103932560D01*
X197222235Y-103981843D01*
X197012191Y-104122191D01*
X196871843Y-104332235D01*
X196822560Y-104580000D01*
X196822560Y-106080000D01*
X196871843Y-106327765D01*
X197012191Y-106537809D01*
X197222235Y-106678157D01*
X197231500Y-106680000D01*
X197222235Y-106681843D01*
X197012191Y-106822191D01*
X196871843Y-107032235D01*
X196824947Y-107268000D01*
X195783090Y-107268000D01*
X195491486Y-107326003D01*
X195244275Y-107491184D01*
X193049469Y-109685991D01*
X192833816Y-109685803D01*
X192436911Y-109849801D01*
X192132978Y-110153204D01*
X191968287Y-110549822D01*
X191968047Y-110825000D01*
X191876135Y-110825000D01*
X191435000Y-110383095D01*
X191435000Y-105228090D01*
X191363827Y-104870281D01*
X191161145Y-104566945D01*
X190004195Y-103409995D01*
X189897408Y-103338642D01*
X190004195Y-103231855D01*
X190206877Y-102928519D01*
X190278050Y-102570710D01*
X190278050Y-101822167D01*
X190570222Y-102259433D01*
X191105845Y-102617325D01*
X191737655Y-102743000D01*
X191802345Y-102743000D01*
X192434155Y-102617325D01*
X192717600Y-102427933D01*
X192717600Y-106048158D01*
X192564978Y-106200514D01*
X192400287Y-106597132D01*
X192399913Y-107026584D01*
X192563911Y-107423489D01*
X192867314Y-107727422D01*
X193263932Y-107892113D01*
X193693384Y-107892487D01*
X194090289Y-107728489D01*
X194394222Y-107425086D01*
X194558913Y-107028468D01*
X194559287Y-106599016D01*
X194395289Y-106202111D01*
X194241600Y-106048154D01*
X194241600Y-98699730D01*
X196990694Y-95950636D01*
X197012191Y-95982809D01*
X197222235Y-96123157D01*
X197470000Y-96172440D01*
X198770000Y-96172440D01*
X199017765Y-96123157D01*
X199227809Y-95982809D01*
X199368157Y-95772765D01*
X199417440Y-95525000D01*
X199417440Y-94025000D01*
X199401677Y-93945750D01*
X199528430Y-93945750D01*
X199528430Y-94186359D01*
X199625103Y-94419748D01*
X199803731Y-94598377D01*
X200037120Y-94695050D01*
X200778110Y-94695050D01*
X200936860Y-94536300D01*
X200936860Y-93787000D01*
X201190860Y-93787000D01*
X201190860Y-94536300D01*
X201349610Y-94695050D01*
X202090600Y-94695050D01*
X202323989Y-94598377D01*
X202502617Y-94419748D01*
X202599290Y-94186359D01*
X202599290Y-93945750D01*
X202440540Y-93787000D01*
X201190860Y-93787000D01*
X200936860Y-93787000D01*
X199687180Y-93787000D01*
X199528430Y-93945750D01*
X199401677Y-93945750D01*
X199368157Y-93777235D01*
X199227809Y-93567191D01*
X199017765Y-93426843D01*
X199008500Y-93425000D01*
X199017765Y-93423157D01*
X199227809Y-93282809D01*
X199368157Y-93072765D01*
X199415053Y-92837000D01*
X199467200Y-92837000D01*
X199743268Y-92782087D01*
X199625103Y-92900252D01*
X199625103Y-92900252D01*
G37*
X199625103Y-92900252D02*
X199528430Y-93133641D01*
X199528430Y-93374250D01*
X199687180Y-93533000D01*
X200936860Y-93533000D01*
X200936860Y-93513000D01*
X201190860Y-93513000D01*
X201190860Y-93533000D01*
X202440540Y-93533000D01*
X202586848Y-93386692D01*
X202707901Y-93567859D01*
X202773483Y-93611680D01*
X202673953Y-93760636D01*
X202615949Y-94052241D01*
X202615949Y-96624791D01*
X202667395Y-96883428D01*
X202558765Y-96810843D01*
X202311000Y-96761560D01*
X200279000Y-96761560D01*
X200031235Y-96810843D01*
X199821191Y-96951191D01*
X199680843Y-97161235D01*
X199631560Y-97409000D01*
X199631560Y-99441000D01*
X199680843Y-99688765D01*
X199821191Y-99898809D01*
X199963872Y-99994146D01*
X199737330Y-100333190D01*
X199611655Y-100965000D01*
X199737330Y-101596810D01*
X200095222Y-102132433D01*
X200630845Y-102490325D01*
X201262655Y-102616000D01*
X201327345Y-102616000D01*
X201959155Y-102490325D01*
X202494778Y-102132433D01*
X202650085Y-101900000D01*
X204064414Y-101900000D01*
X204077845Y-101967523D01*
X203986396Y-101985713D01*
X203951762Y-102008855D01*
X203739186Y-102150893D01*
X203616185Y-102273895D01*
X203469126Y-102493983D01*
X203297141Y-102608901D01*
X203156793Y-102818945D01*
X203107510Y-103066710D01*
X203107510Y-104815170D01*
X202943615Y-104569885D01*
X201635915Y-103262185D01*
X201622718Y-103253367D01*
X201388705Y-103097004D01*
X201097100Y-103039000D01*
X200856842Y-103039000D01*
X200704486Y-102886378D01*
X200307868Y-102721687D01*
X199878416Y-102721313D01*
X199481511Y-102885311D01*
X199177578Y-103188714D01*
X199012887Y-103585332D01*
X199012543Y-103980804D01*
X198770000Y-103932560D01*
X197470000Y-103932560D01*
X197222235Y-103981843D01*
X197012191Y-104122191D01*
X196871843Y-104332235D01*
X196822560Y-104580000D01*
X196822560Y-106080000D01*
X196871843Y-106327765D01*
X197012191Y-106537809D01*
X197222235Y-106678157D01*
X197231500Y-106680000D01*
X197222235Y-106681843D01*
X197012191Y-106822191D01*
X196871843Y-107032235D01*
X196824947Y-107268000D01*
X195783090Y-107268000D01*
X195491486Y-107326003D01*
X195244275Y-107491184D01*
X193049469Y-109685991D01*
X192833816Y-109685803D01*
X192436911Y-109849801D01*
X192132978Y-110153204D01*
X191968287Y-110549822D01*
X191968047Y-110825000D01*
X191876135Y-110825000D01*
X191435000Y-110383095D01*
X191435000Y-105228090D01*
X191363827Y-104870281D01*
X191161145Y-104566945D01*
X190004195Y-103409995D01*
X189897408Y-103338642D01*
X190004195Y-103231855D01*
X190206877Y-102928519D01*
X190278050Y-102570710D01*
X190278050Y-101822167D01*
X190570222Y-102259433D01*
X191105845Y-102617325D01*
X191737655Y-102743000D01*
X191802345Y-102743000D01*
X192434155Y-102617325D01*
X192717600Y-102427933D01*
X192717600Y-106048158D01*
X192564978Y-106200514D01*
X192400287Y-106597132D01*
X192399913Y-107026584D01*
X192563911Y-107423489D01*
X192867314Y-107727422D01*
X193263932Y-107892113D01*
X193693384Y-107892487D01*
X194090289Y-107728489D01*
X194394222Y-107425086D01*
X194558913Y-107028468D01*
X194559287Y-106599016D01*
X194395289Y-106202111D01*
X194241600Y-106048154D01*
X194241600Y-98699730D01*
X196990694Y-95950636D01*
X197012191Y-95982809D01*
X197222235Y-96123157D01*
X197470000Y-96172440D01*
X198770000Y-96172440D01*
X199017765Y-96123157D01*
X199227809Y-95982809D01*
X199368157Y-95772765D01*
X199417440Y-95525000D01*
X199417440Y-94025000D01*
X199401677Y-93945750D01*
X199528430Y-93945750D01*
X199528430Y-94186359D01*
X199625103Y-94419748D01*
X199803731Y-94598377D01*
X200037120Y-94695050D01*
X200778110Y-94695050D01*
X200936860Y-94536300D01*
X200936860Y-93787000D01*
X201190860Y-93787000D01*
X201190860Y-94536300D01*
X201349610Y-94695050D01*
X202090600Y-94695050D01*
X202323989Y-94598377D01*
X202502617Y-94419748D01*
X202599290Y-94186359D01*
X202599290Y-93945750D01*
X202440540Y-93787000D01*
X201190860Y-93787000D01*
X200936860Y-93787000D01*
X199687180Y-93787000D01*
X199528430Y-93945750D01*
X199401677Y-93945750D01*
X199368157Y-93777235D01*
X199227809Y-93567191D01*
X199017765Y-93426843D01*
X199008500Y-93425000D01*
X199017765Y-93423157D01*
X199227809Y-93282809D01*
X199368157Y-93072765D01*
X199415053Y-92837000D01*
X199467200Y-92837000D01*
X199743268Y-92782087D01*
X199625103Y-92900252D01*
G36*
X169992701Y-97602701D02*
X169852353Y-97812745D01*
X169803070Y-98060510D01*
X169803070Y-99959640D01*
X167434474Y-102328236D01*
X167267765Y-102216843D01*
X167020000Y-102167560D01*
X166857615Y-102167560D01*
X167033729Y-102094611D01*
X167089410Y-101864016D01*
X166370000Y-101144605D01*
X166355858Y-101158748D01*
X166176253Y-100979143D01*
X166190395Y-100965000D01*
X166549605Y-100965000D01*
X167269016Y-101684410D01*
X167499611Y-101628729D01*
X167667622Y-101145922D01*
X167638083Y-100635572D01*
X167499611Y-100301271D01*
X167269016Y-100245590D01*
X166549605Y-100965000D01*
X166190395Y-100965000D01*
X166176252Y-100950858D01*
X166355858Y-100771252D01*
X166370000Y-100785395D01*
X167089410Y-100065984D01*
X167047522Y-99892509D01*
X169376031Y-97564000D01*
X170050621Y-97564000D01*
X169992701Y-97602701D01*
X169992701Y-97602701D01*
G37*
X169992701Y-97602701D02*
X169852353Y-97812745D01*
X169803070Y-98060510D01*
X169803070Y-99959640D01*
X167434474Y-102328236D01*
X167267765Y-102216843D01*
X167020000Y-102167560D01*
X166857615Y-102167560D01*
X167033729Y-102094611D01*
X167089410Y-101864016D01*
X166370000Y-101144605D01*
X166355858Y-101158748D01*
X166176253Y-100979143D01*
X166190395Y-100965000D01*
X166549605Y-100965000D01*
X167269016Y-101684410D01*
X167499611Y-101628729D01*
X167667622Y-101145922D01*
X167638083Y-100635572D01*
X167499611Y-100301271D01*
X167269016Y-100245590D01*
X166549605Y-100965000D01*
X166190395Y-100965000D01*
X166176252Y-100950858D01*
X166355858Y-100771252D01*
X166370000Y-100785395D01*
X167089410Y-100065984D01*
X167047522Y-99892509D01*
X169376031Y-97564000D01*
X170050621Y-97564000D01*
X169992701Y-97602701D01*
G36*
X178086031Y-92810501D02*
X178050731Y-92825123D01*
X177872103Y-93003752D01*
X177775430Y-93237141D01*
X177775430Y-93477750D01*
X177934180Y-93636500D01*
X179183860Y-93636500D01*
X179183860Y-93616500D01*
X179437860Y-93616500D01*
X179437860Y-93636500D01*
X179457860Y-93636500D01*
X179457860Y-93890500D01*
X179437860Y-93890500D01*
X179437860Y-93910500D01*
X179183860Y-93910500D01*
X179183860Y-93890500D01*
X177934180Y-93890500D01*
X177775430Y-94049250D01*
X177775430Y-94289859D01*
X177872103Y-94523248D01*
X178050731Y-94701877D01*
X178284120Y-94798550D01*
X179025110Y-94798550D01*
X179183858Y-94639802D01*
X179183858Y-94798550D01*
X179244002Y-94798550D01*
X176029855Y-98012697D01*
X175954817Y-98125000D01*
X173096930Y-98125000D01*
X173096930Y-98060510D01*
X173047647Y-97812745D01*
X172907299Y-97602701D01*
X172809766Y-97537531D01*
X172968305Y-97505996D01*
X173215515Y-97340815D01*
X174685694Y-95870636D01*
X174707191Y-95902809D01*
X174917235Y-96043157D01*
X175165000Y-96092440D01*
X176465000Y-96092440D01*
X176712765Y-96043157D01*
X176922809Y-95902809D01*
X177063157Y-95692765D01*
X177112440Y-95445000D01*
X177112440Y-93945000D01*
X177063157Y-93697235D01*
X176922809Y-93487191D01*
X176712765Y-93346843D01*
X176703500Y-93345000D01*
X176712765Y-93343157D01*
X176922809Y-93202809D01*
X177063157Y-92992765D01*
X177110053Y-92757000D01*
X177897700Y-92757000D01*
X177981126Y-92740406D01*
X178086031Y-92810501D01*
X178086031Y-92810501D01*
G37*
X178086031Y-92810501D02*
X178050731Y-92825123D01*
X177872103Y-93003752D01*
X177775430Y-93237141D01*
X177775430Y-93477750D01*
X177934180Y-93636500D01*
X179183860Y-93636500D01*
X179183860Y-93616500D01*
X179437860Y-93616500D01*
X179437860Y-93636500D01*
X179457860Y-93636500D01*
X179457860Y-93890500D01*
X179437860Y-93890500D01*
X179437860Y-93910500D01*
X179183860Y-93910500D01*
X179183860Y-93890500D01*
X177934180Y-93890500D01*
X177775430Y-94049250D01*
X177775430Y-94289859D01*
X177872103Y-94523248D01*
X178050731Y-94701877D01*
X178284120Y-94798550D01*
X179025110Y-94798550D01*
X179183858Y-94639802D01*
X179183858Y-94798550D01*
X179244002Y-94798550D01*
X176029855Y-98012697D01*
X175954817Y-98125000D01*
X173096930Y-98125000D01*
X173096930Y-98060510D01*
X173047647Y-97812745D01*
X172907299Y-97602701D01*
X172809766Y-97537531D01*
X172968305Y-97505996D01*
X173215515Y-97340815D01*
X174685694Y-95870636D01*
X174707191Y-95902809D01*
X174917235Y-96043157D01*
X175165000Y-96092440D01*
X176465000Y-96092440D01*
X176712765Y-96043157D01*
X176922809Y-95902809D01*
X177063157Y-95692765D01*
X177112440Y-95445000D01*
X177112440Y-93945000D01*
X177063157Y-93697235D01*
X176922809Y-93487191D01*
X176712765Y-93346843D01*
X176703500Y-93345000D01*
X176712765Y-93343157D01*
X176922809Y-93202809D01*
X177063157Y-92992765D01*
X177110053Y-92757000D01*
X177897700Y-92757000D01*
X177981126Y-92740406D01*
X178086031Y-92810501D01*
M02*
