G04 #@! TF.GenerationSoftware,KiCad,Pcbnew,(5.0.0)*
G04 #@! TF.CreationDate,2018-08-15T10:41:59+02:00*
G04 #@! TF.ProjectId,FTController,4654436F6E74726F6C6C65722E6B6963,1.0*
G04 #@! TF.SameCoordinates,Original*
G04 #@! TF.FileFunction,Soldermask,Top*
G04 #@! TF.FilePolarity,Negative*
%FSLAX46Y46*%
G04 Gerber Fmt 4.6, Leading zero omitted, Abs format (unit mm)*
G04 Created by KiCad (PCBNEW (5.0.0)) date 08/15/18 10:41:59*
%MOMM*%
%LPD*%
G01*
G04 APERTURE LIST*
%ADD10C,2.398980*%
%ADD11C,1.901140*%
%ADD12R,1.650000X1.900000*%
%ADD13R,1.900000X1.650000*%
%ADD14R,2.398980X2.398980*%
%ADD15C,2.400000*%
%ADD16R,2.400000X2.400000*%
%ADD17R,2.127200X2.127200*%
%ADD18O,2.127200X2.127200*%
%ADD19R,2.200860X1.200100*%
%ADD20R,1.200100X2.200860*%
%ADD21O,2.700000X2.000000*%
%ADD22C,1.700000*%
%ADD23R,1.700000X1.700000*%
%ADD24O,2.432000X2.432000*%
%ADD25R,2.432000X2.432000*%
%ADD26O,1.901140X1.299160*%
%ADD27C,3.400000*%
%ADD28C,2.899360*%
%ADD29R,1.700000X1.900000*%
%ADD30R,1.900000X1.700000*%
%ADD31R,2.000000X0.950000*%
%ADD32R,0.950000X2.000000*%
%ADD33C,2.900000*%
G04 APERTURE END LIST*
D10*
G04 #@! TO.C,U5*
X227406200Y-129489200D03*
X220903800Y-129489200D03*
X227406200Y-125089920D03*
X220903800Y-125089920D03*
D11*
X216405460Y-123489720D03*
X231904540Y-123489720D03*
X216405460Y-110190280D03*
X231904540Y-110190280D03*
D10*
X226654360Y-107088940D03*
X221655640Y-107088940D03*
X224155000Y-107088940D03*
X233906060Y-119339360D03*
X233906060Y-116840000D03*
X233906060Y-114340640D03*
G04 #@! TD*
D12*
G04 #@! TO.C,C2*
X149860000Y-105370000D03*
X149860000Y-102870000D03*
G04 #@! TD*
G04 #@! TO.C,C5*
X186055000Y-116245000D03*
X186055000Y-118745000D03*
G04 #@! TD*
D13*
G04 #@! TO.C,C7*
X186095000Y-121285000D03*
X188595000Y-121285000D03*
G04 #@! TD*
D10*
G04 #@! TO.C,D1*
X161290000Y-102870000D03*
D14*
X157480000Y-102870000D03*
G04 #@! TD*
D15*
G04 #@! TO.C,D2*
X240665000Y-123825000D03*
D16*
X240665000Y-121285000D03*
G04 #@! TD*
D17*
G04 #@! TO.C,P4*
X210820000Y-138430000D03*
D18*
X213360000Y-138430000D03*
X210820000Y-140970000D03*
X213360000Y-140970000D03*
X210820000Y-143510000D03*
X213360000Y-143510000D03*
G04 #@! TD*
D19*
G04 #@! TO.C,Q2*
X204066140Y-92710000D03*
X201063860Y-93660000D03*
X201063860Y-91760000D03*
G04 #@! TD*
D20*
G04 #@! TO.C,Q4*
X206055000Y-95422760D03*
X204155000Y-95422760D03*
X205105000Y-98425040D03*
G04 #@! TD*
G04 #@! TO.C,Q5*
X208915000Y-98425040D03*
X207965000Y-95422760D03*
X209865000Y-95422760D03*
G04 #@! TD*
G04 #@! TO.C,Q8*
X204155000Y-103967140D03*
X206055000Y-103967140D03*
X205105000Y-100964860D03*
G04 #@! TD*
G04 #@! TO.C,Q9*
X208915000Y-100964860D03*
X209865000Y-103967140D03*
X207965000Y-103967140D03*
G04 #@! TD*
D19*
G04 #@! TO.C,Q12*
X201063860Y-105730000D03*
X201063860Y-107630000D03*
X204066140Y-106680000D03*
G04 #@! TD*
G04 #@! TO.C,Q14*
X182313140Y-92813500D03*
X179310860Y-93763500D03*
X179310860Y-91863500D03*
G04 #@! TD*
D20*
G04 #@! TO.C,Q16*
X183583000Y-98528440D03*
X182633000Y-95526160D03*
X184533000Y-95526160D03*
G04 #@! TD*
G04 #@! TO.C,Q17*
X188343000Y-95526160D03*
X186443000Y-95526160D03*
X187393000Y-98528440D03*
G04 #@! TD*
G04 #@! TO.C,Q20*
X182633000Y-104071140D03*
X184533000Y-104071140D03*
X183583000Y-101068860D03*
G04 #@! TD*
G04 #@! TO.C,Q21*
X186443000Y-104071140D03*
X188343000Y-104071140D03*
X187393000Y-101068860D03*
G04 #@! TD*
D19*
G04 #@! TO.C,Q24*
X182313140Y-105917000D03*
X179310860Y-106867000D03*
X179310860Y-104967000D03*
G04 #@! TD*
D21*
G04 #@! TO.C,U2*
X227965000Y-93980000D03*
X227965000Y-96520000D03*
X227965000Y-99060000D03*
X235585000Y-99060000D03*
X235585000Y-96520000D03*
X235585000Y-93980000D03*
G04 #@! TD*
D10*
G04 #@! TO.C,U4*
X175486060Y-114340640D03*
X175486060Y-116840000D03*
X175486060Y-119339360D03*
X165735000Y-107088940D03*
X163235640Y-107088940D03*
X168234360Y-107088940D03*
D11*
X173484540Y-110190280D03*
X157985460Y-110190280D03*
X173484540Y-123489720D03*
X157985460Y-123489720D03*
D10*
X162483800Y-125089920D03*
X168986200Y-125089920D03*
X162483800Y-129489200D03*
X168986200Y-129489200D03*
G04 #@! TD*
D11*
G04 #@! TO.C,Y1*
X208280000Y-114300060D03*
X208280000Y-119181940D03*
G04 #@! TD*
D22*
G04 #@! TO.C,C1*
X166370000Y-97790000D03*
D23*
X166370000Y-95290000D03*
G04 #@! TD*
D22*
G04 #@! TO.C,C4*
X148590000Y-110490000D03*
D23*
X151090000Y-110490000D03*
G04 #@! TD*
D24*
G04 #@! TO.C,JP1*
X198120000Y-111760000D03*
D25*
X195580000Y-111760000D03*
G04 #@! TD*
G04 #@! TO.C,P2*
X219710000Y-93980000D03*
D24*
X219710000Y-96520000D03*
G04 #@! TD*
D25*
G04 #@! TO.C,P5*
X241300000Y-104267000D03*
D24*
X238760000Y-104267000D03*
G04 #@! TD*
D25*
G04 #@! TO.C,P6*
X201295000Y-98425000D03*
D24*
X201295000Y-100965000D03*
G04 #@! TD*
G04 #@! TO.C,P7*
X212533000Y-98425000D03*
D25*
X212533000Y-100965000D03*
G04 #@! TD*
D24*
G04 #@! TO.C,P8*
X179773000Y-101068500D03*
D25*
X179773000Y-98528500D03*
G04 #@! TD*
G04 #@! TO.C,P9*
X191770000Y-98552000D03*
D24*
X191770000Y-101092000D03*
G04 #@! TD*
D10*
G04 #@! TO.C,R2*
X149860000Y-120015000D03*
X149860000Y-130175000D03*
G04 #@! TD*
G04 #@! TO.C,R3*
X153035000Y-120015000D03*
X153035000Y-130175000D03*
G04 #@! TD*
G04 #@! TO.C,R19*
X190500000Y-111760000D03*
X180340000Y-111760000D03*
G04 #@! TD*
D26*
G04 #@! TO.C,U3*
X153670000Y-104140000D03*
X153670000Y-102870000D03*
X153670000Y-105410000D03*
G04 #@! TD*
D27*
G04 #@! TO.C,MK1*
X149000000Y-93000000D03*
G04 #@! TD*
G04 #@! TO.C,MK2*
X241000000Y-146000000D03*
G04 #@! TD*
G04 #@! TO.C,MK3*
X241000000Y-93000000D03*
G04 #@! TD*
G04 #@! TO.C,MK4*
X149000000Y-146050000D03*
G04 #@! TD*
D17*
G04 #@! TO.C,P3*
X186055000Y-143510000D03*
D18*
X186055000Y-146050000D03*
X183515000Y-143510000D03*
X183515000Y-146050000D03*
X180975000Y-143510000D03*
X180975000Y-146050000D03*
X178435000Y-143510000D03*
X178435000Y-146050000D03*
X175895000Y-143510000D03*
X175895000Y-146050000D03*
G04 #@! TD*
D25*
G04 #@! TO.C,P10*
X194310000Y-146050000D03*
D24*
X194310000Y-143510000D03*
G04 #@! TD*
D28*
G04 #@! TO.C,RV1*
X164139880Y-144739640D03*
X167640000Y-142240280D03*
X167640000Y-147239000D03*
G04 #@! TD*
D29*
G04 #@! TO.C,R7*
X198120000Y-92075000D03*
X198120000Y-94775000D03*
G04 #@! TD*
D30*
G04 #@! TO.C,R9*
X206295000Y-92690000D03*
X208995000Y-92690000D03*
G04 #@! TD*
G04 #@! TO.C,R11*
X208995000Y-106045000D03*
X206295000Y-106045000D03*
G04 #@! TD*
D29*
G04 #@! TO.C,R13*
X198120000Y-108030000D03*
X198120000Y-105330000D03*
G04 #@! TD*
G04 #@! TO.C,R15*
X175815000Y-94695000D03*
X175815000Y-91995000D03*
G04 #@! TD*
D30*
G04 #@! TO.C,R17*
X187493000Y-92178500D03*
X184793000Y-92178500D03*
G04 #@! TD*
G04 #@! TO.C,R20*
X184753000Y-106168000D03*
X187453000Y-106168000D03*
G04 #@! TD*
D29*
G04 #@! TO.C,R22*
X176530000Y-107475000D03*
X176530000Y-104775000D03*
G04 #@! TD*
G04 #@! TO.C,R24*
X196850000Y-132080000D03*
X196850000Y-134780000D03*
G04 #@! TD*
D31*
G04 #@! TO.C,IC1*
X201100000Y-124720000D03*
X201100000Y-123920000D03*
X201100000Y-123120000D03*
X201100000Y-122320000D03*
X201100000Y-121520000D03*
X201100000Y-120720000D03*
X201100000Y-119920000D03*
X201100000Y-119120000D03*
D32*
X199650000Y-117670000D03*
X198850000Y-117670000D03*
X198050000Y-117670000D03*
X197250000Y-117670000D03*
X196450000Y-117670000D03*
X195650000Y-117670000D03*
X194850000Y-117670000D03*
X194050000Y-117670000D03*
D31*
X192600000Y-119120000D03*
X192600000Y-119920000D03*
X192600000Y-120720000D03*
X192600000Y-121520000D03*
X192600000Y-122320000D03*
X192600000Y-123120000D03*
X192600000Y-123920000D03*
X192600000Y-124720000D03*
D32*
X194050000Y-126170000D03*
X194850000Y-126170000D03*
X195650000Y-126170000D03*
X196450000Y-126170000D03*
X197250000Y-126170000D03*
X198050000Y-126170000D03*
X198850000Y-126170000D03*
X199650000Y-126170000D03*
G04 #@! TD*
D23*
G04 #@! TO.C,C11*
X233640000Y-147360000D03*
D22*
X233640000Y-144860000D03*
G04 #@! TD*
D17*
G04 #@! TO.C,U6*
X224790000Y-146685000D03*
D18*
X227330000Y-146685000D03*
X224790000Y-144145000D03*
X227330000Y-144145000D03*
X224790000Y-141605000D03*
X227330000Y-141605000D03*
X224790000Y-139065000D03*
X227330000Y-139065000D03*
G04 #@! TD*
D25*
G04 #@! TO.C,J1*
X220980000Y-140970000D03*
D24*
X220980000Y-143510000D03*
G04 #@! TD*
D25*
G04 #@! TO.C,J2*
X177726000Y-124426000D03*
D24*
X177726000Y-126966000D03*
G04 #@! TD*
G04 #@! TO.C,J3*
X182018000Y-126966000D03*
D25*
X182018000Y-124426000D03*
G04 #@! TD*
D23*
G04 #@! TO.C,C12*
X166370000Y-103465000D03*
D22*
X166370000Y-100965000D03*
G04 #@! TD*
D33*
G04 #@! TO.C,P1*
X159980000Y-94488000D03*
X154980000Y-94488000D03*
G04 #@! TD*
D10*
G04 #@! TO.C,D3*
X171450000Y-95250000D03*
D14*
X171450000Y-99060000D03*
G04 #@! TD*
D23*
G04 #@! TO.C,F1*
X171370000Y-91440000D03*
D22*
X166370000Y-91440000D03*
G04 #@! TD*
M02*
