M48
;DRILL file {KiCad (5.0.0)} date 08/15/18 10:42:25
;FORMAT={3:3/ absolute / metric / suppress leading zeros}
FMAT,2
METRIC,TZ
T1C0.600
T2C0.635
T3C0.800
T4C0.800
T5C1.001
T6C1.016
T7C1.199
T8C1.270
T9C1.300
T10C1.501
T11C3.000
%
G90
G05
M71
T1
X153670Y-102870
X153670Y-104140
X153670Y-105410
T2
X190990Y-119150
X193048Y-110765
X193055Y-117676
X193480Y-106813
X196059Y-119597
X196283Y-124623
X196419Y-109107
X196572Y-121321
X197250Y-116102
X198050Y-119179
X198083Y-130066
X198205Y-131852
X198735Y-129046
X199054Y-122331
X200092Y-103801
X201797Y-94761
X206286Y-97202
X207240Y-91243
X207507Y-107650
X210973Y-121899
X214237Y-121884
T3
X233640Y-144860
X233640Y-147360
X148590Y-110490
X151090Y-110490
X166370Y-95290
X166370Y-97790
X227965Y-93980
X227965Y-96520
X227965Y-99060
X235585Y-93980
X235585Y-96520
X235585Y-99060
X166370Y-91440
X171370Y-91440
X166370Y-100965
X166370Y-103465
T4
X208280Y-114300
X208280Y-119182
T5
X157480Y-102870
X153035Y-120015
X153035Y-130175
X149860Y-120015
X149860Y-130175
X240665Y-121285
X240665Y-123825
X180340Y-111760
X190500Y-111760
X162484Y-125090
X162484Y-129489
X163236Y-107089
X165735Y-107089
X168234Y-107089
X168986Y-125090
X168986Y-129489
X175486Y-114341
X175486Y-116840
X175486Y-119339
X220904Y-125090
X220904Y-129489
X221656Y-107089
X224155Y-107089
X226654Y-107089
X227406Y-125090
X227406Y-129489
X233906Y-114341
X233906Y-116840
X233906Y-119339
X171450Y-99060
T6
X177726Y-124426
X177726Y-126966
X210820Y-138430
X210820Y-140970
X210820Y-143510
X213360Y-138430
X213360Y-140970
X213360Y-143510
X224790Y-139065
X224790Y-141605
X224790Y-144145
X224790Y-146685
X227330Y-139065
X227330Y-141605
X227330Y-144145
X227330Y-146685
X191770Y-98552
X191770Y-101092
X195580Y-111760
X198120Y-111760
X182018Y-124426
X182018Y-126966
X201295Y-98425
X201295Y-100965
X219710Y-93980
X219710Y-96520
X175895Y-143510
X175895Y-146050
X178435Y-143510
X178435Y-146050
X180975Y-143510
X180975Y-146050
X183515Y-143510
X183515Y-146050
X186055Y-143510
X186055Y-146050
X212533Y-98425
X212533Y-100965
X194310Y-143510
X194310Y-146050
X179773Y-98529
X179773Y-101068
X238760Y-104267
X241300Y-104267
X220980Y-140970
X220980Y-143510
T7
X164140Y-144740
X167640Y-142240
X167640Y-147239
T8
X171450Y-95250
X161290Y-102870
T9
X154980Y-94488
X159980Y-94488
T10
X157985Y-110190
X157985Y-123490
X173485Y-110190
X173485Y-123490
X216405Y-110190
X216405Y-123490
X231905Y-110190
X231905Y-123490
T11
X241000Y-146000
X149000Y-93000
X149000Y-146050
X241000Y-93000
T0
M30
