G04 #@! TF.GenerationSoftware,KiCad,Pcbnew,(2017-03-02 revision 906ee77db)-makepkg*
G04 #@! TF.CreationDate,2017-03-05T17:57:52+01:00*
G04 #@! TF.ProjectId,FTController,4654436F6E74726F6C6C65722E6B6963,1.0*
G04 #@! TF.FileFunction,Copper,L2,Bot,Signal*
G04 #@! TF.FilePolarity,Positive*
%FSLAX46Y46*%
G04 Gerber Fmt 4.6, Leading zero omitted, Abs format (unit mm)*
G04 Created by KiCad (PCBNEW (2017-03-02 revision 906ee77db)-makepkg) date 03/05/17 17:57:52*
%MOMM*%
%LPD*%
G01*
G04 APERTURE LIST*
%ADD10C,0.100000*%
%ADD11C,1.998980*%
%ADD12C,1.501140*%
%ADD13R,1.250000X1.500000*%
%ADD14R,2.000000X1.600000*%
%ADD15R,1.998980X1.998980*%
%ADD16C,2.000000*%
%ADD17R,2.000000X2.000000*%
%ADD18R,1.727200X1.727200*%
%ADD19O,1.727200X1.727200*%
%ADD20R,1.800860X0.800100*%
%ADD21R,0.800100X1.800860*%
%ADD22R,1.500000X1.250000*%
%ADD23O,2.300000X1.600000*%
%ADD24C,1.300000*%
%ADD25R,1.300000X1.300000*%
%ADD26O,2.032000X2.032000*%
%ADD27R,2.032000X2.032000*%
%ADD28O,1.501140X0.899160*%
%ADD29C,2.499360*%
%ADD30R,1.500000X1.300000*%
%ADD31R,1.300000X1.500000*%
%ADD32R,3.657600X2.032000*%
%ADD33R,1.016000X2.032000*%
%ADD34C,2.500000*%
%ADD35C,0.889000*%
%ADD36C,0.254000*%
%ADD37C,0.600000*%
%ADD38C,0.300000*%
%ADD39C,0.500000*%
G04 APERTURE END LIST*
D10*
D11*
X227406200Y-129489200D03*
X220903800Y-129489200D03*
X227406200Y-125089920D03*
X220903800Y-125089920D03*
D12*
X216405460Y-123489720D03*
X231904540Y-123489720D03*
X216405460Y-110190280D03*
X231904540Y-110190280D03*
D11*
X226654360Y-107088940D03*
X221655640Y-107088940D03*
X224155000Y-107088940D03*
X233906060Y-119339360D03*
X233906060Y-116840000D03*
X233906060Y-114340640D03*
D13*
X217805000Y-140335000D03*
X217805000Y-142835000D03*
X149860000Y-102910000D03*
X149860000Y-105410000D03*
D14*
X210820000Y-119380000D03*
X214820000Y-119380000D03*
X214820000Y-114300000D03*
X210820000Y-114300000D03*
D11*
X161290000Y-102870000D03*
D15*
X157480000Y-102870000D03*
D16*
X240665000Y-123825000D03*
D17*
X240665000Y-121285000D03*
D18*
X210820000Y-138430000D03*
D19*
X213360000Y-138430000D03*
X210820000Y-140970000D03*
X213360000Y-140970000D03*
X210820000Y-143510000D03*
X213360000Y-143510000D03*
D20*
X213079140Y-104841000D03*
X213079140Y-106741000D03*
X210076860Y-105791000D03*
D21*
X209673000Y-103944140D03*
X207773000Y-103944140D03*
X208723000Y-100941860D03*
X205863000Y-103944140D03*
X203963000Y-103944140D03*
X204913000Y-100941860D03*
X207773000Y-95399560D03*
X209673000Y-95399560D03*
X208723000Y-98401840D03*
X204913000Y-98401840D03*
X205863000Y-95399560D03*
X203963000Y-95399560D03*
D20*
X210357720Y-93321900D03*
X213360000Y-94271900D03*
X213360000Y-92371900D03*
X188729860Y-93551900D03*
X191732140Y-94501900D03*
X191732140Y-92601900D03*
D21*
X187452000Y-98552040D03*
X188402000Y-95549760D03*
X186502000Y-95549760D03*
X182700000Y-95629660D03*
X184600000Y-95629660D03*
X183650000Y-98631940D03*
X188402000Y-104094140D03*
X186502000Y-104094140D03*
X187452000Y-101091860D03*
X183650000Y-101091860D03*
X182700000Y-104094140D03*
X184600000Y-104094140D03*
D20*
X188729860Y-106483000D03*
X191732140Y-107433000D03*
X191732140Y-105533000D03*
D22*
X225385000Y-93980000D03*
X222885000Y-93980000D03*
D23*
X227965000Y-93980000D03*
X227965000Y-96520000D03*
X227965000Y-99060000D03*
X235585000Y-99060000D03*
X235585000Y-96520000D03*
X235585000Y-93980000D03*
D11*
X175486060Y-114340640D03*
X175486060Y-116840000D03*
X175486060Y-119339360D03*
X165735000Y-107088940D03*
X163235640Y-107088940D03*
X168234360Y-107088940D03*
D12*
X173484540Y-110190280D03*
X157985460Y-110190280D03*
X173484540Y-123489720D03*
X157985460Y-123489720D03*
D11*
X162483800Y-125089920D03*
X168986200Y-125089920D03*
X162483800Y-129489200D03*
X168986200Y-129489200D03*
D12*
X208280000Y-114300060D03*
X208280000Y-119181940D03*
D24*
X166370000Y-97790000D03*
D25*
X166370000Y-95290000D03*
D24*
X148590000Y-110490000D03*
D25*
X151090000Y-110490000D03*
D26*
X198120000Y-111760000D03*
D27*
X195580000Y-111760000D03*
X219710000Y-93980000D03*
D26*
X219710000Y-96520000D03*
D27*
X241300000Y-104267000D03*
D26*
X238760000Y-104267000D03*
D27*
X201295000Y-98425000D03*
D26*
X201295000Y-100965000D03*
X212533000Y-98425000D03*
D27*
X212533000Y-100965000D03*
D26*
X179773000Y-101068500D03*
D27*
X179773000Y-98528500D03*
X191770000Y-98552000D03*
D26*
X191770000Y-101092000D03*
D21*
X242123000Y-111587140D03*
X240223000Y-111587140D03*
X241173000Y-108584860D03*
D11*
X149860000Y-120015000D03*
X149860000Y-130175000D03*
X153035000Y-120015000D03*
X153035000Y-130175000D03*
X190500000Y-111760000D03*
X180340000Y-111760000D03*
D28*
X153670000Y-104140000D03*
X153670000Y-102870000D03*
X153670000Y-105410000D03*
D18*
X186055000Y-143510000D03*
D19*
X186055000Y-146050000D03*
X183515000Y-143510000D03*
X183515000Y-146050000D03*
X180975000Y-143510000D03*
X180975000Y-146050000D03*
X178435000Y-143510000D03*
X178435000Y-146050000D03*
X175895000Y-143510000D03*
X175895000Y-146050000D03*
D27*
X194310000Y-146050000D03*
D26*
X194310000Y-143510000D03*
D29*
X164139880Y-144739640D03*
X167640000Y-142240280D03*
X167640000Y-147239000D03*
D30*
X237965000Y-126365000D03*
X240665000Y-126365000D03*
X224630000Y-121920000D03*
X227330000Y-121920000D03*
X218440000Y-103505000D03*
X215740000Y-103505000D03*
X207553000Y-106225000D03*
X204853000Y-106225000D03*
X207513000Y-92686900D03*
X204813000Y-92686900D03*
D31*
X215820000Y-91995000D03*
X215820000Y-94695000D03*
X194945000Y-95330000D03*
X194945000Y-92630000D03*
D30*
X186290000Y-92916900D03*
X183590000Y-92916900D03*
X186250000Y-106887000D03*
X183550000Y-106887000D03*
D31*
X194945000Y-105965000D03*
X194945000Y-108665000D03*
D30*
X191850000Y-146050000D03*
X189150000Y-146050000D03*
D13*
X231140000Y-147554000D03*
X231140000Y-145054000D03*
D25*
X233640000Y-147360000D03*
D24*
X233640000Y-144860000D03*
D32*
X238760000Y-137160000D03*
D33*
X238760000Y-130556000D03*
X241046000Y-130556000D03*
X236474000Y-130556000D03*
D18*
X224790000Y-146685000D03*
D19*
X227330000Y-146685000D03*
X224790000Y-144145000D03*
X227330000Y-144145000D03*
X224790000Y-141605000D03*
X227330000Y-141605000D03*
X224790000Y-139065000D03*
X227330000Y-139065000D03*
D27*
X220980000Y-140970000D03*
D26*
X220980000Y-143510000D03*
D27*
X177726000Y-124426000D03*
D26*
X177726000Y-126966000D03*
X182018000Y-126966000D03*
D27*
X182018000Y-124426000D03*
D25*
X166370000Y-103465000D03*
D24*
X166370000Y-100965000D03*
D13*
X168910000Y-103485000D03*
X168910000Y-100985000D03*
D34*
X159980000Y-94488000D03*
X154980000Y-94488000D03*
D11*
X171450000Y-95250000D03*
D15*
X171450000Y-99060000D03*
D25*
X171370000Y-91440000D03*
D24*
X166370000Y-91440000D03*
D35*
X201796600Y-94761100D03*
X207506600Y-107649700D03*
X207239900Y-91243200D03*
X214237300Y-121884000D03*
X210972700Y-121899400D03*
X200092200Y-103801000D03*
X196418700Y-109107400D03*
X198050000Y-119179300D03*
X196059500Y-119596700D03*
X193054800Y-117675800D03*
X190989900Y-119149900D03*
X196571800Y-121321400D03*
X199054500Y-122331500D03*
X193479600Y-106812800D03*
X193047600Y-110765490D03*
X196282900Y-124622700D03*
X198205100Y-131852000D03*
X206286100Y-97201800D03*
X197250000Y-116102500D03*
X198083400Y-130065600D03*
X198735000Y-129046200D03*
D36*
X217858100Y-93906100D02*
X217858100Y-94742000D01*
X213544600Y-102473600D02*
X213641200Y-102473600D01*
X212297800Y-105959700D02*
X211797300Y-105459200D01*
X214820000Y-114300000D02*
X214820000Y-113118700D01*
X214820000Y-113118700D02*
X213079100Y-111377800D01*
X211797300Y-104220900D02*
X213544600Y-102473600D01*
X213079100Y-111377800D02*
X213079100Y-105959700D01*
X213079100Y-105959700D02*
X212297800Y-105959700D01*
X217858100Y-94742000D02*
X218312600Y-95196500D01*
X217442600Y-93490600D02*
X217858100Y-93906100D01*
X211797300Y-105459200D02*
X211797300Y-104220900D01*
X213641200Y-102473600D02*
X213944000Y-102170800D01*
X213944000Y-102170800D02*
X213944000Y-96002200D01*
X213944000Y-96002200D02*
X212995100Y-95053300D01*
X212995100Y-95053300D02*
X212995100Y-93651300D01*
X212995100Y-93651300D02*
X213155800Y-93490600D01*
X213155800Y-93490600D02*
X217442600Y-93490600D01*
X218312600Y-95196500D02*
X218312600Y-97141800D01*
X218312600Y-97141800D02*
X225776800Y-104606000D01*
X225776800Y-104606000D02*
X226654400Y-104606000D01*
X213360000Y-94271900D02*
X212859620Y-94271900D01*
X212859620Y-94271900D02*
X211836000Y-93248280D01*
X201796600Y-93714698D02*
X201796600Y-94132483D01*
X211836000Y-93248280D02*
X211836000Y-91694000D01*
X211836000Y-91694000D02*
X210312000Y-90170000D01*
X210312000Y-90170000D02*
X205341298Y-90170000D01*
X205341298Y-90170000D02*
X201796600Y-93714698D01*
X201796600Y-94132483D02*
X201796600Y-94761100D01*
D37*
X166370000Y-97790000D02*
X166370000Y-100965000D01*
D36*
X233640000Y-144860000D02*
X233640000Y-132628000D01*
X235712000Y-130556000D02*
X236474000Y-130556000D01*
X233640000Y-132628000D02*
X235712000Y-130556000D01*
X233640000Y-144860000D02*
X231334000Y-144860000D01*
X231334000Y-144860000D02*
X231140000Y-145054000D01*
D37*
X170135000Y-100985000D02*
X172720000Y-103570000D01*
X172720000Y-103570000D02*
X176784000Y-107634000D01*
X168234360Y-107088940D02*
X169647852Y-107088940D01*
X169647852Y-107088940D02*
X172720000Y-104016792D01*
X172720000Y-104016792D02*
X172720000Y-103570000D01*
X176784000Y-107634000D02*
X176784000Y-108204000D01*
X176784000Y-108204000D02*
X180340000Y-111760000D01*
X168910000Y-100985000D02*
X170135000Y-100985000D01*
X166370000Y-100965000D02*
X168890000Y-100965000D01*
X168890000Y-100965000D02*
X168910000Y-100985000D01*
D36*
X236474000Y-130556000D02*
X236474000Y-129158700D01*
X218811300Y-143338200D02*
X218811300Y-142835000D01*
X220913200Y-145440100D02*
X218811300Y-143338200D01*
X225851700Y-145440100D02*
X220913200Y-145440100D01*
X226085100Y-145673500D02*
X225851700Y-145440100D01*
X226085100Y-146685000D02*
X226085100Y-145673500D01*
X217805000Y-142835000D02*
X218811300Y-142835000D01*
X235585000Y-99060000D02*
X234053700Y-99060000D01*
X236474000Y-129158700D02*
X233906100Y-126590800D01*
X233906100Y-126590800D02*
X233906100Y-119339400D01*
X157408900Y-120015000D02*
X153035000Y-120015000D01*
X162483800Y-125089900D02*
X157408900Y-120015000D01*
X167640000Y-130246100D02*
X167640000Y-142240300D01*
X162483800Y-125089900D02*
X167640000Y-130246100D01*
X214820000Y-114300000D02*
X214820000Y-119380000D01*
X149860000Y-102910000D02*
X150866300Y-102910000D01*
X153670000Y-104140000D02*
X152538100Y-104140000D01*
X152538100Y-104140000D02*
X151087200Y-102689100D01*
X154980000Y-98796300D02*
X151087200Y-102689100D01*
X154980000Y-94488000D02*
X154980000Y-98796300D01*
X151087200Y-102689100D02*
X150866300Y-102910000D01*
X226654400Y-104606000D02*
X226654400Y-107088900D01*
X228507700Y-104606000D02*
X226654400Y-104606000D01*
X234053700Y-99060000D02*
X228507700Y-104606000D01*
X240665000Y-113310800D02*
X240223000Y-112868800D01*
X240665000Y-121285000D02*
X240665000Y-113310800D01*
X240223000Y-111587100D02*
X240223000Y-112868800D01*
X216123700Y-143510000D02*
X216798700Y-142835000D01*
X213360000Y-143510000D02*
X216123700Y-143510000D01*
X217805000Y-142835000D02*
X216798700Y-142835000D01*
X191732100Y-94501900D02*
X193013800Y-94501900D01*
X186055000Y-143510000D02*
X194310000Y-143510000D01*
X227330000Y-146685000D02*
X226760500Y-146685000D01*
X226760500Y-146685000D02*
X226085100Y-146685000D01*
X201796600Y-94190600D02*
X201796600Y-94761100D01*
X193325100Y-94190600D02*
X193013800Y-94501900D01*
X201796600Y-94190600D02*
X193325100Y-94190600D01*
X226760500Y-146685000D02*
X228585500Y-144860000D01*
X228585500Y-144860000D02*
X233640000Y-144860000D01*
X191732100Y-107433000D02*
X191732100Y-108214400D01*
X181632400Y-113052400D02*
X181632400Y-113193100D01*
X180340000Y-111760000D02*
X181632400Y-113052400D01*
X175486100Y-119339400D02*
X181632400Y-113193100D01*
X191976300Y-108458600D02*
X191732100Y-108214400D01*
X191976300Y-112301700D02*
X191976300Y-108458600D01*
X191084900Y-113193100D02*
X191976300Y-112301700D01*
X181632400Y-113193100D02*
X191084900Y-113193100D01*
X153670000Y-105410000D02*
X149860000Y-105410000D01*
X237965000Y-118399500D02*
X233906100Y-114340600D01*
X237965000Y-126365000D02*
X237965000Y-118399500D01*
X239727400Y-129158700D02*
X237965000Y-127396300D01*
X241046000Y-129158700D02*
X239727400Y-129158700D01*
X241046000Y-130556000D02*
X241046000Y-129158700D01*
X237965000Y-126365000D02*
X237965000Y-127396300D01*
X189150000Y-146050000D02*
X186055000Y-146050000D01*
X168251400Y-147850400D02*
X167640000Y-147239000D01*
X183476500Y-147850400D02*
X168251400Y-147850400D01*
X184810100Y-146516800D02*
X183476500Y-147850400D01*
X184810100Y-146050000D02*
X184810100Y-146516800D01*
X186055000Y-146050000D02*
X184810100Y-146050000D01*
X216509900Y-140335000D02*
X217805000Y-140335000D01*
X214604900Y-138430000D02*
X216509900Y-140335000D01*
X213360000Y-138430000D02*
X214604900Y-138430000D01*
X208280000Y-119182000D02*
X208280100Y-119182000D01*
X210622000Y-119182000D02*
X210820000Y-119380000D01*
X208280100Y-119182000D02*
X210622000Y-119182000D01*
X208280100Y-119182000D02*
X208280000Y-119181900D01*
X208280000Y-114300000D02*
X208280100Y-114300000D01*
X208280100Y-114300000D02*
X210820000Y-114300000D01*
X208280100Y-114300000D02*
X208280000Y-114300100D01*
D37*
X207553000Y-106225000D02*
X207553000Y-107603300D01*
X207553000Y-107603300D02*
X207506600Y-107649700D01*
X207513000Y-92686900D02*
X209673000Y-94846900D01*
X209673000Y-94846900D02*
X209673000Y-95399560D01*
X207553000Y-106225000D02*
X207553000Y-104164140D01*
X207553000Y-104164140D02*
X207773000Y-103944140D01*
X207513000Y-92686900D02*
X207513000Y-91516300D01*
X207513000Y-91516300D02*
X207239900Y-91243200D01*
D38*
X209673000Y-95399600D02*
X209673000Y-95900000D01*
D39*
X186502000Y-104094000D02*
X186502000Y-104094100D01*
X188402000Y-95549700D02*
X188402000Y-95549800D01*
D38*
X186190000Y-92916900D02*
X186198000Y-92916900D01*
D39*
X186198000Y-92916900D02*
X186290000Y-92916900D01*
X168910000Y-103485000D02*
X167734700Y-103485000D01*
X207513000Y-92686900D02*
X207461000Y-92686900D01*
D38*
X207413000Y-92686900D02*
X207461000Y-92686900D01*
X209673000Y-94899200D02*
X209673000Y-95399600D01*
X207461000Y-92686900D02*
X209673000Y-94899200D01*
D39*
X188402000Y-95549700D02*
X188410000Y-95549700D01*
D38*
X188410000Y-95129200D02*
X188410000Y-95549700D01*
X188410000Y-95549700D02*
X188410000Y-95629600D01*
D39*
X167714700Y-103465000D02*
X166370000Y-103465000D01*
X167734700Y-103485000D02*
X167714700Y-103465000D01*
X150046700Y-120015000D02*
X149860000Y-120015000D01*
X159366800Y-110694900D02*
X150046700Y-120015000D01*
X159366800Y-108743200D02*
X159366800Y-110694900D01*
X164645000Y-103465000D02*
X159366800Y-108743200D01*
X166370000Y-103465000D02*
X164645000Y-103465000D01*
X186376000Y-106761000D02*
X186326000Y-106711000D01*
D38*
X186510000Y-106527000D02*
X186326000Y-106711000D01*
D39*
X186502000Y-106635000D02*
X186376000Y-106761000D01*
X186502000Y-104094100D02*
X186502000Y-106635000D01*
X186376000Y-106761000D02*
X186250000Y-106887000D01*
X184989600Y-91716500D02*
X186190000Y-92916900D01*
X180343300Y-91716500D02*
X184989600Y-91716500D01*
X172999800Y-99060000D02*
X180343300Y-91716500D01*
X171450000Y-99060000D02*
X172999800Y-99060000D01*
X189302000Y-95549700D02*
X189550800Y-95300900D01*
X188410000Y-95549700D02*
X189302000Y-95549700D01*
X186390000Y-92916900D02*
X186290000Y-92916900D01*
X187540000Y-91766900D02*
X186390000Y-92916900D01*
X189236000Y-91766900D02*
X187540000Y-91766900D01*
X190282000Y-92813300D02*
X189236000Y-91766900D01*
X190282000Y-94569600D02*
X190282000Y-92813300D01*
X189550800Y-95300900D02*
X190282000Y-94569600D01*
D38*
X186326000Y-106711000D02*
X186238000Y-106799000D01*
X186238000Y-106799000D02*
X186150000Y-106887000D01*
D39*
X190471900Y-96222000D02*
X189550800Y-95300900D01*
X192297500Y-96222000D02*
X190471900Y-96222000D01*
X193356400Y-97280900D02*
X192297500Y-96222000D01*
X193356400Y-101720900D02*
X193356400Y-97280900D01*
X190249000Y-104828300D02*
X193356400Y-101720900D01*
X190249000Y-107051600D02*
X190249000Y-104828300D01*
X189843300Y-107457300D02*
X190249000Y-107051600D01*
X186896300Y-107457300D02*
X189843300Y-107457300D01*
X186238000Y-106799000D02*
X186896300Y-107457300D01*
X207453000Y-106225000D02*
X207506600Y-106225000D01*
X207506600Y-106225000D02*
X207553000Y-106225000D01*
X207506600Y-107649700D02*
X207506600Y-106225000D01*
D36*
X240665000Y-126365000D02*
X240665000Y-123825000D01*
X215405300Y-121884000D02*
X214237300Y-121884000D01*
X218440000Y-118849300D02*
X215405300Y-121884000D01*
X218440000Y-103505000D02*
X218440000Y-118849300D01*
X215820000Y-94695000D02*
X216851300Y-94695000D01*
X212123900Y-120748200D02*
X210972700Y-121899400D01*
X215822300Y-120748200D02*
X212123900Y-120748200D01*
X217588500Y-118982000D02*
X215822300Y-120748200D01*
X217588500Y-107070400D02*
X217588500Y-118982000D01*
X216871400Y-106353300D02*
X217588500Y-107070400D01*
X216871400Y-94715100D02*
X216871400Y-106353300D01*
X216851300Y-94695000D02*
X216871400Y-94715100D01*
X194945000Y-98653800D02*
X194945000Y-95330000D01*
X200092200Y-103801000D02*
X194945000Y-98653800D01*
X194945000Y-108665000D02*
X195976300Y-108665000D01*
X195976300Y-108665000D02*
X196418700Y-109107400D01*
X235585000Y-93980000D02*
X235585000Y-95161300D01*
X198050000Y-122530000D02*
X198050000Y-119179300D01*
X200152700Y-124632700D02*
X198050000Y-122530000D01*
X216877500Y-124632700D02*
X200152700Y-124632700D01*
X217597200Y-123913000D02*
X216877500Y-124632700D01*
X217597200Y-121416500D02*
X217597200Y-123913000D01*
X237147700Y-101866000D02*
X217597200Y-121416500D01*
X237147700Y-96059500D02*
X237147700Y-101866000D01*
X236249500Y-95161300D02*
X237147700Y-96059500D01*
X235585000Y-95161300D02*
X236249500Y-95161300D01*
X213360000Y-140970000D02*
X213360000Y-139725100D01*
X195745900Y-119910300D02*
X196059500Y-119596700D01*
X195745900Y-121719400D02*
X195745900Y-119910300D01*
X205623500Y-131597000D02*
X195745900Y-121719400D01*
X206253500Y-131597000D02*
X205623500Y-131597000D01*
X212115100Y-137458600D02*
X206253500Y-131597000D01*
X212115100Y-138947100D02*
X212115100Y-137458600D01*
X212893100Y-139725100D02*
X212115100Y-138947100D01*
X213360000Y-139725100D02*
X212893100Y-139725100D01*
X210820000Y-138430000D02*
X209575100Y-138430000D01*
X175895000Y-143510000D02*
X175895000Y-142265100D01*
X193054800Y-117675800D02*
X192009400Y-118721200D01*
X190083900Y-128076200D02*
X175895000Y-142265100D01*
X190083900Y-119107100D02*
X190083900Y-128076200D01*
X190164100Y-119026900D02*
X190083900Y-119107100D01*
X190164100Y-118807900D02*
X190164100Y-119026900D01*
X190647900Y-118324100D02*
X190164100Y-118807900D01*
X191332000Y-118324100D02*
X190647900Y-118324100D01*
X191441500Y-118433600D02*
X191332000Y-118324100D01*
X191721700Y-118433600D02*
X191441500Y-118433600D01*
X192009400Y-118721200D02*
X191721700Y-118433600D01*
X192124000Y-118835900D02*
X192009400Y-118721200D01*
X192124000Y-121632500D02*
X192124000Y-118835900D01*
X198034100Y-127542600D02*
X192124000Y-121632500D01*
X198469400Y-127542600D02*
X198034100Y-127542600D01*
X198638900Y-127712100D02*
X198469400Y-127542600D01*
X199287600Y-127712100D02*
X198638900Y-127712100D01*
X200069100Y-128493600D02*
X199287600Y-127712100D01*
X200069100Y-128924000D02*
X200069100Y-128493600D01*
X209575100Y-138430000D02*
X200069100Y-128924000D01*
X210820000Y-140970000D02*
X210820000Y-139725100D01*
X178435000Y-143510000D02*
X178435000Y-142265100D01*
X212064900Y-141485800D02*
X212064900Y-140970000D01*
X212819100Y-142240000D02*
X212064900Y-141485800D01*
X215386600Y-142240000D02*
X212819100Y-142240000D01*
X216160200Y-141466400D02*
X215386600Y-142240000D01*
X218632700Y-141466400D02*
X216160200Y-141466400D01*
X219582600Y-140516500D02*
X218632700Y-141466400D01*
X219582600Y-139777500D02*
X219582600Y-140516500D01*
X219787500Y-139572600D02*
X219582600Y-139777500D01*
X223005200Y-139572600D02*
X219787500Y-139572600D01*
X223792700Y-140360100D02*
X223005200Y-139572600D01*
X225307100Y-140360100D02*
X223792700Y-140360100D01*
X226085100Y-141138100D02*
X225307100Y-140360100D01*
X226085100Y-141605000D02*
X226085100Y-141138100D01*
X227330000Y-141605000D02*
X226085100Y-141605000D01*
X210820000Y-140970000D02*
X212064900Y-140970000D01*
X178435000Y-142265100D02*
X193462600Y-127237500D01*
X190989900Y-124764800D02*
X190989900Y-119149900D01*
X193462600Y-127237500D02*
X190989900Y-124764800D01*
X194445500Y-128220400D02*
X193462600Y-127237500D01*
X199077100Y-128220400D02*
X194445500Y-128220400D01*
X199560800Y-128704100D02*
X199077100Y-128220400D01*
X199560800Y-129480800D02*
X199560800Y-128704100D01*
X209805100Y-139725100D02*
X199560800Y-129480800D01*
X210820000Y-139725100D02*
X209805100Y-139725100D01*
X233906100Y-117364300D02*
X233906100Y-116840000D01*
X228319000Y-122951400D02*
X233906100Y-117364300D01*
X226422200Y-122951400D02*
X228319000Y-122951400D01*
X226198700Y-122727900D02*
X226422200Y-122951400D01*
X226198700Y-121496100D02*
X226198700Y-122727900D01*
X225553600Y-120851000D02*
X226198700Y-121496100D01*
X222097600Y-120851000D02*
X225553600Y-120851000D01*
X217807600Y-125141000D02*
X222097600Y-120851000D01*
X199942200Y-125141000D02*
X217807600Y-125141000D01*
X196571800Y-121770600D02*
X199942200Y-125141000D01*
X196571800Y-121321400D02*
X196571800Y-121770600D01*
X199448300Y-122725300D02*
X199054500Y-122331500D01*
X215282800Y-122725300D02*
X199448300Y-122725300D01*
X224155000Y-113853100D02*
X215282800Y-122725300D01*
X224155000Y-107088900D02*
X224155000Y-113853100D01*
X165735000Y-114118200D02*
X165735000Y-107088900D01*
X175472600Y-123855800D02*
X165735000Y-114118200D01*
X175472600Y-126700400D02*
X175472600Y-123855800D01*
X177144700Y-128372500D02*
X175472600Y-126700400D01*
X179214200Y-128372500D02*
X177144700Y-128372500D01*
X180620700Y-126966000D02*
X179214200Y-128372500D01*
X182018000Y-126966000D02*
X180620700Y-126966000D01*
X177726000Y-124426000D02*
X179123300Y-124426000D01*
X193873400Y-107206600D02*
X193479600Y-106812800D01*
X193873400Y-111842500D02*
X193873400Y-107206600D01*
X190376400Y-115339500D02*
X193873400Y-111842500D01*
X188209800Y-115339500D02*
X190376400Y-115339500D01*
X179123300Y-124426000D02*
X188209800Y-115339500D01*
X193047600Y-111949400D02*
X193047600Y-111394107D01*
X190707800Y-114289200D02*
X193047600Y-111949400D01*
X185281000Y-114289200D02*
X190707800Y-114289200D01*
X193047600Y-111394107D02*
X193047600Y-110765490D01*
X176328600Y-123241600D02*
X185281000Y-114289200D01*
X176328600Y-125568600D02*
X176328600Y-123241600D01*
X177726000Y-126966000D02*
X176328600Y-125568600D01*
X198120000Y-116465300D02*
X198120000Y-113157300D01*
X197654900Y-116930400D02*
X198120000Y-116465300D01*
X197555000Y-116930400D02*
X197654900Y-116930400D01*
X195221200Y-119264200D02*
X197555000Y-116930400D01*
X195221200Y-123561000D02*
X195221200Y-119264200D01*
X196282900Y-124622700D02*
X195221200Y-123561000D01*
X198120000Y-111760000D02*
X198120000Y-113157300D01*
X210820000Y-143510000D02*
X209575100Y-143510000D01*
X209575100Y-143222000D02*
X198205100Y-131852000D01*
X209575100Y-143510000D02*
X209575100Y-143222000D01*
X213633800Y-103505000D02*
X213079100Y-104059700D01*
X215740000Y-103505000D02*
X213633800Y-103505000D01*
X213079100Y-104841000D02*
X213079100Y-104059700D01*
X205863000Y-103944140D02*
X205863000Y-103443760D01*
X205863000Y-103443760D02*
X206640051Y-102666709D01*
X206640051Y-102666709D02*
X208895949Y-102666709D01*
X208895949Y-102666709D02*
X209673000Y-103443760D01*
X209673000Y-103443760D02*
X209673000Y-103944140D01*
D38*
X209673000Y-105387000D02*
X210076900Y-105790900D01*
X209673000Y-103944100D02*
X209673000Y-105387000D01*
X210076900Y-105790900D02*
X210077000Y-105791000D01*
D36*
X210076900Y-105790900D02*
X210076900Y-105791000D01*
X204853000Y-106225000D02*
X204953000Y-106225000D01*
X205863000Y-103944100D02*
X205863000Y-103944000D01*
D38*
X205163000Y-103944000D02*
X205863000Y-103944000D01*
X204953000Y-104154000D02*
X205163000Y-103944000D01*
X204953000Y-106225000D02*
X204953000Y-104154000D01*
X209673000Y-103444000D02*
X209673000Y-103944100D01*
X205863000Y-103944000D02*
X205863000Y-103444000D01*
D37*
X205863000Y-95899940D02*
X204811531Y-96951409D01*
X204811531Y-96951409D02*
X204072949Y-96951409D01*
X203063000Y-97961358D02*
X203063000Y-102544000D01*
X204072949Y-96951409D02*
X203063000Y-97961358D01*
X203963000Y-103444000D02*
X203063000Y-102544000D01*
X205863000Y-95399560D02*
X205863000Y-95899940D01*
X203963000Y-103443760D02*
X203963000Y-103944140D01*
X206286100Y-97201800D02*
X205841601Y-96757301D01*
X205841601Y-96757301D02*
X205770301Y-96757301D01*
X205770301Y-96757301D02*
X205388000Y-96375000D01*
X205863000Y-95399560D02*
X205863000Y-95900000D01*
X205863000Y-95900000D02*
X205388000Y-96375000D01*
X190500000Y-111760000D02*
X186032998Y-111760000D01*
X186032998Y-111760000D02*
X181699950Y-107426952D01*
X181699950Y-107426952D02*
X181699950Y-105594570D01*
X181699950Y-105594570D02*
X182700000Y-104594520D01*
X182700000Y-104594520D02*
X182700000Y-104094140D01*
X184600000Y-95629660D02*
X184600000Y-96130040D01*
X182809949Y-97181509D02*
X181699950Y-98291508D01*
X184600000Y-96130040D02*
X183548531Y-97181509D01*
X182700000Y-103593760D02*
X182700000Y-104094140D01*
X183548531Y-97181509D02*
X182809949Y-97181509D01*
X181699950Y-98291508D02*
X181699950Y-102593710D01*
X181699950Y-102593710D02*
X182700000Y-103593760D01*
X203963000Y-103944140D02*
X203963000Y-104444520D01*
X203963000Y-104444520D02*
X202962950Y-105444570D01*
X202962950Y-105444570D02*
X201895430Y-105444570D01*
X201895430Y-105444570D02*
X195580000Y-111760000D01*
X203963000Y-103944140D02*
X203963000Y-103444000D01*
D38*
X184600000Y-95456900D02*
X184600000Y-95629600D01*
X184600000Y-95629600D02*
X184600000Y-95629700D01*
X184600000Y-95629700D02*
X184600000Y-95957300D01*
D39*
X184600000Y-95629600D02*
X184600000Y-95629700D01*
X184600000Y-95629700D02*
X184600000Y-95957300D01*
X182700000Y-103594000D02*
X182700000Y-104094000D01*
X181800000Y-102694000D02*
X182700000Y-103594000D01*
X181800000Y-98191500D02*
X181800000Y-102694000D01*
X182810000Y-97181500D02*
X181800000Y-98191500D01*
X183549000Y-97181500D02*
X182810000Y-97181500D01*
X184600000Y-96130000D02*
X183549000Y-97181500D01*
X184600000Y-95957300D02*
X184600000Y-96130000D01*
X182700000Y-104094000D02*
X182700000Y-104094100D01*
X203963000Y-103944000D02*
X203963000Y-103944100D01*
X203963000Y-103444000D02*
X203963000Y-103944000D01*
D37*
X208723000Y-100941860D02*
X212509860Y-100941860D01*
X212509860Y-100941860D02*
X212533000Y-100965000D01*
X204913000Y-100941860D02*
X208723000Y-100941860D01*
D39*
X212533000Y-100965000D02*
X204936140Y-100965000D01*
X204936140Y-100965000D02*
X204913000Y-100941860D01*
D36*
X212533000Y-100965000D02*
X212533000Y-100942000D01*
D38*
X204913100Y-100942000D02*
X204913000Y-100942000D01*
D36*
X204913100Y-100942000D02*
X204913000Y-100941900D01*
X208723100Y-100942000D02*
X208723000Y-100941900D01*
D38*
X212533000Y-100942000D02*
X208723100Y-100942000D01*
X208723100Y-100942000D02*
X204913100Y-100942000D01*
D36*
X206853820Y-93980000D02*
X206206100Y-93980000D01*
X206206100Y-93980000D02*
X204913000Y-92686900D01*
X204913000Y-92686900D02*
X204813000Y-92686900D01*
X207773000Y-95399560D02*
X207773000Y-94899180D01*
X207773000Y-94899180D02*
X206853820Y-93980000D01*
X211194000Y-96134300D02*
X211194000Y-94812230D01*
X211194000Y-94812230D02*
X210357720Y-93975950D01*
X210357720Y-93975950D02*
X210357720Y-93321900D01*
D38*
X210628000Y-96700000D02*
X211194000Y-96134300D01*
X208573000Y-96700000D02*
X210628000Y-96700000D01*
X207773000Y-95900000D02*
X208573000Y-96700000D01*
X207773000Y-95399600D02*
X207773000Y-95900000D01*
D36*
X209993000Y-93321900D02*
X209992900Y-93321900D01*
X204913000Y-92786900D02*
X204913000Y-93236900D01*
X204813000Y-92686900D02*
X204913000Y-92786900D01*
D38*
X204913000Y-93949200D02*
X204913000Y-93236900D01*
X203963000Y-94899200D02*
X204913000Y-93949200D01*
X203963000Y-95399600D02*
X203963000Y-94899200D01*
X207773000Y-94899200D02*
X207773000Y-95399600D01*
X204913000Y-93236900D02*
X205260000Y-93236900D01*
D37*
X208723000Y-98401840D02*
X204913000Y-98401840D01*
X212533000Y-98425000D02*
X208746160Y-98425000D01*
X208746160Y-98425000D02*
X208723000Y-98401840D01*
D39*
X212533000Y-98425000D02*
X204936160Y-98425000D01*
X204936160Y-98425000D02*
X204913000Y-98401840D01*
D36*
X212533000Y-98425000D02*
X212533000Y-98401900D01*
D38*
X204913100Y-98401900D02*
X204913000Y-98401900D01*
D36*
X204913100Y-98401900D02*
X204913000Y-98401800D01*
D38*
X208723100Y-98401900D02*
X204913100Y-98401900D01*
X212533000Y-98401900D02*
X208723100Y-98401900D01*
D36*
X208723100Y-98401900D02*
X208723000Y-98401800D01*
X213360000Y-92371900D02*
X215443100Y-92371900D01*
X215443100Y-92371900D02*
X215820000Y-91995000D01*
X188730000Y-93551900D02*
X189231000Y-93551900D01*
X182700000Y-93806900D02*
X183590000Y-92916900D01*
X182700000Y-95629600D02*
X182700000Y-93806900D01*
D38*
X183690000Y-92916900D02*
X183815000Y-92916900D01*
X189231000Y-93551900D02*
X189365000Y-93686500D01*
D36*
X183590000Y-92916900D02*
X183690000Y-92916900D01*
X185848000Y-94395300D02*
X186502000Y-95049300D01*
X185348000Y-94395300D02*
X185848000Y-94395300D01*
X184773000Y-93820900D02*
X185348000Y-94395300D01*
X184594000Y-93820900D02*
X184773000Y-93820900D01*
X183690000Y-92916900D02*
X184594000Y-93820900D01*
X189231000Y-93551900D02*
X188730000Y-93551900D01*
X188730000Y-93551900D02*
X188729900Y-93551900D01*
X187999000Y-93551900D02*
X186502000Y-95049300D01*
X188729900Y-93551900D02*
X187999000Y-93551900D01*
X186502000Y-95049300D02*
X186502000Y-95549700D01*
X186502000Y-95549700D02*
X186502000Y-95549800D01*
X182700000Y-95629700D02*
X182700000Y-95629600D01*
D38*
X186510000Y-96130000D02*
X186510000Y-95629600D01*
X186510000Y-95629600D02*
X186510000Y-95129200D01*
D36*
X186502000Y-95621600D02*
X186502000Y-95549800D01*
X186510000Y-95629600D02*
X186502000Y-95621600D01*
X194917000Y-92601900D02*
X194945000Y-92630000D01*
X191733000Y-92601900D02*
X194917000Y-92601900D01*
X191733000Y-92601900D02*
X191732100Y-92601900D01*
D37*
X187452000Y-98552040D02*
X191769960Y-98552040D01*
X191769960Y-98552040D02*
X191770000Y-98552000D01*
X183650000Y-98631940D02*
X187372100Y-98631940D01*
X187372100Y-98631940D02*
X187452000Y-98552040D01*
D36*
X183730000Y-98552000D02*
X183650000Y-98631900D01*
X187452000Y-98552000D02*
X183730000Y-98552000D01*
X183857000Y-98425000D02*
X183650000Y-98631900D01*
X187587000Y-98552000D02*
X187460000Y-98425000D01*
X191770000Y-98552000D02*
X187587000Y-98552000D01*
X187587000Y-98552000D02*
X187452000Y-98552000D01*
D38*
X184600000Y-104675000D02*
X184600000Y-104094100D01*
X188410000Y-104174000D02*
X188410000Y-103392000D01*
X188730000Y-104494000D02*
X188410000Y-104174000D01*
D36*
X184600000Y-104094000D02*
X184600000Y-103674000D01*
X183946000Y-104094000D02*
X184600000Y-104094000D01*
X183550000Y-104490000D02*
X183946000Y-104094000D01*
X183550000Y-106887000D02*
X183550000Y-104490000D01*
D38*
X184600000Y-103674000D02*
X184600000Y-104094100D01*
D36*
X188402000Y-104094000D02*
X188566000Y-104258500D01*
X188402000Y-103594000D02*
X188402000Y-104094000D01*
X187575000Y-102767000D02*
X188402000Y-103594000D01*
X185427000Y-102767000D02*
X187575000Y-102767000D01*
X184600000Y-103594000D02*
X185427000Y-102767000D01*
X184600000Y-103674000D02*
X184600000Y-103594000D01*
X188730000Y-104423000D02*
X188730000Y-104494000D01*
X188566000Y-104258500D02*
X188730000Y-104423000D01*
X188402000Y-104094500D02*
X188402000Y-104094100D01*
X188566000Y-104258500D02*
X188402000Y-104094500D01*
X188730000Y-106483000D02*
X188730000Y-105488500D01*
X188730000Y-105488500D02*
X188730000Y-104494000D01*
X188729900Y-105488600D02*
X188729900Y-106483000D01*
X188730000Y-105488500D02*
X188729900Y-105488600D01*
D37*
X187452000Y-101091860D02*
X191769860Y-101091860D01*
X191769860Y-101091860D02*
X191770000Y-101092000D01*
X183650000Y-101091860D02*
X187452000Y-101091860D01*
D36*
X187451900Y-101092000D02*
X191770000Y-101092000D01*
X187451900Y-101092000D02*
X187452000Y-101091900D01*
X183650000Y-101092000D02*
X183650100Y-101092000D01*
X183650100Y-101092000D02*
X187451900Y-101092000D01*
X183650100Y-101092000D02*
X183650000Y-101091900D01*
X193445800Y-105965000D02*
X193013800Y-105533000D01*
X194945000Y-105965000D02*
X193445800Y-105965000D01*
X191732100Y-105533000D02*
X193013800Y-105533000D01*
X227965000Y-93980000D02*
X225385000Y-93980000D01*
X219710000Y-93980000D02*
X222885000Y-93980000D01*
X241341600Y-110805700D02*
X241341600Y-111587100D01*
X240841200Y-110305300D02*
X241341600Y-110805700D01*
X235981700Y-110305300D02*
X240841200Y-110305300D01*
X227330000Y-118957000D02*
X235981700Y-110305300D01*
X227330000Y-121920000D02*
X227330000Y-118957000D01*
X242123000Y-111587100D02*
X241341600Y-111587100D01*
X224630000Y-125763000D02*
X220903800Y-129489200D01*
X224630000Y-121920000D02*
X224630000Y-125763000D01*
X241300000Y-107176200D02*
X241173000Y-107303200D01*
X241300000Y-104267000D02*
X241300000Y-107176200D01*
X241173000Y-108584900D02*
X241173000Y-107303200D01*
X180975000Y-146050000D02*
X179730100Y-146050000D01*
X179730100Y-146565800D02*
X179730100Y-146050000D01*
X179000900Y-147295000D02*
X179730100Y-146565800D01*
X175310500Y-147295000D02*
X179000900Y-147295000D01*
X174622000Y-146606500D02*
X175310500Y-147295000D01*
X174622000Y-142299900D02*
X174622000Y-146606500D01*
X186051800Y-130870100D02*
X174622000Y-142299900D01*
X186051800Y-122201400D02*
X186051800Y-130870100D01*
X192150700Y-116102500D02*
X186051800Y-122201400D01*
X197250000Y-116102500D02*
X192150700Y-116102500D01*
X198083400Y-130065700D02*
X198083400Y-130065600D01*
X195188200Y-130065700D02*
X198083400Y-130065700D01*
X182264400Y-142989500D02*
X195188200Y-130065700D01*
X182264400Y-144021300D02*
X182264400Y-142989500D01*
X183048200Y-144805100D02*
X182264400Y-144021300D01*
X183515000Y-144805100D02*
X183048200Y-144805100D01*
X183515000Y-146050000D02*
X183515000Y-144805100D01*
X193623900Y-129046200D02*
X198735000Y-129046200D01*
X179705000Y-142965100D02*
X193623900Y-129046200D01*
X179705000Y-144061400D02*
X179705000Y-142965100D01*
X178961300Y-144805100D02*
X179705000Y-144061400D01*
X177917900Y-144805100D02*
X178961300Y-144805100D01*
X177139900Y-145583100D02*
X177917900Y-144805100D01*
X177139900Y-146050000D02*
X177139900Y-145583100D01*
X175895000Y-146050000D02*
X177139900Y-146050000D01*
X191850000Y-146050000D02*
X194310000Y-146050000D01*
X235204000Y-146304000D02*
X234188000Y-147320000D01*
X235204000Y-144892000D02*
X235204000Y-146304000D01*
X235712000Y-134874000D02*
X235712000Y-144384000D01*
X235712000Y-144384000D02*
X235204000Y-144892000D01*
X238760000Y-130556000D02*
X238760000Y-131826000D01*
X238760000Y-131826000D02*
X235712000Y-134874000D01*
X231140000Y-147554000D02*
X233446000Y-147554000D01*
X233446000Y-147554000D02*
X233640000Y-147360000D01*
X224790000Y-146685000D02*
X224790000Y-147802600D01*
X224790000Y-147802600D02*
X225545400Y-148558000D01*
X225545400Y-148558000D02*
X229257000Y-148558000D01*
X229257000Y-148558000D02*
X230261000Y-147554000D01*
X230261000Y-147554000D02*
X231140000Y-147554000D01*
X224307400Y-142900100D02*
X222377300Y-140970000D01*
X225307100Y-142900100D02*
X224307400Y-142900100D01*
X226085100Y-143678100D02*
X225307100Y-142900100D01*
X226085100Y-144145000D02*
X226085100Y-143678100D01*
X227330000Y-144145000D02*
X226085100Y-144145000D01*
X220980000Y-140970000D02*
X222377300Y-140970000D01*
X223012300Y-144145000D02*
X222377300Y-143510000D01*
X224790000Y-144145000D02*
X223012300Y-144145000D01*
X220980000Y-143510000D02*
X222377300Y-143510000D01*
D37*
X166370000Y-95290000D02*
X166370000Y-91440000D01*
X165568000Y-94488000D02*
X166370000Y-95290000D01*
X159980000Y-94488000D02*
X165568000Y-94488000D01*
X159980000Y-101560000D02*
X161290000Y-102870000D01*
X159980000Y-94488000D02*
X159980000Y-101560000D01*
X171370000Y-95170000D02*
X171450000Y-95250000D01*
X171370000Y-91440000D02*
X171370000Y-95170000D01*
D36*
G36*
X165643057Y-90349995D02*
X165281265Y-90711155D01*
X165085223Y-91183276D01*
X165084777Y-91694481D01*
X165279995Y-92166943D01*
X165435000Y-92322219D01*
X165435000Y-93553000D01*
X161633239Y-93553000D01*
X161578957Y-93421628D01*
X161049161Y-92890907D01*
X160356595Y-92603328D01*
X159606695Y-92602674D01*
X158913628Y-92889043D01*
X158382907Y-93418839D01*
X158095328Y-94111405D01*
X158094674Y-94861305D01*
X158381043Y-95554372D01*
X158910839Y-96085093D01*
X159045000Y-96140802D01*
X159045000Y-101560000D01*
X159048933Y-101579772D01*
X158937299Y-101412701D01*
X158727255Y-101272353D01*
X158479490Y-101223070D01*
X156480510Y-101223070D01*
X156232745Y-101272353D01*
X156022701Y-101412701D01*
X155882353Y-101622745D01*
X155833070Y-101870510D01*
X155833070Y-103869490D01*
X155882353Y-104117255D01*
X156022701Y-104327299D01*
X156232745Y-104467647D01*
X156480510Y-104516930D01*
X158479490Y-104516930D01*
X158727255Y-104467647D01*
X158937299Y-104327299D01*
X159077647Y-104117255D01*
X159126930Y-103869490D01*
X159126930Y-101933908D01*
X159318855Y-102221145D01*
X159655781Y-102558071D01*
X159655226Y-103193694D01*
X159903538Y-103794655D01*
X160362927Y-104254846D01*
X160963453Y-104504206D01*
X161613694Y-104504774D01*
X162214655Y-104256462D01*
X162674846Y-103797073D01*
X162924206Y-103196547D01*
X162924774Y-102546306D01*
X162676462Y-101945345D01*
X162217073Y-101485154D01*
X161616547Y-101235794D01*
X160977526Y-101235236D01*
X160915000Y-101172710D01*
X160915000Y-100784078D01*
X165072378Y-100784078D01*
X165101917Y-101294428D01*
X165240389Y-101628729D01*
X165470984Y-101684410D01*
X166190395Y-100965000D01*
X165470984Y-100245590D01*
X165240389Y-100301271D01*
X165072378Y-100784078D01*
X160915000Y-100784078D01*
X160915000Y-100065984D01*
X165650590Y-100065984D01*
X166370000Y-100785395D01*
X167089410Y-100065984D01*
X167033729Y-99835389D01*
X166550922Y-99667378D01*
X166040572Y-99696917D01*
X165706271Y-99835389D01*
X165650590Y-100065984D01*
X160915000Y-100065984D01*
X160915000Y-98689016D01*
X165650590Y-98689016D01*
X165706271Y-98919611D01*
X166189078Y-99087622D01*
X166699428Y-99058083D01*
X167033729Y-98919611D01*
X167089410Y-98689016D01*
X166370000Y-97969605D01*
X165650590Y-98689016D01*
X160915000Y-98689016D01*
X160915000Y-97609078D01*
X165072378Y-97609078D01*
X165101917Y-98119428D01*
X165240389Y-98453729D01*
X165470984Y-98509410D01*
X166190395Y-97790000D01*
X166549605Y-97790000D01*
X167269016Y-98509410D01*
X167499611Y-98453729D01*
X167667622Y-97970922D01*
X167638083Y-97460572D01*
X167499611Y-97126271D01*
X167269016Y-97070590D01*
X166549605Y-97790000D01*
X166190395Y-97790000D01*
X165470984Y-97070590D01*
X165240389Y-97126271D01*
X165072378Y-97609078D01*
X160915000Y-97609078D01*
X160915000Y-96141239D01*
X161046372Y-96086957D01*
X161577093Y-95557161D01*
X161632802Y-95423000D01*
X165072560Y-95423000D01*
X165072560Y-95940000D01*
X165121843Y-96187765D01*
X165262191Y-96397809D01*
X165472235Y-96538157D01*
X165720000Y-96587440D01*
X165882385Y-96587440D01*
X165706271Y-96660389D01*
X165650590Y-96890984D01*
X166370000Y-97610395D01*
X167089410Y-96890984D01*
X167033729Y-96660389D01*
X166824098Y-96587440D01*
X167020000Y-96587440D01*
X167267765Y-96538157D01*
X167477809Y-96397809D01*
X167618157Y-96187765D01*
X167667440Y-95940000D01*
X167667440Y-94640000D01*
X167618157Y-94392235D01*
X167477809Y-94182191D01*
X167305000Y-94066723D01*
X167305000Y-92322311D01*
X167458735Y-92168845D01*
X167654777Y-91696724D01*
X167655223Y-91185519D01*
X167460005Y-90713057D01*
X167098845Y-90351265D01*
X166842931Y-90245000D01*
X170392681Y-90245000D01*
X170262191Y-90332191D01*
X170121843Y-90542235D01*
X170072560Y-90790000D01*
X170072560Y-92090000D01*
X170121843Y-92337765D01*
X170262191Y-92547809D01*
X170435000Y-92663277D01*
X170435000Y-93953726D01*
X170065154Y-94322927D01*
X169815794Y-94923453D01*
X169815226Y-95573694D01*
X170063538Y-96174655D01*
X170522927Y-96634846D01*
X171123453Y-96884206D01*
X171773694Y-96884774D01*
X172374655Y-96636462D01*
X172834846Y-96177073D01*
X173084206Y-95576547D01*
X173084774Y-94926306D01*
X172836462Y-94325345D01*
X172377073Y-93865154D01*
X172305000Y-93835227D01*
X172305000Y-92663277D01*
X172477809Y-92547809D01*
X172618157Y-92337765D01*
X172667440Y-92090000D01*
X172667440Y-90790000D01*
X172618157Y-90542235D01*
X172477809Y-90332191D01*
X172347319Y-90245000D01*
X206828903Y-90245000D01*
X206629211Y-90327511D01*
X206325278Y-90630914D01*
X206160587Y-91027532D01*
X206160213Y-91456984D01*
X206246784Y-91666502D01*
X206164843Y-91789135D01*
X206163000Y-91798400D01*
X206161157Y-91789135D01*
X206020809Y-91579091D01*
X205810765Y-91438743D01*
X205563000Y-91389460D01*
X204063000Y-91389460D01*
X203815235Y-91438743D01*
X203605191Y-91579091D01*
X203464843Y-91789135D01*
X203415560Y-92036900D01*
X203415560Y-93336900D01*
X203464843Y-93584665D01*
X203605191Y-93794709D01*
X203690468Y-93851690D01*
X203562950Y-93851690D01*
X203315185Y-93900973D01*
X203105141Y-94041321D01*
X202964793Y-94251365D01*
X202915510Y-94499130D01*
X202915510Y-96299990D01*
X202964793Y-96547755D01*
X203040704Y-96661364D01*
X202758060Y-96944008D01*
X202558765Y-96810843D01*
X202311000Y-96761560D01*
X200279000Y-96761560D01*
X200031235Y-96810843D01*
X199821191Y-96951191D01*
X199680843Y-97161235D01*
X199631560Y-97409000D01*
X199631560Y-99441000D01*
X199680843Y-99688765D01*
X199821191Y-99898809D01*
X199963872Y-99994146D01*
X199737330Y-100333190D01*
X199611655Y-100965000D01*
X199737330Y-101596810D01*
X200095222Y-102132433D01*
X200630845Y-102490325D01*
X201262655Y-102616000D01*
X201327345Y-102616000D01*
X201959155Y-102490325D01*
X202128000Y-102377506D01*
X202128000Y-102544000D01*
X202199173Y-102901809D01*
X202401855Y-103205145D01*
X202915510Y-103718800D01*
X202915510Y-104169720D01*
X202575660Y-104509570D01*
X201895430Y-104509570D01*
X201537621Y-104580743D01*
X201234285Y-104783425D01*
X197388950Y-108628760D01*
X197334389Y-108496711D01*
X197030986Y-108192778D01*
X196634368Y-108028087D01*
X196367954Y-108027855D01*
X196267905Y-107961004D01*
X196242440Y-107955939D01*
X196242440Y-107915000D01*
X196193157Y-107667235D01*
X196052809Y-107457191D01*
X195842765Y-107316843D01*
X195833500Y-107315000D01*
X195842765Y-107313157D01*
X196052809Y-107172809D01*
X196193157Y-106962765D01*
X196242440Y-106715000D01*
X196242440Y-105215000D01*
X196193157Y-104967235D01*
X196052809Y-104757191D01*
X195842765Y-104616843D01*
X195595000Y-104567560D01*
X194295000Y-104567560D01*
X194047235Y-104616843D01*
X193837191Y-104757191D01*
X193696843Y-104967235D01*
X193668443Y-105110013D01*
X193552615Y-104994185D01*
X193524510Y-104975406D01*
X193305405Y-104829004D01*
X193175987Y-104803261D01*
X193090379Y-104675141D01*
X192880335Y-104534793D01*
X192632570Y-104485510D01*
X191843370Y-104485510D01*
X193982187Y-102346692D01*
X193982190Y-102346690D01*
X194174033Y-102059575D01*
X194180513Y-102027000D01*
X194241401Y-101720900D01*
X194241400Y-101720895D01*
X194241400Y-98945998D01*
X194319569Y-99062985D01*
X194406185Y-99192615D01*
X199012701Y-103799131D01*
X199012513Y-104014784D01*
X199176511Y-104411689D01*
X199479914Y-104715622D01*
X199876532Y-104880313D01*
X200305984Y-104880687D01*
X200702889Y-104716689D01*
X201006822Y-104413286D01*
X201171513Y-104016668D01*
X201171887Y-103587216D01*
X201007889Y-103190311D01*
X200704486Y-102886378D01*
X200307868Y-102721687D01*
X200090328Y-102721498D01*
X195707000Y-98338170D01*
X195707000Y-96705162D01*
X195842765Y-96678157D01*
X196052809Y-96537809D01*
X196193157Y-96327765D01*
X196242440Y-96080000D01*
X196242440Y-94580000D01*
X196193157Y-94332235D01*
X196052809Y-94122191D01*
X195842765Y-93981843D01*
X195833500Y-93980000D01*
X195842765Y-93978157D01*
X196052809Y-93837809D01*
X196193157Y-93627765D01*
X196242440Y-93380000D01*
X196242440Y-91880000D01*
X196193157Y-91632235D01*
X196052809Y-91422191D01*
X195842765Y-91281843D01*
X195595000Y-91232560D01*
X194295000Y-91232560D01*
X194047235Y-91281843D01*
X193837191Y-91422191D01*
X193696843Y-91632235D01*
X193655536Y-91839900D01*
X193154430Y-91839900D01*
X193090379Y-91744041D01*
X192880335Y-91603693D01*
X192632570Y-91554410D01*
X190831710Y-91554410D01*
X190583945Y-91603693D01*
X190428213Y-91707751D01*
X189861909Y-91141230D01*
X189861839Y-91141183D01*
X189861790Y-91141110D01*
X189716116Y-91043774D01*
X189574831Y-90949332D01*
X189574747Y-90949315D01*
X189574675Y-90949267D01*
X189407097Y-90915933D01*
X189236169Y-90881899D01*
X189236082Y-90881916D01*
X189236000Y-90881900D01*
X187540005Y-90881900D01*
X187540000Y-90881899D01*
X187201326Y-90949266D01*
X187129535Y-90997235D01*
X186914210Y-91141110D01*
X186914208Y-91141113D01*
X186435861Y-91619460D01*
X186144140Y-91619460D01*
X185615390Y-91090710D01*
X185602640Y-91082191D01*
X185328275Y-90898867D01*
X185242972Y-90881899D01*
X184989600Y-90831499D01*
X184989595Y-90831500D01*
X180343300Y-90831500D01*
X180004625Y-90898867D01*
X179717510Y-91090710D01*
X179717508Y-91090713D01*
X173026750Y-97781470D01*
X172907299Y-97602701D01*
X172697255Y-97462353D01*
X172449490Y-97413070D01*
X170450510Y-97413070D01*
X170202745Y-97462353D01*
X169992701Y-97602701D01*
X169852353Y-97812745D01*
X169803070Y-98060510D01*
X169803070Y-99658719D01*
X169661310Y-99600000D01*
X169195750Y-99600000D01*
X169037000Y-99758750D01*
X169037000Y-100858000D01*
X170011250Y-100858000D01*
X170170000Y-100699250D01*
X170170000Y-100635767D01*
X170202745Y-100657647D01*
X170450510Y-100706930D01*
X172449490Y-100706930D01*
X172697255Y-100657647D01*
X172907299Y-100517299D01*
X173047647Y-100307255D01*
X173096930Y-100059490D01*
X173096930Y-99925680D01*
X173282284Y-99888810D01*
X173338475Y-99877633D01*
X173625590Y-99685790D01*
X180709879Y-92601500D01*
X182192560Y-92601500D01*
X182192560Y-93236710D01*
X182161185Y-93268085D01*
X181996004Y-93515295D01*
X181938000Y-93806900D01*
X181938000Y-94207370D01*
X181842141Y-94271421D01*
X181701793Y-94481465D01*
X181652510Y-94729230D01*
X181652510Y-96530090D01*
X181701793Y-96777855D01*
X181777704Y-96891464D01*
X181390023Y-97279145D01*
X181387157Y-97264735D01*
X181246809Y-97054691D01*
X181036765Y-96914343D01*
X180789000Y-96865060D01*
X178757000Y-96865060D01*
X178509235Y-96914343D01*
X178299191Y-97054691D01*
X178158843Y-97264735D01*
X178109560Y-97512500D01*
X178109560Y-99544500D01*
X178158843Y-99792265D01*
X178299191Y-100002309D01*
X178441872Y-100097646D01*
X178215330Y-100436690D01*
X178089655Y-101068500D01*
X178215330Y-101700310D01*
X178573222Y-102235933D01*
X179108845Y-102593825D01*
X179740655Y-102719500D01*
X179805345Y-102719500D01*
X180437155Y-102593825D01*
X180764950Y-102374799D01*
X180764950Y-102593710D01*
X180836123Y-102951519D01*
X181038805Y-103254855D01*
X181652510Y-103868560D01*
X181652510Y-104319720D01*
X181038805Y-104933425D01*
X180836123Y-105236761D01*
X180764950Y-105594570D01*
X180764950Y-107426952D01*
X180836123Y-107784761D01*
X181038805Y-108088097D01*
X185371853Y-112421145D01*
X185675189Y-112623827D01*
X186032998Y-112695000D01*
X189123865Y-112695000D01*
X189572927Y-113144846D01*
X190173453Y-113394206D01*
X190524857Y-113394513D01*
X190392170Y-113527200D01*
X185281000Y-113527200D01*
X184989395Y-113585204D01*
X184742184Y-113750385D01*
X175789785Y-122702785D01*
X175632543Y-122938113D01*
X173185953Y-120491523D01*
X174513503Y-120491523D01*
X174612102Y-120758325D01*
X175221642Y-120984761D01*
X175871437Y-120960701D01*
X176360018Y-120758325D01*
X176458617Y-120491523D01*
X175486060Y-119518965D01*
X174513503Y-120491523D01*
X173185953Y-120491523D01*
X171769372Y-119074942D01*
X173840659Y-119074942D01*
X173864719Y-119724737D01*
X174067095Y-120213318D01*
X174333897Y-120311917D01*
X175306455Y-119339360D01*
X175665665Y-119339360D01*
X176638223Y-120311917D01*
X176905025Y-120213318D01*
X177131461Y-119603778D01*
X177107401Y-118953983D01*
X176905025Y-118465402D01*
X176638223Y-118366803D01*
X175665665Y-119339360D01*
X175306455Y-119339360D01*
X174333897Y-118366803D01*
X174067095Y-118465402D01*
X173840659Y-119074942D01*
X171769372Y-119074942D01*
X167358764Y-114664334D01*
X173851286Y-114664334D01*
X174099598Y-115265295D01*
X174424220Y-115590484D01*
X174101214Y-115912927D01*
X173851854Y-116513453D01*
X173851286Y-117163694D01*
X174099598Y-117764655D01*
X174515638Y-118181421D01*
X174513503Y-118187197D01*
X175486060Y-119159755D01*
X176458617Y-118187197D01*
X176456308Y-118180949D01*
X176870906Y-117767073D01*
X177120266Y-117166547D01*
X177120834Y-116516306D01*
X176872522Y-115915345D01*
X176547900Y-115590156D01*
X176870906Y-115267713D01*
X177120266Y-114667187D01*
X177120834Y-114016946D01*
X176872522Y-113415985D01*
X176413133Y-112955794D01*
X176308058Y-112912163D01*
X179367443Y-112912163D01*
X179466042Y-113178965D01*
X180075582Y-113405401D01*
X180725377Y-113381341D01*
X181213958Y-113178965D01*
X181312557Y-112912163D01*
X180340000Y-111939605D01*
X179367443Y-112912163D01*
X176308058Y-112912163D01*
X175812607Y-112706434D01*
X175162366Y-112705866D01*
X174561405Y-112954178D01*
X174101214Y-113413567D01*
X173851854Y-114014093D01*
X173851286Y-114664334D01*
X167358764Y-114664334D01*
X166497000Y-113802570D01*
X166497000Y-110464678D01*
X172098730Y-110464678D01*
X172309226Y-110974117D01*
X172698653Y-111364224D01*
X173207724Y-111575609D01*
X173758938Y-111576090D01*
X173953782Y-111495582D01*
X178694599Y-111495582D01*
X178718659Y-112145377D01*
X178921035Y-112633958D01*
X179187837Y-112732557D01*
X180160395Y-111760000D01*
X180519605Y-111760000D01*
X181492163Y-112732557D01*
X181758965Y-112633958D01*
X181985401Y-112024418D01*
X181961341Y-111374623D01*
X181758965Y-110886042D01*
X181492163Y-110787443D01*
X180519605Y-111760000D01*
X180160395Y-111760000D01*
X179187837Y-110787443D01*
X178921035Y-110886042D01*
X178694599Y-111495582D01*
X173953782Y-111495582D01*
X174268377Y-111365594D01*
X174658484Y-110976167D01*
X174811428Y-110607837D01*
X179367443Y-110607837D01*
X180340000Y-111580395D01*
X181312557Y-110607837D01*
X181213958Y-110341035D01*
X180604418Y-110114599D01*
X179954623Y-110138659D01*
X179466042Y-110341035D01*
X179367443Y-110607837D01*
X174811428Y-110607837D01*
X174869869Y-110467096D01*
X174870350Y-109915882D01*
X174659854Y-109406443D01*
X174270427Y-109016336D01*
X173761356Y-108804951D01*
X173210142Y-108804470D01*
X172700703Y-109014966D01*
X172310596Y-109404393D01*
X172099211Y-109913464D01*
X172098730Y-110464678D01*
X166497000Y-110464678D01*
X166497000Y-108542610D01*
X166659655Y-108475402D01*
X166894362Y-108241103D01*
X167261803Y-108241103D01*
X167360402Y-108507905D01*
X167969942Y-108734341D01*
X168619737Y-108710281D01*
X169108318Y-108507905D01*
X169206917Y-108241103D01*
X168234360Y-107268545D01*
X167261803Y-108241103D01*
X166894362Y-108241103D01*
X167076421Y-108059362D01*
X167082197Y-108061497D01*
X168054755Y-107088940D01*
X168413965Y-107088940D01*
X169386523Y-108061497D01*
X169653325Y-107962898D01*
X169879761Y-107353358D01*
X169855701Y-106703563D01*
X169653325Y-106214982D01*
X169386523Y-106116383D01*
X168413965Y-107088940D01*
X168054755Y-107088940D01*
X167082197Y-106116383D01*
X167075949Y-106118692D01*
X166894351Y-105936777D01*
X167261803Y-105936777D01*
X168234360Y-106909335D01*
X169206917Y-105936777D01*
X169108318Y-105669975D01*
X168498778Y-105443539D01*
X167848983Y-105467599D01*
X167360402Y-105669975D01*
X167261803Y-105936777D01*
X166894351Y-105936777D01*
X166662073Y-105704094D01*
X166061547Y-105454734D01*
X165411306Y-105454166D01*
X164810345Y-105702478D01*
X164485156Y-106027100D01*
X164162713Y-105704094D01*
X163805721Y-105555858D01*
X165011579Y-104350000D01*
X165119304Y-104350000D01*
X165121843Y-104362765D01*
X165262191Y-104572809D01*
X165472235Y-104713157D01*
X165720000Y-104762440D01*
X167020000Y-104762440D01*
X167267765Y-104713157D01*
X167477809Y-104572809D01*
X167618157Y-104362765D01*
X167620696Y-104350000D01*
X167634150Y-104350000D01*
X167661518Y-104355444D01*
X167686843Y-104482765D01*
X167827191Y-104692809D01*
X168037235Y-104833157D01*
X168285000Y-104882440D01*
X169535000Y-104882440D01*
X169782765Y-104833157D01*
X169992809Y-104692809D01*
X170133157Y-104482765D01*
X170182440Y-104235000D01*
X170182440Y-102735000D01*
X170133157Y-102487235D01*
X169992809Y-102277191D01*
X169931680Y-102236346D01*
X170073327Y-102094698D01*
X170170000Y-101861309D01*
X170170000Y-101270750D01*
X170011250Y-101112000D01*
X169037000Y-101112000D01*
X169037000Y-101132000D01*
X168783000Y-101132000D01*
X168783000Y-101112000D01*
X168763000Y-101112000D01*
X168763000Y-100858000D01*
X168783000Y-100858000D01*
X168783000Y-99758750D01*
X168624250Y-99600000D01*
X168158690Y-99600000D01*
X167925301Y-99696673D01*
X167746673Y-99875302D01*
X167650000Y-100108691D01*
X167650000Y-100699250D01*
X167808748Y-100857998D01*
X167650957Y-100857998D01*
X167638083Y-100635572D01*
X167499611Y-100301271D01*
X167269016Y-100245590D01*
X166549605Y-100965000D01*
X167269016Y-101684410D01*
X167499611Y-101628729D01*
X167667622Y-101145922D01*
X167665659Y-101112002D01*
X167808748Y-101112002D01*
X167650000Y-101270750D01*
X167650000Y-101861309D01*
X167746673Y-102094698D01*
X167888320Y-102236346D01*
X167827191Y-102277191D01*
X167686843Y-102487235D01*
X167668391Y-102580000D01*
X167620696Y-102580000D01*
X167618157Y-102567235D01*
X167477809Y-102357191D01*
X167267765Y-102216843D01*
X167020000Y-102167560D01*
X166857615Y-102167560D01*
X167033729Y-102094611D01*
X167089410Y-101864016D01*
X166370000Y-101144605D01*
X165650590Y-101864016D01*
X165706271Y-102094611D01*
X165915902Y-102167560D01*
X165720000Y-102167560D01*
X165472235Y-102216843D01*
X165262191Y-102357191D01*
X165121843Y-102567235D01*
X165119304Y-102580000D01*
X164645005Y-102580000D01*
X164645000Y-102579999D01*
X164362516Y-102636190D01*
X164306325Y-102647367D01*
X164019210Y-102839210D01*
X164019208Y-102839213D01*
X158741010Y-108117410D01*
X158549167Y-108404525D01*
X158549167Y-108404526D01*
X158481799Y-108743200D01*
X158481800Y-108743205D01*
X158481800Y-108896105D01*
X158262276Y-108804951D01*
X157711062Y-108804470D01*
X157201623Y-109014966D01*
X156811516Y-109404393D01*
X156600131Y-109913464D01*
X156599650Y-110464678D01*
X156810146Y-110974117D01*
X157199573Y-111364224D01*
X157373624Y-111436497D01*
X150358094Y-118452026D01*
X150186547Y-118380794D01*
X149536306Y-118380226D01*
X148935345Y-118628538D01*
X148475154Y-119087927D01*
X148225794Y-119688453D01*
X148225226Y-120338694D01*
X148473538Y-120939655D01*
X148932927Y-121399846D01*
X149533453Y-121649206D01*
X150183694Y-121649774D01*
X150784655Y-121401462D01*
X151019363Y-121167163D01*
X152062443Y-121167163D01*
X152161042Y-121433965D01*
X152770582Y-121660401D01*
X153420377Y-121636341D01*
X153908958Y-121433965D01*
X154007557Y-121167163D01*
X153035000Y-120194605D01*
X152062443Y-121167163D01*
X151019363Y-121167163D01*
X151244846Y-120942073D01*
X151441684Y-120468035D01*
X151616035Y-120888958D01*
X151882837Y-120987557D01*
X152855395Y-120015000D01*
X153214605Y-120015000D01*
X154187163Y-120987557D01*
X154453965Y-120888958D01*
X154680401Y-120279418D01*
X154656341Y-119629623D01*
X154453965Y-119141042D01*
X154187163Y-119042443D01*
X153214605Y-120015000D01*
X152855395Y-120015000D01*
X152841252Y-120000858D01*
X153020858Y-119821252D01*
X153035000Y-119835395D01*
X154007557Y-118862837D01*
X153908958Y-118596035D01*
X153299418Y-118369599D01*
X152930002Y-118383277D01*
X159992587Y-111320692D01*
X159992590Y-111320690D01*
X160184433Y-111033575D01*
X160211764Y-110896173D01*
X160251801Y-110694900D01*
X160251800Y-110694895D01*
X160251800Y-109109780D01*
X161702638Y-107658942D01*
X161849178Y-108013595D01*
X162308567Y-108473786D01*
X162909093Y-108723146D01*
X163559334Y-108723714D01*
X164160295Y-108475402D01*
X164485484Y-108150780D01*
X164807927Y-108473786D01*
X164973000Y-108542330D01*
X164973000Y-114118200D01*
X165031004Y-114409805D01*
X165168178Y-114615100D01*
X165196185Y-114657015D01*
X172808879Y-122269709D01*
X172700703Y-122314406D01*
X172310596Y-122703833D01*
X172099211Y-123212904D01*
X172098730Y-123764118D01*
X172309226Y-124273557D01*
X172698653Y-124663664D01*
X173207724Y-124875049D01*
X173758938Y-124875530D01*
X174268377Y-124665034D01*
X174658484Y-124275607D01*
X174704341Y-124165171D01*
X174710600Y-124171430D01*
X174710600Y-126700400D01*
X174768604Y-126992005D01*
X174783969Y-127015000D01*
X174933785Y-127239215D01*
X176605884Y-128911315D01*
X176787123Y-129032415D01*
X176853095Y-129076496D01*
X177144700Y-129134500D01*
X179214200Y-129134500D01*
X179505805Y-129076496D01*
X179753015Y-128911315D01*
X180703136Y-127961195D01*
X180818222Y-128133433D01*
X181353845Y-128491325D01*
X181985655Y-128617000D01*
X182050345Y-128617000D01*
X182682155Y-128491325D01*
X183217778Y-128133433D01*
X183575670Y-127597810D01*
X183701345Y-126966000D01*
X183575670Y-126334190D01*
X183349128Y-125995146D01*
X183491809Y-125899809D01*
X183632157Y-125689765D01*
X183681440Y-125442000D01*
X183681440Y-123410000D01*
X183632157Y-123162235D01*
X183491809Y-122952191D01*
X183281765Y-122811843D01*
X183034000Y-122762560D01*
X181864370Y-122762560D01*
X188525431Y-116101500D01*
X190376400Y-116101500D01*
X190668005Y-116043496D01*
X190915215Y-115878315D01*
X193933312Y-112860218D01*
X193965843Y-113023765D01*
X194106191Y-113233809D01*
X194316235Y-113374157D01*
X194564000Y-113423440D01*
X196596000Y-113423440D01*
X196843765Y-113374157D01*
X197053809Y-113233809D01*
X197149146Y-113091128D01*
X197358000Y-113230680D01*
X197358000Y-115023093D01*
X197036216Y-115022813D01*
X196639311Y-115186811D01*
X196485354Y-115340500D01*
X192150700Y-115340500D01*
X191859095Y-115398504D01*
X191611885Y-115563685D01*
X185512985Y-121662585D01*
X185347804Y-121909795D01*
X185289800Y-122201400D01*
X185289800Y-130554470D01*
X174083185Y-141761085D01*
X173918004Y-142008295D01*
X173860000Y-142299900D01*
X173860000Y-146606500D01*
X173918004Y-146898105D01*
X174045155Y-147088400D01*
X169524812Y-147088400D01*
X169525006Y-146865759D01*
X169238686Y-146172809D01*
X168708979Y-145642178D01*
X168016531Y-145354648D01*
X167266759Y-145353994D01*
X166573809Y-145640314D01*
X166043178Y-146170021D01*
X165755648Y-146862469D01*
X165754994Y-147612241D01*
X166041314Y-148305191D01*
X166571021Y-148835822D01*
X167263469Y-149123352D01*
X168013241Y-149124006D01*
X168706191Y-148837686D01*
X168931870Y-148612400D01*
X183476500Y-148612400D01*
X183768105Y-148554396D01*
X184015315Y-148389215D01*
X185157286Y-147247245D01*
X185481511Y-147463885D01*
X186055000Y-147577959D01*
X186628489Y-147463885D01*
X187114670Y-147139029D01*
X187333184Y-146812000D01*
X187774838Y-146812000D01*
X187801843Y-146947765D01*
X187942191Y-147157809D01*
X188152235Y-147298157D01*
X188400000Y-147347440D01*
X189900000Y-147347440D01*
X190147765Y-147298157D01*
X190357809Y-147157809D01*
X190498157Y-146947765D01*
X190500000Y-146938500D01*
X190501843Y-146947765D01*
X190642191Y-147157809D01*
X190852235Y-147298157D01*
X191100000Y-147347440D01*
X192600000Y-147347440D01*
X192704460Y-147326662D01*
X192836191Y-147523809D01*
X193046235Y-147664157D01*
X193294000Y-147713440D01*
X195326000Y-147713440D01*
X195573765Y-147664157D01*
X195783809Y-147523809D01*
X195924157Y-147313765D01*
X195973440Y-147066000D01*
X195973440Y-145034000D01*
X195924157Y-144786235D01*
X195783809Y-144576191D01*
X195626887Y-144471338D01*
X195716385Y-144374818D01*
X195915975Y-143892944D01*
X195796836Y-143637000D01*
X194437000Y-143637000D01*
X194437000Y-143657000D01*
X194183000Y-143657000D01*
X194183000Y-143637000D01*
X192823164Y-143637000D01*
X192704025Y-143892944D01*
X192903615Y-144374818D01*
X192993113Y-144471338D01*
X192836191Y-144576191D01*
X192704460Y-144773338D01*
X192600000Y-144752560D01*
X191100000Y-144752560D01*
X190852235Y-144801843D01*
X190642191Y-144942191D01*
X190501843Y-145152235D01*
X190500000Y-145161500D01*
X190498157Y-145152235D01*
X190357809Y-144942191D01*
X190147765Y-144801843D01*
X189900000Y-144752560D01*
X188400000Y-144752560D01*
X188152235Y-144801843D01*
X187942191Y-144942191D01*
X187801843Y-145152235D01*
X187774838Y-145288000D01*
X187333184Y-145288000D01*
X187124474Y-144975644D01*
X187278299Y-144911927D01*
X187456927Y-144733298D01*
X187553600Y-144499909D01*
X187553600Y-143795750D01*
X187394850Y-143637000D01*
X186182000Y-143637000D01*
X186182000Y-143657000D01*
X185928000Y-143657000D01*
X185928000Y-143637000D01*
X185908000Y-143637000D01*
X185908000Y-143383000D01*
X185928000Y-143383000D01*
X185928000Y-142170150D01*
X186182000Y-142170150D01*
X186182000Y-143383000D01*
X187394850Y-143383000D01*
X187553600Y-143224250D01*
X187553600Y-143127056D01*
X192704025Y-143127056D01*
X192823164Y-143383000D01*
X194183000Y-143383000D01*
X194183000Y-142022633D01*
X194437000Y-142022633D01*
X194437000Y-143383000D01*
X195796836Y-143383000D01*
X195915975Y-143127056D01*
X195716385Y-142645182D01*
X195278379Y-142172812D01*
X194692946Y-141904017D01*
X194437000Y-142022633D01*
X194183000Y-142022633D01*
X193927054Y-141904017D01*
X193341621Y-142172812D01*
X192903615Y-142645182D01*
X192704025Y-143127056D01*
X187553600Y-143127056D01*
X187553600Y-142520091D01*
X187456927Y-142286702D01*
X187278299Y-142108073D01*
X187044910Y-142011400D01*
X186340750Y-142011400D01*
X186182000Y-142170150D01*
X185928000Y-142170150D01*
X185769250Y-142011400D01*
X185065090Y-142011400D01*
X184831701Y-142108073D01*
X184653073Y-142286702D01*
X184588737Y-142442023D01*
X184574670Y-142420971D01*
X184176565Y-142154965D01*
X195503831Y-130827700D01*
X197318858Y-130827700D01*
X197471114Y-130980222D01*
X197527125Y-131003480D01*
X197290478Y-131239714D01*
X197125787Y-131636332D01*
X197125413Y-132065784D01*
X197289411Y-132462689D01*
X197592814Y-132766622D01*
X197989432Y-132931313D01*
X198206972Y-132931502D01*
X208819961Y-143544492D01*
X208871104Y-143801605D01*
X209036285Y-144048815D01*
X209283495Y-144213996D01*
X209525479Y-144262130D01*
X209730971Y-144569670D01*
X210217152Y-144894526D01*
X210790641Y-145008600D01*
X210849359Y-145008600D01*
X211422848Y-144894526D01*
X211909029Y-144569670D01*
X212089992Y-144298839D01*
X212471510Y-144716821D01*
X213000973Y-144964968D01*
X213233000Y-144844469D01*
X213233000Y-143637000D01*
X213487000Y-143637000D01*
X213487000Y-144844469D01*
X213719027Y-144964968D01*
X214248490Y-144716821D01*
X214642688Y-144284947D01*
X214814958Y-143869026D01*
X214693817Y-143637000D01*
X213487000Y-143637000D01*
X213233000Y-143637000D01*
X213213000Y-143637000D01*
X213213000Y-143383000D01*
X213233000Y-143383000D01*
X213233000Y-143363000D01*
X213487000Y-143363000D01*
X213487000Y-143383000D01*
X214693817Y-143383000D01*
X214814958Y-143150974D01*
X214802440Y-143120750D01*
X216545000Y-143120750D01*
X216545000Y-143711309D01*
X216641673Y-143944698D01*
X216820301Y-144123327D01*
X217053690Y-144220000D01*
X217519250Y-144220000D01*
X217678000Y-144061250D01*
X217678000Y-142962000D01*
X217932000Y-142962000D01*
X217932000Y-144061250D01*
X218090750Y-144220000D01*
X218556310Y-144220000D01*
X218789699Y-144123327D01*
X218968327Y-143944698D01*
X219065000Y-143711309D01*
X219065000Y-143120750D01*
X218906250Y-142962000D01*
X217932000Y-142962000D01*
X217678000Y-142962000D01*
X216703750Y-142962000D01*
X216545000Y-143120750D01*
X214802440Y-143120750D01*
X214753255Y-143002000D01*
X215386600Y-143002000D01*
X215678205Y-142943996D01*
X215925415Y-142778815D01*
X216475831Y-142228400D01*
X216545000Y-142228400D01*
X216545000Y-142549250D01*
X216703750Y-142708000D01*
X217678000Y-142708000D01*
X217678000Y-142688000D01*
X217932000Y-142688000D01*
X217932000Y-142708000D01*
X218906250Y-142708000D01*
X219065000Y-142549250D01*
X219065000Y-142076386D01*
X219171515Y-142005215D01*
X219316560Y-141860170D01*
X219316560Y-141986000D01*
X219365843Y-142233765D01*
X219506191Y-142443809D01*
X219648872Y-142539146D01*
X219422330Y-142878190D01*
X219296655Y-143510000D01*
X219422330Y-144141810D01*
X219780222Y-144677433D01*
X220315845Y-145035325D01*
X220947655Y-145161000D01*
X221012345Y-145161000D01*
X221644155Y-145035325D01*
X222179778Y-144677433D01*
X222294864Y-144505195D01*
X222473485Y-144683816D01*
X222595579Y-144765396D01*
X222720695Y-144848996D01*
X223012300Y-144907000D01*
X223511816Y-144907000D01*
X223717904Y-145215432D01*
X223678635Y-145223243D01*
X223468591Y-145363591D01*
X223328243Y-145573635D01*
X223278960Y-145821400D01*
X223278960Y-147548600D01*
X223328243Y-147796365D01*
X223468591Y-148006409D01*
X223678635Y-148146757D01*
X223926400Y-148196040D01*
X224154048Y-148196040D01*
X224195292Y-148257765D01*
X224251185Y-148341415D01*
X225006585Y-149096815D01*
X225086182Y-149150000D01*
X146762032Y-149150000D01*
X146491125Y-149090514D01*
X146316257Y-148968595D01*
X146199450Y-148786057D01*
X146149902Y-148522962D01*
X146149902Y-146472815D01*
X146864630Y-146472815D01*
X147188980Y-147257800D01*
X147789041Y-147858909D01*
X148573459Y-148184628D01*
X149422815Y-148185370D01*
X150207800Y-147861020D01*
X150808909Y-147260959D01*
X151134628Y-146476541D01*
X151135370Y-145627185D01*
X150922864Y-145112881D01*
X162254874Y-145112881D01*
X162541194Y-145805831D01*
X163070901Y-146336462D01*
X163763349Y-146623992D01*
X164513121Y-146624646D01*
X165206071Y-146338326D01*
X165736702Y-145808619D01*
X166024232Y-145116171D01*
X166024886Y-144366399D01*
X165738566Y-143673449D01*
X165638661Y-143573369D01*
X166486517Y-143573369D01*
X166615725Y-143866139D01*
X167315883Y-144134351D01*
X168065384Y-144114208D01*
X168664275Y-143866139D01*
X168793483Y-143573369D01*
X167640000Y-142419885D01*
X166486517Y-143573369D01*
X165638661Y-143573369D01*
X165208859Y-143142818D01*
X164516411Y-142855288D01*
X163766639Y-142854634D01*
X163073689Y-143140954D01*
X162543058Y-143670661D01*
X162255528Y-144363109D01*
X162254874Y-145112881D01*
X150922864Y-145112881D01*
X150811020Y-144842200D01*
X150210959Y-144241091D01*
X149426541Y-143915372D01*
X148577185Y-143914630D01*
X147792200Y-144238980D01*
X147191091Y-144839041D01*
X146865372Y-145623459D01*
X146864630Y-146472815D01*
X146149902Y-146472815D01*
X146149902Y-141916163D01*
X165745929Y-141916163D01*
X165766072Y-142665664D01*
X166014141Y-143264555D01*
X166306911Y-143393763D01*
X167460395Y-142240280D01*
X167819605Y-142240280D01*
X168973089Y-143393763D01*
X169265859Y-143264555D01*
X169534071Y-142564397D01*
X169513928Y-141814896D01*
X169265859Y-141216005D01*
X168973089Y-141086797D01*
X167819605Y-142240280D01*
X167460395Y-142240280D01*
X166306911Y-141086797D01*
X166014141Y-141216005D01*
X165745929Y-141916163D01*
X146149902Y-141916163D01*
X146149902Y-140907191D01*
X166486517Y-140907191D01*
X167640000Y-142060675D01*
X168793483Y-140907191D01*
X168664275Y-140614421D01*
X167964117Y-140346209D01*
X167214616Y-140366352D01*
X166615725Y-140614421D01*
X166486517Y-140907191D01*
X146149902Y-140907191D01*
X146149902Y-137795000D01*
X146149865Y-137794812D01*
X146149902Y-137794624D01*
X146146036Y-130498694D01*
X148225226Y-130498694D01*
X148473538Y-131099655D01*
X148932927Y-131559846D01*
X149533453Y-131809206D01*
X150183694Y-131809774D01*
X150784655Y-131561462D01*
X151244846Y-131102073D01*
X151447691Y-130613568D01*
X151648538Y-131099655D01*
X152107927Y-131559846D01*
X152708453Y-131809206D01*
X153358694Y-131809774D01*
X153959655Y-131561462D01*
X154419846Y-131102073D01*
X154669206Y-130501547D01*
X154669774Y-129851306D01*
X154653903Y-129812894D01*
X160849026Y-129812894D01*
X161097338Y-130413855D01*
X161556727Y-130874046D01*
X162157253Y-131123406D01*
X162807494Y-131123974D01*
X163408455Y-130875662D01*
X163868646Y-130416273D01*
X164118006Y-129815747D01*
X164118008Y-129812894D01*
X167351426Y-129812894D01*
X167599738Y-130413855D01*
X168059127Y-130874046D01*
X168659653Y-131123406D01*
X169309894Y-131123974D01*
X169910855Y-130875662D01*
X170371046Y-130416273D01*
X170620406Y-129815747D01*
X170620974Y-129165506D01*
X170372662Y-128564545D01*
X169913273Y-128104354D01*
X169312747Y-127854994D01*
X168662506Y-127854426D01*
X168061545Y-128102738D01*
X167601354Y-128562127D01*
X167351994Y-129162653D01*
X167351426Y-129812894D01*
X164118008Y-129812894D01*
X164118574Y-129165506D01*
X163870262Y-128564545D01*
X163410873Y-128104354D01*
X162810347Y-127854994D01*
X162160106Y-127854426D01*
X161559145Y-128102738D01*
X161098954Y-128562127D01*
X160849594Y-129162653D01*
X160849026Y-129812894D01*
X154653903Y-129812894D01*
X154421462Y-129250345D01*
X153962073Y-128790154D01*
X153361547Y-128540794D01*
X152711306Y-128540226D01*
X152110345Y-128788538D01*
X151650154Y-129247927D01*
X151447309Y-129736432D01*
X151246462Y-129250345D01*
X150787073Y-128790154D01*
X150186547Y-128540794D01*
X149536306Y-128540226D01*
X148935345Y-128788538D01*
X148475154Y-129247927D01*
X148225794Y-129848453D01*
X148225226Y-130498694D01*
X146146036Y-130498694D01*
X146143781Y-126242083D01*
X161511243Y-126242083D01*
X161609842Y-126508885D01*
X162219382Y-126735321D01*
X162869177Y-126711261D01*
X163357758Y-126508885D01*
X163456357Y-126242083D01*
X162483800Y-125269525D01*
X161511243Y-126242083D01*
X146143781Y-126242083D01*
X146142468Y-123764118D01*
X156599650Y-123764118D01*
X156810146Y-124273557D01*
X157199573Y-124663664D01*
X157708644Y-124875049D01*
X158259858Y-124875530D01*
X158380934Y-124825502D01*
X160838399Y-124825502D01*
X160862459Y-125475297D01*
X161064835Y-125963878D01*
X161331637Y-126062477D01*
X162304195Y-125089920D01*
X162663405Y-125089920D01*
X163635963Y-126062477D01*
X163902765Y-125963878D01*
X164107180Y-125413614D01*
X167351426Y-125413614D01*
X167599738Y-126014575D01*
X168059127Y-126474766D01*
X168659653Y-126724126D01*
X169309894Y-126724694D01*
X169910855Y-126476382D01*
X170371046Y-126016993D01*
X170620406Y-125416467D01*
X170620974Y-124766226D01*
X170372662Y-124165265D01*
X169913273Y-123705074D01*
X169312747Y-123455714D01*
X168662506Y-123455146D01*
X168061545Y-123703458D01*
X167601354Y-124162847D01*
X167351994Y-124763373D01*
X167351426Y-125413614D01*
X164107180Y-125413614D01*
X164129201Y-125354338D01*
X164105141Y-124704543D01*
X163902765Y-124215962D01*
X163635963Y-124117363D01*
X162663405Y-125089920D01*
X162304195Y-125089920D01*
X161331637Y-124117363D01*
X161064835Y-124215962D01*
X160838399Y-124825502D01*
X158380934Y-124825502D01*
X158769297Y-124665034D01*
X159159404Y-124275607D01*
X159299691Y-123937757D01*
X161511243Y-123937757D01*
X162483800Y-124910315D01*
X163456357Y-123937757D01*
X163357758Y-123670955D01*
X162748218Y-123444519D01*
X162098423Y-123468579D01*
X161609842Y-123670955D01*
X161511243Y-123937757D01*
X159299691Y-123937757D01*
X159370789Y-123766536D01*
X159371270Y-123215322D01*
X159160774Y-122705883D01*
X158771347Y-122315776D01*
X158262276Y-122104391D01*
X157711062Y-122103910D01*
X157201623Y-122314406D01*
X156811516Y-122703833D01*
X156600131Y-123212904D01*
X156599650Y-123764118D01*
X146142468Y-123764118D01*
X146135910Y-111389016D01*
X147870590Y-111389016D01*
X147926271Y-111619611D01*
X148409078Y-111787622D01*
X148919428Y-111758083D01*
X149253729Y-111619611D01*
X149309410Y-111389016D01*
X148590000Y-110669605D01*
X147870590Y-111389016D01*
X146135910Y-111389016D01*
X146135337Y-110309078D01*
X147292378Y-110309078D01*
X147321917Y-110819428D01*
X147460389Y-111153729D01*
X147690984Y-111209410D01*
X148410395Y-110490000D01*
X148769605Y-110490000D01*
X149489016Y-111209410D01*
X149719611Y-111153729D01*
X149792560Y-110944098D01*
X149792560Y-111140000D01*
X149841843Y-111387765D01*
X149982191Y-111597809D01*
X150192235Y-111738157D01*
X150440000Y-111787440D01*
X151740000Y-111787440D01*
X151987765Y-111738157D01*
X152197809Y-111597809D01*
X152338157Y-111387765D01*
X152387440Y-111140000D01*
X152387440Y-109840000D01*
X152338157Y-109592235D01*
X152197809Y-109382191D01*
X151987765Y-109241843D01*
X151740000Y-109192560D01*
X150440000Y-109192560D01*
X150192235Y-109241843D01*
X149982191Y-109382191D01*
X149841843Y-109592235D01*
X149792560Y-109840000D01*
X149792560Y-110002385D01*
X149719611Y-109826271D01*
X149489016Y-109770590D01*
X148769605Y-110490000D01*
X148410395Y-110490000D01*
X147690984Y-109770590D01*
X147460389Y-109826271D01*
X147292378Y-110309078D01*
X146135337Y-110309078D01*
X146134957Y-109590984D01*
X147870590Y-109590984D01*
X148590000Y-110310395D01*
X149309410Y-109590984D01*
X149253729Y-109360389D01*
X148770922Y-109192378D01*
X148260572Y-109221917D01*
X147926271Y-109360389D01*
X147870590Y-109590984D01*
X146134957Y-109590984D01*
X146132344Y-104660000D01*
X148587560Y-104660000D01*
X148587560Y-106160000D01*
X148636843Y-106407765D01*
X148777191Y-106617809D01*
X148987235Y-106758157D01*
X149235000Y-106807440D01*
X150485000Y-106807440D01*
X150732765Y-106758157D01*
X150942809Y-106617809D01*
X151083157Y-106407765D01*
X151130053Y-106172000D01*
X152571668Y-106172000D01*
X152574951Y-106176914D01*
X152926814Y-106412021D01*
X153341865Y-106494580D01*
X153998135Y-106494580D01*
X154413186Y-106412021D01*
X154765049Y-106176914D01*
X155000156Y-105825051D01*
X155082715Y-105410000D01*
X155000156Y-104994949D01*
X154850359Y-104770762D01*
X155014981Y-104433935D01*
X154888068Y-104267000D01*
X153797000Y-104267000D01*
X153797000Y-104287000D01*
X153543000Y-104287000D01*
X153543000Y-104267000D01*
X152451932Y-104267000D01*
X152325019Y-104433935D01*
X152429642Y-104648000D01*
X151130053Y-104648000D01*
X151083157Y-104412235D01*
X150942809Y-104202191D01*
X150881680Y-104161346D01*
X151023327Y-104019698D01*
X151120000Y-103786309D01*
X151120000Y-103195750D01*
X150961250Y-103037000D01*
X149987000Y-103037000D01*
X149987000Y-103057000D01*
X149733000Y-103057000D01*
X149733000Y-103037000D01*
X148758750Y-103037000D01*
X148600000Y-103195750D01*
X148600000Y-103786309D01*
X148696673Y-104019698D01*
X148838320Y-104161346D01*
X148777191Y-104202191D01*
X148636843Y-104412235D01*
X148587560Y-104660000D01*
X146132344Y-104660000D01*
X146131396Y-102870000D01*
X152257285Y-102870000D01*
X152339844Y-103285051D01*
X152489641Y-103509238D01*
X152325019Y-103846065D01*
X152451932Y-104013000D01*
X153543000Y-104013000D01*
X153543000Y-103993000D01*
X153797000Y-103993000D01*
X153797000Y-104013000D01*
X154888068Y-104013000D01*
X155014981Y-103846065D01*
X154850359Y-103509238D01*
X155000156Y-103285051D01*
X155082715Y-102870000D01*
X155000156Y-102454949D01*
X154765049Y-102103086D01*
X154413186Y-101867979D01*
X153998135Y-101785420D01*
X153341865Y-101785420D01*
X152926814Y-101867979D01*
X152574951Y-102103086D01*
X152339844Y-102454949D01*
X152257285Y-102870000D01*
X146131396Y-102870000D01*
X146130952Y-102033691D01*
X148600000Y-102033691D01*
X148600000Y-102624250D01*
X148758750Y-102783000D01*
X149733000Y-102783000D01*
X149733000Y-101683750D01*
X149987000Y-101683750D01*
X149987000Y-102783000D01*
X150961250Y-102783000D01*
X151120000Y-102624250D01*
X151120000Y-102033691D01*
X151023327Y-101800302D01*
X150844699Y-101621673D01*
X150611310Y-101525000D01*
X150145750Y-101525000D01*
X149987000Y-101683750D01*
X149733000Y-101683750D01*
X149574250Y-101525000D01*
X149108690Y-101525000D01*
X148875301Y-101621673D01*
X148696673Y-101800302D01*
X148600000Y-102033691D01*
X146130952Y-102033691D01*
X146127660Y-95821320D01*
X153826285Y-95821320D01*
X153955533Y-96114123D01*
X154655806Y-96382388D01*
X155405435Y-96362250D01*
X156004467Y-96114123D01*
X156133715Y-95821320D01*
X154980000Y-94667605D01*
X153826285Y-95821320D01*
X146127660Y-95821320D01*
X146126388Y-93422815D01*
X146864630Y-93422815D01*
X147188980Y-94207800D01*
X147789041Y-94808909D01*
X148573459Y-95134628D01*
X149422815Y-95135370D01*
X150207800Y-94811020D01*
X150808909Y-94210959D01*
X150828488Y-94163806D01*
X153085612Y-94163806D01*
X153105750Y-94913435D01*
X153353877Y-95512467D01*
X153646680Y-95641715D01*
X154800395Y-94488000D01*
X155159605Y-94488000D01*
X156313320Y-95641715D01*
X156606123Y-95512467D01*
X156874388Y-94812194D01*
X156854250Y-94062565D01*
X156606123Y-93463533D01*
X156313320Y-93334285D01*
X155159605Y-94488000D01*
X154800395Y-94488000D01*
X153646680Y-93334285D01*
X153353877Y-93463533D01*
X153085612Y-94163806D01*
X150828488Y-94163806D01*
X151134628Y-93426541D01*
X151134865Y-93154680D01*
X153826285Y-93154680D01*
X154980000Y-94308395D01*
X156133715Y-93154680D01*
X156004467Y-92861877D01*
X155304194Y-92593612D01*
X154554565Y-92613750D01*
X153955533Y-92861877D01*
X153826285Y-93154680D01*
X151134865Y-93154680D01*
X151135370Y-92577185D01*
X150811020Y-91792200D01*
X150210959Y-91191091D01*
X149426541Y-90865372D01*
X148577185Y-90864630D01*
X147792200Y-91188980D01*
X147191091Y-91789041D01*
X146865372Y-92573459D01*
X146864630Y-93422815D01*
X146126388Y-93422815D01*
X146125037Y-90874744D01*
X146180478Y-90596021D01*
X146298856Y-90418855D01*
X146476019Y-90300479D01*
X146754931Y-90245000D01*
X165897163Y-90245000D01*
X165643057Y-90349995D01*
X165643057Y-90349995D01*
G37*
X165643057Y-90349995D02*
X165281265Y-90711155D01*
X165085223Y-91183276D01*
X165084777Y-91694481D01*
X165279995Y-92166943D01*
X165435000Y-92322219D01*
X165435000Y-93553000D01*
X161633239Y-93553000D01*
X161578957Y-93421628D01*
X161049161Y-92890907D01*
X160356595Y-92603328D01*
X159606695Y-92602674D01*
X158913628Y-92889043D01*
X158382907Y-93418839D01*
X158095328Y-94111405D01*
X158094674Y-94861305D01*
X158381043Y-95554372D01*
X158910839Y-96085093D01*
X159045000Y-96140802D01*
X159045000Y-101560000D01*
X159048933Y-101579772D01*
X158937299Y-101412701D01*
X158727255Y-101272353D01*
X158479490Y-101223070D01*
X156480510Y-101223070D01*
X156232745Y-101272353D01*
X156022701Y-101412701D01*
X155882353Y-101622745D01*
X155833070Y-101870510D01*
X155833070Y-103869490D01*
X155882353Y-104117255D01*
X156022701Y-104327299D01*
X156232745Y-104467647D01*
X156480510Y-104516930D01*
X158479490Y-104516930D01*
X158727255Y-104467647D01*
X158937299Y-104327299D01*
X159077647Y-104117255D01*
X159126930Y-103869490D01*
X159126930Y-101933908D01*
X159318855Y-102221145D01*
X159655781Y-102558071D01*
X159655226Y-103193694D01*
X159903538Y-103794655D01*
X160362927Y-104254846D01*
X160963453Y-104504206D01*
X161613694Y-104504774D01*
X162214655Y-104256462D01*
X162674846Y-103797073D01*
X162924206Y-103196547D01*
X162924774Y-102546306D01*
X162676462Y-101945345D01*
X162217073Y-101485154D01*
X161616547Y-101235794D01*
X160977526Y-101235236D01*
X160915000Y-101172710D01*
X160915000Y-100784078D01*
X165072378Y-100784078D01*
X165101917Y-101294428D01*
X165240389Y-101628729D01*
X165470984Y-101684410D01*
X166190395Y-100965000D01*
X165470984Y-100245590D01*
X165240389Y-100301271D01*
X165072378Y-100784078D01*
X160915000Y-100784078D01*
X160915000Y-100065984D01*
X165650590Y-100065984D01*
X166370000Y-100785395D01*
X167089410Y-100065984D01*
X167033729Y-99835389D01*
X166550922Y-99667378D01*
X166040572Y-99696917D01*
X165706271Y-99835389D01*
X165650590Y-100065984D01*
X160915000Y-100065984D01*
X160915000Y-98689016D01*
X165650590Y-98689016D01*
X165706271Y-98919611D01*
X166189078Y-99087622D01*
X166699428Y-99058083D01*
X167033729Y-98919611D01*
X167089410Y-98689016D01*
X166370000Y-97969605D01*
X165650590Y-98689016D01*
X160915000Y-98689016D01*
X160915000Y-97609078D01*
X165072378Y-97609078D01*
X165101917Y-98119428D01*
X165240389Y-98453729D01*
X165470984Y-98509410D01*
X166190395Y-97790000D01*
X166549605Y-97790000D01*
X167269016Y-98509410D01*
X167499611Y-98453729D01*
X167667622Y-97970922D01*
X167638083Y-97460572D01*
X167499611Y-97126271D01*
X167269016Y-97070590D01*
X166549605Y-97790000D01*
X166190395Y-97790000D01*
X165470984Y-97070590D01*
X165240389Y-97126271D01*
X165072378Y-97609078D01*
X160915000Y-97609078D01*
X160915000Y-96141239D01*
X161046372Y-96086957D01*
X161577093Y-95557161D01*
X161632802Y-95423000D01*
X165072560Y-95423000D01*
X165072560Y-95940000D01*
X165121843Y-96187765D01*
X165262191Y-96397809D01*
X165472235Y-96538157D01*
X165720000Y-96587440D01*
X165882385Y-96587440D01*
X165706271Y-96660389D01*
X165650590Y-96890984D01*
X166370000Y-97610395D01*
X167089410Y-96890984D01*
X167033729Y-96660389D01*
X166824098Y-96587440D01*
X167020000Y-96587440D01*
X167267765Y-96538157D01*
X167477809Y-96397809D01*
X167618157Y-96187765D01*
X167667440Y-95940000D01*
X167667440Y-94640000D01*
X167618157Y-94392235D01*
X167477809Y-94182191D01*
X167305000Y-94066723D01*
X167305000Y-92322311D01*
X167458735Y-92168845D01*
X167654777Y-91696724D01*
X167655223Y-91185519D01*
X167460005Y-90713057D01*
X167098845Y-90351265D01*
X166842931Y-90245000D01*
X170392681Y-90245000D01*
X170262191Y-90332191D01*
X170121843Y-90542235D01*
X170072560Y-90790000D01*
X170072560Y-92090000D01*
X170121843Y-92337765D01*
X170262191Y-92547809D01*
X170435000Y-92663277D01*
X170435000Y-93953726D01*
X170065154Y-94322927D01*
X169815794Y-94923453D01*
X169815226Y-95573694D01*
X170063538Y-96174655D01*
X170522927Y-96634846D01*
X171123453Y-96884206D01*
X171773694Y-96884774D01*
X172374655Y-96636462D01*
X172834846Y-96177073D01*
X173084206Y-95576547D01*
X173084774Y-94926306D01*
X172836462Y-94325345D01*
X172377073Y-93865154D01*
X172305000Y-93835227D01*
X172305000Y-92663277D01*
X172477809Y-92547809D01*
X172618157Y-92337765D01*
X172667440Y-92090000D01*
X172667440Y-90790000D01*
X172618157Y-90542235D01*
X172477809Y-90332191D01*
X172347319Y-90245000D01*
X206828903Y-90245000D01*
X206629211Y-90327511D01*
X206325278Y-90630914D01*
X206160587Y-91027532D01*
X206160213Y-91456984D01*
X206246784Y-91666502D01*
X206164843Y-91789135D01*
X206163000Y-91798400D01*
X206161157Y-91789135D01*
X206020809Y-91579091D01*
X205810765Y-91438743D01*
X205563000Y-91389460D01*
X204063000Y-91389460D01*
X203815235Y-91438743D01*
X203605191Y-91579091D01*
X203464843Y-91789135D01*
X203415560Y-92036900D01*
X203415560Y-93336900D01*
X203464843Y-93584665D01*
X203605191Y-93794709D01*
X203690468Y-93851690D01*
X203562950Y-93851690D01*
X203315185Y-93900973D01*
X203105141Y-94041321D01*
X202964793Y-94251365D01*
X202915510Y-94499130D01*
X202915510Y-96299990D01*
X202964793Y-96547755D01*
X203040704Y-96661364D01*
X202758060Y-96944008D01*
X202558765Y-96810843D01*
X202311000Y-96761560D01*
X200279000Y-96761560D01*
X200031235Y-96810843D01*
X199821191Y-96951191D01*
X199680843Y-97161235D01*
X199631560Y-97409000D01*
X199631560Y-99441000D01*
X199680843Y-99688765D01*
X199821191Y-99898809D01*
X199963872Y-99994146D01*
X199737330Y-100333190D01*
X199611655Y-100965000D01*
X199737330Y-101596810D01*
X200095222Y-102132433D01*
X200630845Y-102490325D01*
X201262655Y-102616000D01*
X201327345Y-102616000D01*
X201959155Y-102490325D01*
X202128000Y-102377506D01*
X202128000Y-102544000D01*
X202199173Y-102901809D01*
X202401855Y-103205145D01*
X202915510Y-103718800D01*
X202915510Y-104169720D01*
X202575660Y-104509570D01*
X201895430Y-104509570D01*
X201537621Y-104580743D01*
X201234285Y-104783425D01*
X197388950Y-108628760D01*
X197334389Y-108496711D01*
X197030986Y-108192778D01*
X196634368Y-108028087D01*
X196367954Y-108027855D01*
X196267905Y-107961004D01*
X196242440Y-107955939D01*
X196242440Y-107915000D01*
X196193157Y-107667235D01*
X196052809Y-107457191D01*
X195842765Y-107316843D01*
X195833500Y-107315000D01*
X195842765Y-107313157D01*
X196052809Y-107172809D01*
X196193157Y-106962765D01*
X196242440Y-106715000D01*
X196242440Y-105215000D01*
X196193157Y-104967235D01*
X196052809Y-104757191D01*
X195842765Y-104616843D01*
X195595000Y-104567560D01*
X194295000Y-104567560D01*
X194047235Y-104616843D01*
X193837191Y-104757191D01*
X193696843Y-104967235D01*
X193668443Y-105110013D01*
X193552615Y-104994185D01*
X193524510Y-104975406D01*
X193305405Y-104829004D01*
X193175987Y-104803261D01*
X193090379Y-104675141D01*
X192880335Y-104534793D01*
X192632570Y-104485510D01*
X191843370Y-104485510D01*
X193982187Y-102346692D01*
X193982190Y-102346690D01*
X194174033Y-102059575D01*
X194180513Y-102027000D01*
X194241401Y-101720900D01*
X194241400Y-101720895D01*
X194241400Y-98945998D01*
X194319569Y-99062985D01*
X194406185Y-99192615D01*
X199012701Y-103799131D01*
X199012513Y-104014784D01*
X199176511Y-104411689D01*
X199479914Y-104715622D01*
X199876532Y-104880313D01*
X200305984Y-104880687D01*
X200702889Y-104716689D01*
X201006822Y-104413286D01*
X201171513Y-104016668D01*
X201171887Y-103587216D01*
X201007889Y-103190311D01*
X200704486Y-102886378D01*
X200307868Y-102721687D01*
X200090328Y-102721498D01*
X195707000Y-98338170D01*
X195707000Y-96705162D01*
X195842765Y-96678157D01*
X196052809Y-96537809D01*
X196193157Y-96327765D01*
X196242440Y-96080000D01*
X196242440Y-94580000D01*
X196193157Y-94332235D01*
X196052809Y-94122191D01*
X195842765Y-93981843D01*
X195833500Y-93980000D01*
X195842765Y-93978157D01*
X196052809Y-93837809D01*
X196193157Y-93627765D01*
X196242440Y-93380000D01*
X196242440Y-91880000D01*
X196193157Y-91632235D01*
X196052809Y-91422191D01*
X195842765Y-91281843D01*
X195595000Y-91232560D01*
X194295000Y-91232560D01*
X194047235Y-91281843D01*
X193837191Y-91422191D01*
X193696843Y-91632235D01*
X193655536Y-91839900D01*
X193154430Y-91839900D01*
X193090379Y-91744041D01*
X192880335Y-91603693D01*
X192632570Y-91554410D01*
X190831710Y-91554410D01*
X190583945Y-91603693D01*
X190428213Y-91707751D01*
X189861909Y-91141230D01*
X189861839Y-91141183D01*
X189861790Y-91141110D01*
X189716116Y-91043774D01*
X189574831Y-90949332D01*
X189574747Y-90949315D01*
X189574675Y-90949267D01*
X189407097Y-90915933D01*
X189236169Y-90881899D01*
X189236082Y-90881916D01*
X189236000Y-90881900D01*
X187540005Y-90881900D01*
X187540000Y-90881899D01*
X187201326Y-90949266D01*
X187129535Y-90997235D01*
X186914210Y-91141110D01*
X186914208Y-91141113D01*
X186435861Y-91619460D01*
X186144140Y-91619460D01*
X185615390Y-91090710D01*
X185602640Y-91082191D01*
X185328275Y-90898867D01*
X185242972Y-90881899D01*
X184989600Y-90831499D01*
X184989595Y-90831500D01*
X180343300Y-90831500D01*
X180004625Y-90898867D01*
X179717510Y-91090710D01*
X179717508Y-91090713D01*
X173026750Y-97781470D01*
X172907299Y-97602701D01*
X172697255Y-97462353D01*
X172449490Y-97413070D01*
X170450510Y-97413070D01*
X170202745Y-97462353D01*
X169992701Y-97602701D01*
X169852353Y-97812745D01*
X169803070Y-98060510D01*
X169803070Y-99658719D01*
X169661310Y-99600000D01*
X169195750Y-99600000D01*
X169037000Y-99758750D01*
X169037000Y-100858000D01*
X170011250Y-100858000D01*
X170170000Y-100699250D01*
X170170000Y-100635767D01*
X170202745Y-100657647D01*
X170450510Y-100706930D01*
X172449490Y-100706930D01*
X172697255Y-100657647D01*
X172907299Y-100517299D01*
X173047647Y-100307255D01*
X173096930Y-100059490D01*
X173096930Y-99925680D01*
X173282284Y-99888810D01*
X173338475Y-99877633D01*
X173625590Y-99685790D01*
X180709879Y-92601500D01*
X182192560Y-92601500D01*
X182192560Y-93236710D01*
X182161185Y-93268085D01*
X181996004Y-93515295D01*
X181938000Y-93806900D01*
X181938000Y-94207370D01*
X181842141Y-94271421D01*
X181701793Y-94481465D01*
X181652510Y-94729230D01*
X181652510Y-96530090D01*
X181701793Y-96777855D01*
X181777704Y-96891464D01*
X181390023Y-97279145D01*
X181387157Y-97264735D01*
X181246809Y-97054691D01*
X181036765Y-96914343D01*
X180789000Y-96865060D01*
X178757000Y-96865060D01*
X178509235Y-96914343D01*
X178299191Y-97054691D01*
X178158843Y-97264735D01*
X178109560Y-97512500D01*
X178109560Y-99544500D01*
X178158843Y-99792265D01*
X178299191Y-100002309D01*
X178441872Y-100097646D01*
X178215330Y-100436690D01*
X178089655Y-101068500D01*
X178215330Y-101700310D01*
X178573222Y-102235933D01*
X179108845Y-102593825D01*
X179740655Y-102719500D01*
X179805345Y-102719500D01*
X180437155Y-102593825D01*
X180764950Y-102374799D01*
X180764950Y-102593710D01*
X180836123Y-102951519D01*
X181038805Y-103254855D01*
X181652510Y-103868560D01*
X181652510Y-104319720D01*
X181038805Y-104933425D01*
X180836123Y-105236761D01*
X180764950Y-105594570D01*
X180764950Y-107426952D01*
X180836123Y-107784761D01*
X181038805Y-108088097D01*
X185371853Y-112421145D01*
X185675189Y-112623827D01*
X186032998Y-112695000D01*
X189123865Y-112695000D01*
X189572927Y-113144846D01*
X190173453Y-113394206D01*
X190524857Y-113394513D01*
X190392170Y-113527200D01*
X185281000Y-113527200D01*
X184989395Y-113585204D01*
X184742184Y-113750385D01*
X175789785Y-122702785D01*
X175632543Y-122938113D01*
X173185953Y-120491523D01*
X174513503Y-120491523D01*
X174612102Y-120758325D01*
X175221642Y-120984761D01*
X175871437Y-120960701D01*
X176360018Y-120758325D01*
X176458617Y-120491523D01*
X175486060Y-119518965D01*
X174513503Y-120491523D01*
X173185953Y-120491523D01*
X171769372Y-119074942D01*
X173840659Y-119074942D01*
X173864719Y-119724737D01*
X174067095Y-120213318D01*
X174333897Y-120311917D01*
X175306455Y-119339360D01*
X175665665Y-119339360D01*
X176638223Y-120311917D01*
X176905025Y-120213318D01*
X177131461Y-119603778D01*
X177107401Y-118953983D01*
X176905025Y-118465402D01*
X176638223Y-118366803D01*
X175665665Y-119339360D01*
X175306455Y-119339360D01*
X174333897Y-118366803D01*
X174067095Y-118465402D01*
X173840659Y-119074942D01*
X171769372Y-119074942D01*
X167358764Y-114664334D01*
X173851286Y-114664334D01*
X174099598Y-115265295D01*
X174424220Y-115590484D01*
X174101214Y-115912927D01*
X173851854Y-116513453D01*
X173851286Y-117163694D01*
X174099598Y-117764655D01*
X174515638Y-118181421D01*
X174513503Y-118187197D01*
X175486060Y-119159755D01*
X176458617Y-118187197D01*
X176456308Y-118180949D01*
X176870906Y-117767073D01*
X177120266Y-117166547D01*
X177120834Y-116516306D01*
X176872522Y-115915345D01*
X176547900Y-115590156D01*
X176870906Y-115267713D01*
X177120266Y-114667187D01*
X177120834Y-114016946D01*
X176872522Y-113415985D01*
X176413133Y-112955794D01*
X176308058Y-112912163D01*
X179367443Y-112912163D01*
X179466042Y-113178965D01*
X180075582Y-113405401D01*
X180725377Y-113381341D01*
X181213958Y-113178965D01*
X181312557Y-112912163D01*
X180340000Y-111939605D01*
X179367443Y-112912163D01*
X176308058Y-112912163D01*
X175812607Y-112706434D01*
X175162366Y-112705866D01*
X174561405Y-112954178D01*
X174101214Y-113413567D01*
X173851854Y-114014093D01*
X173851286Y-114664334D01*
X167358764Y-114664334D01*
X166497000Y-113802570D01*
X166497000Y-110464678D01*
X172098730Y-110464678D01*
X172309226Y-110974117D01*
X172698653Y-111364224D01*
X173207724Y-111575609D01*
X173758938Y-111576090D01*
X173953782Y-111495582D01*
X178694599Y-111495582D01*
X178718659Y-112145377D01*
X178921035Y-112633958D01*
X179187837Y-112732557D01*
X180160395Y-111760000D01*
X180519605Y-111760000D01*
X181492163Y-112732557D01*
X181758965Y-112633958D01*
X181985401Y-112024418D01*
X181961341Y-111374623D01*
X181758965Y-110886042D01*
X181492163Y-110787443D01*
X180519605Y-111760000D01*
X180160395Y-111760000D01*
X179187837Y-110787443D01*
X178921035Y-110886042D01*
X178694599Y-111495582D01*
X173953782Y-111495582D01*
X174268377Y-111365594D01*
X174658484Y-110976167D01*
X174811428Y-110607837D01*
X179367443Y-110607837D01*
X180340000Y-111580395D01*
X181312557Y-110607837D01*
X181213958Y-110341035D01*
X180604418Y-110114599D01*
X179954623Y-110138659D01*
X179466042Y-110341035D01*
X179367443Y-110607837D01*
X174811428Y-110607837D01*
X174869869Y-110467096D01*
X174870350Y-109915882D01*
X174659854Y-109406443D01*
X174270427Y-109016336D01*
X173761356Y-108804951D01*
X173210142Y-108804470D01*
X172700703Y-109014966D01*
X172310596Y-109404393D01*
X172099211Y-109913464D01*
X172098730Y-110464678D01*
X166497000Y-110464678D01*
X166497000Y-108542610D01*
X166659655Y-108475402D01*
X166894362Y-108241103D01*
X167261803Y-108241103D01*
X167360402Y-108507905D01*
X167969942Y-108734341D01*
X168619737Y-108710281D01*
X169108318Y-108507905D01*
X169206917Y-108241103D01*
X168234360Y-107268545D01*
X167261803Y-108241103D01*
X166894362Y-108241103D01*
X167076421Y-108059362D01*
X167082197Y-108061497D01*
X168054755Y-107088940D01*
X168413965Y-107088940D01*
X169386523Y-108061497D01*
X169653325Y-107962898D01*
X169879761Y-107353358D01*
X169855701Y-106703563D01*
X169653325Y-106214982D01*
X169386523Y-106116383D01*
X168413965Y-107088940D01*
X168054755Y-107088940D01*
X167082197Y-106116383D01*
X167075949Y-106118692D01*
X166894351Y-105936777D01*
X167261803Y-105936777D01*
X168234360Y-106909335D01*
X169206917Y-105936777D01*
X169108318Y-105669975D01*
X168498778Y-105443539D01*
X167848983Y-105467599D01*
X167360402Y-105669975D01*
X167261803Y-105936777D01*
X166894351Y-105936777D01*
X166662073Y-105704094D01*
X166061547Y-105454734D01*
X165411306Y-105454166D01*
X164810345Y-105702478D01*
X164485156Y-106027100D01*
X164162713Y-105704094D01*
X163805721Y-105555858D01*
X165011579Y-104350000D01*
X165119304Y-104350000D01*
X165121843Y-104362765D01*
X165262191Y-104572809D01*
X165472235Y-104713157D01*
X165720000Y-104762440D01*
X167020000Y-104762440D01*
X167267765Y-104713157D01*
X167477809Y-104572809D01*
X167618157Y-104362765D01*
X167620696Y-104350000D01*
X167634150Y-104350000D01*
X167661518Y-104355444D01*
X167686843Y-104482765D01*
X167827191Y-104692809D01*
X168037235Y-104833157D01*
X168285000Y-104882440D01*
X169535000Y-104882440D01*
X169782765Y-104833157D01*
X169992809Y-104692809D01*
X170133157Y-104482765D01*
X170182440Y-104235000D01*
X170182440Y-102735000D01*
X170133157Y-102487235D01*
X169992809Y-102277191D01*
X169931680Y-102236346D01*
X170073327Y-102094698D01*
X170170000Y-101861309D01*
X170170000Y-101270750D01*
X170011250Y-101112000D01*
X169037000Y-101112000D01*
X169037000Y-101132000D01*
X168783000Y-101132000D01*
X168783000Y-101112000D01*
X168763000Y-101112000D01*
X168763000Y-100858000D01*
X168783000Y-100858000D01*
X168783000Y-99758750D01*
X168624250Y-99600000D01*
X168158690Y-99600000D01*
X167925301Y-99696673D01*
X167746673Y-99875302D01*
X167650000Y-100108691D01*
X167650000Y-100699250D01*
X167808748Y-100857998D01*
X167650957Y-100857998D01*
X167638083Y-100635572D01*
X167499611Y-100301271D01*
X167269016Y-100245590D01*
X166549605Y-100965000D01*
X167269016Y-101684410D01*
X167499611Y-101628729D01*
X167667622Y-101145922D01*
X167665659Y-101112002D01*
X167808748Y-101112002D01*
X167650000Y-101270750D01*
X167650000Y-101861309D01*
X167746673Y-102094698D01*
X167888320Y-102236346D01*
X167827191Y-102277191D01*
X167686843Y-102487235D01*
X167668391Y-102580000D01*
X167620696Y-102580000D01*
X167618157Y-102567235D01*
X167477809Y-102357191D01*
X167267765Y-102216843D01*
X167020000Y-102167560D01*
X166857615Y-102167560D01*
X167033729Y-102094611D01*
X167089410Y-101864016D01*
X166370000Y-101144605D01*
X165650590Y-101864016D01*
X165706271Y-102094611D01*
X165915902Y-102167560D01*
X165720000Y-102167560D01*
X165472235Y-102216843D01*
X165262191Y-102357191D01*
X165121843Y-102567235D01*
X165119304Y-102580000D01*
X164645005Y-102580000D01*
X164645000Y-102579999D01*
X164362516Y-102636190D01*
X164306325Y-102647367D01*
X164019210Y-102839210D01*
X164019208Y-102839213D01*
X158741010Y-108117410D01*
X158549167Y-108404525D01*
X158549167Y-108404526D01*
X158481799Y-108743200D01*
X158481800Y-108743205D01*
X158481800Y-108896105D01*
X158262276Y-108804951D01*
X157711062Y-108804470D01*
X157201623Y-109014966D01*
X156811516Y-109404393D01*
X156600131Y-109913464D01*
X156599650Y-110464678D01*
X156810146Y-110974117D01*
X157199573Y-111364224D01*
X157373624Y-111436497D01*
X150358094Y-118452026D01*
X150186547Y-118380794D01*
X149536306Y-118380226D01*
X148935345Y-118628538D01*
X148475154Y-119087927D01*
X148225794Y-119688453D01*
X148225226Y-120338694D01*
X148473538Y-120939655D01*
X148932927Y-121399846D01*
X149533453Y-121649206D01*
X150183694Y-121649774D01*
X150784655Y-121401462D01*
X151019363Y-121167163D01*
X152062443Y-121167163D01*
X152161042Y-121433965D01*
X152770582Y-121660401D01*
X153420377Y-121636341D01*
X153908958Y-121433965D01*
X154007557Y-121167163D01*
X153035000Y-120194605D01*
X152062443Y-121167163D01*
X151019363Y-121167163D01*
X151244846Y-120942073D01*
X151441684Y-120468035D01*
X151616035Y-120888958D01*
X151882837Y-120987557D01*
X152855395Y-120015000D01*
X153214605Y-120015000D01*
X154187163Y-120987557D01*
X154453965Y-120888958D01*
X154680401Y-120279418D01*
X154656341Y-119629623D01*
X154453965Y-119141042D01*
X154187163Y-119042443D01*
X153214605Y-120015000D01*
X152855395Y-120015000D01*
X152841252Y-120000858D01*
X153020858Y-119821252D01*
X153035000Y-119835395D01*
X154007557Y-118862837D01*
X153908958Y-118596035D01*
X153299418Y-118369599D01*
X152930002Y-118383277D01*
X159992587Y-111320692D01*
X159992590Y-111320690D01*
X160184433Y-111033575D01*
X160211764Y-110896173D01*
X160251801Y-110694900D01*
X160251800Y-110694895D01*
X160251800Y-109109780D01*
X161702638Y-107658942D01*
X161849178Y-108013595D01*
X162308567Y-108473786D01*
X162909093Y-108723146D01*
X163559334Y-108723714D01*
X164160295Y-108475402D01*
X164485484Y-108150780D01*
X164807927Y-108473786D01*
X164973000Y-108542330D01*
X164973000Y-114118200D01*
X165031004Y-114409805D01*
X165168178Y-114615100D01*
X165196185Y-114657015D01*
X172808879Y-122269709D01*
X172700703Y-122314406D01*
X172310596Y-122703833D01*
X172099211Y-123212904D01*
X172098730Y-123764118D01*
X172309226Y-124273557D01*
X172698653Y-124663664D01*
X173207724Y-124875049D01*
X173758938Y-124875530D01*
X174268377Y-124665034D01*
X174658484Y-124275607D01*
X174704341Y-124165171D01*
X174710600Y-124171430D01*
X174710600Y-126700400D01*
X174768604Y-126992005D01*
X174783969Y-127015000D01*
X174933785Y-127239215D01*
X176605884Y-128911315D01*
X176787123Y-129032415D01*
X176853095Y-129076496D01*
X177144700Y-129134500D01*
X179214200Y-129134500D01*
X179505805Y-129076496D01*
X179753015Y-128911315D01*
X180703136Y-127961195D01*
X180818222Y-128133433D01*
X181353845Y-128491325D01*
X181985655Y-128617000D01*
X182050345Y-128617000D01*
X182682155Y-128491325D01*
X183217778Y-128133433D01*
X183575670Y-127597810D01*
X183701345Y-126966000D01*
X183575670Y-126334190D01*
X183349128Y-125995146D01*
X183491809Y-125899809D01*
X183632157Y-125689765D01*
X183681440Y-125442000D01*
X183681440Y-123410000D01*
X183632157Y-123162235D01*
X183491809Y-122952191D01*
X183281765Y-122811843D01*
X183034000Y-122762560D01*
X181864370Y-122762560D01*
X188525431Y-116101500D01*
X190376400Y-116101500D01*
X190668005Y-116043496D01*
X190915215Y-115878315D01*
X193933312Y-112860218D01*
X193965843Y-113023765D01*
X194106191Y-113233809D01*
X194316235Y-113374157D01*
X194564000Y-113423440D01*
X196596000Y-113423440D01*
X196843765Y-113374157D01*
X197053809Y-113233809D01*
X197149146Y-113091128D01*
X197358000Y-113230680D01*
X197358000Y-115023093D01*
X197036216Y-115022813D01*
X196639311Y-115186811D01*
X196485354Y-115340500D01*
X192150700Y-115340500D01*
X191859095Y-115398504D01*
X191611885Y-115563685D01*
X185512985Y-121662585D01*
X185347804Y-121909795D01*
X185289800Y-122201400D01*
X185289800Y-130554470D01*
X174083185Y-141761085D01*
X173918004Y-142008295D01*
X173860000Y-142299900D01*
X173860000Y-146606500D01*
X173918004Y-146898105D01*
X174045155Y-147088400D01*
X169524812Y-147088400D01*
X169525006Y-146865759D01*
X169238686Y-146172809D01*
X168708979Y-145642178D01*
X168016531Y-145354648D01*
X167266759Y-145353994D01*
X166573809Y-145640314D01*
X166043178Y-146170021D01*
X165755648Y-146862469D01*
X165754994Y-147612241D01*
X166041314Y-148305191D01*
X166571021Y-148835822D01*
X167263469Y-149123352D01*
X168013241Y-149124006D01*
X168706191Y-148837686D01*
X168931870Y-148612400D01*
X183476500Y-148612400D01*
X183768105Y-148554396D01*
X184015315Y-148389215D01*
X185157286Y-147247245D01*
X185481511Y-147463885D01*
X186055000Y-147577959D01*
X186628489Y-147463885D01*
X187114670Y-147139029D01*
X187333184Y-146812000D01*
X187774838Y-146812000D01*
X187801843Y-146947765D01*
X187942191Y-147157809D01*
X188152235Y-147298157D01*
X188400000Y-147347440D01*
X189900000Y-147347440D01*
X190147765Y-147298157D01*
X190357809Y-147157809D01*
X190498157Y-146947765D01*
X190500000Y-146938500D01*
X190501843Y-146947765D01*
X190642191Y-147157809D01*
X190852235Y-147298157D01*
X191100000Y-147347440D01*
X192600000Y-147347440D01*
X192704460Y-147326662D01*
X192836191Y-147523809D01*
X193046235Y-147664157D01*
X193294000Y-147713440D01*
X195326000Y-147713440D01*
X195573765Y-147664157D01*
X195783809Y-147523809D01*
X195924157Y-147313765D01*
X195973440Y-147066000D01*
X195973440Y-145034000D01*
X195924157Y-144786235D01*
X195783809Y-144576191D01*
X195626887Y-144471338D01*
X195716385Y-144374818D01*
X195915975Y-143892944D01*
X195796836Y-143637000D01*
X194437000Y-143637000D01*
X194437000Y-143657000D01*
X194183000Y-143657000D01*
X194183000Y-143637000D01*
X192823164Y-143637000D01*
X192704025Y-143892944D01*
X192903615Y-144374818D01*
X192993113Y-144471338D01*
X192836191Y-144576191D01*
X192704460Y-144773338D01*
X192600000Y-144752560D01*
X191100000Y-144752560D01*
X190852235Y-144801843D01*
X190642191Y-144942191D01*
X190501843Y-145152235D01*
X190500000Y-145161500D01*
X190498157Y-145152235D01*
X190357809Y-144942191D01*
X190147765Y-144801843D01*
X189900000Y-144752560D01*
X188400000Y-144752560D01*
X188152235Y-144801843D01*
X187942191Y-144942191D01*
X187801843Y-145152235D01*
X187774838Y-145288000D01*
X187333184Y-145288000D01*
X187124474Y-144975644D01*
X187278299Y-144911927D01*
X187456927Y-144733298D01*
X187553600Y-144499909D01*
X187553600Y-143795750D01*
X187394850Y-143637000D01*
X186182000Y-143637000D01*
X186182000Y-143657000D01*
X185928000Y-143657000D01*
X185928000Y-143637000D01*
X185908000Y-143637000D01*
X185908000Y-143383000D01*
X185928000Y-143383000D01*
X185928000Y-142170150D01*
X186182000Y-142170150D01*
X186182000Y-143383000D01*
X187394850Y-143383000D01*
X187553600Y-143224250D01*
X187553600Y-143127056D01*
X192704025Y-143127056D01*
X192823164Y-143383000D01*
X194183000Y-143383000D01*
X194183000Y-142022633D01*
X194437000Y-142022633D01*
X194437000Y-143383000D01*
X195796836Y-143383000D01*
X195915975Y-143127056D01*
X195716385Y-142645182D01*
X195278379Y-142172812D01*
X194692946Y-141904017D01*
X194437000Y-142022633D01*
X194183000Y-142022633D01*
X193927054Y-141904017D01*
X193341621Y-142172812D01*
X192903615Y-142645182D01*
X192704025Y-143127056D01*
X187553600Y-143127056D01*
X187553600Y-142520091D01*
X187456927Y-142286702D01*
X187278299Y-142108073D01*
X187044910Y-142011400D01*
X186340750Y-142011400D01*
X186182000Y-142170150D01*
X185928000Y-142170150D01*
X185769250Y-142011400D01*
X185065090Y-142011400D01*
X184831701Y-142108073D01*
X184653073Y-142286702D01*
X184588737Y-142442023D01*
X184574670Y-142420971D01*
X184176565Y-142154965D01*
X195503831Y-130827700D01*
X197318858Y-130827700D01*
X197471114Y-130980222D01*
X197527125Y-131003480D01*
X197290478Y-131239714D01*
X197125787Y-131636332D01*
X197125413Y-132065784D01*
X197289411Y-132462689D01*
X197592814Y-132766622D01*
X197989432Y-132931313D01*
X198206972Y-132931502D01*
X208819961Y-143544492D01*
X208871104Y-143801605D01*
X209036285Y-144048815D01*
X209283495Y-144213996D01*
X209525479Y-144262130D01*
X209730971Y-144569670D01*
X210217152Y-144894526D01*
X210790641Y-145008600D01*
X210849359Y-145008600D01*
X211422848Y-144894526D01*
X211909029Y-144569670D01*
X212089992Y-144298839D01*
X212471510Y-144716821D01*
X213000973Y-144964968D01*
X213233000Y-144844469D01*
X213233000Y-143637000D01*
X213487000Y-143637000D01*
X213487000Y-144844469D01*
X213719027Y-144964968D01*
X214248490Y-144716821D01*
X214642688Y-144284947D01*
X214814958Y-143869026D01*
X214693817Y-143637000D01*
X213487000Y-143637000D01*
X213233000Y-143637000D01*
X213213000Y-143637000D01*
X213213000Y-143383000D01*
X213233000Y-143383000D01*
X213233000Y-143363000D01*
X213487000Y-143363000D01*
X213487000Y-143383000D01*
X214693817Y-143383000D01*
X214814958Y-143150974D01*
X214802440Y-143120750D01*
X216545000Y-143120750D01*
X216545000Y-143711309D01*
X216641673Y-143944698D01*
X216820301Y-144123327D01*
X217053690Y-144220000D01*
X217519250Y-144220000D01*
X217678000Y-144061250D01*
X217678000Y-142962000D01*
X217932000Y-142962000D01*
X217932000Y-144061250D01*
X218090750Y-144220000D01*
X218556310Y-144220000D01*
X218789699Y-144123327D01*
X218968327Y-143944698D01*
X219065000Y-143711309D01*
X219065000Y-143120750D01*
X218906250Y-142962000D01*
X217932000Y-142962000D01*
X217678000Y-142962000D01*
X216703750Y-142962000D01*
X216545000Y-143120750D01*
X214802440Y-143120750D01*
X214753255Y-143002000D01*
X215386600Y-143002000D01*
X215678205Y-142943996D01*
X215925415Y-142778815D01*
X216475831Y-142228400D01*
X216545000Y-142228400D01*
X216545000Y-142549250D01*
X216703750Y-142708000D01*
X217678000Y-142708000D01*
X217678000Y-142688000D01*
X217932000Y-142688000D01*
X217932000Y-142708000D01*
X218906250Y-142708000D01*
X219065000Y-142549250D01*
X219065000Y-142076386D01*
X219171515Y-142005215D01*
X219316560Y-141860170D01*
X219316560Y-141986000D01*
X219365843Y-142233765D01*
X219506191Y-142443809D01*
X219648872Y-142539146D01*
X219422330Y-142878190D01*
X219296655Y-143510000D01*
X219422330Y-144141810D01*
X219780222Y-144677433D01*
X220315845Y-145035325D01*
X220947655Y-145161000D01*
X221012345Y-145161000D01*
X221644155Y-145035325D01*
X222179778Y-144677433D01*
X222294864Y-144505195D01*
X222473485Y-144683816D01*
X222595579Y-144765396D01*
X222720695Y-144848996D01*
X223012300Y-144907000D01*
X223511816Y-144907000D01*
X223717904Y-145215432D01*
X223678635Y-145223243D01*
X223468591Y-145363591D01*
X223328243Y-145573635D01*
X223278960Y-145821400D01*
X223278960Y-147548600D01*
X223328243Y-147796365D01*
X223468591Y-148006409D01*
X223678635Y-148146757D01*
X223926400Y-148196040D01*
X224154048Y-148196040D01*
X224195292Y-148257765D01*
X224251185Y-148341415D01*
X225006585Y-149096815D01*
X225086182Y-149150000D01*
X146762032Y-149150000D01*
X146491125Y-149090514D01*
X146316257Y-148968595D01*
X146199450Y-148786057D01*
X146149902Y-148522962D01*
X146149902Y-146472815D01*
X146864630Y-146472815D01*
X147188980Y-147257800D01*
X147789041Y-147858909D01*
X148573459Y-148184628D01*
X149422815Y-148185370D01*
X150207800Y-147861020D01*
X150808909Y-147260959D01*
X151134628Y-146476541D01*
X151135370Y-145627185D01*
X150922864Y-145112881D01*
X162254874Y-145112881D01*
X162541194Y-145805831D01*
X163070901Y-146336462D01*
X163763349Y-146623992D01*
X164513121Y-146624646D01*
X165206071Y-146338326D01*
X165736702Y-145808619D01*
X166024232Y-145116171D01*
X166024886Y-144366399D01*
X165738566Y-143673449D01*
X165638661Y-143573369D01*
X166486517Y-143573369D01*
X166615725Y-143866139D01*
X167315883Y-144134351D01*
X168065384Y-144114208D01*
X168664275Y-143866139D01*
X168793483Y-143573369D01*
X167640000Y-142419885D01*
X166486517Y-143573369D01*
X165638661Y-143573369D01*
X165208859Y-143142818D01*
X164516411Y-142855288D01*
X163766639Y-142854634D01*
X163073689Y-143140954D01*
X162543058Y-143670661D01*
X162255528Y-144363109D01*
X162254874Y-145112881D01*
X150922864Y-145112881D01*
X150811020Y-144842200D01*
X150210959Y-144241091D01*
X149426541Y-143915372D01*
X148577185Y-143914630D01*
X147792200Y-144238980D01*
X147191091Y-144839041D01*
X146865372Y-145623459D01*
X146864630Y-146472815D01*
X146149902Y-146472815D01*
X146149902Y-141916163D01*
X165745929Y-141916163D01*
X165766072Y-142665664D01*
X166014141Y-143264555D01*
X166306911Y-143393763D01*
X167460395Y-142240280D01*
X167819605Y-142240280D01*
X168973089Y-143393763D01*
X169265859Y-143264555D01*
X169534071Y-142564397D01*
X169513928Y-141814896D01*
X169265859Y-141216005D01*
X168973089Y-141086797D01*
X167819605Y-142240280D01*
X167460395Y-142240280D01*
X166306911Y-141086797D01*
X166014141Y-141216005D01*
X165745929Y-141916163D01*
X146149902Y-141916163D01*
X146149902Y-140907191D01*
X166486517Y-140907191D01*
X167640000Y-142060675D01*
X168793483Y-140907191D01*
X168664275Y-140614421D01*
X167964117Y-140346209D01*
X167214616Y-140366352D01*
X166615725Y-140614421D01*
X166486517Y-140907191D01*
X146149902Y-140907191D01*
X146149902Y-137795000D01*
X146149865Y-137794812D01*
X146149902Y-137794624D01*
X146146036Y-130498694D01*
X148225226Y-130498694D01*
X148473538Y-131099655D01*
X148932927Y-131559846D01*
X149533453Y-131809206D01*
X150183694Y-131809774D01*
X150784655Y-131561462D01*
X151244846Y-131102073D01*
X151447691Y-130613568D01*
X151648538Y-131099655D01*
X152107927Y-131559846D01*
X152708453Y-131809206D01*
X153358694Y-131809774D01*
X153959655Y-131561462D01*
X154419846Y-131102073D01*
X154669206Y-130501547D01*
X154669774Y-129851306D01*
X154653903Y-129812894D01*
X160849026Y-129812894D01*
X161097338Y-130413855D01*
X161556727Y-130874046D01*
X162157253Y-131123406D01*
X162807494Y-131123974D01*
X163408455Y-130875662D01*
X163868646Y-130416273D01*
X164118006Y-129815747D01*
X164118008Y-129812894D01*
X167351426Y-129812894D01*
X167599738Y-130413855D01*
X168059127Y-130874046D01*
X168659653Y-131123406D01*
X169309894Y-131123974D01*
X169910855Y-130875662D01*
X170371046Y-130416273D01*
X170620406Y-129815747D01*
X170620974Y-129165506D01*
X170372662Y-128564545D01*
X169913273Y-128104354D01*
X169312747Y-127854994D01*
X168662506Y-127854426D01*
X168061545Y-128102738D01*
X167601354Y-128562127D01*
X167351994Y-129162653D01*
X167351426Y-129812894D01*
X164118008Y-129812894D01*
X164118574Y-129165506D01*
X163870262Y-128564545D01*
X163410873Y-128104354D01*
X162810347Y-127854994D01*
X162160106Y-127854426D01*
X161559145Y-128102738D01*
X161098954Y-128562127D01*
X160849594Y-129162653D01*
X160849026Y-129812894D01*
X154653903Y-129812894D01*
X154421462Y-129250345D01*
X153962073Y-128790154D01*
X153361547Y-128540794D01*
X152711306Y-128540226D01*
X152110345Y-128788538D01*
X151650154Y-129247927D01*
X151447309Y-129736432D01*
X151246462Y-129250345D01*
X150787073Y-128790154D01*
X150186547Y-128540794D01*
X149536306Y-128540226D01*
X148935345Y-128788538D01*
X148475154Y-129247927D01*
X148225794Y-129848453D01*
X148225226Y-130498694D01*
X146146036Y-130498694D01*
X146143781Y-126242083D01*
X161511243Y-126242083D01*
X161609842Y-126508885D01*
X162219382Y-126735321D01*
X162869177Y-126711261D01*
X163357758Y-126508885D01*
X163456357Y-126242083D01*
X162483800Y-125269525D01*
X161511243Y-126242083D01*
X146143781Y-126242083D01*
X146142468Y-123764118D01*
X156599650Y-123764118D01*
X156810146Y-124273557D01*
X157199573Y-124663664D01*
X157708644Y-124875049D01*
X158259858Y-124875530D01*
X158380934Y-124825502D01*
X160838399Y-124825502D01*
X160862459Y-125475297D01*
X161064835Y-125963878D01*
X161331637Y-126062477D01*
X162304195Y-125089920D01*
X162663405Y-125089920D01*
X163635963Y-126062477D01*
X163902765Y-125963878D01*
X164107180Y-125413614D01*
X167351426Y-125413614D01*
X167599738Y-126014575D01*
X168059127Y-126474766D01*
X168659653Y-126724126D01*
X169309894Y-126724694D01*
X169910855Y-126476382D01*
X170371046Y-126016993D01*
X170620406Y-125416467D01*
X170620974Y-124766226D01*
X170372662Y-124165265D01*
X169913273Y-123705074D01*
X169312747Y-123455714D01*
X168662506Y-123455146D01*
X168061545Y-123703458D01*
X167601354Y-124162847D01*
X167351994Y-124763373D01*
X167351426Y-125413614D01*
X164107180Y-125413614D01*
X164129201Y-125354338D01*
X164105141Y-124704543D01*
X163902765Y-124215962D01*
X163635963Y-124117363D01*
X162663405Y-125089920D01*
X162304195Y-125089920D01*
X161331637Y-124117363D01*
X161064835Y-124215962D01*
X160838399Y-124825502D01*
X158380934Y-124825502D01*
X158769297Y-124665034D01*
X159159404Y-124275607D01*
X159299691Y-123937757D01*
X161511243Y-123937757D01*
X162483800Y-124910315D01*
X163456357Y-123937757D01*
X163357758Y-123670955D01*
X162748218Y-123444519D01*
X162098423Y-123468579D01*
X161609842Y-123670955D01*
X161511243Y-123937757D01*
X159299691Y-123937757D01*
X159370789Y-123766536D01*
X159371270Y-123215322D01*
X159160774Y-122705883D01*
X158771347Y-122315776D01*
X158262276Y-122104391D01*
X157711062Y-122103910D01*
X157201623Y-122314406D01*
X156811516Y-122703833D01*
X156600131Y-123212904D01*
X156599650Y-123764118D01*
X146142468Y-123764118D01*
X146135910Y-111389016D01*
X147870590Y-111389016D01*
X147926271Y-111619611D01*
X148409078Y-111787622D01*
X148919428Y-111758083D01*
X149253729Y-111619611D01*
X149309410Y-111389016D01*
X148590000Y-110669605D01*
X147870590Y-111389016D01*
X146135910Y-111389016D01*
X146135337Y-110309078D01*
X147292378Y-110309078D01*
X147321917Y-110819428D01*
X147460389Y-111153729D01*
X147690984Y-111209410D01*
X148410395Y-110490000D01*
X148769605Y-110490000D01*
X149489016Y-111209410D01*
X149719611Y-111153729D01*
X149792560Y-110944098D01*
X149792560Y-111140000D01*
X149841843Y-111387765D01*
X149982191Y-111597809D01*
X150192235Y-111738157D01*
X150440000Y-111787440D01*
X151740000Y-111787440D01*
X151987765Y-111738157D01*
X152197809Y-111597809D01*
X152338157Y-111387765D01*
X152387440Y-111140000D01*
X152387440Y-109840000D01*
X152338157Y-109592235D01*
X152197809Y-109382191D01*
X151987765Y-109241843D01*
X151740000Y-109192560D01*
X150440000Y-109192560D01*
X150192235Y-109241843D01*
X149982191Y-109382191D01*
X149841843Y-109592235D01*
X149792560Y-109840000D01*
X149792560Y-110002385D01*
X149719611Y-109826271D01*
X149489016Y-109770590D01*
X148769605Y-110490000D01*
X148410395Y-110490000D01*
X147690984Y-109770590D01*
X147460389Y-109826271D01*
X147292378Y-110309078D01*
X146135337Y-110309078D01*
X146134957Y-109590984D01*
X147870590Y-109590984D01*
X148590000Y-110310395D01*
X149309410Y-109590984D01*
X149253729Y-109360389D01*
X148770922Y-109192378D01*
X148260572Y-109221917D01*
X147926271Y-109360389D01*
X147870590Y-109590984D01*
X146134957Y-109590984D01*
X146132344Y-104660000D01*
X148587560Y-104660000D01*
X148587560Y-106160000D01*
X148636843Y-106407765D01*
X148777191Y-106617809D01*
X148987235Y-106758157D01*
X149235000Y-106807440D01*
X150485000Y-106807440D01*
X150732765Y-106758157D01*
X150942809Y-106617809D01*
X151083157Y-106407765D01*
X151130053Y-106172000D01*
X152571668Y-106172000D01*
X152574951Y-106176914D01*
X152926814Y-106412021D01*
X153341865Y-106494580D01*
X153998135Y-106494580D01*
X154413186Y-106412021D01*
X154765049Y-106176914D01*
X155000156Y-105825051D01*
X155082715Y-105410000D01*
X155000156Y-104994949D01*
X154850359Y-104770762D01*
X155014981Y-104433935D01*
X154888068Y-104267000D01*
X153797000Y-104267000D01*
X153797000Y-104287000D01*
X153543000Y-104287000D01*
X153543000Y-104267000D01*
X152451932Y-104267000D01*
X152325019Y-104433935D01*
X152429642Y-104648000D01*
X151130053Y-104648000D01*
X151083157Y-104412235D01*
X150942809Y-104202191D01*
X150881680Y-104161346D01*
X151023327Y-104019698D01*
X151120000Y-103786309D01*
X151120000Y-103195750D01*
X150961250Y-103037000D01*
X149987000Y-103037000D01*
X149987000Y-103057000D01*
X149733000Y-103057000D01*
X149733000Y-103037000D01*
X148758750Y-103037000D01*
X148600000Y-103195750D01*
X148600000Y-103786309D01*
X148696673Y-104019698D01*
X148838320Y-104161346D01*
X148777191Y-104202191D01*
X148636843Y-104412235D01*
X148587560Y-104660000D01*
X146132344Y-104660000D01*
X146131396Y-102870000D01*
X152257285Y-102870000D01*
X152339844Y-103285051D01*
X152489641Y-103509238D01*
X152325019Y-103846065D01*
X152451932Y-104013000D01*
X153543000Y-104013000D01*
X153543000Y-103993000D01*
X153797000Y-103993000D01*
X153797000Y-104013000D01*
X154888068Y-104013000D01*
X155014981Y-103846065D01*
X154850359Y-103509238D01*
X155000156Y-103285051D01*
X155082715Y-102870000D01*
X155000156Y-102454949D01*
X154765049Y-102103086D01*
X154413186Y-101867979D01*
X153998135Y-101785420D01*
X153341865Y-101785420D01*
X152926814Y-101867979D01*
X152574951Y-102103086D01*
X152339844Y-102454949D01*
X152257285Y-102870000D01*
X146131396Y-102870000D01*
X146130952Y-102033691D01*
X148600000Y-102033691D01*
X148600000Y-102624250D01*
X148758750Y-102783000D01*
X149733000Y-102783000D01*
X149733000Y-101683750D01*
X149987000Y-101683750D01*
X149987000Y-102783000D01*
X150961250Y-102783000D01*
X151120000Y-102624250D01*
X151120000Y-102033691D01*
X151023327Y-101800302D01*
X150844699Y-101621673D01*
X150611310Y-101525000D01*
X150145750Y-101525000D01*
X149987000Y-101683750D01*
X149733000Y-101683750D01*
X149574250Y-101525000D01*
X149108690Y-101525000D01*
X148875301Y-101621673D01*
X148696673Y-101800302D01*
X148600000Y-102033691D01*
X146130952Y-102033691D01*
X146127660Y-95821320D01*
X153826285Y-95821320D01*
X153955533Y-96114123D01*
X154655806Y-96382388D01*
X155405435Y-96362250D01*
X156004467Y-96114123D01*
X156133715Y-95821320D01*
X154980000Y-94667605D01*
X153826285Y-95821320D01*
X146127660Y-95821320D01*
X146126388Y-93422815D01*
X146864630Y-93422815D01*
X147188980Y-94207800D01*
X147789041Y-94808909D01*
X148573459Y-95134628D01*
X149422815Y-95135370D01*
X150207800Y-94811020D01*
X150808909Y-94210959D01*
X150828488Y-94163806D01*
X153085612Y-94163806D01*
X153105750Y-94913435D01*
X153353877Y-95512467D01*
X153646680Y-95641715D01*
X154800395Y-94488000D01*
X155159605Y-94488000D01*
X156313320Y-95641715D01*
X156606123Y-95512467D01*
X156874388Y-94812194D01*
X156854250Y-94062565D01*
X156606123Y-93463533D01*
X156313320Y-93334285D01*
X155159605Y-94488000D01*
X154800395Y-94488000D01*
X153646680Y-93334285D01*
X153353877Y-93463533D01*
X153085612Y-94163806D01*
X150828488Y-94163806D01*
X151134628Y-93426541D01*
X151134865Y-93154680D01*
X153826285Y-93154680D01*
X154980000Y-94308395D01*
X156133715Y-93154680D01*
X156004467Y-92861877D01*
X155304194Y-92593612D01*
X154554565Y-92613750D01*
X153955533Y-92861877D01*
X153826285Y-93154680D01*
X151134865Y-93154680D01*
X151135370Y-92577185D01*
X150811020Y-91792200D01*
X150210959Y-91191091D01*
X149426541Y-90865372D01*
X148577185Y-90864630D01*
X147792200Y-91188980D01*
X147191091Y-91789041D01*
X146865372Y-92573459D01*
X146864630Y-93422815D01*
X146126388Y-93422815D01*
X146125037Y-90874744D01*
X146180478Y-90596021D01*
X146298856Y-90418855D01*
X146476019Y-90300479D01*
X146754931Y-90245000D01*
X165897163Y-90245000D01*
X165643057Y-90349995D01*
G36*
X243413979Y-90300478D02*
X243591145Y-90418856D01*
X243709521Y-90596019D01*
X243765000Y-90874931D01*
X243765000Y-148520069D01*
X243709521Y-148798981D01*
X243591145Y-148976144D01*
X243413979Y-149094522D01*
X243135070Y-149150000D01*
X229716218Y-149150000D01*
X229795815Y-149096815D01*
X230101329Y-148791301D01*
X230267235Y-148902157D01*
X230515000Y-148951440D01*
X231765000Y-148951440D01*
X232012765Y-148902157D01*
X232222809Y-148761809D01*
X232363157Y-148551765D01*
X232410053Y-148316000D01*
X232430755Y-148316000D01*
X232532191Y-148467809D01*
X232742235Y-148608157D01*
X232990000Y-148657440D01*
X234290000Y-148657440D01*
X234537765Y-148608157D01*
X234747809Y-148467809D01*
X234888157Y-148257765D01*
X234937440Y-148010000D01*
X234937440Y-147648190D01*
X235742815Y-146842815D01*
X235776768Y-146792001D01*
X235907996Y-146595605D01*
X235942366Y-146422815D01*
X238864630Y-146422815D01*
X239188980Y-147207800D01*
X239789041Y-147808909D01*
X240573459Y-148134628D01*
X241422815Y-148135370D01*
X242207800Y-147811020D01*
X242808909Y-147210959D01*
X243134628Y-146426541D01*
X243135370Y-145577185D01*
X242811020Y-144792200D01*
X242210959Y-144191091D01*
X241426541Y-143865372D01*
X240577185Y-143864630D01*
X239792200Y-144188980D01*
X239191091Y-144789041D01*
X238865372Y-145573459D01*
X238864630Y-146422815D01*
X235942366Y-146422815D01*
X235966000Y-146304000D01*
X235966000Y-145207630D01*
X236250815Y-144922816D01*
X236415996Y-144675605D01*
X236431228Y-144599029D01*
X236474000Y-144384000D01*
X236474000Y-138634216D01*
X236683435Y-138774157D01*
X236931200Y-138823440D01*
X240588800Y-138823440D01*
X240836565Y-138774157D01*
X241046609Y-138633809D01*
X241186957Y-138423765D01*
X241236240Y-138176000D01*
X241236240Y-136144000D01*
X241186957Y-135896235D01*
X241046609Y-135686191D01*
X240836565Y-135545843D01*
X240588800Y-135496560D01*
X236931200Y-135496560D01*
X236683435Y-135545843D01*
X236474000Y-135685784D01*
X236474000Y-135189630D01*
X239298815Y-132364815D01*
X239302700Y-132359000D01*
X239415564Y-132190088D01*
X239515765Y-132170157D01*
X239725809Y-132029809D01*
X239866157Y-131819765D01*
X239903000Y-131634541D01*
X239939843Y-131819765D01*
X240080191Y-132029809D01*
X240290235Y-132170157D01*
X240538000Y-132219440D01*
X241554000Y-132219440D01*
X241801765Y-132170157D01*
X242011809Y-132029809D01*
X242152157Y-131819765D01*
X242201440Y-131572000D01*
X242201440Y-129540000D01*
X242152157Y-129292235D01*
X242011809Y-129082191D01*
X241801765Y-128941843D01*
X241763344Y-128934201D01*
X241749996Y-128867095D01*
X241584815Y-128619885D01*
X241337605Y-128454704D01*
X241046000Y-128396700D01*
X240043030Y-128396700D01*
X239140636Y-127494306D01*
X239172809Y-127472809D01*
X239313157Y-127262765D01*
X239315000Y-127253500D01*
X239316843Y-127262765D01*
X239457191Y-127472809D01*
X239667235Y-127613157D01*
X239915000Y-127662440D01*
X241415000Y-127662440D01*
X241662765Y-127613157D01*
X241872809Y-127472809D01*
X242013157Y-127262765D01*
X242062440Y-127015000D01*
X242062440Y-125715000D01*
X242013157Y-125467235D01*
X241872809Y-125257191D01*
X241676181Y-125125807D01*
X242050278Y-124752363D01*
X242299716Y-124151648D01*
X242300284Y-123501205D01*
X242051894Y-122900057D01*
X241989749Y-122837803D01*
X242024698Y-122823327D01*
X242203327Y-122644699D01*
X242300000Y-122411310D01*
X242300000Y-121570750D01*
X242141250Y-121412000D01*
X240792000Y-121412000D01*
X240792000Y-121432000D01*
X240538000Y-121432000D01*
X240538000Y-121412000D01*
X239188750Y-121412000D01*
X239030000Y-121570750D01*
X239030000Y-122411310D01*
X239126673Y-122644699D01*
X239305302Y-122823327D01*
X239339834Y-122837630D01*
X239279722Y-122897637D01*
X239030284Y-123498352D01*
X239029716Y-124148795D01*
X239278106Y-124749943D01*
X239653516Y-125126010D01*
X239457191Y-125257191D01*
X239316843Y-125467235D01*
X239315000Y-125476500D01*
X239313157Y-125467235D01*
X239172809Y-125257191D01*
X238962765Y-125116843D01*
X238727000Y-125069947D01*
X238727000Y-120158690D01*
X239030000Y-120158690D01*
X239030000Y-120999250D01*
X239188750Y-121158000D01*
X240538000Y-121158000D01*
X240538000Y-119808750D01*
X240792000Y-119808750D01*
X240792000Y-121158000D01*
X242141250Y-121158000D01*
X242300000Y-120999250D01*
X242300000Y-120158690D01*
X242203327Y-119925301D01*
X242024698Y-119746673D01*
X241791309Y-119650000D01*
X240950750Y-119650000D01*
X240792000Y-119808750D01*
X240538000Y-119808750D01*
X240379250Y-119650000D01*
X239538691Y-119650000D01*
X239305302Y-119746673D01*
X239126673Y-119925301D01*
X239030000Y-120158690D01*
X238727000Y-120158690D01*
X238727000Y-118399500D01*
X238668996Y-118107895D01*
X238608313Y-118017077D01*
X238503815Y-117860684D01*
X235472798Y-114829668D01*
X235540266Y-114667187D01*
X235540834Y-114016946D01*
X235292522Y-113415985D01*
X234833133Y-112955794D01*
X234533327Y-112831304D01*
X235491741Y-111872890D01*
X239187950Y-111872890D01*
X239187950Y-112613880D01*
X239284623Y-112847269D01*
X239463252Y-113025897D01*
X239696641Y-113122570D01*
X239937250Y-113122570D01*
X240096000Y-112963820D01*
X240096000Y-111714140D01*
X239346700Y-111714140D01*
X239187950Y-111872890D01*
X235491741Y-111872890D01*
X236297331Y-111067300D01*
X239187950Y-111067300D01*
X239187950Y-111301390D01*
X239346700Y-111460140D01*
X240096000Y-111460140D01*
X240096000Y-111440140D01*
X240350000Y-111440140D01*
X240350000Y-111460140D01*
X240370000Y-111460140D01*
X240370000Y-111714140D01*
X240350000Y-111714140D01*
X240350000Y-112963820D01*
X240508750Y-113122570D01*
X240749359Y-113122570D01*
X240982748Y-113025897D01*
X241161377Y-112847269D01*
X241175999Y-112811969D01*
X241265141Y-112945379D01*
X241475185Y-113085727D01*
X241722950Y-113135010D01*
X242523050Y-113135010D01*
X242770815Y-113085727D01*
X242980859Y-112945379D01*
X243121207Y-112735335D01*
X243170490Y-112487570D01*
X243170490Y-110686710D01*
X243121207Y-110438945D01*
X242980859Y-110228901D01*
X242770815Y-110088553D01*
X242523050Y-110039270D01*
X241886930Y-110039270D01*
X242030859Y-109943099D01*
X242171207Y-109733055D01*
X242220490Y-109485290D01*
X242220490Y-107684430D01*
X242171207Y-107436665D01*
X242047128Y-107250968D01*
X242062000Y-107176200D01*
X242062000Y-105930440D01*
X242316000Y-105930440D01*
X242563765Y-105881157D01*
X242773809Y-105740809D01*
X242914157Y-105530765D01*
X242963440Y-105283000D01*
X242963440Y-103251000D01*
X242914157Y-103003235D01*
X242773809Y-102793191D01*
X242563765Y-102652843D01*
X242316000Y-102603560D01*
X240284000Y-102603560D01*
X240036235Y-102652843D01*
X239826191Y-102793191D01*
X239730854Y-102935872D01*
X239391810Y-102709330D01*
X238760000Y-102583655D01*
X238128190Y-102709330D01*
X237592567Y-103067222D01*
X237234675Y-103602845D01*
X237109000Y-104234655D01*
X237109000Y-104299345D01*
X237234675Y-104931155D01*
X237592567Y-105466778D01*
X238128190Y-105824670D01*
X238760000Y-105950345D01*
X239391810Y-105824670D01*
X239730854Y-105598128D01*
X239826191Y-105740809D01*
X240036235Y-105881157D01*
X240284000Y-105930440D01*
X240538000Y-105930440D01*
X240538000Y-106908336D01*
X240469004Y-107011595D01*
X240443261Y-107141013D01*
X240315141Y-107226621D01*
X240174793Y-107436665D01*
X240125510Y-107684430D01*
X240125510Y-109485290D01*
X240137049Y-109543300D01*
X235981700Y-109543300D01*
X235690095Y-109601304D01*
X235442884Y-109766485D01*
X226791185Y-118418185D01*
X226626004Y-118665395D01*
X226568000Y-118957000D01*
X226568000Y-120624947D01*
X226432191Y-120651961D01*
X226092415Y-120312185D01*
X225987506Y-120242087D01*
X225845205Y-120147004D01*
X225553600Y-120089000D01*
X222097600Y-120089000D01*
X221831157Y-120141999D01*
X221805995Y-120147004D01*
X221558785Y-120312185D01*
X218359200Y-123511770D01*
X218359200Y-121732130D01*
X229626652Y-110464678D01*
X230518730Y-110464678D01*
X230729226Y-110974117D01*
X231118653Y-111364224D01*
X231627724Y-111575609D01*
X232178938Y-111576090D01*
X232688377Y-111365594D01*
X233078484Y-110976167D01*
X233289869Y-110467096D01*
X233290350Y-109915882D01*
X233079854Y-109406443D01*
X232690427Y-109016336D01*
X232181356Y-108804951D01*
X231630142Y-108804470D01*
X231120703Y-109014966D01*
X230730596Y-109404393D01*
X230519211Y-109913464D01*
X230518730Y-110464678D01*
X229626652Y-110464678D01*
X237686515Y-102404816D01*
X237851696Y-102157605D01*
X237857606Y-102127894D01*
X237909700Y-101866000D01*
X237909700Y-96059500D01*
X237851696Y-95767895D01*
X237765955Y-95639575D01*
X237686516Y-95520685D01*
X237055108Y-94889278D01*
X237295737Y-94529151D01*
X237404970Y-93980000D01*
X237295737Y-93430849D01*
X237290369Y-93422815D01*
X238864630Y-93422815D01*
X239188980Y-94207800D01*
X239789041Y-94808909D01*
X240573459Y-95134628D01*
X241422815Y-95135370D01*
X242207800Y-94811020D01*
X242808909Y-94210959D01*
X243134628Y-93426541D01*
X243135370Y-92577185D01*
X242811020Y-91792200D01*
X242210959Y-91191091D01*
X241426541Y-90865372D01*
X240577185Y-90864630D01*
X239792200Y-91188980D01*
X239191091Y-91789041D01*
X238865372Y-92573459D01*
X238864630Y-93422815D01*
X237290369Y-93422815D01*
X236984668Y-92965302D01*
X236519121Y-92654233D01*
X235969970Y-92545000D01*
X235200030Y-92545000D01*
X234650879Y-92654233D01*
X234185332Y-92965302D01*
X233874263Y-93430849D01*
X233765030Y-93980000D01*
X233874263Y-94529151D01*
X234185332Y-94994698D01*
X234567418Y-95250000D01*
X234185332Y-95505302D01*
X233874263Y-95970849D01*
X233765030Y-96520000D01*
X233874263Y-97069151D01*
X234185332Y-97534698D01*
X234563151Y-97787149D01*
X234130500Y-98135104D01*
X233860633Y-98628181D01*
X233843096Y-98710961D01*
X233965085Y-98933000D01*
X235458000Y-98933000D01*
X235458000Y-98913000D01*
X235712000Y-98913000D01*
X235712000Y-98933000D01*
X235732000Y-98933000D01*
X235732000Y-99187000D01*
X235712000Y-99187000D01*
X235712000Y-100495000D01*
X236062000Y-100495000D01*
X236385700Y-100400297D01*
X236385700Y-101550369D01*
X224917000Y-113019070D01*
X224917000Y-108542610D01*
X225079655Y-108475402D01*
X225314362Y-108241103D01*
X225681803Y-108241103D01*
X225780402Y-108507905D01*
X226389942Y-108734341D01*
X227039737Y-108710281D01*
X227528318Y-108507905D01*
X227626917Y-108241103D01*
X226654360Y-107268545D01*
X225681803Y-108241103D01*
X225314362Y-108241103D01*
X225496421Y-108059362D01*
X225502197Y-108061497D01*
X226474755Y-107088940D01*
X226833965Y-107088940D01*
X227806523Y-108061497D01*
X228073325Y-107962898D01*
X228299761Y-107353358D01*
X228275701Y-106703563D01*
X228073325Y-106214982D01*
X227806523Y-106116383D01*
X226833965Y-107088940D01*
X226474755Y-107088940D01*
X225502197Y-106116383D01*
X225495949Y-106118692D01*
X225314351Y-105936777D01*
X225681803Y-105936777D01*
X226654360Y-106909335D01*
X227626917Y-105936777D01*
X227528318Y-105669975D01*
X226918778Y-105443539D01*
X226268983Y-105467599D01*
X225780402Y-105669975D01*
X225681803Y-105936777D01*
X225314351Y-105936777D01*
X225082073Y-105704094D01*
X224481547Y-105454734D01*
X223831306Y-105454166D01*
X223230345Y-105702478D01*
X222905156Y-106027100D01*
X222582713Y-105704094D01*
X221982187Y-105454734D01*
X221331946Y-105454166D01*
X220730985Y-105702478D01*
X220270794Y-106161867D01*
X220021434Y-106762393D01*
X220020866Y-107412634D01*
X220269178Y-108013595D01*
X220728567Y-108473786D01*
X221329093Y-108723146D01*
X221979334Y-108723714D01*
X222580295Y-108475402D01*
X222905484Y-108150780D01*
X223227927Y-108473786D01*
X223393000Y-108542330D01*
X223393000Y-113537469D01*
X219202000Y-117728469D01*
X219202000Y-104800053D01*
X219437765Y-104753157D01*
X219647809Y-104612809D01*
X219788157Y-104402765D01*
X219837440Y-104155000D01*
X219837440Y-102855000D01*
X219788157Y-102607235D01*
X219647809Y-102397191D01*
X219437765Y-102256843D01*
X219190000Y-102207560D01*
X217690000Y-102207560D01*
X217633400Y-102218818D01*
X217633400Y-96520000D01*
X218026655Y-96520000D01*
X218152330Y-97151810D01*
X218510222Y-97687433D01*
X219045845Y-98045325D01*
X219677655Y-98171000D01*
X219742345Y-98171000D01*
X220374155Y-98045325D01*
X220909778Y-97687433D01*
X221267670Y-97151810D01*
X221393345Y-96520000D01*
X221267670Y-95888190D01*
X221041128Y-95549146D01*
X221183809Y-95453809D01*
X221324157Y-95243765D01*
X221373440Y-94996000D01*
X221373440Y-94742000D01*
X221514811Y-94742000D01*
X221536843Y-94852765D01*
X221677191Y-95062809D01*
X221887235Y-95203157D01*
X222135000Y-95252440D01*
X223635000Y-95252440D01*
X223882765Y-95203157D01*
X224092809Y-95062809D01*
X224135000Y-94999666D01*
X224177191Y-95062809D01*
X224387235Y-95203157D01*
X224635000Y-95252440D01*
X226135000Y-95252440D01*
X226382765Y-95203157D01*
X226592809Y-95062809D01*
X226615791Y-95028414D01*
X226947418Y-95250000D01*
X226565332Y-95505302D01*
X226254263Y-95970849D01*
X226145030Y-96520000D01*
X226254263Y-97069151D01*
X226565332Y-97534698D01*
X226947418Y-97790000D01*
X226565332Y-98045302D01*
X226254263Y-98510849D01*
X226145030Y-99060000D01*
X226254263Y-99609151D01*
X226565332Y-100074698D01*
X227030879Y-100385767D01*
X227580030Y-100495000D01*
X228349970Y-100495000D01*
X228899121Y-100385767D01*
X229364668Y-100074698D01*
X229675737Y-99609151D01*
X229715541Y-99409039D01*
X233843096Y-99409039D01*
X233860633Y-99491819D01*
X234130500Y-99984896D01*
X234568517Y-100337166D01*
X235108000Y-100495000D01*
X235458000Y-100495000D01*
X235458000Y-99187000D01*
X233965085Y-99187000D01*
X233843096Y-99409039D01*
X229715541Y-99409039D01*
X229784970Y-99060000D01*
X229675737Y-98510849D01*
X229364668Y-98045302D01*
X228982582Y-97790000D01*
X229364668Y-97534698D01*
X229675737Y-97069151D01*
X229784970Y-96520000D01*
X229675737Y-95970849D01*
X229364668Y-95505302D01*
X228982582Y-95250000D01*
X229364668Y-94994698D01*
X229675737Y-94529151D01*
X229784970Y-93980000D01*
X229675737Y-93430849D01*
X229364668Y-92965302D01*
X228899121Y-92654233D01*
X228349970Y-92545000D01*
X227580030Y-92545000D01*
X227030879Y-92654233D01*
X226615791Y-92931586D01*
X226592809Y-92897191D01*
X226382765Y-92756843D01*
X226135000Y-92707560D01*
X224635000Y-92707560D01*
X224387235Y-92756843D01*
X224177191Y-92897191D01*
X224135000Y-92960334D01*
X224092809Y-92897191D01*
X223882765Y-92756843D01*
X223635000Y-92707560D01*
X222135000Y-92707560D01*
X221887235Y-92756843D01*
X221677191Y-92897191D01*
X221536843Y-93107235D01*
X221514811Y-93218000D01*
X221373440Y-93218000D01*
X221373440Y-92964000D01*
X221324157Y-92716235D01*
X221183809Y-92506191D01*
X220973765Y-92365843D01*
X220726000Y-92316560D01*
X218694000Y-92316560D01*
X218446235Y-92365843D01*
X218236191Y-92506191D01*
X218095843Y-92716235D01*
X218046560Y-92964000D01*
X218046560Y-94996000D01*
X218095843Y-95243765D01*
X218236191Y-95453809D01*
X218378872Y-95549146D01*
X218152330Y-95888190D01*
X218026655Y-96520000D01*
X217633400Y-96520000D01*
X217633400Y-94715100D01*
X217575396Y-94423495D01*
X217484393Y-94287300D01*
X217410216Y-94176285D01*
X217390115Y-94156185D01*
X217351212Y-94130191D01*
X217142905Y-93991004D01*
X217117440Y-93985939D01*
X217117440Y-93945000D01*
X217068157Y-93697235D01*
X216927809Y-93487191D01*
X216717765Y-93346843D01*
X216708500Y-93345000D01*
X216717765Y-93343157D01*
X216927809Y-93202809D01*
X217068157Y-92992765D01*
X217117440Y-92745000D01*
X217117440Y-91245000D01*
X217068157Y-90997235D01*
X216927809Y-90787191D01*
X216717765Y-90646843D01*
X216470000Y-90597560D01*
X215170000Y-90597560D01*
X214922235Y-90646843D01*
X214712191Y-90787191D01*
X214571843Y-90997235D01*
X214522560Y-91245000D01*
X214522560Y-91383291D01*
X214508195Y-91373693D01*
X214260430Y-91324410D01*
X212459570Y-91324410D01*
X212211805Y-91373693D01*
X212001761Y-91514041D01*
X211861413Y-91724085D01*
X211812130Y-91971850D01*
X211812130Y-92607970D01*
X211715959Y-92464041D01*
X211505915Y-92323693D01*
X211258150Y-92274410D01*
X209457290Y-92274410D01*
X209209525Y-92323693D01*
X208999481Y-92464041D01*
X208910440Y-92597299D01*
X208910440Y-92036900D01*
X208861157Y-91789135D01*
X208720809Y-91579091D01*
X208510765Y-91438743D01*
X208429352Y-91422549D01*
X208376827Y-91158491D01*
X208319549Y-91072769D01*
X208319587Y-91029416D01*
X208155589Y-90632511D01*
X207852186Y-90328578D01*
X207650909Y-90245000D01*
X243135070Y-90245000D01*
X243413979Y-90300478D01*
X243413979Y-90300478D01*
G37*
X243413979Y-90300478D02*
X243591145Y-90418856D01*
X243709521Y-90596019D01*
X243765000Y-90874931D01*
X243765000Y-148520069D01*
X243709521Y-148798981D01*
X243591145Y-148976144D01*
X243413979Y-149094522D01*
X243135070Y-149150000D01*
X229716218Y-149150000D01*
X229795815Y-149096815D01*
X230101329Y-148791301D01*
X230267235Y-148902157D01*
X230515000Y-148951440D01*
X231765000Y-148951440D01*
X232012765Y-148902157D01*
X232222809Y-148761809D01*
X232363157Y-148551765D01*
X232410053Y-148316000D01*
X232430755Y-148316000D01*
X232532191Y-148467809D01*
X232742235Y-148608157D01*
X232990000Y-148657440D01*
X234290000Y-148657440D01*
X234537765Y-148608157D01*
X234747809Y-148467809D01*
X234888157Y-148257765D01*
X234937440Y-148010000D01*
X234937440Y-147648190D01*
X235742815Y-146842815D01*
X235776768Y-146792001D01*
X235907996Y-146595605D01*
X235942366Y-146422815D01*
X238864630Y-146422815D01*
X239188980Y-147207800D01*
X239789041Y-147808909D01*
X240573459Y-148134628D01*
X241422815Y-148135370D01*
X242207800Y-147811020D01*
X242808909Y-147210959D01*
X243134628Y-146426541D01*
X243135370Y-145577185D01*
X242811020Y-144792200D01*
X242210959Y-144191091D01*
X241426541Y-143865372D01*
X240577185Y-143864630D01*
X239792200Y-144188980D01*
X239191091Y-144789041D01*
X238865372Y-145573459D01*
X238864630Y-146422815D01*
X235942366Y-146422815D01*
X235966000Y-146304000D01*
X235966000Y-145207630D01*
X236250815Y-144922816D01*
X236415996Y-144675605D01*
X236431228Y-144599029D01*
X236474000Y-144384000D01*
X236474000Y-138634216D01*
X236683435Y-138774157D01*
X236931200Y-138823440D01*
X240588800Y-138823440D01*
X240836565Y-138774157D01*
X241046609Y-138633809D01*
X241186957Y-138423765D01*
X241236240Y-138176000D01*
X241236240Y-136144000D01*
X241186957Y-135896235D01*
X241046609Y-135686191D01*
X240836565Y-135545843D01*
X240588800Y-135496560D01*
X236931200Y-135496560D01*
X236683435Y-135545843D01*
X236474000Y-135685784D01*
X236474000Y-135189630D01*
X239298815Y-132364815D01*
X239302700Y-132359000D01*
X239415564Y-132190088D01*
X239515765Y-132170157D01*
X239725809Y-132029809D01*
X239866157Y-131819765D01*
X239903000Y-131634541D01*
X239939843Y-131819765D01*
X240080191Y-132029809D01*
X240290235Y-132170157D01*
X240538000Y-132219440D01*
X241554000Y-132219440D01*
X241801765Y-132170157D01*
X242011809Y-132029809D01*
X242152157Y-131819765D01*
X242201440Y-131572000D01*
X242201440Y-129540000D01*
X242152157Y-129292235D01*
X242011809Y-129082191D01*
X241801765Y-128941843D01*
X241763344Y-128934201D01*
X241749996Y-128867095D01*
X241584815Y-128619885D01*
X241337605Y-128454704D01*
X241046000Y-128396700D01*
X240043030Y-128396700D01*
X239140636Y-127494306D01*
X239172809Y-127472809D01*
X239313157Y-127262765D01*
X239315000Y-127253500D01*
X239316843Y-127262765D01*
X239457191Y-127472809D01*
X239667235Y-127613157D01*
X239915000Y-127662440D01*
X241415000Y-127662440D01*
X241662765Y-127613157D01*
X241872809Y-127472809D01*
X242013157Y-127262765D01*
X242062440Y-127015000D01*
X242062440Y-125715000D01*
X242013157Y-125467235D01*
X241872809Y-125257191D01*
X241676181Y-125125807D01*
X242050278Y-124752363D01*
X242299716Y-124151648D01*
X242300284Y-123501205D01*
X242051894Y-122900057D01*
X241989749Y-122837803D01*
X242024698Y-122823327D01*
X242203327Y-122644699D01*
X242300000Y-122411310D01*
X242300000Y-121570750D01*
X242141250Y-121412000D01*
X240792000Y-121412000D01*
X240792000Y-121432000D01*
X240538000Y-121432000D01*
X240538000Y-121412000D01*
X239188750Y-121412000D01*
X239030000Y-121570750D01*
X239030000Y-122411310D01*
X239126673Y-122644699D01*
X239305302Y-122823327D01*
X239339834Y-122837630D01*
X239279722Y-122897637D01*
X239030284Y-123498352D01*
X239029716Y-124148795D01*
X239278106Y-124749943D01*
X239653516Y-125126010D01*
X239457191Y-125257191D01*
X239316843Y-125467235D01*
X239315000Y-125476500D01*
X239313157Y-125467235D01*
X239172809Y-125257191D01*
X238962765Y-125116843D01*
X238727000Y-125069947D01*
X238727000Y-120158690D01*
X239030000Y-120158690D01*
X239030000Y-120999250D01*
X239188750Y-121158000D01*
X240538000Y-121158000D01*
X240538000Y-119808750D01*
X240792000Y-119808750D01*
X240792000Y-121158000D01*
X242141250Y-121158000D01*
X242300000Y-120999250D01*
X242300000Y-120158690D01*
X242203327Y-119925301D01*
X242024698Y-119746673D01*
X241791309Y-119650000D01*
X240950750Y-119650000D01*
X240792000Y-119808750D01*
X240538000Y-119808750D01*
X240379250Y-119650000D01*
X239538691Y-119650000D01*
X239305302Y-119746673D01*
X239126673Y-119925301D01*
X239030000Y-120158690D01*
X238727000Y-120158690D01*
X238727000Y-118399500D01*
X238668996Y-118107895D01*
X238608313Y-118017077D01*
X238503815Y-117860684D01*
X235472798Y-114829668D01*
X235540266Y-114667187D01*
X235540834Y-114016946D01*
X235292522Y-113415985D01*
X234833133Y-112955794D01*
X234533327Y-112831304D01*
X235491741Y-111872890D01*
X239187950Y-111872890D01*
X239187950Y-112613880D01*
X239284623Y-112847269D01*
X239463252Y-113025897D01*
X239696641Y-113122570D01*
X239937250Y-113122570D01*
X240096000Y-112963820D01*
X240096000Y-111714140D01*
X239346700Y-111714140D01*
X239187950Y-111872890D01*
X235491741Y-111872890D01*
X236297331Y-111067300D01*
X239187950Y-111067300D01*
X239187950Y-111301390D01*
X239346700Y-111460140D01*
X240096000Y-111460140D01*
X240096000Y-111440140D01*
X240350000Y-111440140D01*
X240350000Y-111460140D01*
X240370000Y-111460140D01*
X240370000Y-111714140D01*
X240350000Y-111714140D01*
X240350000Y-112963820D01*
X240508750Y-113122570D01*
X240749359Y-113122570D01*
X240982748Y-113025897D01*
X241161377Y-112847269D01*
X241175999Y-112811969D01*
X241265141Y-112945379D01*
X241475185Y-113085727D01*
X241722950Y-113135010D01*
X242523050Y-113135010D01*
X242770815Y-113085727D01*
X242980859Y-112945379D01*
X243121207Y-112735335D01*
X243170490Y-112487570D01*
X243170490Y-110686710D01*
X243121207Y-110438945D01*
X242980859Y-110228901D01*
X242770815Y-110088553D01*
X242523050Y-110039270D01*
X241886930Y-110039270D01*
X242030859Y-109943099D01*
X242171207Y-109733055D01*
X242220490Y-109485290D01*
X242220490Y-107684430D01*
X242171207Y-107436665D01*
X242047128Y-107250968D01*
X242062000Y-107176200D01*
X242062000Y-105930440D01*
X242316000Y-105930440D01*
X242563765Y-105881157D01*
X242773809Y-105740809D01*
X242914157Y-105530765D01*
X242963440Y-105283000D01*
X242963440Y-103251000D01*
X242914157Y-103003235D01*
X242773809Y-102793191D01*
X242563765Y-102652843D01*
X242316000Y-102603560D01*
X240284000Y-102603560D01*
X240036235Y-102652843D01*
X239826191Y-102793191D01*
X239730854Y-102935872D01*
X239391810Y-102709330D01*
X238760000Y-102583655D01*
X238128190Y-102709330D01*
X237592567Y-103067222D01*
X237234675Y-103602845D01*
X237109000Y-104234655D01*
X237109000Y-104299345D01*
X237234675Y-104931155D01*
X237592567Y-105466778D01*
X238128190Y-105824670D01*
X238760000Y-105950345D01*
X239391810Y-105824670D01*
X239730854Y-105598128D01*
X239826191Y-105740809D01*
X240036235Y-105881157D01*
X240284000Y-105930440D01*
X240538000Y-105930440D01*
X240538000Y-106908336D01*
X240469004Y-107011595D01*
X240443261Y-107141013D01*
X240315141Y-107226621D01*
X240174793Y-107436665D01*
X240125510Y-107684430D01*
X240125510Y-109485290D01*
X240137049Y-109543300D01*
X235981700Y-109543300D01*
X235690095Y-109601304D01*
X235442884Y-109766485D01*
X226791185Y-118418185D01*
X226626004Y-118665395D01*
X226568000Y-118957000D01*
X226568000Y-120624947D01*
X226432191Y-120651961D01*
X226092415Y-120312185D01*
X225987506Y-120242087D01*
X225845205Y-120147004D01*
X225553600Y-120089000D01*
X222097600Y-120089000D01*
X221831157Y-120141999D01*
X221805995Y-120147004D01*
X221558785Y-120312185D01*
X218359200Y-123511770D01*
X218359200Y-121732130D01*
X229626652Y-110464678D01*
X230518730Y-110464678D01*
X230729226Y-110974117D01*
X231118653Y-111364224D01*
X231627724Y-111575609D01*
X232178938Y-111576090D01*
X232688377Y-111365594D01*
X233078484Y-110976167D01*
X233289869Y-110467096D01*
X233290350Y-109915882D01*
X233079854Y-109406443D01*
X232690427Y-109016336D01*
X232181356Y-108804951D01*
X231630142Y-108804470D01*
X231120703Y-109014966D01*
X230730596Y-109404393D01*
X230519211Y-109913464D01*
X230518730Y-110464678D01*
X229626652Y-110464678D01*
X237686515Y-102404816D01*
X237851696Y-102157605D01*
X237857606Y-102127894D01*
X237909700Y-101866000D01*
X237909700Y-96059500D01*
X237851696Y-95767895D01*
X237765955Y-95639575D01*
X237686516Y-95520685D01*
X237055108Y-94889278D01*
X237295737Y-94529151D01*
X237404970Y-93980000D01*
X237295737Y-93430849D01*
X237290369Y-93422815D01*
X238864630Y-93422815D01*
X239188980Y-94207800D01*
X239789041Y-94808909D01*
X240573459Y-95134628D01*
X241422815Y-95135370D01*
X242207800Y-94811020D01*
X242808909Y-94210959D01*
X243134628Y-93426541D01*
X243135370Y-92577185D01*
X242811020Y-91792200D01*
X242210959Y-91191091D01*
X241426541Y-90865372D01*
X240577185Y-90864630D01*
X239792200Y-91188980D01*
X239191091Y-91789041D01*
X238865372Y-92573459D01*
X238864630Y-93422815D01*
X237290369Y-93422815D01*
X236984668Y-92965302D01*
X236519121Y-92654233D01*
X235969970Y-92545000D01*
X235200030Y-92545000D01*
X234650879Y-92654233D01*
X234185332Y-92965302D01*
X233874263Y-93430849D01*
X233765030Y-93980000D01*
X233874263Y-94529151D01*
X234185332Y-94994698D01*
X234567418Y-95250000D01*
X234185332Y-95505302D01*
X233874263Y-95970849D01*
X233765030Y-96520000D01*
X233874263Y-97069151D01*
X234185332Y-97534698D01*
X234563151Y-97787149D01*
X234130500Y-98135104D01*
X233860633Y-98628181D01*
X233843096Y-98710961D01*
X233965085Y-98933000D01*
X235458000Y-98933000D01*
X235458000Y-98913000D01*
X235712000Y-98913000D01*
X235712000Y-98933000D01*
X235732000Y-98933000D01*
X235732000Y-99187000D01*
X235712000Y-99187000D01*
X235712000Y-100495000D01*
X236062000Y-100495000D01*
X236385700Y-100400297D01*
X236385700Y-101550369D01*
X224917000Y-113019070D01*
X224917000Y-108542610D01*
X225079655Y-108475402D01*
X225314362Y-108241103D01*
X225681803Y-108241103D01*
X225780402Y-108507905D01*
X226389942Y-108734341D01*
X227039737Y-108710281D01*
X227528318Y-108507905D01*
X227626917Y-108241103D01*
X226654360Y-107268545D01*
X225681803Y-108241103D01*
X225314362Y-108241103D01*
X225496421Y-108059362D01*
X225502197Y-108061497D01*
X226474755Y-107088940D01*
X226833965Y-107088940D01*
X227806523Y-108061497D01*
X228073325Y-107962898D01*
X228299761Y-107353358D01*
X228275701Y-106703563D01*
X228073325Y-106214982D01*
X227806523Y-106116383D01*
X226833965Y-107088940D01*
X226474755Y-107088940D01*
X225502197Y-106116383D01*
X225495949Y-106118692D01*
X225314351Y-105936777D01*
X225681803Y-105936777D01*
X226654360Y-106909335D01*
X227626917Y-105936777D01*
X227528318Y-105669975D01*
X226918778Y-105443539D01*
X226268983Y-105467599D01*
X225780402Y-105669975D01*
X225681803Y-105936777D01*
X225314351Y-105936777D01*
X225082073Y-105704094D01*
X224481547Y-105454734D01*
X223831306Y-105454166D01*
X223230345Y-105702478D01*
X222905156Y-106027100D01*
X222582713Y-105704094D01*
X221982187Y-105454734D01*
X221331946Y-105454166D01*
X220730985Y-105702478D01*
X220270794Y-106161867D01*
X220021434Y-106762393D01*
X220020866Y-107412634D01*
X220269178Y-108013595D01*
X220728567Y-108473786D01*
X221329093Y-108723146D01*
X221979334Y-108723714D01*
X222580295Y-108475402D01*
X222905484Y-108150780D01*
X223227927Y-108473786D01*
X223393000Y-108542330D01*
X223393000Y-113537469D01*
X219202000Y-117728469D01*
X219202000Y-104800053D01*
X219437765Y-104753157D01*
X219647809Y-104612809D01*
X219788157Y-104402765D01*
X219837440Y-104155000D01*
X219837440Y-102855000D01*
X219788157Y-102607235D01*
X219647809Y-102397191D01*
X219437765Y-102256843D01*
X219190000Y-102207560D01*
X217690000Y-102207560D01*
X217633400Y-102218818D01*
X217633400Y-96520000D01*
X218026655Y-96520000D01*
X218152330Y-97151810D01*
X218510222Y-97687433D01*
X219045845Y-98045325D01*
X219677655Y-98171000D01*
X219742345Y-98171000D01*
X220374155Y-98045325D01*
X220909778Y-97687433D01*
X221267670Y-97151810D01*
X221393345Y-96520000D01*
X221267670Y-95888190D01*
X221041128Y-95549146D01*
X221183809Y-95453809D01*
X221324157Y-95243765D01*
X221373440Y-94996000D01*
X221373440Y-94742000D01*
X221514811Y-94742000D01*
X221536843Y-94852765D01*
X221677191Y-95062809D01*
X221887235Y-95203157D01*
X222135000Y-95252440D01*
X223635000Y-95252440D01*
X223882765Y-95203157D01*
X224092809Y-95062809D01*
X224135000Y-94999666D01*
X224177191Y-95062809D01*
X224387235Y-95203157D01*
X224635000Y-95252440D01*
X226135000Y-95252440D01*
X226382765Y-95203157D01*
X226592809Y-95062809D01*
X226615791Y-95028414D01*
X226947418Y-95250000D01*
X226565332Y-95505302D01*
X226254263Y-95970849D01*
X226145030Y-96520000D01*
X226254263Y-97069151D01*
X226565332Y-97534698D01*
X226947418Y-97790000D01*
X226565332Y-98045302D01*
X226254263Y-98510849D01*
X226145030Y-99060000D01*
X226254263Y-99609151D01*
X226565332Y-100074698D01*
X227030879Y-100385767D01*
X227580030Y-100495000D01*
X228349970Y-100495000D01*
X228899121Y-100385767D01*
X229364668Y-100074698D01*
X229675737Y-99609151D01*
X229715541Y-99409039D01*
X233843096Y-99409039D01*
X233860633Y-99491819D01*
X234130500Y-99984896D01*
X234568517Y-100337166D01*
X235108000Y-100495000D01*
X235458000Y-100495000D01*
X235458000Y-99187000D01*
X233965085Y-99187000D01*
X233843096Y-99409039D01*
X229715541Y-99409039D01*
X229784970Y-99060000D01*
X229675737Y-98510849D01*
X229364668Y-98045302D01*
X228982582Y-97790000D01*
X229364668Y-97534698D01*
X229675737Y-97069151D01*
X229784970Y-96520000D01*
X229675737Y-95970849D01*
X229364668Y-95505302D01*
X228982582Y-95250000D01*
X229364668Y-94994698D01*
X229675737Y-94529151D01*
X229784970Y-93980000D01*
X229675737Y-93430849D01*
X229364668Y-92965302D01*
X228899121Y-92654233D01*
X228349970Y-92545000D01*
X227580030Y-92545000D01*
X227030879Y-92654233D01*
X226615791Y-92931586D01*
X226592809Y-92897191D01*
X226382765Y-92756843D01*
X226135000Y-92707560D01*
X224635000Y-92707560D01*
X224387235Y-92756843D01*
X224177191Y-92897191D01*
X224135000Y-92960334D01*
X224092809Y-92897191D01*
X223882765Y-92756843D01*
X223635000Y-92707560D01*
X222135000Y-92707560D01*
X221887235Y-92756843D01*
X221677191Y-92897191D01*
X221536843Y-93107235D01*
X221514811Y-93218000D01*
X221373440Y-93218000D01*
X221373440Y-92964000D01*
X221324157Y-92716235D01*
X221183809Y-92506191D01*
X220973765Y-92365843D01*
X220726000Y-92316560D01*
X218694000Y-92316560D01*
X218446235Y-92365843D01*
X218236191Y-92506191D01*
X218095843Y-92716235D01*
X218046560Y-92964000D01*
X218046560Y-94996000D01*
X218095843Y-95243765D01*
X218236191Y-95453809D01*
X218378872Y-95549146D01*
X218152330Y-95888190D01*
X218026655Y-96520000D01*
X217633400Y-96520000D01*
X217633400Y-94715100D01*
X217575396Y-94423495D01*
X217484393Y-94287300D01*
X217410216Y-94176285D01*
X217390115Y-94156185D01*
X217351212Y-94130191D01*
X217142905Y-93991004D01*
X217117440Y-93985939D01*
X217117440Y-93945000D01*
X217068157Y-93697235D01*
X216927809Y-93487191D01*
X216717765Y-93346843D01*
X216708500Y-93345000D01*
X216717765Y-93343157D01*
X216927809Y-93202809D01*
X217068157Y-92992765D01*
X217117440Y-92745000D01*
X217117440Y-91245000D01*
X217068157Y-90997235D01*
X216927809Y-90787191D01*
X216717765Y-90646843D01*
X216470000Y-90597560D01*
X215170000Y-90597560D01*
X214922235Y-90646843D01*
X214712191Y-90787191D01*
X214571843Y-90997235D01*
X214522560Y-91245000D01*
X214522560Y-91383291D01*
X214508195Y-91373693D01*
X214260430Y-91324410D01*
X212459570Y-91324410D01*
X212211805Y-91373693D01*
X212001761Y-91514041D01*
X211861413Y-91724085D01*
X211812130Y-91971850D01*
X211812130Y-92607970D01*
X211715959Y-92464041D01*
X211505915Y-92323693D01*
X211258150Y-92274410D01*
X209457290Y-92274410D01*
X209209525Y-92323693D01*
X208999481Y-92464041D01*
X208910440Y-92597299D01*
X208910440Y-92036900D01*
X208861157Y-91789135D01*
X208720809Y-91579091D01*
X208510765Y-91438743D01*
X208429352Y-91422549D01*
X208376827Y-91158491D01*
X208319549Y-91072769D01*
X208319587Y-91029416D01*
X208155589Y-90632511D01*
X207852186Y-90328578D01*
X207650909Y-90245000D01*
X243135070Y-90245000D01*
X243413979Y-90300478D01*
G36*
X237203000Y-118715131D02*
X237203000Y-125069947D01*
X236967235Y-125116843D01*
X236757191Y-125257191D01*
X236616843Y-125467235D01*
X236567560Y-125715000D01*
X236567560Y-127015000D01*
X236616843Y-127262765D01*
X236757191Y-127472809D01*
X236967235Y-127613157D01*
X237215000Y-127662440D01*
X237255939Y-127662440D01*
X237261004Y-127687905D01*
X237358758Y-127834204D01*
X237426185Y-127935115D01*
X238383630Y-128892560D01*
X238252000Y-128892560D01*
X238004235Y-128941843D01*
X237794191Y-129082191D01*
X237653843Y-129292235D01*
X237617000Y-129477459D01*
X237617000Y-129413690D01*
X237520327Y-129180301D01*
X237341698Y-129001673D01*
X237108309Y-128905000D01*
X236759750Y-128905000D01*
X236601000Y-129063750D01*
X236601000Y-130429000D01*
X236621000Y-130429000D01*
X236621000Y-130683000D01*
X236601000Y-130683000D01*
X236601000Y-132048250D01*
X236759750Y-132207000D01*
X237108309Y-132207000D01*
X237341698Y-132110327D01*
X237520327Y-131931699D01*
X237617000Y-131698310D01*
X237617000Y-131634541D01*
X237653843Y-131819765D01*
X237667767Y-131840603D01*
X235173185Y-134335185D01*
X235008004Y-134582395D01*
X234950000Y-134874000D01*
X234950000Y-144068369D01*
X234784984Y-144233385D01*
X234769611Y-144196271D01*
X234539016Y-144140590D01*
X233819605Y-144860000D01*
X233833748Y-144874142D01*
X233654142Y-145053748D01*
X233640000Y-145039605D01*
X232920590Y-145759016D01*
X232976271Y-145989611D01*
X233185902Y-146062560D01*
X232990000Y-146062560D01*
X232742235Y-146111843D01*
X232532191Y-146252191D01*
X232391843Y-146462235D01*
X232368151Y-146581343D01*
X232363157Y-146556235D01*
X232222809Y-146346191D01*
X232161680Y-146305346D01*
X232303327Y-146163698D01*
X232400000Y-145930309D01*
X232400000Y-145339750D01*
X232241252Y-145181002D01*
X232371429Y-145181002D01*
X232371917Y-145189428D01*
X232510389Y-145523729D01*
X232740984Y-145579410D01*
X233460395Y-144860000D01*
X232740984Y-144140590D01*
X232510389Y-144196271D01*
X232400000Y-144513492D01*
X232400000Y-144177691D01*
X232310237Y-143960984D01*
X232920590Y-143960984D01*
X233640000Y-144680395D01*
X234359410Y-143960984D01*
X234303729Y-143730389D01*
X233820922Y-143562378D01*
X233310572Y-143591917D01*
X232976271Y-143730389D01*
X232920590Y-143960984D01*
X232310237Y-143960984D01*
X232303327Y-143944302D01*
X232124699Y-143765673D01*
X231891310Y-143669000D01*
X231425750Y-143669000D01*
X231267000Y-143827750D01*
X231267000Y-144927000D01*
X231287000Y-144927000D01*
X231287000Y-145181000D01*
X231267000Y-145181000D01*
X231267000Y-145201000D01*
X231013000Y-145201000D01*
X231013000Y-145181000D01*
X230038750Y-145181000D01*
X229880000Y-145339750D01*
X229880000Y-145930309D01*
X229976673Y-146163698D01*
X230118320Y-146305346D01*
X230057191Y-146346191D01*
X229916843Y-146556235D01*
X229867560Y-146804000D01*
X229867560Y-146918048D01*
X229722184Y-147015185D01*
X228941370Y-147796000D01*
X228293044Y-147796000D01*
X228536821Y-147573490D01*
X228784968Y-147044027D01*
X228664469Y-146812000D01*
X227457000Y-146812000D01*
X227457000Y-146832000D01*
X227203000Y-146832000D01*
X227203000Y-146812000D01*
X227183000Y-146812000D01*
X227183000Y-146558000D01*
X227203000Y-146558000D01*
X227203000Y-146538000D01*
X227457000Y-146538000D01*
X227457000Y-146558000D01*
X228664469Y-146558000D01*
X228784968Y-146325973D01*
X228536821Y-145796510D01*
X228118839Y-145414992D01*
X228389670Y-145234029D01*
X228714526Y-144747848D01*
X228827937Y-144177691D01*
X229880000Y-144177691D01*
X229880000Y-144768250D01*
X230038750Y-144927000D01*
X231013000Y-144927000D01*
X231013000Y-143827750D01*
X230854250Y-143669000D01*
X230388690Y-143669000D01*
X230155301Y-143765673D01*
X229976673Y-143944302D01*
X229880000Y-144177691D01*
X228827937Y-144177691D01*
X228828600Y-144174359D01*
X228828600Y-144115641D01*
X228714526Y-143542152D01*
X228389670Y-143055971D01*
X228118828Y-142875000D01*
X228389670Y-142694029D01*
X228714526Y-142207848D01*
X228828600Y-141634359D01*
X228828600Y-141575641D01*
X228714526Y-141002152D01*
X228389670Y-140515971D01*
X228118828Y-140335000D01*
X228389670Y-140154029D01*
X228714526Y-139667848D01*
X228828600Y-139094359D01*
X228828600Y-139035641D01*
X228714526Y-138462152D01*
X228389670Y-137975971D01*
X227903489Y-137651115D01*
X227330000Y-137537041D01*
X226756511Y-137651115D01*
X226270330Y-137975971D01*
X226060000Y-138290752D01*
X225849670Y-137975971D01*
X225363489Y-137651115D01*
X224790000Y-137537041D01*
X224216511Y-137651115D01*
X223730330Y-137975971D01*
X223405474Y-138462152D01*
X223321362Y-138885012D01*
X223296805Y-138868604D01*
X223005200Y-138810600D01*
X219787500Y-138810600D01*
X219495895Y-138868604D01*
X219248684Y-139033785D01*
X219043785Y-139238685D01*
X219003046Y-139299655D01*
X218887809Y-139127191D01*
X218677765Y-138986843D01*
X218430000Y-138937560D01*
X217180000Y-138937560D01*
X216932235Y-138986843D01*
X216722191Y-139127191D01*
X216585016Y-139332486D01*
X215143715Y-137891185D01*
X215091822Y-137856511D01*
X214896505Y-137726004D01*
X214654521Y-137677870D01*
X214449029Y-137370330D01*
X213962848Y-137045474D01*
X213389359Y-136931400D01*
X213330641Y-136931400D01*
X212757152Y-137045474D01*
X212743841Y-137054368D01*
X212686294Y-136968243D01*
X212653915Y-136919784D01*
X206792315Y-131058185D01*
X206677232Y-130981289D01*
X206545105Y-130893004D01*
X206253500Y-130835000D01*
X205939130Y-130835000D01*
X201007130Y-125903000D01*
X217807600Y-125903000D01*
X218099205Y-125844996D01*
X218346415Y-125679815D01*
X219274378Y-124751852D01*
X219269594Y-124763373D01*
X219269026Y-125413614D01*
X219517338Y-126014575D01*
X219976727Y-126474766D01*
X220577253Y-126724126D01*
X221227494Y-126724694D01*
X221828455Y-126476382D01*
X222288646Y-126016993D01*
X222538006Y-125416467D01*
X222538574Y-124766226D01*
X222290262Y-124165265D01*
X221830873Y-123705074D01*
X221230347Y-123455714D01*
X220580106Y-123455146D01*
X220564731Y-123461499D01*
X222413230Y-121613000D01*
X223232560Y-121613000D01*
X223232560Y-122570000D01*
X223281843Y-122817765D01*
X223422191Y-123027809D01*
X223632235Y-123168157D01*
X223868000Y-123215053D01*
X223868000Y-125447369D01*
X221392884Y-127922485D01*
X221230347Y-127854994D01*
X220580106Y-127854426D01*
X219979145Y-128102738D01*
X219518954Y-128562127D01*
X219269594Y-129162653D01*
X219269026Y-129812894D01*
X219517338Y-130413855D01*
X219976727Y-130874046D01*
X220577253Y-131123406D01*
X221227494Y-131123974D01*
X221828455Y-130875662D01*
X222288646Y-130416273D01*
X222538006Y-129815747D01*
X222538008Y-129812894D01*
X225771426Y-129812894D01*
X226019738Y-130413855D01*
X226479127Y-130874046D01*
X227079653Y-131123406D01*
X227729894Y-131123974D01*
X228330855Y-130875662D01*
X228364826Y-130841750D01*
X235331000Y-130841750D01*
X235331000Y-131698310D01*
X235427673Y-131931699D01*
X235606302Y-132110327D01*
X235839691Y-132207000D01*
X236188250Y-132207000D01*
X236347000Y-132048250D01*
X236347000Y-130683000D01*
X235489750Y-130683000D01*
X235331000Y-130841750D01*
X228364826Y-130841750D01*
X228791046Y-130416273D01*
X229040406Y-129815747D01*
X229040757Y-129413690D01*
X235331000Y-129413690D01*
X235331000Y-130270250D01*
X235489750Y-130429000D01*
X236347000Y-130429000D01*
X236347000Y-129063750D01*
X236188250Y-128905000D01*
X235839691Y-128905000D01*
X235606302Y-129001673D01*
X235427673Y-129180301D01*
X235331000Y-129413690D01*
X229040757Y-129413690D01*
X229040974Y-129165506D01*
X228792662Y-128564545D01*
X228333273Y-128104354D01*
X227732747Y-127854994D01*
X227082506Y-127854426D01*
X226481545Y-128102738D01*
X226021354Y-128562127D01*
X225771994Y-129162653D01*
X225771426Y-129812894D01*
X222538008Y-129812894D01*
X222538574Y-129165506D01*
X222470318Y-129000313D01*
X225168816Y-126301815D01*
X225333997Y-126054604D01*
X225392000Y-125763000D01*
X225392000Y-123215053D01*
X225597988Y-123174080D01*
X225638023Y-123233996D01*
X225659885Y-123266715D01*
X225883385Y-123490216D01*
X225994105Y-123564196D01*
X226130595Y-123655396D01*
X226422200Y-123713400D01*
X226471586Y-123713400D01*
X226021354Y-124162847D01*
X225771994Y-124763373D01*
X225771426Y-125413614D01*
X226019738Y-126014575D01*
X226479127Y-126474766D01*
X227079653Y-126724126D01*
X227729894Y-126724694D01*
X228330855Y-126476382D01*
X228791046Y-126016993D01*
X229040406Y-125416467D01*
X229040974Y-124766226D01*
X228792662Y-124165265D01*
X228392215Y-123764118D01*
X230518730Y-123764118D01*
X230729226Y-124273557D01*
X231118653Y-124663664D01*
X231627724Y-124875049D01*
X232178938Y-124875530D01*
X232688377Y-124665034D01*
X233078484Y-124275607D01*
X233289869Y-123766536D01*
X233290350Y-123215322D01*
X233079854Y-122705883D01*
X232690427Y-122315776D01*
X232181356Y-122104391D01*
X231630142Y-122103910D01*
X231120703Y-122314406D01*
X230730596Y-122703833D01*
X230519211Y-123212904D01*
X230518730Y-123764118D01*
X228392215Y-123764118D01*
X228337843Y-123709652D01*
X228610605Y-123655396D01*
X228857815Y-123490215D01*
X231856507Y-120491523D01*
X232933503Y-120491523D01*
X233032102Y-120758325D01*
X233641642Y-120984761D01*
X234291437Y-120960701D01*
X234780018Y-120758325D01*
X234878617Y-120491523D01*
X233906060Y-119518965D01*
X232933503Y-120491523D01*
X231856507Y-120491523D01*
X232383885Y-119964146D01*
X232487095Y-120213318D01*
X232753897Y-120311917D01*
X233726455Y-119339360D01*
X234085665Y-119339360D01*
X235058223Y-120311917D01*
X235325025Y-120213318D01*
X235551461Y-119603778D01*
X235527401Y-118953983D01*
X235325025Y-118465402D01*
X235058223Y-118366803D01*
X234085665Y-119339360D01*
X233726455Y-119339360D01*
X233712313Y-119325218D01*
X233891918Y-119145613D01*
X233906060Y-119159755D01*
X234878617Y-118187197D01*
X234876308Y-118180949D01*
X235290906Y-117767073D01*
X235540266Y-117166547D01*
X235540366Y-117052496D01*
X237203000Y-118715131D01*
X237203000Y-118715131D01*
G37*
X237203000Y-118715131D02*
X237203000Y-125069947D01*
X236967235Y-125116843D01*
X236757191Y-125257191D01*
X236616843Y-125467235D01*
X236567560Y-125715000D01*
X236567560Y-127015000D01*
X236616843Y-127262765D01*
X236757191Y-127472809D01*
X236967235Y-127613157D01*
X237215000Y-127662440D01*
X237255939Y-127662440D01*
X237261004Y-127687905D01*
X237358758Y-127834204D01*
X237426185Y-127935115D01*
X238383630Y-128892560D01*
X238252000Y-128892560D01*
X238004235Y-128941843D01*
X237794191Y-129082191D01*
X237653843Y-129292235D01*
X237617000Y-129477459D01*
X237617000Y-129413690D01*
X237520327Y-129180301D01*
X237341698Y-129001673D01*
X237108309Y-128905000D01*
X236759750Y-128905000D01*
X236601000Y-129063750D01*
X236601000Y-130429000D01*
X236621000Y-130429000D01*
X236621000Y-130683000D01*
X236601000Y-130683000D01*
X236601000Y-132048250D01*
X236759750Y-132207000D01*
X237108309Y-132207000D01*
X237341698Y-132110327D01*
X237520327Y-131931699D01*
X237617000Y-131698310D01*
X237617000Y-131634541D01*
X237653843Y-131819765D01*
X237667767Y-131840603D01*
X235173185Y-134335185D01*
X235008004Y-134582395D01*
X234950000Y-134874000D01*
X234950000Y-144068369D01*
X234784984Y-144233385D01*
X234769611Y-144196271D01*
X234539016Y-144140590D01*
X233819605Y-144860000D01*
X233833748Y-144874142D01*
X233654142Y-145053748D01*
X233640000Y-145039605D01*
X232920590Y-145759016D01*
X232976271Y-145989611D01*
X233185902Y-146062560D01*
X232990000Y-146062560D01*
X232742235Y-146111843D01*
X232532191Y-146252191D01*
X232391843Y-146462235D01*
X232368151Y-146581343D01*
X232363157Y-146556235D01*
X232222809Y-146346191D01*
X232161680Y-146305346D01*
X232303327Y-146163698D01*
X232400000Y-145930309D01*
X232400000Y-145339750D01*
X232241252Y-145181002D01*
X232371429Y-145181002D01*
X232371917Y-145189428D01*
X232510389Y-145523729D01*
X232740984Y-145579410D01*
X233460395Y-144860000D01*
X232740984Y-144140590D01*
X232510389Y-144196271D01*
X232400000Y-144513492D01*
X232400000Y-144177691D01*
X232310237Y-143960984D01*
X232920590Y-143960984D01*
X233640000Y-144680395D01*
X234359410Y-143960984D01*
X234303729Y-143730389D01*
X233820922Y-143562378D01*
X233310572Y-143591917D01*
X232976271Y-143730389D01*
X232920590Y-143960984D01*
X232310237Y-143960984D01*
X232303327Y-143944302D01*
X232124699Y-143765673D01*
X231891310Y-143669000D01*
X231425750Y-143669000D01*
X231267000Y-143827750D01*
X231267000Y-144927000D01*
X231287000Y-144927000D01*
X231287000Y-145181000D01*
X231267000Y-145181000D01*
X231267000Y-145201000D01*
X231013000Y-145201000D01*
X231013000Y-145181000D01*
X230038750Y-145181000D01*
X229880000Y-145339750D01*
X229880000Y-145930309D01*
X229976673Y-146163698D01*
X230118320Y-146305346D01*
X230057191Y-146346191D01*
X229916843Y-146556235D01*
X229867560Y-146804000D01*
X229867560Y-146918048D01*
X229722184Y-147015185D01*
X228941370Y-147796000D01*
X228293044Y-147796000D01*
X228536821Y-147573490D01*
X228784968Y-147044027D01*
X228664469Y-146812000D01*
X227457000Y-146812000D01*
X227457000Y-146832000D01*
X227203000Y-146832000D01*
X227203000Y-146812000D01*
X227183000Y-146812000D01*
X227183000Y-146558000D01*
X227203000Y-146558000D01*
X227203000Y-146538000D01*
X227457000Y-146538000D01*
X227457000Y-146558000D01*
X228664469Y-146558000D01*
X228784968Y-146325973D01*
X228536821Y-145796510D01*
X228118839Y-145414992D01*
X228389670Y-145234029D01*
X228714526Y-144747848D01*
X228827937Y-144177691D01*
X229880000Y-144177691D01*
X229880000Y-144768250D01*
X230038750Y-144927000D01*
X231013000Y-144927000D01*
X231013000Y-143827750D01*
X230854250Y-143669000D01*
X230388690Y-143669000D01*
X230155301Y-143765673D01*
X229976673Y-143944302D01*
X229880000Y-144177691D01*
X228827937Y-144177691D01*
X228828600Y-144174359D01*
X228828600Y-144115641D01*
X228714526Y-143542152D01*
X228389670Y-143055971D01*
X228118828Y-142875000D01*
X228389670Y-142694029D01*
X228714526Y-142207848D01*
X228828600Y-141634359D01*
X228828600Y-141575641D01*
X228714526Y-141002152D01*
X228389670Y-140515971D01*
X228118828Y-140335000D01*
X228389670Y-140154029D01*
X228714526Y-139667848D01*
X228828600Y-139094359D01*
X228828600Y-139035641D01*
X228714526Y-138462152D01*
X228389670Y-137975971D01*
X227903489Y-137651115D01*
X227330000Y-137537041D01*
X226756511Y-137651115D01*
X226270330Y-137975971D01*
X226060000Y-138290752D01*
X225849670Y-137975971D01*
X225363489Y-137651115D01*
X224790000Y-137537041D01*
X224216511Y-137651115D01*
X223730330Y-137975971D01*
X223405474Y-138462152D01*
X223321362Y-138885012D01*
X223296805Y-138868604D01*
X223005200Y-138810600D01*
X219787500Y-138810600D01*
X219495895Y-138868604D01*
X219248684Y-139033785D01*
X219043785Y-139238685D01*
X219003046Y-139299655D01*
X218887809Y-139127191D01*
X218677765Y-138986843D01*
X218430000Y-138937560D01*
X217180000Y-138937560D01*
X216932235Y-138986843D01*
X216722191Y-139127191D01*
X216585016Y-139332486D01*
X215143715Y-137891185D01*
X215091822Y-137856511D01*
X214896505Y-137726004D01*
X214654521Y-137677870D01*
X214449029Y-137370330D01*
X213962848Y-137045474D01*
X213389359Y-136931400D01*
X213330641Y-136931400D01*
X212757152Y-137045474D01*
X212743841Y-137054368D01*
X212686294Y-136968243D01*
X212653915Y-136919784D01*
X206792315Y-131058185D01*
X206677232Y-130981289D01*
X206545105Y-130893004D01*
X206253500Y-130835000D01*
X205939130Y-130835000D01*
X201007130Y-125903000D01*
X217807600Y-125903000D01*
X218099205Y-125844996D01*
X218346415Y-125679815D01*
X219274378Y-124751852D01*
X219269594Y-124763373D01*
X219269026Y-125413614D01*
X219517338Y-126014575D01*
X219976727Y-126474766D01*
X220577253Y-126724126D01*
X221227494Y-126724694D01*
X221828455Y-126476382D01*
X222288646Y-126016993D01*
X222538006Y-125416467D01*
X222538574Y-124766226D01*
X222290262Y-124165265D01*
X221830873Y-123705074D01*
X221230347Y-123455714D01*
X220580106Y-123455146D01*
X220564731Y-123461499D01*
X222413230Y-121613000D01*
X223232560Y-121613000D01*
X223232560Y-122570000D01*
X223281843Y-122817765D01*
X223422191Y-123027809D01*
X223632235Y-123168157D01*
X223868000Y-123215053D01*
X223868000Y-125447369D01*
X221392884Y-127922485D01*
X221230347Y-127854994D01*
X220580106Y-127854426D01*
X219979145Y-128102738D01*
X219518954Y-128562127D01*
X219269594Y-129162653D01*
X219269026Y-129812894D01*
X219517338Y-130413855D01*
X219976727Y-130874046D01*
X220577253Y-131123406D01*
X221227494Y-131123974D01*
X221828455Y-130875662D01*
X222288646Y-130416273D01*
X222538006Y-129815747D01*
X222538008Y-129812894D01*
X225771426Y-129812894D01*
X226019738Y-130413855D01*
X226479127Y-130874046D01*
X227079653Y-131123406D01*
X227729894Y-131123974D01*
X228330855Y-130875662D01*
X228364826Y-130841750D01*
X235331000Y-130841750D01*
X235331000Y-131698310D01*
X235427673Y-131931699D01*
X235606302Y-132110327D01*
X235839691Y-132207000D01*
X236188250Y-132207000D01*
X236347000Y-132048250D01*
X236347000Y-130683000D01*
X235489750Y-130683000D01*
X235331000Y-130841750D01*
X228364826Y-130841750D01*
X228791046Y-130416273D01*
X229040406Y-129815747D01*
X229040757Y-129413690D01*
X235331000Y-129413690D01*
X235331000Y-130270250D01*
X235489750Y-130429000D01*
X236347000Y-130429000D01*
X236347000Y-129063750D01*
X236188250Y-128905000D01*
X235839691Y-128905000D01*
X235606302Y-129001673D01*
X235427673Y-129180301D01*
X235331000Y-129413690D01*
X229040757Y-129413690D01*
X229040974Y-129165506D01*
X228792662Y-128564545D01*
X228333273Y-128104354D01*
X227732747Y-127854994D01*
X227082506Y-127854426D01*
X226481545Y-128102738D01*
X226021354Y-128562127D01*
X225771994Y-129162653D01*
X225771426Y-129812894D01*
X222538008Y-129812894D01*
X222538574Y-129165506D01*
X222470318Y-129000313D01*
X225168816Y-126301815D01*
X225333997Y-126054604D01*
X225392000Y-125763000D01*
X225392000Y-123215053D01*
X225597988Y-123174080D01*
X225638023Y-123233996D01*
X225659885Y-123266715D01*
X225883385Y-123490216D01*
X225994105Y-123564196D01*
X226130595Y-123655396D01*
X226422200Y-123713400D01*
X226471586Y-123713400D01*
X226021354Y-124162847D01*
X225771994Y-124763373D01*
X225771426Y-125413614D01*
X226019738Y-126014575D01*
X226479127Y-126474766D01*
X227079653Y-126724126D01*
X227729894Y-126724694D01*
X228330855Y-126476382D01*
X228791046Y-126016993D01*
X229040406Y-125416467D01*
X229040974Y-124766226D01*
X228792662Y-124165265D01*
X228392215Y-123764118D01*
X230518730Y-123764118D01*
X230729226Y-124273557D01*
X231118653Y-124663664D01*
X231627724Y-124875049D01*
X232178938Y-124875530D01*
X232688377Y-124665034D01*
X233078484Y-124275607D01*
X233289869Y-123766536D01*
X233290350Y-123215322D01*
X233079854Y-122705883D01*
X232690427Y-122315776D01*
X232181356Y-122104391D01*
X231630142Y-122103910D01*
X231120703Y-122314406D01*
X230730596Y-122703833D01*
X230519211Y-123212904D01*
X230518730Y-123764118D01*
X228392215Y-123764118D01*
X228337843Y-123709652D01*
X228610605Y-123655396D01*
X228857815Y-123490215D01*
X231856507Y-120491523D01*
X232933503Y-120491523D01*
X233032102Y-120758325D01*
X233641642Y-120984761D01*
X234291437Y-120960701D01*
X234780018Y-120758325D01*
X234878617Y-120491523D01*
X233906060Y-119518965D01*
X232933503Y-120491523D01*
X231856507Y-120491523D01*
X232383885Y-119964146D01*
X232487095Y-120213318D01*
X232753897Y-120311917D01*
X233726455Y-119339360D01*
X234085665Y-119339360D01*
X235058223Y-120311917D01*
X235325025Y-120213318D01*
X235551461Y-119603778D01*
X235527401Y-118953983D01*
X235325025Y-118465402D01*
X235058223Y-118366803D01*
X234085665Y-119339360D01*
X233726455Y-119339360D01*
X233712313Y-119325218D01*
X233891918Y-119145613D01*
X233906060Y-119159755D01*
X234878617Y-118187197D01*
X234876308Y-118180949D01*
X235290906Y-117767073D01*
X235540266Y-117166547D01*
X235540366Y-117052496D01*
X237203000Y-118715131D01*
G36*
X181102000Y-143383000D02*
X181122000Y-143383000D01*
X181122000Y-143637000D01*
X181102000Y-143637000D01*
X181102000Y-143657000D01*
X180848000Y-143657000D01*
X180848000Y-143637000D01*
X180828000Y-143637000D01*
X180828000Y-143383000D01*
X180848000Y-143383000D01*
X180848000Y-143363000D01*
X181102000Y-143363000D01*
X181102000Y-143383000D01*
X181102000Y-143383000D01*
G37*
X181102000Y-143383000D02*
X181122000Y-143383000D01*
X181122000Y-143637000D01*
X181102000Y-143637000D01*
X181102000Y-143657000D01*
X180848000Y-143657000D01*
X180848000Y-143637000D01*
X180828000Y-143637000D01*
X180828000Y-143383000D01*
X180848000Y-143383000D01*
X180848000Y-143363000D01*
X181102000Y-143363000D01*
X181102000Y-143383000D01*
G36*
X214742235Y-104753157D02*
X214990000Y-104802440D01*
X216109400Y-104802440D01*
X216109400Y-106353300D01*
X216167404Y-106644905D01*
X216316472Y-106868000D01*
X216332585Y-106892115D01*
X216826500Y-107386031D01*
X216826500Y-108864838D01*
X216682276Y-108804951D01*
X216131062Y-108804470D01*
X215621623Y-109014966D01*
X215231516Y-109404393D01*
X215020131Y-109913464D01*
X215019650Y-110464678D01*
X215230146Y-110974117D01*
X215619573Y-111364224D01*
X216128644Y-111575609D01*
X216679858Y-111576090D01*
X216826500Y-111515499D01*
X216826500Y-118666370D01*
X216455000Y-119037870D01*
X216455000Y-118453690D01*
X216358327Y-118220301D01*
X216179698Y-118041673D01*
X215946309Y-117945000D01*
X215105750Y-117945000D01*
X214947000Y-118103750D01*
X214947000Y-119253000D01*
X214967000Y-119253000D01*
X214967000Y-119507000D01*
X214947000Y-119507000D01*
X214947000Y-119527000D01*
X214693000Y-119527000D01*
X214693000Y-119507000D01*
X213343750Y-119507000D01*
X213185000Y-119665750D01*
X213185000Y-119986200D01*
X212467440Y-119986200D01*
X212467440Y-118580000D01*
X212442316Y-118453690D01*
X213185000Y-118453690D01*
X213185000Y-119094250D01*
X213343750Y-119253000D01*
X214693000Y-119253000D01*
X214693000Y-118103750D01*
X214534250Y-117945000D01*
X213693691Y-117945000D01*
X213460302Y-118041673D01*
X213281673Y-118220301D01*
X213185000Y-118453690D01*
X212442316Y-118453690D01*
X212418157Y-118332235D01*
X212277809Y-118122191D01*
X212067765Y-117981843D01*
X211820000Y-117932560D01*
X209820000Y-117932560D01*
X209572235Y-117981843D01*
X209362191Y-118122191D01*
X209289092Y-118231591D01*
X209065887Y-118007996D01*
X208556816Y-117796611D01*
X208005602Y-117796130D01*
X207496163Y-118006626D01*
X207106056Y-118396053D01*
X206894671Y-118905124D01*
X206894190Y-119456338D01*
X207104686Y-119965777D01*
X207494113Y-120355884D01*
X208003184Y-120567269D01*
X208554398Y-120567750D01*
X209063837Y-120357254D01*
X209183965Y-120237336D01*
X209221843Y-120427765D01*
X209362191Y-120637809D01*
X209572235Y-120778157D01*
X209820000Y-120827440D01*
X210740215Y-120827440D01*
X210362011Y-120983711D01*
X210058078Y-121287114D01*
X209893387Y-121683732D01*
X209893144Y-121963300D01*
X200070384Y-121963300D01*
X199970189Y-121720811D01*
X199666786Y-121416878D01*
X199270168Y-121252187D01*
X198840716Y-121251813D01*
X198812000Y-121263678D01*
X198812000Y-119943942D01*
X198964622Y-119791586D01*
X199129313Y-119394968D01*
X199129687Y-118965516D01*
X198965689Y-118568611D01*
X198662286Y-118264678D01*
X198265668Y-118099987D01*
X197836216Y-118099613D01*
X197439311Y-118263611D01*
X197135378Y-118567014D01*
X196970687Y-118963632D01*
X196970671Y-118981486D01*
X196776278Y-118786752D01*
X197924198Y-117638833D01*
X197946505Y-117634396D01*
X198193715Y-117469215D01*
X198658816Y-117004115D01*
X198757834Y-116855923D01*
X198823996Y-116756905D01*
X198882000Y-116465300D01*
X198882000Y-114574458D01*
X206894190Y-114574458D01*
X207104686Y-115083897D01*
X207494113Y-115474004D01*
X208003184Y-115685389D01*
X208554398Y-115685870D01*
X209063837Y-115475374D01*
X209216844Y-115322634D01*
X209221843Y-115347765D01*
X209362191Y-115557809D01*
X209572235Y-115698157D01*
X209820000Y-115747440D01*
X211820000Y-115747440D01*
X212067765Y-115698157D01*
X212277809Y-115557809D01*
X212418157Y-115347765D01*
X212467440Y-115100000D01*
X212467440Y-114585750D01*
X213185000Y-114585750D01*
X213185000Y-115226310D01*
X213281673Y-115459699D01*
X213460302Y-115638327D01*
X213693691Y-115735000D01*
X214534250Y-115735000D01*
X214693000Y-115576250D01*
X214693000Y-114427000D01*
X214947000Y-114427000D01*
X214947000Y-115576250D01*
X215105750Y-115735000D01*
X215946309Y-115735000D01*
X216179698Y-115638327D01*
X216358327Y-115459699D01*
X216455000Y-115226310D01*
X216455000Y-114585750D01*
X216296250Y-114427000D01*
X214947000Y-114427000D01*
X214693000Y-114427000D01*
X213343750Y-114427000D01*
X213185000Y-114585750D01*
X212467440Y-114585750D01*
X212467440Y-113500000D01*
X212442316Y-113373690D01*
X213185000Y-113373690D01*
X213185000Y-114014250D01*
X213343750Y-114173000D01*
X214693000Y-114173000D01*
X214693000Y-113023750D01*
X214947000Y-113023750D01*
X214947000Y-114173000D01*
X216296250Y-114173000D01*
X216455000Y-114014250D01*
X216455000Y-113373690D01*
X216358327Y-113140301D01*
X216179698Y-112961673D01*
X215946309Y-112865000D01*
X215105750Y-112865000D01*
X214947000Y-113023750D01*
X214693000Y-113023750D01*
X214534250Y-112865000D01*
X213693691Y-112865000D01*
X213460302Y-112961673D01*
X213281673Y-113140301D01*
X213185000Y-113373690D01*
X212442316Y-113373690D01*
X212418157Y-113252235D01*
X212277809Y-113042191D01*
X212067765Y-112901843D01*
X211820000Y-112852560D01*
X209820000Y-112852560D01*
X209572235Y-112901843D01*
X209362191Y-113042191D01*
X209221843Y-113252235D01*
X209216849Y-113277342D01*
X209065887Y-113126116D01*
X208556816Y-112914731D01*
X208005602Y-112914250D01*
X207496163Y-113124746D01*
X207106056Y-113514173D01*
X206894671Y-114023244D01*
X206894190Y-114574458D01*
X198882000Y-114574458D01*
X198882000Y-113230680D01*
X199287433Y-112959778D01*
X199645325Y-112424155D01*
X199771000Y-111792345D01*
X199771000Y-111727655D01*
X199645325Y-111095845D01*
X199287433Y-110560222D01*
X198751810Y-110202330D01*
X198508381Y-110153909D01*
X202282720Y-106379570D01*
X202962950Y-106379570D01*
X203320759Y-106308397D01*
X203455560Y-106218326D01*
X203455560Y-106875000D01*
X203504843Y-107122765D01*
X203645191Y-107332809D01*
X203855235Y-107473157D01*
X204103000Y-107522440D01*
X205603000Y-107522440D01*
X205850765Y-107473157D01*
X206060809Y-107332809D01*
X206201157Y-107122765D01*
X206203000Y-107113500D01*
X206204843Y-107122765D01*
X206345191Y-107332809D01*
X206442359Y-107397735D01*
X206427287Y-107434032D01*
X206426913Y-107863484D01*
X206590911Y-108260389D01*
X206894314Y-108564322D01*
X207290932Y-108729013D01*
X207720384Y-108729387D01*
X208117289Y-108565389D01*
X208421222Y-108261986D01*
X208585913Y-107865368D01*
X208586275Y-107449430D01*
X208760809Y-107332809D01*
X208901157Y-107122765D01*
X208920255Y-107026750D01*
X211543710Y-107026750D01*
X211543710Y-107267359D01*
X211640383Y-107500748D01*
X211819011Y-107679377D01*
X212052400Y-107776050D01*
X212793390Y-107776050D01*
X212952140Y-107617300D01*
X212952140Y-106868000D01*
X213206140Y-106868000D01*
X213206140Y-107617300D01*
X213364890Y-107776050D01*
X214105880Y-107776050D01*
X214339269Y-107679377D01*
X214517897Y-107500748D01*
X214614570Y-107267359D01*
X214614570Y-107026750D01*
X214455820Y-106868000D01*
X213206140Y-106868000D01*
X212952140Y-106868000D01*
X211702460Y-106868000D01*
X211543710Y-107026750D01*
X208920255Y-107026750D01*
X208950440Y-106875000D01*
X208950440Y-106793538D01*
X209176430Y-106838490D01*
X210977290Y-106838490D01*
X211225055Y-106789207D01*
X211435099Y-106648859D01*
X211556152Y-106467692D01*
X211702460Y-106614000D01*
X212952140Y-106614000D01*
X212952140Y-106594000D01*
X213206140Y-106594000D01*
X213206140Y-106614000D01*
X214455820Y-106614000D01*
X214614570Y-106455250D01*
X214614570Y-106214641D01*
X214517897Y-105981252D01*
X214339269Y-105802623D01*
X214303969Y-105788001D01*
X214437379Y-105698859D01*
X214577727Y-105488815D01*
X214627010Y-105241050D01*
X214627010Y-104676166D01*
X214742235Y-104753157D01*
X214742235Y-104753157D01*
G37*
X214742235Y-104753157D02*
X214990000Y-104802440D01*
X216109400Y-104802440D01*
X216109400Y-106353300D01*
X216167404Y-106644905D01*
X216316472Y-106868000D01*
X216332585Y-106892115D01*
X216826500Y-107386031D01*
X216826500Y-108864838D01*
X216682276Y-108804951D01*
X216131062Y-108804470D01*
X215621623Y-109014966D01*
X215231516Y-109404393D01*
X215020131Y-109913464D01*
X215019650Y-110464678D01*
X215230146Y-110974117D01*
X215619573Y-111364224D01*
X216128644Y-111575609D01*
X216679858Y-111576090D01*
X216826500Y-111515499D01*
X216826500Y-118666370D01*
X216455000Y-119037870D01*
X216455000Y-118453690D01*
X216358327Y-118220301D01*
X216179698Y-118041673D01*
X215946309Y-117945000D01*
X215105750Y-117945000D01*
X214947000Y-118103750D01*
X214947000Y-119253000D01*
X214967000Y-119253000D01*
X214967000Y-119507000D01*
X214947000Y-119507000D01*
X214947000Y-119527000D01*
X214693000Y-119527000D01*
X214693000Y-119507000D01*
X213343750Y-119507000D01*
X213185000Y-119665750D01*
X213185000Y-119986200D01*
X212467440Y-119986200D01*
X212467440Y-118580000D01*
X212442316Y-118453690D01*
X213185000Y-118453690D01*
X213185000Y-119094250D01*
X213343750Y-119253000D01*
X214693000Y-119253000D01*
X214693000Y-118103750D01*
X214534250Y-117945000D01*
X213693691Y-117945000D01*
X213460302Y-118041673D01*
X213281673Y-118220301D01*
X213185000Y-118453690D01*
X212442316Y-118453690D01*
X212418157Y-118332235D01*
X212277809Y-118122191D01*
X212067765Y-117981843D01*
X211820000Y-117932560D01*
X209820000Y-117932560D01*
X209572235Y-117981843D01*
X209362191Y-118122191D01*
X209289092Y-118231591D01*
X209065887Y-118007996D01*
X208556816Y-117796611D01*
X208005602Y-117796130D01*
X207496163Y-118006626D01*
X207106056Y-118396053D01*
X206894671Y-118905124D01*
X206894190Y-119456338D01*
X207104686Y-119965777D01*
X207494113Y-120355884D01*
X208003184Y-120567269D01*
X208554398Y-120567750D01*
X209063837Y-120357254D01*
X209183965Y-120237336D01*
X209221843Y-120427765D01*
X209362191Y-120637809D01*
X209572235Y-120778157D01*
X209820000Y-120827440D01*
X210740215Y-120827440D01*
X210362011Y-120983711D01*
X210058078Y-121287114D01*
X209893387Y-121683732D01*
X209893144Y-121963300D01*
X200070384Y-121963300D01*
X199970189Y-121720811D01*
X199666786Y-121416878D01*
X199270168Y-121252187D01*
X198840716Y-121251813D01*
X198812000Y-121263678D01*
X198812000Y-119943942D01*
X198964622Y-119791586D01*
X199129313Y-119394968D01*
X199129687Y-118965516D01*
X198965689Y-118568611D01*
X198662286Y-118264678D01*
X198265668Y-118099987D01*
X197836216Y-118099613D01*
X197439311Y-118263611D01*
X197135378Y-118567014D01*
X196970687Y-118963632D01*
X196970671Y-118981486D01*
X196776278Y-118786752D01*
X197924198Y-117638833D01*
X197946505Y-117634396D01*
X198193715Y-117469215D01*
X198658816Y-117004115D01*
X198757834Y-116855923D01*
X198823996Y-116756905D01*
X198882000Y-116465300D01*
X198882000Y-114574458D01*
X206894190Y-114574458D01*
X207104686Y-115083897D01*
X207494113Y-115474004D01*
X208003184Y-115685389D01*
X208554398Y-115685870D01*
X209063837Y-115475374D01*
X209216844Y-115322634D01*
X209221843Y-115347765D01*
X209362191Y-115557809D01*
X209572235Y-115698157D01*
X209820000Y-115747440D01*
X211820000Y-115747440D01*
X212067765Y-115698157D01*
X212277809Y-115557809D01*
X212418157Y-115347765D01*
X212467440Y-115100000D01*
X212467440Y-114585750D01*
X213185000Y-114585750D01*
X213185000Y-115226310D01*
X213281673Y-115459699D01*
X213460302Y-115638327D01*
X213693691Y-115735000D01*
X214534250Y-115735000D01*
X214693000Y-115576250D01*
X214693000Y-114427000D01*
X214947000Y-114427000D01*
X214947000Y-115576250D01*
X215105750Y-115735000D01*
X215946309Y-115735000D01*
X216179698Y-115638327D01*
X216358327Y-115459699D01*
X216455000Y-115226310D01*
X216455000Y-114585750D01*
X216296250Y-114427000D01*
X214947000Y-114427000D01*
X214693000Y-114427000D01*
X213343750Y-114427000D01*
X213185000Y-114585750D01*
X212467440Y-114585750D01*
X212467440Y-113500000D01*
X212442316Y-113373690D01*
X213185000Y-113373690D01*
X213185000Y-114014250D01*
X213343750Y-114173000D01*
X214693000Y-114173000D01*
X214693000Y-113023750D01*
X214947000Y-113023750D01*
X214947000Y-114173000D01*
X216296250Y-114173000D01*
X216455000Y-114014250D01*
X216455000Y-113373690D01*
X216358327Y-113140301D01*
X216179698Y-112961673D01*
X215946309Y-112865000D01*
X215105750Y-112865000D01*
X214947000Y-113023750D01*
X214693000Y-113023750D01*
X214534250Y-112865000D01*
X213693691Y-112865000D01*
X213460302Y-112961673D01*
X213281673Y-113140301D01*
X213185000Y-113373690D01*
X212442316Y-113373690D01*
X212418157Y-113252235D01*
X212277809Y-113042191D01*
X212067765Y-112901843D01*
X211820000Y-112852560D01*
X209820000Y-112852560D01*
X209572235Y-112901843D01*
X209362191Y-113042191D01*
X209221843Y-113252235D01*
X209216849Y-113277342D01*
X209065887Y-113126116D01*
X208556816Y-112914731D01*
X208005602Y-112914250D01*
X207496163Y-113124746D01*
X207106056Y-113514173D01*
X206894671Y-114023244D01*
X206894190Y-114574458D01*
X198882000Y-114574458D01*
X198882000Y-113230680D01*
X199287433Y-112959778D01*
X199645325Y-112424155D01*
X199771000Y-111792345D01*
X199771000Y-111727655D01*
X199645325Y-111095845D01*
X199287433Y-110560222D01*
X198751810Y-110202330D01*
X198508381Y-110153909D01*
X202282720Y-106379570D01*
X202962950Y-106379570D01*
X203320759Y-106308397D01*
X203455560Y-106218326D01*
X203455560Y-106875000D01*
X203504843Y-107122765D01*
X203645191Y-107332809D01*
X203855235Y-107473157D01*
X204103000Y-107522440D01*
X205603000Y-107522440D01*
X205850765Y-107473157D01*
X206060809Y-107332809D01*
X206201157Y-107122765D01*
X206203000Y-107113500D01*
X206204843Y-107122765D01*
X206345191Y-107332809D01*
X206442359Y-107397735D01*
X206427287Y-107434032D01*
X206426913Y-107863484D01*
X206590911Y-108260389D01*
X206894314Y-108564322D01*
X207290932Y-108729013D01*
X207720384Y-108729387D01*
X208117289Y-108565389D01*
X208421222Y-108261986D01*
X208585913Y-107865368D01*
X208586275Y-107449430D01*
X208760809Y-107332809D01*
X208901157Y-107122765D01*
X208920255Y-107026750D01*
X211543710Y-107026750D01*
X211543710Y-107267359D01*
X211640383Y-107500748D01*
X211819011Y-107679377D01*
X212052400Y-107776050D01*
X212793390Y-107776050D01*
X212952140Y-107617300D01*
X212952140Y-106868000D01*
X213206140Y-106868000D01*
X213206140Y-107617300D01*
X213364890Y-107776050D01*
X214105880Y-107776050D01*
X214339269Y-107679377D01*
X214517897Y-107500748D01*
X214614570Y-107267359D01*
X214614570Y-107026750D01*
X214455820Y-106868000D01*
X213206140Y-106868000D01*
X212952140Y-106868000D01*
X211702460Y-106868000D01*
X211543710Y-107026750D01*
X208920255Y-107026750D01*
X208950440Y-106875000D01*
X208950440Y-106793538D01*
X209176430Y-106838490D01*
X210977290Y-106838490D01*
X211225055Y-106789207D01*
X211435099Y-106648859D01*
X211556152Y-106467692D01*
X211702460Y-106614000D01*
X212952140Y-106614000D01*
X212952140Y-106594000D01*
X213206140Y-106594000D01*
X213206140Y-106614000D01*
X214455820Y-106614000D01*
X214614570Y-106455250D01*
X214614570Y-106214641D01*
X214517897Y-105981252D01*
X214339269Y-105802623D01*
X214303969Y-105788001D01*
X214437379Y-105698859D01*
X214577727Y-105488815D01*
X214627010Y-105241050D01*
X214627010Y-104676166D01*
X214742235Y-104753157D01*
G36*
X191859140Y-107306000D02*
X191879140Y-107306000D01*
X191879140Y-107560000D01*
X191859140Y-107560000D01*
X191859140Y-108309300D01*
X192017890Y-108468050D01*
X192758880Y-108468050D01*
X192992269Y-108371377D01*
X193111400Y-108252245D01*
X193111400Y-109686045D01*
X192833816Y-109685803D01*
X192436911Y-109849801D01*
X192132978Y-110153204D01*
X191968287Y-110549822D01*
X191967913Y-110979274D01*
X192131911Y-111376179D01*
X192285600Y-111530136D01*
X192285600Y-111633770D01*
X192134469Y-111784901D01*
X192134774Y-111436306D01*
X191886462Y-110835345D01*
X191427073Y-110375154D01*
X190826547Y-110125794D01*
X190176306Y-110125226D01*
X189575345Y-110373538D01*
X189123095Y-110825000D01*
X186420288Y-110825000D01*
X183779728Y-108184440D01*
X184300000Y-108184440D01*
X184547765Y-108135157D01*
X184757809Y-107994809D01*
X184898157Y-107784765D01*
X184900000Y-107775500D01*
X184901843Y-107784765D01*
X185042191Y-107994809D01*
X185252235Y-108135157D01*
X185500000Y-108184440D01*
X186422192Y-108184440D01*
X186557625Y-108274933D01*
X186613816Y-108286110D01*
X186896300Y-108342301D01*
X186896305Y-108342300D01*
X189843295Y-108342300D01*
X189843300Y-108342301D01*
X190125784Y-108286110D01*
X190181975Y-108274933D01*
X190298026Y-108197391D01*
X190472011Y-108371377D01*
X190705400Y-108468050D01*
X191446390Y-108468050D01*
X191605140Y-108309300D01*
X191605140Y-107560000D01*
X191585140Y-107560000D01*
X191585140Y-107306000D01*
X191605140Y-107306000D01*
X191605140Y-107286000D01*
X191859140Y-107286000D01*
X191859140Y-107306000D01*
X191859140Y-107306000D01*
G37*
X191859140Y-107306000D02*
X191879140Y-107306000D01*
X191879140Y-107560000D01*
X191859140Y-107560000D01*
X191859140Y-108309300D01*
X192017890Y-108468050D01*
X192758880Y-108468050D01*
X192992269Y-108371377D01*
X193111400Y-108252245D01*
X193111400Y-109686045D01*
X192833816Y-109685803D01*
X192436911Y-109849801D01*
X192132978Y-110153204D01*
X191968287Y-110549822D01*
X191967913Y-110979274D01*
X192131911Y-111376179D01*
X192285600Y-111530136D01*
X192285600Y-111633770D01*
X192134469Y-111784901D01*
X192134774Y-111436306D01*
X191886462Y-110835345D01*
X191427073Y-110375154D01*
X190826547Y-110125794D01*
X190176306Y-110125226D01*
X189575345Y-110373538D01*
X189123095Y-110825000D01*
X186420288Y-110825000D01*
X183779728Y-108184440D01*
X184300000Y-108184440D01*
X184547765Y-108135157D01*
X184757809Y-107994809D01*
X184898157Y-107784765D01*
X184900000Y-107775500D01*
X184901843Y-107784765D01*
X185042191Y-107994809D01*
X185252235Y-108135157D01*
X185500000Y-108184440D01*
X186422192Y-108184440D01*
X186557625Y-108274933D01*
X186613816Y-108286110D01*
X186896300Y-108342301D01*
X186896305Y-108342300D01*
X189843295Y-108342300D01*
X189843300Y-108342301D01*
X190125784Y-108286110D01*
X190181975Y-108274933D01*
X190298026Y-108197391D01*
X190472011Y-108371377D01*
X190705400Y-108468050D01*
X191446390Y-108468050D01*
X191605140Y-108309300D01*
X191605140Y-107560000D01*
X191585140Y-107560000D01*
X191585140Y-107306000D01*
X191605140Y-107306000D01*
X191605140Y-107286000D01*
X191859140Y-107286000D01*
X191859140Y-107306000D01*
G36*
X211983320Y-94144900D02*
X213233000Y-94144900D01*
X213233000Y-94124900D01*
X213487000Y-94124900D01*
X213487000Y-94144900D01*
X213507000Y-94144900D01*
X213507000Y-94398900D01*
X213487000Y-94398900D01*
X213487000Y-95148200D01*
X213645750Y-95306950D01*
X214386740Y-95306950D01*
X214522560Y-95250691D01*
X214522560Y-95445000D01*
X214571843Y-95692765D01*
X214712191Y-95902809D01*
X214922235Y-96043157D01*
X215170000Y-96092440D01*
X216109400Y-96092440D01*
X216109400Y-102207560D01*
X214990000Y-102207560D01*
X214742235Y-102256843D01*
X214532191Y-102397191D01*
X214391843Y-102607235D01*
X214364838Y-102743000D01*
X213633800Y-102743000D01*
X213342195Y-102801004D01*
X213094984Y-102966185D01*
X212540285Y-103520885D01*
X212375104Y-103768095D01*
X212370049Y-103793510D01*
X212178710Y-103793510D01*
X211930945Y-103842793D01*
X211720901Y-103983141D01*
X211580553Y-104193185D01*
X211531270Y-104440950D01*
X211531270Y-105077070D01*
X211435099Y-104933141D01*
X211225055Y-104792793D01*
X210977290Y-104743510D01*
X210720490Y-104743510D01*
X210720490Y-103043710D01*
X210671207Y-102795945D01*
X210530859Y-102585901D01*
X210320815Y-102445553D01*
X210073050Y-102396270D01*
X209703140Y-102396270D01*
X209591317Y-102284447D01*
X209721207Y-102090055D01*
X209763614Y-101876860D01*
X210869560Y-101876860D01*
X210869560Y-101981000D01*
X210918843Y-102228765D01*
X211059191Y-102438809D01*
X211269235Y-102579157D01*
X211517000Y-102628440D01*
X213549000Y-102628440D01*
X213796765Y-102579157D01*
X214006809Y-102438809D01*
X214147157Y-102228765D01*
X214196440Y-101981000D01*
X214196440Y-99949000D01*
X214147157Y-99701235D01*
X214006809Y-99491191D01*
X213864128Y-99395854D01*
X214090670Y-99056810D01*
X214216345Y-98425000D01*
X214090670Y-97793190D01*
X213732778Y-97257567D01*
X213197155Y-96899675D01*
X212565345Y-96774000D01*
X212500655Y-96774000D01*
X211868845Y-96899675D01*
X211333222Y-97257567D01*
X211177915Y-97490000D01*
X209768220Y-97490000D01*
X209767226Y-97485000D01*
X210628000Y-97485000D01*
X210779037Y-97454957D01*
X210928214Y-97425324D01*
X210928301Y-97425266D01*
X210928406Y-97425245D01*
X211056237Y-97339832D01*
X211182932Y-97255226D01*
X211748932Y-96689526D01*
X211919165Y-96434899D01*
X211979000Y-96134508D01*
X211956000Y-96018719D01*
X211956000Y-95066405D01*
X212099871Y-95210277D01*
X212333260Y-95306950D01*
X213074250Y-95306950D01*
X213233000Y-95148200D01*
X213233000Y-94398900D01*
X211983320Y-94398900D01*
X211883416Y-94498804D01*
X211732816Y-94273415D01*
X211669921Y-94210521D01*
X211715959Y-94179759D01*
X211837012Y-93998592D01*
X211983320Y-94144900D01*
X211983320Y-94144900D01*
G37*
X211983320Y-94144900D02*
X213233000Y-94144900D01*
X213233000Y-94124900D01*
X213487000Y-94124900D01*
X213487000Y-94144900D01*
X213507000Y-94144900D01*
X213507000Y-94398900D01*
X213487000Y-94398900D01*
X213487000Y-95148200D01*
X213645750Y-95306950D01*
X214386740Y-95306950D01*
X214522560Y-95250691D01*
X214522560Y-95445000D01*
X214571843Y-95692765D01*
X214712191Y-95902809D01*
X214922235Y-96043157D01*
X215170000Y-96092440D01*
X216109400Y-96092440D01*
X216109400Y-102207560D01*
X214990000Y-102207560D01*
X214742235Y-102256843D01*
X214532191Y-102397191D01*
X214391843Y-102607235D01*
X214364838Y-102743000D01*
X213633800Y-102743000D01*
X213342195Y-102801004D01*
X213094984Y-102966185D01*
X212540285Y-103520885D01*
X212375104Y-103768095D01*
X212370049Y-103793510D01*
X212178710Y-103793510D01*
X211930945Y-103842793D01*
X211720901Y-103983141D01*
X211580553Y-104193185D01*
X211531270Y-104440950D01*
X211531270Y-105077070D01*
X211435099Y-104933141D01*
X211225055Y-104792793D01*
X210977290Y-104743510D01*
X210720490Y-104743510D01*
X210720490Y-103043710D01*
X210671207Y-102795945D01*
X210530859Y-102585901D01*
X210320815Y-102445553D01*
X210073050Y-102396270D01*
X209703140Y-102396270D01*
X209591317Y-102284447D01*
X209721207Y-102090055D01*
X209763614Y-101876860D01*
X210869560Y-101876860D01*
X210869560Y-101981000D01*
X210918843Y-102228765D01*
X211059191Y-102438809D01*
X211269235Y-102579157D01*
X211517000Y-102628440D01*
X213549000Y-102628440D01*
X213796765Y-102579157D01*
X214006809Y-102438809D01*
X214147157Y-102228765D01*
X214196440Y-101981000D01*
X214196440Y-99949000D01*
X214147157Y-99701235D01*
X214006809Y-99491191D01*
X213864128Y-99395854D01*
X214090670Y-99056810D01*
X214216345Y-98425000D01*
X214090670Y-97793190D01*
X213732778Y-97257567D01*
X213197155Y-96899675D01*
X212565345Y-96774000D01*
X212500655Y-96774000D01*
X211868845Y-96899675D01*
X211333222Y-97257567D01*
X211177915Y-97490000D01*
X209768220Y-97490000D01*
X209767226Y-97485000D01*
X210628000Y-97485000D01*
X210779037Y-97454957D01*
X210928214Y-97425324D01*
X210928301Y-97425266D01*
X210928406Y-97425245D01*
X211056237Y-97339832D01*
X211182932Y-97255226D01*
X211748932Y-96689526D01*
X211919165Y-96434899D01*
X211979000Y-96134508D01*
X211956000Y-96018719D01*
X211956000Y-95066405D01*
X212099871Y-95210277D01*
X212333260Y-95306950D01*
X213074250Y-95306950D01*
X213233000Y-95148200D01*
X213233000Y-94398900D01*
X211983320Y-94398900D01*
X211883416Y-94498804D01*
X211732816Y-94273415D01*
X211669921Y-94210521D01*
X211715959Y-94179759D01*
X211837012Y-93998592D01*
X211983320Y-94144900D01*
G36*
X193647560Y-93380000D02*
X193696843Y-93627765D01*
X193837191Y-93837809D01*
X194047235Y-93978157D01*
X194056500Y-93980000D01*
X194047235Y-93981843D01*
X193837191Y-94122191D01*
X193696843Y-94332235D01*
X193647560Y-94580000D01*
X193647560Y-96080000D01*
X193696843Y-96327765D01*
X193781417Y-96454338D01*
X192923290Y-95596210D01*
X192864849Y-95557161D01*
X192805623Y-95517588D01*
X192992269Y-95440277D01*
X193170897Y-95261648D01*
X193267570Y-95028259D01*
X193267570Y-94787650D01*
X193108820Y-94628900D01*
X191859140Y-94628900D01*
X191859140Y-94648900D01*
X191605140Y-94648900D01*
X191605140Y-94628900D01*
X191585140Y-94628900D01*
X191585140Y-94374900D01*
X191605140Y-94374900D01*
X191605140Y-94354900D01*
X191859140Y-94354900D01*
X191859140Y-94374900D01*
X193108820Y-94374900D01*
X193267570Y-94216150D01*
X193267570Y-93975541D01*
X193170897Y-93742152D01*
X192992269Y-93563523D01*
X192956969Y-93548901D01*
X193090379Y-93459759D01*
X193154430Y-93363900D01*
X193647560Y-93363900D01*
X193647560Y-93380000D01*
X193647560Y-93380000D01*
G37*
X193647560Y-93380000D02*
X193696843Y-93627765D01*
X193837191Y-93837809D01*
X194047235Y-93978157D01*
X194056500Y-93980000D01*
X194047235Y-93981843D01*
X193837191Y-94122191D01*
X193696843Y-94332235D01*
X193647560Y-94580000D01*
X193647560Y-96080000D01*
X193696843Y-96327765D01*
X193781417Y-96454338D01*
X192923290Y-95596210D01*
X192864849Y-95557161D01*
X192805623Y-95517588D01*
X192992269Y-95440277D01*
X193170897Y-95261648D01*
X193267570Y-95028259D01*
X193267570Y-94787650D01*
X193108820Y-94628900D01*
X191859140Y-94628900D01*
X191859140Y-94648900D01*
X191605140Y-94648900D01*
X191605140Y-94628900D01*
X191585140Y-94628900D01*
X191585140Y-94374900D01*
X191605140Y-94374900D01*
X191605140Y-94354900D01*
X191859140Y-94354900D01*
X191859140Y-94374900D01*
X193108820Y-94374900D01*
X193267570Y-94216150D01*
X193267570Y-93975541D01*
X193170897Y-93742152D01*
X192992269Y-93563523D01*
X192956969Y-93548901D01*
X193090379Y-93459759D01*
X193154430Y-93363900D01*
X193647560Y-93363900D01*
X193647560Y-93380000D01*
M02*
