M48
INCH,TZ
T1C0.024
T2C0.025
T3C0.031
T4C0.032
T5C0.039
T6C0.040
T7C0.047
T8C0.050
T9C0.051
T10C0.059
T11C0.118
%
G90
G05
T1
X60500Y-40500
X60500Y-41000
X60500Y-41500
T2
X75193Y-46909
X76003Y-43608
X76006Y-46329
X76173Y-42052
X77189Y-47085
X77277Y-49064
X77330Y-42956
X77390Y-47764
X77657Y-45710
X77972Y-46921
X77986Y-51207
X78034Y-51910
X78242Y-50806
X78368Y-48162
X78776Y-40867
X79447Y-37308
X81215Y-38268
X81591Y-35923
X81696Y-42382
X83060Y-47992
X84345Y-47986
T3
X58500Y-43500
X59484Y-43500
X65500Y-36000
X65500Y-37516
X65500Y-38500
X65500Y-39750
X65500Y-40734
X67469Y-36000
X89750Y-37000
X89750Y-38000
X89750Y-39000
X91984Y-57031
X91984Y-58016
X92750Y-37000
X92750Y-38000
X92750Y-39000
T4
X82000Y-45000
X82000Y-46922
T5
X59000Y-47250
X59000Y-51250
X60250Y-47250
X60250Y-51250
X62000Y-40500
X63970Y-49248
X63970Y-50980
X64266Y-42161
X65250Y-42161
X66234Y-42161
X66530Y-49248
X66530Y-50980
X67500Y-39000
X69089Y-45016
X69089Y-46000
X69089Y-46984
X71000Y-44000
X75000Y-44000
X86970Y-49248
X86970Y-50980
X87266Y-42161
X88250Y-42161
X89234Y-42161
X89530Y-49248
X89530Y-50980
X92089Y-45016
X92089Y-46000
X92089Y-46984
X94750Y-47750
X94750Y-48750
T6
X69250Y-56500
X69250Y-57500
X69971Y-48987
X69971Y-49987
X70250Y-56500
X70250Y-57500
X70777Y-38791
X70777Y-39791
X71250Y-56500
X71250Y-57500
X71661Y-48987
X71661Y-49987
X72250Y-56500
X72250Y-57500
X73250Y-56500
X73250Y-57500
X75500Y-38800
X75500Y-39800
X76500Y-56500
X76500Y-57500
X77000Y-44000
X78000Y-44000
X79250Y-38750
X79250Y-39750
X83000Y-54500
X83000Y-55500
X83000Y-56500
X83674Y-38750
X83674Y-39750
X84000Y-54500
X84000Y-55500
X84000Y-56500
X86500Y-37000
X86500Y-38000
X87000Y-55500
X87000Y-56500
X88500Y-54750
X88500Y-55750
X88500Y-56750
X88500Y-57750
X89500Y-54750
X89500Y-55750
X89500Y-56750
X89500Y-57750
X94000Y-41050
X95000Y-41050
T7
X64622Y-56984
X66000Y-56000
X66000Y-57968
T8
X63500Y-40500
X67500Y-37500
T9
X61016Y-37200
X62984Y-37200
T10
X62199Y-43382
X62199Y-48618
X68301Y-43382
X68301Y-48618
X85199Y-43382
X85199Y-48618
X91301Y-43382
X91301Y-48618
T11
X58661Y-36614
X58661Y-57500
X94882Y-36614
X94882Y-57480
T0
M30
