G04 #@! TF.GenerationSoftware,KiCad,Pcbnew,(2017-03-02 revision 906ee77db)-makepkg*
G04 #@! TF.CreationDate,2017-03-05T17:57:52+01:00*
G04 #@! TF.ProjectId,FTController,4654436F6E74726F6C6C65722E6B6963,1.0*
G04 #@! TF.FileFunction,Soldermask,Top*
G04 #@! TF.FilePolarity,Negative*
%FSLAX46Y46*%
G04 Gerber Fmt 4.6, Leading zero omitted, Abs format (unit mm)*
G04 Created by KiCad (PCBNEW (2017-03-02 revision 906ee77db)-makepkg) date 03/05/17 17:57:52*
%MOMM*%
%LPD*%
G01*
G04 APERTURE LIST*
%ADD10C,0.100000*%
%ADD11C,2.398980*%
%ADD12C,1.901140*%
%ADD13R,1.650000X1.900000*%
%ADD14R,1.900000X1.650000*%
%ADD15R,2.398980X2.398980*%
%ADD16C,2.400000*%
%ADD17R,2.400000X2.400000*%
%ADD18R,2.127200X2.127200*%
%ADD19O,2.127200X2.127200*%
%ADD20R,2.200860X1.200100*%
%ADD21R,1.200100X2.200860*%
%ADD22O,2.700000X2.000000*%
%ADD23C,1.700000*%
%ADD24R,1.700000X1.700000*%
%ADD25O,2.432000X2.432000*%
%ADD26R,2.432000X2.432000*%
%ADD27O,1.901140X1.299160*%
%ADD28C,3.400000*%
%ADD29C,2.899360*%
%ADD30R,1.700000X1.900000*%
%ADD31R,1.900000X1.700000*%
%ADD32R,2.000000X0.950000*%
%ADD33R,0.950000X2.000000*%
%ADD34C,2.900000*%
G04 APERTURE END LIST*
D10*
D11*
X227406200Y-129489200D03*
X220903800Y-129489200D03*
X227406200Y-125089920D03*
X220903800Y-125089920D03*
D12*
X216405460Y-123489720D03*
X231904540Y-123489720D03*
X216405460Y-110190280D03*
X231904540Y-110190280D03*
D11*
X226654360Y-107088940D03*
X221655640Y-107088940D03*
X224155000Y-107088940D03*
X233906060Y-119339360D03*
X233906060Y-116840000D03*
X233906060Y-114340640D03*
D13*
X149860000Y-105370000D03*
X149860000Y-102870000D03*
X186055000Y-116245000D03*
X186055000Y-118745000D03*
D14*
X186095000Y-121285000D03*
X188595000Y-121285000D03*
D11*
X161290000Y-102870000D03*
D15*
X157480000Y-102870000D03*
D16*
X240665000Y-123825000D03*
D17*
X240665000Y-121285000D03*
D18*
X210820000Y-138430000D03*
D19*
X213360000Y-138430000D03*
X210820000Y-140970000D03*
X213360000Y-140970000D03*
X210820000Y-143510000D03*
X213360000Y-143510000D03*
D20*
X204066140Y-92710000D03*
X201063860Y-93660000D03*
X201063860Y-91760000D03*
D21*
X206055000Y-95422760D03*
X204155000Y-95422760D03*
X205105000Y-98425040D03*
X208915000Y-98425040D03*
X207965000Y-95422760D03*
X209865000Y-95422760D03*
X204155000Y-103967140D03*
X206055000Y-103967140D03*
X205105000Y-100964860D03*
X208915000Y-100964860D03*
X209865000Y-103967140D03*
X207965000Y-103967140D03*
D20*
X201063860Y-105730000D03*
X201063860Y-107630000D03*
X204066140Y-106680000D03*
X182313140Y-92813500D03*
X179310860Y-93763500D03*
X179310860Y-91863500D03*
D21*
X183583000Y-98528440D03*
X182633000Y-95526160D03*
X184533000Y-95526160D03*
X188343000Y-95526160D03*
X186443000Y-95526160D03*
X187393000Y-98528440D03*
X182633000Y-104071140D03*
X184533000Y-104071140D03*
X183583000Y-101068860D03*
X186443000Y-104071140D03*
X188343000Y-104071140D03*
X187393000Y-101068860D03*
D20*
X182313140Y-105917000D03*
X179310860Y-106867000D03*
X179310860Y-104967000D03*
D22*
X227965000Y-93980000D03*
X227965000Y-96520000D03*
X227965000Y-99060000D03*
X235585000Y-99060000D03*
X235585000Y-96520000D03*
X235585000Y-93980000D03*
D11*
X175486060Y-114340640D03*
X175486060Y-116840000D03*
X175486060Y-119339360D03*
X165735000Y-107088940D03*
X163235640Y-107088940D03*
X168234360Y-107088940D03*
D12*
X173484540Y-110190280D03*
X157985460Y-110190280D03*
X173484540Y-123489720D03*
X157985460Y-123489720D03*
D11*
X162483800Y-125089920D03*
X168986200Y-125089920D03*
X162483800Y-129489200D03*
X168986200Y-129489200D03*
D12*
X208280000Y-114300060D03*
X208280000Y-119181940D03*
D23*
X166370000Y-97790000D03*
D24*
X166370000Y-95290000D03*
D23*
X148590000Y-110490000D03*
D24*
X151090000Y-110490000D03*
D25*
X198120000Y-111760000D03*
D26*
X195580000Y-111760000D03*
X219710000Y-93980000D03*
D25*
X219710000Y-96520000D03*
D26*
X241300000Y-104267000D03*
D25*
X238760000Y-104267000D03*
D26*
X201295000Y-98425000D03*
D25*
X201295000Y-100965000D03*
X212533000Y-98425000D03*
D26*
X212533000Y-100965000D03*
D25*
X179773000Y-101068500D03*
D26*
X179773000Y-98528500D03*
X191770000Y-98552000D03*
D25*
X191770000Y-101092000D03*
D11*
X149860000Y-120015000D03*
X149860000Y-130175000D03*
X153035000Y-120015000D03*
X153035000Y-130175000D03*
X190500000Y-111760000D03*
X180340000Y-111760000D03*
D27*
X153670000Y-104140000D03*
X153670000Y-102870000D03*
X153670000Y-105410000D03*
D28*
X149000000Y-93000000D03*
X241000000Y-146000000D03*
X241000000Y-93000000D03*
X149000000Y-146050000D03*
D18*
X186055000Y-143510000D03*
D19*
X186055000Y-146050000D03*
X183515000Y-143510000D03*
X183515000Y-146050000D03*
X180975000Y-143510000D03*
X180975000Y-146050000D03*
X178435000Y-143510000D03*
X178435000Y-146050000D03*
X175895000Y-143510000D03*
X175895000Y-146050000D03*
D26*
X194310000Y-146050000D03*
D25*
X194310000Y-143510000D03*
D29*
X164139880Y-144739640D03*
X167640000Y-142240280D03*
X167640000Y-147239000D03*
D30*
X198120000Y-92075000D03*
X198120000Y-94775000D03*
D31*
X206295000Y-92690000D03*
X208995000Y-92690000D03*
X208995000Y-106045000D03*
X206295000Y-106045000D03*
D30*
X198120000Y-108030000D03*
X198120000Y-105330000D03*
X175815000Y-94695000D03*
X175815000Y-91995000D03*
D31*
X187493000Y-92178500D03*
X184793000Y-92178500D03*
X184753000Y-106168000D03*
X187453000Y-106168000D03*
D30*
X176530000Y-107475000D03*
X176530000Y-104775000D03*
X196850000Y-132080000D03*
X196850000Y-134780000D03*
D32*
X201100000Y-124720000D03*
X201100000Y-123920000D03*
X201100000Y-123120000D03*
X201100000Y-122320000D03*
X201100000Y-121520000D03*
X201100000Y-120720000D03*
X201100000Y-119920000D03*
X201100000Y-119120000D03*
D33*
X199650000Y-117670000D03*
X198850000Y-117670000D03*
X198050000Y-117670000D03*
X197250000Y-117670000D03*
X196450000Y-117670000D03*
X195650000Y-117670000D03*
X194850000Y-117670000D03*
X194050000Y-117670000D03*
D32*
X192600000Y-119120000D03*
X192600000Y-119920000D03*
X192600000Y-120720000D03*
X192600000Y-121520000D03*
X192600000Y-122320000D03*
X192600000Y-123120000D03*
X192600000Y-123920000D03*
X192600000Y-124720000D03*
D33*
X194050000Y-126170000D03*
X194850000Y-126170000D03*
X195650000Y-126170000D03*
X196450000Y-126170000D03*
X197250000Y-126170000D03*
X198050000Y-126170000D03*
X198850000Y-126170000D03*
X199650000Y-126170000D03*
D24*
X233640000Y-147360000D03*
D23*
X233640000Y-144860000D03*
D18*
X224790000Y-146685000D03*
D19*
X227330000Y-146685000D03*
X224790000Y-144145000D03*
X227330000Y-144145000D03*
X224790000Y-141605000D03*
X227330000Y-141605000D03*
X224790000Y-139065000D03*
X227330000Y-139065000D03*
D26*
X220980000Y-140970000D03*
D25*
X220980000Y-143510000D03*
D26*
X177726000Y-124426000D03*
D25*
X177726000Y-126966000D03*
X182018000Y-126966000D03*
D26*
X182018000Y-124426000D03*
D24*
X166370000Y-103465000D03*
D23*
X166370000Y-100965000D03*
D34*
X159980000Y-94488000D03*
X154980000Y-94488000D03*
D11*
X171450000Y-95250000D03*
D15*
X171450000Y-99060000D03*
D24*
X171370000Y-91440000D03*
D23*
X166370000Y-91440000D03*
M02*
